G04 #@! TF.GenerationSoftware,KiCad,Pcbnew,5.1.4-e60b266~84~ubuntu18.04.1*
G04 #@! TF.CreationDate,2019-09-18T22:30:48+03:00*
G04 #@! TF.ProjectId,spotweld,73706f74-7765-46c6-942e-6b696361645f,rev?*
G04 #@! TF.SameCoordinates,Original*
G04 #@! TF.FileFunction,Legend,Bot*
G04 #@! TF.FilePolarity,Positive*
%FSLAX46Y46*%
G04 Gerber Fmt 4.6, Leading zero omitted, Abs format (unit mm)*
G04 Created by KiCad (PCBNEW 5.1.4-e60b266~84~ubuntu18.04.1) date 2019-09-18 22:30:48*
%MOMM*%
%LPD*%
G04 APERTURE LIST*
%ADD10C,0.120000*%
%ADD11C,0.150000*%
G04 APERTURE END LIST*
D10*
X181154000Y-87459078D02*
X181154000Y-86941922D01*
X182574000Y-87459078D02*
X182574000Y-86941922D01*
X170486000Y-87332078D02*
X170486000Y-86814922D01*
X171906000Y-87332078D02*
X171906000Y-86814922D01*
X159818000Y-87380578D02*
X159818000Y-86863422D01*
X161238000Y-87380578D02*
X161238000Y-86863422D01*
X149150000Y-87302078D02*
X149150000Y-86784922D01*
X150570000Y-87302078D02*
X150570000Y-86784922D01*
X138482000Y-87302078D02*
X138482000Y-86784922D01*
X139902000Y-87302078D02*
X139902000Y-86784922D01*
X127814000Y-87302078D02*
X127814000Y-86784922D01*
X129234000Y-87302078D02*
X129234000Y-86784922D01*
X117146000Y-87302078D02*
X117146000Y-86784922D01*
X118566000Y-87302078D02*
X118566000Y-86784922D01*
X106478000Y-87302078D02*
X106478000Y-86784922D01*
X107898000Y-87302078D02*
X107898000Y-86784922D01*
X119199922Y-102160000D02*
X119717078Y-102160000D01*
X119199922Y-103580000D02*
X119717078Y-103580000D01*
X116915000Y-103373422D02*
X116915000Y-103890578D01*
X115495000Y-103373422D02*
X115495000Y-103890578D01*
X181854000Y-77486000D02*
X186154000Y-77486000D01*
X181854000Y-79486000D02*
X181854000Y-77486000D01*
X186154000Y-79486000D02*
X181854000Y-79486000D01*
X171186000Y-77486000D02*
X175486000Y-77486000D01*
X171186000Y-79486000D02*
X171186000Y-77486000D01*
X175486000Y-79486000D02*
X171186000Y-79486000D01*
X160518000Y-77486000D02*
X164818000Y-77486000D01*
X160518000Y-79486000D02*
X160518000Y-77486000D01*
X164818000Y-79486000D02*
X160518000Y-79486000D01*
X150358000Y-77486000D02*
X154658000Y-77486000D01*
X150358000Y-79486000D02*
X150358000Y-77486000D01*
X154658000Y-79486000D02*
X150358000Y-79486000D01*
X139690000Y-77486000D02*
X143990000Y-77486000D01*
X139690000Y-79486000D02*
X139690000Y-77486000D01*
X143990000Y-79486000D02*
X139690000Y-79486000D01*
X128514000Y-77486000D02*
X132814000Y-77486000D01*
X128514000Y-79486000D02*
X128514000Y-77486000D01*
X132814000Y-79486000D02*
X128514000Y-79486000D01*
X117846000Y-77486000D02*
X122146000Y-77486000D01*
X117846000Y-79486000D02*
X117846000Y-77486000D01*
X122146000Y-79486000D02*
X117846000Y-79486000D01*
X107178000Y-77486000D02*
X111478000Y-77486000D01*
X107178000Y-79486000D02*
X107178000Y-77486000D01*
X111478000Y-79486000D02*
X107178000Y-79486000D01*
X183632000Y-85614000D02*
X187932000Y-85614000D01*
X183632000Y-87614000D02*
X183632000Y-85614000D01*
X187932000Y-87614000D02*
X183632000Y-87614000D01*
D11*
X182379857Y-90114380D02*
X182713190Y-89638190D01*
X182951285Y-90114380D02*
X182951285Y-89114380D01*
X182570333Y-89114380D01*
X182475095Y-89162000D01*
X182427476Y-89209619D01*
X182379857Y-89304857D01*
X182379857Y-89447714D01*
X182427476Y-89542952D01*
X182475095Y-89590571D01*
X182570333Y-89638190D01*
X182951285Y-89638190D01*
X181427476Y-90114380D02*
X181998904Y-90114380D01*
X181713190Y-90114380D02*
X181713190Y-89114380D01*
X181808428Y-89257238D01*
X181903666Y-89352476D01*
X181998904Y-89400095D01*
X181046523Y-89209619D02*
X180998904Y-89162000D01*
X180903666Y-89114380D01*
X180665571Y-89114380D01*
X180570333Y-89162000D01*
X180522714Y-89209619D01*
X180475095Y-89304857D01*
X180475095Y-89400095D01*
X180522714Y-89542952D01*
X181094142Y-90114380D01*
X180475095Y-90114380D01*
X173298380Y-86430642D02*
X172822190Y-86097309D01*
X173298380Y-85859214D02*
X172298380Y-85859214D01*
X172298380Y-86240166D01*
X172346000Y-86335404D01*
X172393619Y-86383023D01*
X172488857Y-86430642D01*
X172631714Y-86430642D01*
X172726952Y-86383023D01*
X172774571Y-86335404D01*
X172822190Y-86240166D01*
X172822190Y-85859214D01*
X173298380Y-87383023D02*
X173298380Y-86811595D01*
X173298380Y-87097309D02*
X172298380Y-87097309D01*
X172441238Y-87002071D01*
X172536476Y-86906833D01*
X172584095Y-86811595D01*
X173298380Y-88335404D02*
X173298380Y-87763976D01*
X173298380Y-88049690D02*
X172298380Y-88049690D01*
X172441238Y-87954452D01*
X172536476Y-87859214D01*
X172584095Y-87763976D01*
X162630380Y-86479142D02*
X162154190Y-86145809D01*
X162630380Y-85907714D02*
X161630380Y-85907714D01*
X161630380Y-86288666D01*
X161678000Y-86383904D01*
X161725619Y-86431523D01*
X161820857Y-86479142D01*
X161963714Y-86479142D01*
X162058952Y-86431523D01*
X162106571Y-86383904D01*
X162154190Y-86288666D01*
X162154190Y-85907714D01*
X162630380Y-87431523D02*
X162630380Y-86860095D01*
X162630380Y-87145809D02*
X161630380Y-87145809D01*
X161773238Y-87050571D01*
X161868476Y-86955333D01*
X161916095Y-86860095D01*
X161630380Y-88050571D02*
X161630380Y-88145809D01*
X161678000Y-88241047D01*
X161725619Y-88288666D01*
X161820857Y-88336285D01*
X162011333Y-88383904D01*
X162249428Y-88383904D01*
X162439904Y-88336285D01*
X162535142Y-88288666D01*
X162582761Y-88241047D01*
X162630380Y-88145809D01*
X162630380Y-88050571D01*
X162582761Y-87955333D01*
X162535142Y-87907714D01*
X162439904Y-87860095D01*
X162249428Y-87812476D01*
X162011333Y-87812476D01*
X161820857Y-87860095D01*
X161725619Y-87907714D01*
X161678000Y-87955333D01*
X161630380Y-88050571D01*
X151962380Y-86876833D02*
X151486190Y-86543500D01*
X151962380Y-86305404D02*
X150962380Y-86305404D01*
X150962380Y-86686357D01*
X151010000Y-86781595D01*
X151057619Y-86829214D01*
X151152857Y-86876833D01*
X151295714Y-86876833D01*
X151390952Y-86829214D01*
X151438571Y-86781595D01*
X151486190Y-86686357D01*
X151486190Y-86305404D01*
X151962380Y-87353023D02*
X151962380Y-87543500D01*
X151914761Y-87638738D01*
X151867142Y-87686357D01*
X151724285Y-87781595D01*
X151533809Y-87829214D01*
X151152857Y-87829214D01*
X151057619Y-87781595D01*
X151010000Y-87733976D01*
X150962380Y-87638738D01*
X150962380Y-87448261D01*
X151010000Y-87353023D01*
X151057619Y-87305404D01*
X151152857Y-87257785D01*
X151390952Y-87257785D01*
X151486190Y-87305404D01*
X151533809Y-87353023D01*
X151581428Y-87448261D01*
X151581428Y-87638738D01*
X151533809Y-87733976D01*
X151486190Y-87781595D01*
X151390952Y-87829214D01*
X141294380Y-86876833D02*
X140818190Y-86543500D01*
X141294380Y-86305404D02*
X140294380Y-86305404D01*
X140294380Y-86686357D01*
X140342000Y-86781595D01*
X140389619Y-86829214D01*
X140484857Y-86876833D01*
X140627714Y-86876833D01*
X140722952Y-86829214D01*
X140770571Y-86781595D01*
X140818190Y-86686357D01*
X140818190Y-86305404D01*
X140722952Y-87448261D02*
X140675333Y-87353023D01*
X140627714Y-87305404D01*
X140532476Y-87257785D01*
X140484857Y-87257785D01*
X140389619Y-87305404D01*
X140342000Y-87353023D01*
X140294380Y-87448261D01*
X140294380Y-87638738D01*
X140342000Y-87733976D01*
X140389619Y-87781595D01*
X140484857Y-87829214D01*
X140532476Y-87829214D01*
X140627714Y-87781595D01*
X140675333Y-87733976D01*
X140722952Y-87638738D01*
X140722952Y-87448261D01*
X140770571Y-87353023D01*
X140818190Y-87305404D01*
X140913428Y-87257785D01*
X141103904Y-87257785D01*
X141199142Y-87305404D01*
X141246761Y-87353023D01*
X141294380Y-87448261D01*
X141294380Y-87638738D01*
X141246761Y-87733976D01*
X141199142Y-87781595D01*
X141103904Y-87829214D01*
X140913428Y-87829214D01*
X140818190Y-87781595D01*
X140770571Y-87733976D01*
X140722952Y-87638738D01*
X130626380Y-86876833D02*
X130150190Y-86543500D01*
X130626380Y-86305404D02*
X129626380Y-86305404D01*
X129626380Y-86686357D01*
X129674000Y-86781595D01*
X129721619Y-86829214D01*
X129816857Y-86876833D01*
X129959714Y-86876833D01*
X130054952Y-86829214D01*
X130102571Y-86781595D01*
X130150190Y-86686357D01*
X130150190Y-86305404D01*
X129626380Y-87210166D02*
X129626380Y-87876833D01*
X130626380Y-87448261D01*
X119958380Y-86876833D02*
X119482190Y-86543500D01*
X119958380Y-86305404D02*
X118958380Y-86305404D01*
X118958380Y-86686357D01*
X119006000Y-86781595D01*
X119053619Y-86829214D01*
X119148857Y-86876833D01*
X119291714Y-86876833D01*
X119386952Y-86829214D01*
X119434571Y-86781595D01*
X119482190Y-86686357D01*
X119482190Y-86305404D01*
X118958380Y-87733976D02*
X118958380Y-87543500D01*
X119006000Y-87448261D01*
X119053619Y-87400642D01*
X119196476Y-87305404D01*
X119386952Y-87257785D01*
X119767904Y-87257785D01*
X119863142Y-87305404D01*
X119910761Y-87353023D01*
X119958380Y-87448261D01*
X119958380Y-87638738D01*
X119910761Y-87733976D01*
X119863142Y-87781595D01*
X119767904Y-87829214D01*
X119529809Y-87829214D01*
X119434571Y-87781595D01*
X119386952Y-87733976D01*
X119339333Y-87638738D01*
X119339333Y-87448261D01*
X119386952Y-87353023D01*
X119434571Y-87305404D01*
X119529809Y-87257785D01*
X109545380Y-87082333D02*
X109069190Y-86749000D01*
X109545380Y-86510904D02*
X108545380Y-86510904D01*
X108545380Y-86891857D01*
X108593000Y-86987095D01*
X108640619Y-87034714D01*
X108735857Y-87082333D01*
X108878714Y-87082333D01*
X108973952Y-87034714D01*
X109021571Y-86987095D01*
X109069190Y-86891857D01*
X109069190Y-86510904D01*
X108545380Y-87987095D02*
X108545380Y-87510904D01*
X109021571Y-87463285D01*
X108973952Y-87510904D01*
X108926333Y-87606142D01*
X108926333Y-87844238D01*
X108973952Y-87939476D01*
X109021571Y-87987095D01*
X109116809Y-88034714D01*
X109354904Y-88034714D01*
X109450142Y-87987095D01*
X109497761Y-87939476D01*
X109545380Y-87844238D01*
X109545380Y-87606142D01*
X109497761Y-87510904D01*
X109450142Y-87463285D01*
X119625166Y-104972380D02*
X119958500Y-104496190D01*
X120196595Y-104972380D02*
X120196595Y-103972380D01*
X119815642Y-103972380D01*
X119720404Y-104020000D01*
X119672785Y-104067619D01*
X119625166Y-104162857D01*
X119625166Y-104305714D01*
X119672785Y-104400952D01*
X119720404Y-104448571D01*
X119815642Y-104496190D01*
X120196595Y-104496190D01*
X118768023Y-104305714D02*
X118768023Y-104972380D01*
X119006119Y-103924761D02*
X119244214Y-104639047D01*
X118625166Y-104639047D01*
X115007380Y-103465333D02*
X114531190Y-103132000D01*
X115007380Y-102893904D02*
X114007380Y-102893904D01*
X114007380Y-103274857D01*
X114055000Y-103370095D01*
X114102619Y-103417714D01*
X114197857Y-103465333D01*
X114340714Y-103465333D01*
X114435952Y-103417714D01*
X114483571Y-103370095D01*
X114531190Y-103274857D01*
X114531190Y-102893904D01*
X114007380Y-103798666D02*
X114007380Y-104417714D01*
X114388333Y-104084380D01*
X114388333Y-104227238D01*
X114435952Y-104322476D01*
X114483571Y-104370095D01*
X114578809Y-104417714D01*
X114816904Y-104417714D01*
X114912142Y-104370095D01*
X114959761Y-104322476D01*
X115007380Y-104227238D01*
X115007380Y-103941523D01*
X114959761Y-103846285D01*
X114912142Y-103798666D01*
X185364285Y-80716380D02*
X185364285Y-79716380D01*
X185126190Y-79716380D01*
X184983333Y-79764000D01*
X184888095Y-79859238D01*
X184840476Y-79954476D01*
X184792857Y-80144952D01*
X184792857Y-80287809D01*
X184840476Y-80478285D01*
X184888095Y-80573523D01*
X184983333Y-80668761D01*
X185126190Y-80716380D01*
X185364285Y-80716380D01*
X183840476Y-80716380D02*
X184411904Y-80716380D01*
X184126190Y-80716380D02*
X184126190Y-79716380D01*
X184221428Y-79859238D01*
X184316666Y-79954476D01*
X184411904Y-80002095D01*
X182888095Y-80716380D02*
X183459523Y-80716380D01*
X183173809Y-80716380D02*
X183173809Y-79716380D01*
X183269047Y-79859238D01*
X183364285Y-79954476D01*
X183459523Y-80002095D01*
X174950285Y-80938380D02*
X174950285Y-79938380D01*
X174712190Y-79938380D01*
X174569333Y-79986000D01*
X174474095Y-80081238D01*
X174426476Y-80176476D01*
X174378857Y-80366952D01*
X174378857Y-80509809D01*
X174426476Y-80700285D01*
X174474095Y-80795523D01*
X174569333Y-80890761D01*
X174712190Y-80938380D01*
X174950285Y-80938380D01*
X173426476Y-80938380D02*
X173997904Y-80938380D01*
X173712190Y-80938380D02*
X173712190Y-79938380D01*
X173807428Y-80081238D01*
X173902666Y-80176476D01*
X173997904Y-80224095D01*
X172807428Y-79938380D02*
X172712190Y-79938380D01*
X172616952Y-79986000D01*
X172569333Y-80033619D01*
X172521714Y-80128857D01*
X172474095Y-80319333D01*
X172474095Y-80557428D01*
X172521714Y-80747904D01*
X172569333Y-80843142D01*
X172616952Y-80890761D01*
X172712190Y-80938380D01*
X172807428Y-80938380D01*
X172902666Y-80890761D01*
X172950285Y-80843142D01*
X172997904Y-80747904D01*
X173045523Y-80557428D01*
X173045523Y-80319333D01*
X172997904Y-80128857D01*
X172950285Y-80033619D01*
X172902666Y-79986000D01*
X172807428Y-79938380D01*
X163806095Y-80938380D02*
X163806095Y-79938380D01*
X163568000Y-79938380D01*
X163425142Y-79986000D01*
X163329904Y-80081238D01*
X163282285Y-80176476D01*
X163234666Y-80366952D01*
X163234666Y-80509809D01*
X163282285Y-80700285D01*
X163329904Y-80795523D01*
X163425142Y-80890761D01*
X163568000Y-80938380D01*
X163806095Y-80938380D01*
X162758476Y-80938380D02*
X162568000Y-80938380D01*
X162472761Y-80890761D01*
X162425142Y-80843142D01*
X162329904Y-80700285D01*
X162282285Y-80509809D01*
X162282285Y-80128857D01*
X162329904Y-80033619D01*
X162377523Y-79986000D01*
X162472761Y-79938380D01*
X162663238Y-79938380D01*
X162758476Y-79986000D01*
X162806095Y-80033619D01*
X162853714Y-80128857D01*
X162853714Y-80366952D01*
X162806095Y-80462190D01*
X162758476Y-80509809D01*
X162663238Y-80557428D01*
X162472761Y-80557428D01*
X162377523Y-80509809D01*
X162329904Y-80462190D01*
X162282285Y-80366952D01*
X153646095Y-80938380D02*
X153646095Y-79938380D01*
X153408000Y-79938380D01*
X153265142Y-79986000D01*
X153169904Y-80081238D01*
X153122285Y-80176476D01*
X153074666Y-80366952D01*
X153074666Y-80509809D01*
X153122285Y-80700285D01*
X153169904Y-80795523D01*
X153265142Y-80890761D01*
X153408000Y-80938380D01*
X153646095Y-80938380D01*
X152503238Y-80366952D02*
X152598476Y-80319333D01*
X152646095Y-80271714D01*
X152693714Y-80176476D01*
X152693714Y-80128857D01*
X152646095Y-80033619D01*
X152598476Y-79986000D01*
X152503238Y-79938380D01*
X152312761Y-79938380D01*
X152217523Y-79986000D01*
X152169904Y-80033619D01*
X152122285Y-80128857D01*
X152122285Y-80176476D01*
X152169904Y-80271714D01*
X152217523Y-80319333D01*
X152312761Y-80366952D01*
X152503238Y-80366952D01*
X152598476Y-80414571D01*
X152646095Y-80462190D01*
X152693714Y-80557428D01*
X152693714Y-80747904D01*
X152646095Y-80843142D01*
X152598476Y-80890761D01*
X152503238Y-80938380D01*
X152312761Y-80938380D01*
X152217523Y-80890761D01*
X152169904Y-80843142D01*
X152122285Y-80747904D01*
X152122285Y-80557428D01*
X152169904Y-80462190D01*
X152217523Y-80414571D01*
X152312761Y-80366952D01*
X142978095Y-80938380D02*
X142978095Y-79938380D01*
X142740000Y-79938380D01*
X142597142Y-79986000D01*
X142501904Y-80081238D01*
X142454285Y-80176476D01*
X142406666Y-80366952D01*
X142406666Y-80509809D01*
X142454285Y-80700285D01*
X142501904Y-80795523D01*
X142597142Y-80890761D01*
X142740000Y-80938380D01*
X142978095Y-80938380D01*
X142073333Y-79938380D02*
X141406666Y-79938380D01*
X141835238Y-80938380D01*
X131802095Y-80938380D02*
X131802095Y-79938380D01*
X131564000Y-79938380D01*
X131421142Y-79986000D01*
X131325904Y-80081238D01*
X131278285Y-80176476D01*
X131230666Y-80366952D01*
X131230666Y-80509809D01*
X131278285Y-80700285D01*
X131325904Y-80795523D01*
X131421142Y-80890761D01*
X131564000Y-80938380D01*
X131802095Y-80938380D01*
X130373523Y-79938380D02*
X130564000Y-79938380D01*
X130659238Y-79986000D01*
X130706857Y-80033619D01*
X130802095Y-80176476D01*
X130849714Y-80366952D01*
X130849714Y-80747904D01*
X130802095Y-80843142D01*
X130754476Y-80890761D01*
X130659238Y-80938380D01*
X130468761Y-80938380D01*
X130373523Y-80890761D01*
X130325904Y-80843142D01*
X130278285Y-80747904D01*
X130278285Y-80509809D01*
X130325904Y-80414571D01*
X130373523Y-80366952D01*
X130468761Y-80319333D01*
X130659238Y-80319333D01*
X130754476Y-80366952D01*
X130802095Y-80414571D01*
X130849714Y-80509809D01*
X121134095Y-80938380D02*
X121134095Y-79938380D01*
X120896000Y-79938380D01*
X120753142Y-79986000D01*
X120657904Y-80081238D01*
X120610285Y-80176476D01*
X120562666Y-80366952D01*
X120562666Y-80509809D01*
X120610285Y-80700285D01*
X120657904Y-80795523D01*
X120753142Y-80890761D01*
X120896000Y-80938380D01*
X121134095Y-80938380D01*
X119657904Y-79938380D02*
X120134095Y-79938380D01*
X120181714Y-80414571D01*
X120134095Y-80366952D01*
X120038857Y-80319333D01*
X119800761Y-80319333D01*
X119705523Y-80366952D01*
X119657904Y-80414571D01*
X119610285Y-80509809D01*
X119610285Y-80747904D01*
X119657904Y-80843142D01*
X119705523Y-80890761D01*
X119800761Y-80938380D01*
X120038857Y-80938380D01*
X120134095Y-80890761D01*
X120181714Y-80843142D01*
X110466095Y-80938380D02*
X110466095Y-79938380D01*
X110228000Y-79938380D01*
X110085142Y-79986000D01*
X109989904Y-80081238D01*
X109942285Y-80176476D01*
X109894666Y-80366952D01*
X109894666Y-80509809D01*
X109942285Y-80700285D01*
X109989904Y-80795523D01*
X110085142Y-80890761D01*
X110228000Y-80938380D01*
X110466095Y-80938380D01*
X109037523Y-80271714D02*
X109037523Y-80938380D01*
X109275619Y-79890761D02*
X109513714Y-80605047D01*
X108894666Y-80605047D01*
X186920095Y-89066380D02*
X186920095Y-88066380D01*
X186682000Y-88066380D01*
X186539142Y-88114000D01*
X186443904Y-88209238D01*
X186396285Y-88304476D01*
X186348666Y-88494952D01*
X186348666Y-88637809D01*
X186396285Y-88828285D01*
X186443904Y-88923523D01*
X186539142Y-89018761D01*
X186682000Y-89066380D01*
X186920095Y-89066380D01*
X186015333Y-88066380D02*
X185396285Y-88066380D01*
X185729619Y-88447333D01*
X185586761Y-88447333D01*
X185491523Y-88494952D01*
X185443904Y-88542571D01*
X185396285Y-88637809D01*
X185396285Y-88875904D01*
X185443904Y-88971142D01*
X185491523Y-89018761D01*
X185586761Y-89066380D01*
X185872476Y-89066380D01*
X185967714Y-89018761D01*
X186015333Y-88971142D01*
M02*
