G04 #@! TF.GenerationSoftware,KiCad,Pcbnew,5.1.4-e60b266~84~ubuntu18.04.1*
G04 #@! TF.CreationDate,2019-09-18T22:39:51+03:00*
G04 #@! TF.ProjectId,spotweld,73706f74-7765-46c6-942e-6b696361645f,rev?*
G04 #@! TF.SameCoordinates,Original*
G04 #@! TF.FileFunction,Soldermask,Bot*
G04 #@! TF.FilePolarity,Negative*
%FSLAX46Y46*%
G04 Gerber Fmt 4.6, Leading zero omitted, Abs format (unit mm)*
G04 Created by KiCad (PCBNEW 5.1.4-e60b266~84~ubuntu18.04.1) date 2019-09-18 22:39:51*
%MOMM*%
%LPD*%
G04 APERTURE LIST*
%ADD10C,0.100000*%
G04 APERTURE END LIST*
D10*
G36*
X176514205Y-118436461D02*
G01*
X176632153Y-118459922D01*
X176724194Y-118498047D01*
X176854359Y-118551963D01*
X177054342Y-118685587D01*
X177224413Y-118855658D01*
X177358037Y-119055641D01*
X177389255Y-119131009D01*
X177450078Y-119277847D01*
X177459942Y-119327436D01*
X177492099Y-119489100D01*
X177497000Y-119513742D01*
X177497000Y-119754258D01*
X177459942Y-119940565D01*
X177450078Y-119990152D01*
X177358037Y-120212359D01*
X177224413Y-120412342D01*
X177054342Y-120582413D01*
X176854359Y-120716037D01*
X176724194Y-120769953D01*
X176632153Y-120808078D01*
X176514205Y-120831539D01*
X176396259Y-120855000D01*
X176155741Y-120855000D01*
X176037795Y-120831539D01*
X175919847Y-120808078D01*
X175827806Y-120769953D01*
X175697641Y-120716037D01*
X175497658Y-120582413D01*
X175327587Y-120412342D01*
X175193963Y-120212359D01*
X175101922Y-119990152D01*
X175092059Y-119940565D01*
X175055000Y-119754258D01*
X175055000Y-119513742D01*
X175059902Y-119489100D01*
X175092058Y-119327436D01*
X175101922Y-119277847D01*
X175162745Y-119131009D01*
X175193963Y-119055641D01*
X175327587Y-118855658D01*
X175497658Y-118685587D01*
X175697641Y-118551963D01*
X175827806Y-118498047D01*
X175919847Y-118459922D01*
X176037795Y-118436461D01*
X176155741Y-118413000D01*
X176396259Y-118413000D01*
X176514205Y-118436461D01*
X176514205Y-118436461D01*
G37*
G36*
X181514205Y-118436461D02*
G01*
X181632153Y-118459922D01*
X181724194Y-118498047D01*
X181854359Y-118551963D01*
X182054342Y-118685587D01*
X182224413Y-118855658D01*
X182358037Y-119055641D01*
X182389255Y-119131009D01*
X182450078Y-119277847D01*
X182459942Y-119327436D01*
X182492099Y-119489100D01*
X182497000Y-119513742D01*
X182497000Y-119754258D01*
X182459942Y-119940565D01*
X182450078Y-119990152D01*
X182358037Y-120212359D01*
X182224413Y-120412342D01*
X182054342Y-120582413D01*
X181854359Y-120716037D01*
X181724194Y-120769953D01*
X181632153Y-120808078D01*
X181514205Y-120831539D01*
X181396259Y-120855000D01*
X181155741Y-120855000D01*
X181037795Y-120831539D01*
X180919847Y-120808078D01*
X180827806Y-120769953D01*
X180697641Y-120716037D01*
X180497658Y-120582413D01*
X180327587Y-120412342D01*
X180193963Y-120212359D01*
X180101922Y-119990152D01*
X180092059Y-119940565D01*
X180055000Y-119754258D01*
X180055000Y-119513742D01*
X180059902Y-119489100D01*
X180092058Y-119327436D01*
X180101922Y-119277847D01*
X180162745Y-119131009D01*
X180193963Y-119055641D01*
X180327587Y-118855658D01*
X180497658Y-118685587D01*
X180697641Y-118551963D01*
X180827806Y-118498047D01*
X180919847Y-118459922D01*
X181037795Y-118436461D01*
X181155741Y-118413000D01*
X181396259Y-118413000D01*
X181514205Y-118436461D01*
X181514205Y-118436461D01*
G37*
G36*
X186514205Y-118436461D02*
G01*
X186632153Y-118459922D01*
X186724194Y-118498047D01*
X186854359Y-118551963D01*
X187054342Y-118685587D01*
X187224413Y-118855658D01*
X187358037Y-119055641D01*
X187389255Y-119131009D01*
X187450078Y-119277847D01*
X187459942Y-119327436D01*
X187492099Y-119489100D01*
X187497000Y-119513742D01*
X187497000Y-119754258D01*
X187459942Y-119940565D01*
X187450078Y-119990152D01*
X187358037Y-120212359D01*
X187224413Y-120412342D01*
X187054342Y-120582413D01*
X186854359Y-120716037D01*
X186724194Y-120769953D01*
X186632153Y-120808078D01*
X186514205Y-120831539D01*
X186396259Y-120855000D01*
X186155741Y-120855000D01*
X186037795Y-120831539D01*
X185919847Y-120808078D01*
X185827806Y-120769953D01*
X185697641Y-120716037D01*
X185497658Y-120582413D01*
X185327587Y-120412342D01*
X185193963Y-120212359D01*
X185101922Y-119990152D01*
X185092059Y-119940565D01*
X185055000Y-119754258D01*
X185055000Y-119513742D01*
X185059902Y-119489100D01*
X185092058Y-119327436D01*
X185101922Y-119277847D01*
X185162745Y-119131009D01*
X185193963Y-119055641D01*
X185327587Y-118855658D01*
X185497658Y-118685587D01*
X185697641Y-118551963D01*
X185827806Y-118498047D01*
X185919847Y-118459922D01*
X186037795Y-118436461D01*
X186155741Y-118413000D01*
X186396259Y-118413000D01*
X186514205Y-118436461D01*
X186514205Y-118436461D01*
G37*
G36*
X159750205Y-118436461D02*
G01*
X159868153Y-118459922D01*
X159960194Y-118498047D01*
X160090359Y-118551963D01*
X160290342Y-118685587D01*
X160460413Y-118855658D01*
X160594037Y-119055641D01*
X160625255Y-119131009D01*
X160686078Y-119277847D01*
X160695942Y-119327436D01*
X160728099Y-119489100D01*
X160733000Y-119513742D01*
X160733000Y-119754258D01*
X160695942Y-119940565D01*
X160686078Y-119990152D01*
X160594037Y-120212359D01*
X160460413Y-120412342D01*
X160290342Y-120582413D01*
X160090359Y-120716037D01*
X159960194Y-120769953D01*
X159868153Y-120808078D01*
X159750205Y-120831539D01*
X159632259Y-120855000D01*
X159391741Y-120855000D01*
X159273795Y-120831539D01*
X159155847Y-120808078D01*
X159063806Y-120769953D01*
X158933641Y-120716037D01*
X158733658Y-120582413D01*
X158563587Y-120412342D01*
X158429963Y-120212359D01*
X158337922Y-119990152D01*
X158328059Y-119940565D01*
X158291000Y-119754258D01*
X158291000Y-119513742D01*
X158295902Y-119489100D01*
X158328058Y-119327436D01*
X158337922Y-119277847D01*
X158398745Y-119131009D01*
X158429963Y-119055641D01*
X158563587Y-118855658D01*
X158733658Y-118685587D01*
X158933641Y-118551963D01*
X159063806Y-118498047D01*
X159155847Y-118459922D01*
X159273795Y-118436461D01*
X159391741Y-118413000D01*
X159632259Y-118413000D01*
X159750205Y-118436461D01*
X159750205Y-118436461D01*
G37*
G36*
X169750205Y-118436461D02*
G01*
X169868153Y-118459922D01*
X169960194Y-118498047D01*
X170090359Y-118551963D01*
X170290342Y-118685587D01*
X170460413Y-118855658D01*
X170594037Y-119055641D01*
X170625255Y-119131009D01*
X170686078Y-119277847D01*
X170695942Y-119327436D01*
X170728099Y-119489100D01*
X170733000Y-119513742D01*
X170733000Y-119754258D01*
X170695942Y-119940565D01*
X170686078Y-119990152D01*
X170594037Y-120212359D01*
X170460413Y-120412342D01*
X170290342Y-120582413D01*
X170090359Y-120716037D01*
X169960194Y-120769953D01*
X169868153Y-120808078D01*
X169750205Y-120831539D01*
X169632259Y-120855000D01*
X169391741Y-120855000D01*
X169273795Y-120831539D01*
X169155847Y-120808078D01*
X169063806Y-120769953D01*
X168933641Y-120716037D01*
X168733658Y-120582413D01*
X168563587Y-120412342D01*
X168429963Y-120212359D01*
X168337922Y-119990152D01*
X168328059Y-119940565D01*
X168291000Y-119754258D01*
X168291000Y-119513742D01*
X168295902Y-119489100D01*
X168328058Y-119327436D01*
X168337922Y-119277847D01*
X168398745Y-119131009D01*
X168429963Y-119055641D01*
X168563587Y-118855658D01*
X168733658Y-118685587D01*
X168933641Y-118551963D01*
X169063806Y-118498047D01*
X169155847Y-118459922D01*
X169273795Y-118436461D01*
X169391741Y-118413000D01*
X169632259Y-118413000D01*
X169750205Y-118436461D01*
X169750205Y-118436461D01*
G37*
G36*
X164750205Y-118436461D02*
G01*
X164868153Y-118459922D01*
X164960194Y-118498047D01*
X165090359Y-118551963D01*
X165290342Y-118685587D01*
X165460413Y-118855658D01*
X165594037Y-119055641D01*
X165625255Y-119131009D01*
X165686078Y-119277847D01*
X165695942Y-119327436D01*
X165728099Y-119489100D01*
X165733000Y-119513742D01*
X165733000Y-119754258D01*
X165695942Y-119940565D01*
X165686078Y-119990152D01*
X165594037Y-120212359D01*
X165460413Y-120412342D01*
X165290342Y-120582413D01*
X165090359Y-120716037D01*
X164960194Y-120769953D01*
X164868153Y-120808078D01*
X164750205Y-120831539D01*
X164632259Y-120855000D01*
X164391741Y-120855000D01*
X164273795Y-120831539D01*
X164155847Y-120808078D01*
X164063806Y-120769953D01*
X163933641Y-120716037D01*
X163733658Y-120582413D01*
X163563587Y-120412342D01*
X163429963Y-120212359D01*
X163337922Y-119990152D01*
X163328059Y-119940565D01*
X163291000Y-119754258D01*
X163291000Y-119513742D01*
X163295902Y-119489100D01*
X163328058Y-119327436D01*
X163337922Y-119277847D01*
X163398745Y-119131009D01*
X163429963Y-119055641D01*
X163563587Y-118855658D01*
X163733658Y-118685587D01*
X163933641Y-118551963D01*
X164063806Y-118498047D01*
X164155847Y-118459922D01*
X164273795Y-118436461D01*
X164391741Y-118413000D01*
X164632259Y-118413000D01*
X164750205Y-118436461D01*
X164750205Y-118436461D01*
G37*
G36*
X145698564Y-118623389D02*
G01*
X145889833Y-118702615D01*
X145889835Y-118702616D01*
X146061973Y-118817635D01*
X146208365Y-118964027D01*
X146269580Y-119055641D01*
X146323385Y-119136167D01*
X146402611Y-119327436D01*
X146443000Y-119530484D01*
X146443000Y-119737516D01*
X146402611Y-119940564D01*
X146323385Y-120131833D01*
X146323384Y-120131835D01*
X146208365Y-120303973D01*
X146061973Y-120450365D01*
X145889835Y-120565384D01*
X145889834Y-120565385D01*
X145889833Y-120565385D01*
X145698564Y-120644611D01*
X145495516Y-120685000D01*
X145288484Y-120685000D01*
X145085436Y-120644611D01*
X144894167Y-120565385D01*
X144894166Y-120565385D01*
X144894165Y-120565384D01*
X144722027Y-120450365D01*
X144575635Y-120303973D01*
X144460616Y-120131835D01*
X144460615Y-120131833D01*
X144381389Y-119940564D01*
X144341000Y-119737516D01*
X144341000Y-119530484D01*
X144381389Y-119327436D01*
X144460615Y-119136167D01*
X144514421Y-119055641D01*
X144575635Y-118964027D01*
X144722027Y-118817635D01*
X144894165Y-118702616D01*
X144894167Y-118702615D01*
X145085436Y-118623389D01*
X145288484Y-118583000D01*
X145495516Y-118583000D01*
X145698564Y-118623389D01*
X145698564Y-118623389D01*
G37*
G36*
X152198564Y-118623389D02*
G01*
X152389833Y-118702615D01*
X152389835Y-118702616D01*
X152561973Y-118817635D01*
X152708365Y-118964027D01*
X152769580Y-119055641D01*
X152823385Y-119136167D01*
X152902611Y-119327436D01*
X152943000Y-119530484D01*
X152943000Y-119737516D01*
X152902611Y-119940564D01*
X152823385Y-120131833D01*
X152823384Y-120131835D01*
X152708365Y-120303973D01*
X152561973Y-120450365D01*
X152389835Y-120565384D01*
X152389834Y-120565385D01*
X152389833Y-120565385D01*
X152198564Y-120644611D01*
X151995516Y-120685000D01*
X151788484Y-120685000D01*
X151585436Y-120644611D01*
X151394167Y-120565385D01*
X151394166Y-120565385D01*
X151394165Y-120565384D01*
X151222027Y-120450365D01*
X151075635Y-120303973D01*
X150960616Y-120131835D01*
X150960615Y-120131833D01*
X150881389Y-119940564D01*
X150841000Y-119737516D01*
X150841000Y-119530484D01*
X150881389Y-119327436D01*
X150960615Y-119136167D01*
X151014421Y-119055641D01*
X151075635Y-118964027D01*
X151222027Y-118817635D01*
X151394165Y-118702616D01*
X151394167Y-118702615D01*
X151585436Y-118623389D01*
X151788484Y-118583000D01*
X151995516Y-118583000D01*
X152198564Y-118623389D01*
X152198564Y-118623389D01*
G37*
G36*
X139585000Y-120535000D02*
G01*
X137783000Y-120535000D01*
X137783000Y-118733000D01*
X139585000Y-118733000D01*
X139585000Y-120535000D01*
X139585000Y-120535000D01*
G37*
G36*
X141334442Y-118739518D02*
G01*
X141400627Y-118746037D01*
X141570466Y-118797557D01*
X141726991Y-118881222D01*
X141762729Y-118910552D01*
X141864186Y-118993814D01*
X141914925Y-119055641D01*
X141976778Y-119131009D01*
X142060443Y-119287534D01*
X142111963Y-119457373D01*
X142129359Y-119634000D01*
X142111963Y-119810627D01*
X142060443Y-119980466D01*
X141976778Y-120136991D01*
X141947448Y-120172729D01*
X141864186Y-120274186D01*
X141762729Y-120357448D01*
X141726991Y-120386778D01*
X141570466Y-120470443D01*
X141400627Y-120521963D01*
X141334443Y-120528481D01*
X141268260Y-120535000D01*
X141179740Y-120535000D01*
X141113557Y-120528481D01*
X141047373Y-120521963D01*
X140877534Y-120470443D01*
X140721009Y-120386778D01*
X140685271Y-120357448D01*
X140583814Y-120274186D01*
X140500552Y-120172729D01*
X140471222Y-120136991D01*
X140387557Y-119980466D01*
X140336037Y-119810627D01*
X140318641Y-119634000D01*
X140336037Y-119457373D01*
X140387557Y-119287534D01*
X140471222Y-119131009D01*
X140533075Y-119055641D01*
X140583814Y-118993814D01*
X140685271Y-118910552D01*
X140721009Y-118881222D01*
X140877534Y-118797557D01*
X141047373Y-118746037D01*
X141113558Y-118739518D01*
X141179740Y-118733000D01*
X141268260Y-118733000D01*
X141334442Y-118739518D01*
X141334442Y-118739518D01*
G37*
G36*
X106282442Y-118739518D02*
G01*
X106348627Y-118746037D01*
X106518466Y-118797557D01*
X106674991Y-118881222D01*
X106710729Y-118910552D01*
X106812186Y-118993814D01*
X106862925Y-119055641D01*
X106924778Y-119131009D01*
X107008443Y-119287534D01*
X107059963Y-119457373D01*
X107077359Y-119634000D01*
X107059963Y-119810627D01*
X107008443Y-119980466D01*
X106924778Y-120136991D01*
X106895448Y-120172729D01*
X106812186Y-120274186D01*
X106710729Y-120357448D01*
X106674991Y-120386778D01*
X106518466Y-120470443D01*
X106348627Y-120521963D01*
X106282443Y-120528481D01*
X106216260Y-120535000D01*
X106127740Y-120535000D01*
X106061557Y-120528481D01*
X105995373Y-120521963D01*
X105825534Y-120470443D01*
X105669009Y-120386778D01*
X105633271Y-120357448D01*
X105531814Y-120274186D01*
X105448552Y-120172729D01*
X105419222Y-120136991D01*
X105335557Y-119980466D01*
X105284037Y-119810627D01*
X105266641Y-119634000D01*
X105284037Y-119457373D01*
X105335557Y-119287534D01*
X105419222Y-119131009D01*
X105481075Y-119055641D01*
X105531814Y-118993814D01*
X105633271Y-118910552D01*
X105669009Y-118881222D01*
X105825534Y-118797557D01*
X105995373Y-118746037D01*
X106061558Y-118739518D01*
X106127740Y-118733000D01*
X106216260Y-118733000D01*
X106282442Y-118739518D01*
X106282442Y-118739518D01*
G37*
G36*
X112008228Y-118267703D02*
G01*
X112163100Y-118331853D01*
X112302481Y-118424985D01*
X112421015Y-118543519D01*
X112514147Y-118682900D01*
X112578297Y-118837772D01*
X112611000Y-119002184D01*
X112611000Y-119169816D01*
X112578297Y-119334228D01*
X112514147Y-119489100D01*
X112421015Y-119628481D01*
X112302481Y-119747015D01*
X112163100Y-119840147D01*
X112008228Y-119904297D01*
X111843816Y-119937000D01*
X111676184Y-119937000D01*
X111511772Y-119904297D01*
X111356900Y-119840147D01*
X111217519Y-119747015D01*
X111098985Y-119628481D01*
X111005853Y-119489100D01*
X110941703Y-119334228D01*
X110909000Y-119169816D01*
X110909000Y-119002184D01*
X110941703Y-118837772D01*
X111005853Y-118682900D01*
X111098985Y-118543519D01*
X111217519Y-118424985D01*
X111356900Y-118331853D01*
X111511772Y-118267703D01*
X111676184Y-118235000D01*
X111843816Y-118235000D01*
X112008228Y-118267703D01*
X112008228Y-118267703D01*
G37*
G36*
X124708228Y-118267703D02*
G01*
X124863100Y-118331853D01*
X125002481Y-118424985D01*
X125121015Y-118543519D01*
X125214147Y-118682900D01*
X125278297Y-118837772D01*
X125311000Y-119002184D01*
X125311000Y-119169816D01*
X125278297Y-119334228D01*
X125214147Y-119489100D01*
X125121015Y-119628481D01*
X125002481Y-119747015D01*
X124863100Y-119840147D01*
X124708228Y-119904297D01*
X124543816Y-119937000D01*
X124376184Y-119937000D01*
X124211772Y-119904297D01*
X124056900Y-119840147D01*
X123917519Y-119747015D01*
X123798985Y-119628481D01*
X123705853Y-119489100D01*
X123641703Y-119334228D01*
X123609000Y-119169816D01*
X123609000Y-119002184D01*
X123641703Y-118837772D01*
X123705853Y-118682900D01*
X123798985Y-118543519D01*
X123917519Y-118424985D01*
X124056900Y-118331853D01*
X124211772Y-118267703D01*
X124376184Y-118235000D01*
X124543816Y-118235000D01*
X124708228Y-118267703D01*
X124708228Y-118267703D01*
G37*
G36*
X107073000Y-117995000D02*
G01*
X105271000Y-117995000D01*
X105271000Y-116193000D01*
X107073000Y-116193000D01*
X107073000Y-117995000D01*
X107073000Y-117995000D01*
G37*
G36*
X112611000Y-117437000D02*
G01*
X110909000Y-117437000D01*
X110909000Y-115735000D01*
X112611000Y-115735000D01*
X112611000Y-117437000D01*
X112611000Y-117437000D01*
G37*
G36*
X125311000Y-117437000D02*
G01*
X123609000Y-117437000D01*
X123609000Y-115735000D01*
X125311000Y-115735000D01*
X125311000Y-117437000D01*
X125311000Y-117437000D01*
G37*
G36*
X145698564Y-114123389D02*
G01*
X145889833Y-114202615D01*
X145889835Y-114202616D01*
X146061973Y-114317635D01*
X146208365Y-114464027D01*
X146323385Y-114636167D01*
X146402611Y-114827436D01*
X146443000Y-115030484D01*
X146443000Y-115237516D01*
X146402611Y-115440564D01*
X146323385Y-115631833D01*
X146323384Y-115631835D01*
X146208365Y-115803973D01*
X146061973Y-115950365D01*
X145889835Y-116065384D01*
X145889834Y-116065385D01*
X145889833Y-116065385D01*
X145698564Y-116144611D01*
X145495516Y-116185000D01*
X145288484Y-116185000D01*
X145085436Y-116144611D01*
X144894167Y-116065385D01*
X144894166Y-116065385D01*
X144894165Y-116065384D01*
X144722027Y-115950365D01*
X144575635Y-115803973D01*
X144460616Y-115631835D01*
X144460615Y-115631833D01*
X144381389Y-115440564D01*
X144341000Y-115237516D01*
X144341000Y-115030484D01*
X144381389Y-114827436D01*
X144460615Y-114636167D01*
X144575635Y-114464027D01*
X144722027Y-114317635D01*
X144894165Y-114202616D01*
X144894167Y-114202615D01*
X145085436Y-114123389D01*
X145288484Y-114083000D01*
X145495516Y-114083000D01*
X145698564Y-114123389D01*
X145698564Y-114123389D01*
G37*
G36*
X152198564Y-114123389D02*
G01*
X152389833Y-114202615D01*
X152389835Y-114202616D01*
X152561973Y-114317635D01*
X152708365Y-114464027D01*
X152823385Y-114636167D01*
X152902611Y-114827436D01*
X152943000Y-115030484D01*
X152943000Y-115237516D01*
X152902611Y-115440564D01*
X152823385Y-115631833D01*
X152823384Y-115631835D01*
X152708365Y-115803973D01*
X152561973Y-115950365D01*
X152389835Y-116065384D01*
X152389834Y-116065385D01*
X152389833Y-116065385D01*
X152198564Y-116144611D01*
X151995516Y-116185000D01*
X151788484Y-116185000D01*
X151585436Y-116144611D01*
X151394167Y-116065385D01*
X151394166Y-116065385D01*
X151394165Y-116065384D01*
X151222027Y-115950365D01*
X151075635Y-115803973D01*
X150960616Y-115631835D01*
X150960615Y-115631833D01*
X150881389Y-115440564D01*
X150841000Y-115237516D01*
X150841000Y-115030484D01*
X150881389Y-114827436D01*
X150960615Y-114636167D01*
X151075635Y-114464027D01*
X151222027Y-114317635D01*
X151394165Y-114202616D01*
X151394167Y-114202615D01*
X151585436Y-114123389D01*
X151788484Y-114083000D01*
X151995516Y-114083000D01*
X152198564Y-114123389D01*
X152198564Y-114123389D01*
G37*
G36*
X112611000Y-112357000D02*
G01*
X110909000Y-112357000D01*
X110909000Y-110655000D01*
X112611000Y-110655000D01*
X112611000Y-112357000D01*
X112611000Y-112357000D01*
G37*
G36*
X145398443Y-110103519D02*
G01*
X145464627Y-110110037D01*
X145634466Y-110161557D01*
X145790991Y-110245222D01*
X145826729Y-110274552D01*
X145928186Y-110357814D01*
X146011448Y-110459271D01*
X146040778Y-110495009D01*
X146124443Y-110651534D01*
X146175963Y-110821373D01*
X146193359Y-110998000D01*
X146175963Y-111174627D01*
X146124443Y-111344466D01*
X146040778Y-111500991D01*
X146011448Y-111536729D01*
X145928186Y-111638186D01*
X145826729Y-111721448D01*
X145790991Y-111750778D01*
X145634466Y-111834443D01*
X145464627Y-111885963D01*
X145398442Y-111892482D01*
X145332260Y-111899000D01*
X145243740Y-111899000D01*
X145177558Y-111892482D01*
X145111373Y-111885963D01*
X144941534Y-111834443D01*
X144785009Y-111750778D01*
X144749271Y-111721448D01*
X144647814Y-111638186D01*
X144564552Y-111536729D01*
X144535222Y-111500991D01*
X144451557Y-111344466D01*
X144400037Y-111174627D01*
X144382641Y-110998000D01*
X144400037Y-110821373D01*
X144451557Y-110651534D01*
X144535222Y-110495009D01*
X144564552Y-110459271D01*
X144647814Y-110357814D01*
X144749271Y-110274552D01*
X144785009Y-110245222D01*
X144941534Y-110161557D01*
X145111373Y-110110037D01*
X145177557Y-110103519D01*
X145243740Y-110097000D01*
X145332260Y-110097000D01*
X145398443Y-110103519D01*
X145398443Y-110103519D01*
G37*
G36*
X142858443Y-110103519D02*
G01*
X142924627Y-110110037D01*
X143094466Y-110161557D01*
X143250991Y-110245222D01*
X143286729Y-110274552D01*
X143388186Y-110357814D01*
X143471448Y-110459271D01*
X143500778Y-110495009D01*
X143584443Y-110651534D01*
X143635963Y-110821373D01*
X143653359Y-110998000D01*
X143635963Y-111174627D01*
X143584443Y-111344466D01*
X143500778Y-111500991D01*
X143471448Y-111536729D01*
X143388186Y-111638186D01*
X143286729Y-111721448D01*
X143250991Y-111750778D01*
X143094466Y-111834443D01*
X142924627Y-111885963D01*
X142858442Y-111892482D01*
X142792260Y-111899000D01*
X142703740Y-111899000D01*
X142637558Y-111892482D01*
X142571373Y-111885963D01*
X142401534Y-111834443D01*
X142245009Y-111750778D01*
X142209271Y-111721448D01*
X142107814Y-111638186D01*
X142024552Y-111536729D01*
X141995222Y-111500991D01*
X141911557Y-111344466D01*
X141860037Y-111174627D01*
X141842641Y-110998000D01*
X141860037Y-110821373D01*
X141911557Y-110651534D01*
X141995222Y-110495009D01*
X142024552Y-110459271D01*
X142107814Y-110357814D01*
X142209271Y-110274552D01*
X142245009Y-110245222D01*
X142401534Y-110161557D01*
X142571373Y-110110037D01*
X142637557Y-110103519D01*
X142703740Y-110097000D01*
X142792260Y-110097000D01*
X142858443Y-110103519D01*
X142858443Y-110103519D01*
G37*
G36*
X147938443Y-110103519D02*
G01*
X148004627Y-110110037D01*
X148174466Y-110161557D01*
X148330991Y-110245222D01*
X148366729Y-110274552D01*
X148468186Y-110357814D01*
X148551448Y-110459271D01*
X148580778Y-110495009D01*
X148664443Y-110651534D01*
X148715963Y-110821373D01*
X148733359Y-110998000D01*
X148715963Y-111174627D01*
X148664443Y-111344466D01*
X148580778Y-111500991D01*
X148551448Y-111536729D01*
X148468186Y-111638186D01*
X148366729Y-111721448D01*
X148330991Y-111750778D01*
X148174466Y-111834443D01*
X148004627Y-111885963D01*
X147938442Y-111892482D01*
X147872260Y-111899000D01*
X147783740Y-111899000D01*
X147717558Y-111892482D01*
X147651373Y-111885963D01*
X147481534Y-111834443D01*
X147325009Y-111750778D01*
X147289271Y-111721448D01*
X147187814Y-111638186D01*
X147104552Y-111536729D01*
X147075222Y-111500991D01*
X146991557Y-111344466D01*
X146940037Y-111174627D01*
X146922641Y-110998000D01*
X146940037Y-110821373D01*
X146991557Y-110651534D01*
X147075222Y-110495009D01*
X147104552Y-110459271D01*
X147187814Y-110357814D01*
X147289271Y-110274552D01*
X147325009Y-110245222D01*
X147481534Y-110161557D01*
X147651373Y-110110037D01*
X147717557Y-110103519D01*
X147783740Y-110097000D01*
X147872260Y-110097000D01*
X147938443Y-110103519D01*
X147938443Y-110103519D01*
G37*
G36*
X142858443Y-107563519D02*
G01*
X142924627Y-107570037D01*
X143094466Y-107621557D01*
X143250991Y-107705222D01*
X143286729Y-107734552D01*
X143388186Y-107817814D01*
X143471448Y-107919271D01*
X143500778Y-107955009D01*
X143584443Y-108111534D01*
X143635963Y-108281373D01*
X143653359Y-108458000D01*
X143635963Y-108634627D01*
X143584443Y-108804466D01*
X143500778Y-108960991D01*
X143471448Y-108996729D01*
X143388186Y-109098186D01*
X143286729Y-109181448D01*
X143250991Y-109210778D01*
X143094466Y-109294443D01*
X142924627Y-109345963D01*
X142858443Y-109352481D01*
X142792260Y-109359000D01*
X142703740Y-109359000D01*
X142637557Y-109352481D01*
X142571373Y-109345963D01*
X142401534Y-109294443D01*
X142245009Y-109210778D01*
X142209271Y-109181448D01*
X142107814Y-109098186D01*
X142024552Y-108996729D01*
X141995222Y-108960991D01*
X141911557Y-108804466D01*
X141860037Y-108634627D01*
X141842641Y-108458000D01*
X141860037Y-108281373D01*
X141911557Y-108111534D01*
X141995222Y-107955009D01*
X142024552Y-107919271D01*
X142107814Y-107817814D01*
X142209271Y-107734552D01*
X142245009Y-107705222D01*
X142401534Y-107621557D01*
X142571373Y-107570037D01*
X142637557Y-107563519D01*
X142703740Y-107557000D01*
X142792260Y-107557000D01*
X142858443Y-107563519D01*
X142858443Y-107563519D01*
G37*
G36*
X145398443Y-107563519D02*
G01*
X145464627Y-107570037D01*
X145634466Y-107621557D01*
X145790991Y-107705222D01*
X145826729Y-107734552D01*
X145928186Y-107817814D01*
X146011448Y-107919271D01*
X146040778Y-107955009D01*
X146124443Y-108111534D01*
X146175963Y-108281373D01*
X146193359Y-108458000D01*
X146175963Y-108634627D01*
X146124443Y-108804466D01*
X146040778Y-108960991D01*
X146011448Y-108996729D01*
X145928186Y-109098186D01*
X145826729Y-109181448D01*
X145790991Y-109210778D01*
X145634466Y-109294443D01*
X145464627Y-109345963D01*
X145398443Y-109352481D01*
X145332260Y-109359000D01*
X145243740Y-109359000D01*
X145177557Y-109352481D01*
X145111373Y-109345963D01*
X144941534Y-109294443D01*
X144785009Y-109210778D01*
X144749271Y-109181448D01*
X144647814Y-109098186D01*
X144564552Y-108996729D01*
X144535222Y-108960991D01*
X144451557Y-108804466D01*
X144400037Y-108634627D01*
X144382641Y-108458000D01*
X144400037Y-108281373D01*
X144451557Y-108111534D01*
X144535222Y-107955009D01*
X144564552Y-107919271D01*
X144647814Y-107817814D01*
X144749271Y-107734552D01*
X144785009Y-107705222D01*
X144941534Y-107621557D01*
X145111373Y-107570037D01*
X145177557Y-107563519D01*
X145243740Y-107557000D01*
X145332260Y-107557000D01*
X145398443Y-107563519D01*
X145398443Y-107563519D01*
G37*
G36*
X148729000Y-109359000D02*
G01*
X146927000Y-109359000D01*
X146927000Y-107557000D01*
X148729000Y-107557000D01*
X148729000Y-109359000D01*
X148729000Y-109359000D01*
G37*
G36*
X112008228Y-107187703D02*
G01*
X112163100Y-107251853D01*
X112302481Y-107344985D01*
X112421015Y-107463519D01*
X112514147Y-107602900D01*
X112578297Y-107757772D01*
X112611000Y-107922184D01*
X112611000Y-108089816D01*
X112578297Y-108254228D01*
X112514147Y-108409100D01*
X112421015Y-108548481D01*
X112302481Y-108667015D01*
X112163100Y-108760147D01*
X112008228Y-108824297D01*
X111843816Y-108857000D01*
X111676184Y-108857000D01*
X111511772Y-108824297D01*
X111356900Y-108760147D01*
X111217519Y-108667015D01*
X111098985Y-108548481D01*
X111005853Y-108409100D01*
X110941703Y-108254228D01*
X110909000Y-108089816D01*
X110909000Y-107922184D01*
X110941703Y-107757772D01*
X111005853Y-107602900D01*
X111098985Y-107463519D01*
X111217519Y-107344985D01*
X111356900Y-107251853D01*
X111511772Y-107187703D01*
X111676184Y-107155000D01*
X111843816Y-107155000D01*
X112008228Y-107187703D01*
X112008228Y-107187703D01*
G37*
G36*
X116789468Y-104035565D02*
G01*
X116828138Y-104047296D01*
X116863777Y-104066346D01*
X116895017Y-104091983D01*
X116920654Y-104123223D01*
X116939704Y-104158862D01*
X116951435Y-104197532D01*
X116956000Y-104243888D01*
X116956000Y-104895112D01*
X116951435Y-104941468D01*
X116939704Y-104980138D01*
X116920654Y-105015777D01*
X116895017Y-105047017D01*
X116863777Y-105072654D01*
X116828138Y-105091704D01*
X116789468Y-105103435D01*
X116743112Y-105108000D01*
X115666888Y-105108000D01*
X115620532Y-105103435D01*
X115581862Y-105091704D01*
X115546223Y-105072654D01*
X115514983Y-105047017D01*
X115489346Y-105015777D01*
X115470296Y-104980138D01*
X115458565Y-104941468D01*
X115454000Y-104895112D01*
X115454000Y-104243888D01*
X115458565Y-104197532D01*
X115470296Y-104158862D01*
X115489346Y-104123223D01*
X115514983Y-104091983D01*
X115546223Y-104066346D01*
X115581862Y-104047296D01*
X115620532Y-104035565D01*
X115666888Y-104031000D01*
X116743112Y-104031000D01*
X116789468Y-104035565D01*
X116789468Y-104035565D01*
G37*
G36*
X118892968Y-102123565D02*
G01*
X118931638Y-102135296D01*
X118967277Y-102154346D01*
X118998517Y-102179983D01*
X119024154Y-102211223D01*
X119043204Y-102246862D01*
X119054935Y-102285532D01*
X119059500Y-102331888D01*
X119059500Y-103408112D01*
X119054935Y-103454468D01*
X119043204Y-103493138D01*
X119024154Y-103528777D01*
X118998517Y-103560017D01*
X118967277Y-103585654D01*
X118931638Y-103604704D01*
X118892968Y-103616435D01*
X118846612Y-103621000D01*
X118195388Y-103621000D01*
X118149032Y-103616435D01*
X118110362Y-103604704D01*
X118074723Y-103585654D01*
X118043483Y-103560017D01*
X118017846Y-103528777D01*
X117998796Y-103493138D01*
X117987065Y-103454468D01*
X117982500Y-103408112D01*
X117982500Y-102331888D01*
X117987065Y-102285532D01*
X117998796Y-102246862D01*
X118017846Y-102211223D01*
X118043483Y-102179983D01*
X118074723Y-102154346D01*
X118110362Y-102135296D01*
X118149032Y-102123565D01*
X118195388Y-102119000D01*
X118846612Y-102119000D01*
X118892968Y-102123565D01*
X118892968Y-102123565D01*
G37*
G36*
X120767968Y-102123565D02*
G01*
X120806638Y-102135296D01*
X120842277Y-102154346D01*
X120873517Y-102179983D01*
X120899154Y-102211223D01*
X120918204Y-102246862D01*
X120929935Y-102285532D01*
X120934500Y-102331888D01*
X120934500Y-103408112D01*
X120929935Y-103454468D01*
X120918204Y-103493138D01*
X120899154Y-103528777D01*
X120873517Y-103560017D01*
X120842277Y-103585654D01*
X120806638Y-103604704D01*
X120767968Y-103616435D01*
X120721612Y-103621000D01*
X120070388Y-103621000D01*
X120024032Y-103616435D01*
X119985362Y-103604704D01*
X119949723Y-103585654D01*
X119918483Y-103560017D01*
X119892846Y-103528777D01*
X119873796Y-103493138D01*
X119862065Y-103454468D01*
X119857500Y-103408112D01*
X119857500Y-102331888D01*
X119862065Y-102285532D01*
X119873796Y-102246862D01*
X119892846Y-102211223D01*
X119918483Y-102179983D01*
X119949723Y-102154346D01*
X119985362Y-102135296D01*
X120024032Y-102123565D01*
X120070388Y-102119000D01*
X120721612Y-102119000D01*
X120767968Y-102123565D01*
X120767968Y-102123565D01*
G37*
G36*
X116789468Y-102160565D02*
G01*
X116828138Y-102172296D01*
X116863777Y-102191346D01*
X116895017Y-102216983D01*
X116920654Y-102248223D01*
X116939704Y-102283862D01*
X116951435Y-102322532D01*
X116956000Y-102368888D01*
X116956000Y-103020112D01*
X116951435Y-103066468D01*
X116939704Y-103105138D01*
X116920654Y-103140777D01*
X116895017Y-103172017D01*
X116863777Y-103197654D01*
X116828138Y-103216704D01*
X116789468Y-103228435D01*
X116743112Y-103233000D01*
X115666888Y-103233000D01*
X115620532Y-103228435D01*
X115581862Y-103216704D01*
X115546223Y-103197654D01*
X115514983Y-103172017D01*
X115489346Y-103140777D01*
X115470296Y-103105138D01*
X115458565Y-103066468D01*
X115454000Y-103020112D01*
X115454000Y-102368888D01*
X115458565Y-102322532D01*
X115470296Y-102283862D01*
X115489346Y-102248223D01*
X115514983Y-102216983D01*
X115546223Y-102191346D01*
X115581862Y-102172296D01*
X115620532Y-102160565D01*
X115666888Y-102156000D01*
X116743112Y-102156000D01*
X116789468Y-102160565D01*
X116789468Y-102160565D01*
G37*
G36*
X182448468Y-87604065D02*
G01*
X182487138Y-87615796D01*
X182522777Y-87634846D01*
X182554017Y-87660483D01*
X182579654Y-87691723D01*
X182598704Y-87727362D01*
X182610435Y-87766032D01*
X182615000Y-87812388D01*
X182615000Y-88463612D01*
X182610435Y-88509968D01*
X182598704Y-88548638D01*
X182579654Y-88584277D01*
X182554017Y-88615517D01*
X182522777Y-88641154D01*
X182487138Y-88660204D01*
X182448468Y-88671935D01*
X182402112Y-88676500D01*
X181325888Y-88676500D01*
X181279532Y-88671935D01*
X181240862Y-88660204D01*
X181205223Y-88641154D01*
X181173983Y-88615517D01*
X181148346Y-88584277D01*
X181129296Y-88548638D01*
X181117565Y-88509968D01*
X181113000Y-88463612D01*
X181113000Y-87812388D01*
X181117565Y-87766032D01*
X181129296Y-87727362D01*
X181148346Y-87691723D01*
X181173983Y-87660483D01*
X181205223Y-87634846D01*
X181240862Y-87615796D01*
X181279532Y-87604065D01*
X181325888Y-87599500D01*
X182402112Y-87599500D01*
X182448468Y-87604065D01*
X182448468Y-87604065D01*
G37*
G36*
X161112468Y-87525565D02*
G01*
X161151138Y-87537296D01*
X161186777Y-87556346D01*
X161218017Y-87581983D01*
X161243654Y-87613223D01*
X161262704Y-87648862D01*
X161274435Y-87687532D01*
X161279000Y-87733888D01*
X161279000Y-88385112D01*
X161274435Y-88431468D01*
X161262704Y-88470138D01*
X161243654Y-88505777D01*
X161218017Y-88537017D01*
X161186777Y-88562654D01*
X161151138Y-88581704D01*
X161112468Y-88593435D01*
X161066112Y-88598000D01*
X159989888Y-88598000D01*
X159943532Y-88593435D01*
X159904862Y-88581704D01*
X159869223Y-88562654D01*
X159837983Y-88537017D01*
X159812346Y-88505777D01*
X159793296Y-88470138D01*
X159781565Y-88431468D01*
X159777000Y-88385112D01*
X159777000Y-87733888D01*
X159781565Y-87687532D01*
X159793296Y-87648862D01*
X159812346Y-87613223D01*
X159837983Y-87581983D01*
X159869223Y-87556346D01*
X159904862Y-87537296D01*
X159943532Y-87525565D01*
X159989888Y-87521000D01*
X161066112Y-87521000D01*
X161112468Y-87525565D01*
X161112468Y-87525565D01*
G37*
G36*
X171780468Y-87477065D02*
G01*
X171819138Y-87488796D01*
X171854777Y-87507846D01*
X171886017Y-87533483D01*
X171911654Y-87564723D01*
X171930704Y-87600362D01*
X171942435Y-87639032D01*
X171947000Y-87685388D01*
X171947000Y-88336612D01*
X171942435Y-88382968D01*
X171930704Y-88421638D01*
X171911654Y-88457277D01*
X171886017Y-88488517D01*
X171854777Y-88514154D01*
X171819138Y-88533204D01*
X171780468Y-88544935D01*
X171734112Y-88549500D01*
X170657888Y-88549500D01*
X170611532Y-88544935D01*
X170572862Y-88533204D01*
X170537223Y-88514154D01*
X170505983Y-88488517D01*
X170480346Y-88457277D01*
X170461296Y-88421638D01*
X170449565Y-88382968D01*
X170445000Y-88336612D01*
X170445000Y-87685388D01*
X170449565Y-87639032D01*
X170461296Y-87600362D01*
X170480346Y-87564723D01*
X170505983Y-87533483D01*
X170537223Y-87507846D01*
X170572862Y-87488796D01*
X170611532Y-87477065D01*
X170657888Y-87472500D01*
X171734112Y-87472500D01*
X171780468Y-87477065D01*
X171780468Y-87477065D01*
G37*
G36*
X150444468Y-87447065D02*
G01*
X150483138Y-87458796D01*
X150518777Y-87477846D01*
X150550017Y-87503483D01*
X150575654Y-87534723D01*
X150594704Y-87570362D01*
X150606435Y-87609032D01*
X150611000Y-87655388D01*
X150611000Y-88306612D01*
X150606435Y-88352968D01*
X150594704Y-88391638D01*
X150575654Y-88427277D01*
X150550017Y-88458517D01*
X150518777Y-88484154D01*
X150483138Y-88503204D01*
X150444468Y-88514935D01*
X150398112Y-88519500D01*
X149321888Y-88519500D01*
X149275532Y-88514935D01*
X149236862Y-88503204D01*
X149201223Y-88484154D01*
X149169983Y-88458517D01*
X149144346Y-88427277D01*
X149125296Y-88391638D01*
X149113565Y-88352968D01*
X149109000Y-88306612D01*
X149109000Y-87655388D01*
X149113565Y-87609032D01*
X149125296Y-87570362D01*
X149144346Y-87534723D01*
X149169983Y-87503483D01*
X149201223Y-87477846D01*
X149236862Y-87458796D01*
X149275532Y-87447065D01*
X149321888Y-87442500D01*
X150398112Y-87442500D01*
X150444468Y-87447065D01*
X150444468Y-87447065D01*
G37*
G36*
X139776468Y-87447065D02*
G01*
X139815138Y-87458796D01*
X139850777Y-87477846D01*
X139882017Y-87503483D01*
X139907654Y-87534723D01*
X139926704Y-87570362D01*
X139938435Y-87609032D01*
X139943000Y-87655388D01*
X139943000Y-88306612D01*
X139938435Y-88352968D01*
X139926704Y-88391638D01*
X139907654Y-88427277D01*
X139882017Y-88458517D01*
X139850777Y-88484154D01*
X139815138Y-88503204D01*
X139776468Y-88514935D01*
X139730112Y-88519500D01*
X138653888Y-88519500D01*
X138607532Y-88514935D01*
X138568862Y-88503204D01*
X138533223Y-88484154D01*
X138501983Y-88458517D01*
X138476346Y-88427277D01*
X138457296Y-88391638D01*
X138445565Y-88352968D01*
X138441000Y-88306612D01*
X138441000Y-87655388D01*
X138445565Y-87609032D01*
X138457296Y-87570362D01*
X138476346Y-87534723D01*
X138501983Y-87503483D01*
X138533223Y-87477846D01*
X138568862Y-87458796D01*
X138607532Y-87447065D01*
X138653888Y-87442500D01*
X139730112Y-87442500D01*
X139776468Y-87447065D01*
X139776468Y-87447065D01*
G37*
G36*
X129108468Y-87447065D02*
G01*
X129147138Y-87458796D01*
X129182777Y-87477846D01*
X129214017Y-87503483D01*
X129239654Y-87534723D01*
X129258704Y-87570362D01*
X129270435Y-87609032D01*
X129275000Y-87655388D01*
X129275000Y-88306612D01*
X129270435Y-88352968D01*
X129258704Y-88391638D01*
X129239654Y-88427277D01*
X129214017Y-88458517D01*
X129182777Y-88484154D01*
X129147138Y-88503204D01*
X129108468Y-88514935D01*
X129062112Y-88519500D01*
X127985888Y-88519500D01*
X127939532Y-88514935D01*
X127900862Y-88503204D01*
X127865223Y-88484154D01*
X127833983Y-88458517D01*
X127808346Y-88427277D01*
X127789296Y-88391638D01*
X127777565Y-88352968D01*
X127773000Y-88306612D01*
X127773000Y-87655388D01*
X127777565Y-87609032D01*
X127789296Y-87570362D01*
X127808346Y-87534723D01*
X127833983Y-87503483D01*
X127865223Y-87477846D01*
X127900862Y-87458796D01*
X127939532Y-87447065D01*
X127985888Y-87442500D01*
X129062112Y-87442500D01*
X129108468Y-87447065D01*
X129108468Y-87447065D01*
G37*
G36*
X118440468Y-87447065D02*
G01*
X118479138Y-87458796D01*
X118514777Y-87477846D01*
X118546017Y-87503483D01*
X118571654Y-87534723D01*
X118590704Y-87570362D01*
X118602435Y-87609032D01*
X118607000Y-87655388D01*
X118607000Y-88306612D01*
X118602435Y-88352968D01*
X118590704Y-88391638D01*
X118571654Y-88427277D01*
X118546017Y-88458517D01*
X118514777Y-88484154D01*
X118479138Y-88503204D01*
X118440468Y-88514935D01*
X118394112Y-88519500D01*
X117317888Y-88519500D01*
X117271532Y-88514935D01*
X117232862Y-88503204D01*
X117197223Y-88484154D01*
X117165983Y-88458517D01*
X117140346Y-88427277D01*
X117121296Y-88391638D01*
X117109565Y-88352968D01*
X117105000Y-88306612D01*
X117105000Y-87655388D01*
X117109565Y-87609032D01*
X117121296Y-87570362D01*
X117140346Y-87534723D01*
X117165983Y-87503483D01*
X117197223Y-87477846D01*
X117232862Y-87458796D01*
X117271532Y-87447065D01*
X117317888Y-87442500D01*
X118394112Y-87442500D01*
X118440468Y-87447065D01*
X118440468Y-87447065D01*
G37*
G36*
X107772468Y-87447065D02*
G01*
X107811138Y-87458796D01*
X107846777Y-87477846D01*
X107878017Y-87503483D01*
X107903654Y-87534723D01*
X107922704Y-87570362D01*
X107934435Y-87609032D01*
X107939000Y-87655388D01*
X107939000Y-88306612D01*
X107934435Y-88352968D01*
X107922704Y-88391638D01*
X107903654Y-88427277D01*
X107878017Y-88458517D01*
X107846777Y-88484154D01*
X107811138Y-88503204D01*
X107772468Y-88514935D01*
X107726112Y-88519500D01*
X106649888Y-88519500D01*
X106603532Y-88514935D01*
X106564862Y-88503204D01*
X106529223Y-88484154D01*
X106497983Y-88458517D01*
X106472346Y-88427277D01*
X106453296Y-88391638D01*
X106441565Y-88352968D01*
X106437000Y-88306612D01*
X106437000Y-87655388D01*
X106441565Y-87609032D01*
X106453296Y-87570362D01*
X106472346Y-87534723D01*
X106497983Y-87503483D01*
X106529223Y-87477846D01*
X106564862Y-87458796D01*
X106603532Y-87447065D01*
X106649888Y-87442500D01*
X107726112Y-87442500D01*
X107772468Y-87447065D01*
X107772468Y-87447065D01*
G37*
G36*
X185133000Y-87515000D02*
G01*
X183731000Y-87515000D01*
X183731000Y-85713000D01*
X185133000Y-85713000D01*
X185133000Y-87515000D01*
X185133000Y-87515000D01*
G37*
G36*
X188633000Y-87515000D02*
G01*
X187231000Y-87515000D01*
X187231000Y-85713000D01*
X188633000Y-85713000D01*
X188633000Y-87515000D01*
X188633000Y-87515000D01*
G37*
G36*
X182448468Y-85729065D02*
G01*
X182487138Y-85740796D01*
X182522777Y-85759846D01*
X182554017Y-85785483D01*
X182579654Y-85816723D01*
X182598704Y-85852362D01*
X182610435Y-85891032D01*
X182615000Y-85937388D01*
X182615000Y-86588612D01*
X182610435Y-86634968D01*
X182598704Y-86673638D01*
X182579654Y-86709277D01*
X182554017Y-86740517D01*
X182522777Y-86766154D01*
X182487138Y-86785204D01*
X182448468Y-86796935D01*
X182402112Y-86801500D01*
X181325888Y-86801500D01*
X181279532Y-86796935D01*
X181240862Y-86785204D01*
X181205223Y-86766154D01*
X181173983Y-86740517D01*
X181148346Y-86709277D01*
X181129296Y-86673638D01*
X181117565Y-86634968D01*
X181113000Y-86588612D01*
X181113000Y-85937388D01*
X181117565Y-85891032D01*
X181129296Y-85852362D01*
X181148346Y-85816723D01*
X181173983Y-85785483D01*
X181205223Y-85759846D01*
X181240862Y-85740796D01*
X181279532Y-85729065D01*
X181325888Y-85724500D01*
X182402112Y-85724500D01*
X182448468Y-85729065D01*
X182448468Y-85729065D01*
G37*
G36*
X161112468Y-85650565D02*
G01*
X161151138Y-85662296D01*
X161186777Y-85681346D01*
X161218017Y-85706983D01*
X161243654Y-85738223D01*
X161262704Y-85773862D01*
X161274435Y-85812532D01*
X161279000Y-85858888D01*
X161279000Y-86510112D01*
X161274435Y-86556468D01*
X161262704Y-86595138D01*
X161243654Y-86630777D01*
X161218017Y-86662017D01*
X161186777Y-86687654D01*
X161151138Y-86706704D01*
X161112468Y-86718435D01*
X161066112Y-86723000D01*
X159989888Y-86723000D01*
X159943532Y-86718435D01*
X159904862Y-86706704D01*
X159869223Y-86687654D01*
X159837983Y-86662017D01*
X159812346Y-86630777D01*
X159793296Y-86595138D01*
X159781565Y-86556468D01*
X159777000Y-86510112D01*
X159777000Y-85858888D01*
X159781565Y-85812532D01*
X159793296Y-85773862D01*
X159812346Y-85738223D01*
X159837983Y-85706983D01*
X159869223Y-85681346D01*
X159904862Y-85662296D01*
X159943532Y-85650565D01*
X159989888Y-85646000D01*
X161066112Y-85646000D01*
X161112468Y-85650565D01*
X161112468Y-85650565D01*
G37*
G36*
X171780468Y-85602065D02*
G01*
X171819138Y-85613796D01*
X171854777Y-85632846D01*
X171886017Y-85658483D01*
X171911654Y-85689723D01*
X171930704Y-85725362D01*
X171942435Y-85764032D01*
X171947000Y-85810388D01*
X171947000Y-86461612D01*
X171942435Y-86507968D01*
X171930704Y-86546638D01*
X171911654Y-86582277D01*
X171886017Y-86613517D01*
X171854777Y-86639154D01*
X171819138Y-86658204D01*
X171780468Y-86669935D01*
X171734112Y-86674500D01*
X170657888Y-86674500D01*
X170611532Y-86669935D01*
X170572862Y-86658204D01*
X170537223Y-86639154D01*
X170505983Y-86613517D01*
X170480346Y-86582277D01*
X170461296Y-86546638D01*
X170449565Y-86507968D01*
X170445000Y-86461612D01*
X170445000Y-85810388D01*
X170449565Y-85764032D01*
X170461296Y-85725362D01*
X170480346Y-85689723D01*
X170505983Y-85658483D01*
X170537223Y-85632846D01*
X170572862Y-85613796D01*
X170611532Y-85602065D01*
X170657888Y-85597500D01*
X171734112Y-85597500D01*
X171780468Y-85602065D01*
X171780468Y-85602065D01*
G37*
G36*
X150444468Y-85572065D02*
G01*
X150483138Y-85583796D01*
X150518777Y-85602846D01*
X150550017Y-85628483D01*
X150575654Y-85659723D01*
X150594704Y-85695362D01*
X150606435Y-85734032D01*
X150611000Y-85780388D01*
X150611000Y-86431612D01*
X150606435Y-86477968D01*
X150594704Y-86516638D01*
X150575654Y-86552277D01*
X150550017Y-86583517D01*
X150518777Y-86609154D01*
X150483138Y-86628204D01*
X150444468Y-86639935D01*
X150398112Y-86644500D01*
X149321888Y-86644500D01*
X149275532Y-86639935D01*
X149236862Y-86628204D01*
X149201223Y-86609154D01*
X149169983Y-86583517D01*
X149144346Y-86552277D01*
X149125296Y-86516638D01*
X149113565Y-86477968D01*
X149109000Y-86431612D01*
X149109000Y-85780388D01*
X149113565Y-85734032D01*
X149125296Y-85695362D01*
X149144346Y-85659723D01*
X149169983Y-85628483D01*
X149201223Y-85602846D01*
X149236862Y-85583796D01*
X149275532Y-85572065D01*
X149321888Y-85567500D01*
X150398112Y-85567500D01*
X150444468Y-85572065D01*
X150444468Y-85572065D01*
G37*
G36*
X139776468Y-85572065D02*
G01*
X139815138Y-85583796D01*
X139850777Y-85602846D01*
X139882017Y-85628483D01*
X139907654Y-85659723D01*
X139926704Y-85695362D01*
X139938435Y-85734032D01*
X139943000Y-85780388D01*
X139943000Y-86431612D01*
X139938435Y-86477968D01*
X139926704Y-86516638D01*
X139907654Y-86552277D01*
X139882017Y-86583517D01*
X139850777Y-86609154D01*
X139815138Y-86628204D01*
X139776468Y-86639935D01*
X139730112Y-86644500D01*
X138653888Y-86644500D01*
X138607532Y-86639935D01*
X138568862Y-86628204D01*
X138533223Y-86609154D01*
X138501983Y-86583517D01*
X138476346Y-86552277D01*
X138457296Y-86516638D01*
X138445565Y-86477968D01*
X138441000Y-86431612D01*
X138441000Y-85780388D01*
X138445565Y-85734032D01*
X138457296Y-85695362D01*
X138476346Y-85659723D01*
X138501983Y-85628483D01*
X138533223Y-85602846D01*
X138568862Y-85583796D01*
X138607532Y-85572065D01*
X138653888Y-85567500D01*
X139730112Y-85567500D01*
X139776468Y-85572065D01*
X139776468Y-85572065D01*
G37*
G36*
X129108468Y-85572065D02*
G01*
X129147138Y-85583796D01*
X129182777Y-85602846D01*
X129214017Y-85628483D01*
X129239654Y-85659723D01*
X129258704Y-85695362D01*
X129270435Y-85734032D01*
X129275000Y-85780388D01*
X129275000Y-86431612D01*
X129270435Y-86477968D01*
X129258704Y-86516638D01*
X129239654Y-86552277D01*
X129214017Y-86583517D01*
X129182777Y-86609154D01*
X129147138Y-86628204D01*
X129108468Y-86639935D01*
X129062112Y-86644500D01*
X127985888Y-86644500D01*
X127939532Y-86639935D01*
X127900862Y-86628204D01*
X127865223Y-86609154D01*
X127833983Y-86583517D01*
X127808346Y-86552277D01*
X127789296Y-86516638D01*
X127777565Y-86477968D01*
X127773000Y-86431612D01*
X127773000Y-85780388D01*
X127777565Y-85734032D01*
X127789296Y-85695362D01*
X127808346Y-85659723D01*
X127833983Y-85628483D01*
X127865223Y-85602846D01*
X127900862Y-85583796D01*
X127939532Y-85572065D01*
X127985888Y-85567500D01*
X129062112Y-85567500D01*
X129108468Y-85572065D01*
X129108468Y-85572065D01*
G37*
G36*
X118440468Y-85572065D02*
G01*
X118479138Y-85583796D01*
X118514777Y-85602846D01*
X118546017Y-85628483D01*
X118571654Y-85659723D01*
X118590704Y-85695362D01*
X118602435Y-85734032D01*
X118607000Y-85780388D01*
X118607000Y-86431612D01*
X118602435Y-86477968D01*
X118590704Y-86516638D01*
X118571654Y-86552277D01*
X118546017Y-86583517D01*
X118514777Y-86609154D01*
X118479138Y-86628204D01*
X118440468Y-86639935D01*
X118394112Y-86644500D01*
X117317888Y-86644500D01*
X117271532Y-86639935D01*
X117232862Y-86628204D01*
X117197223Y-86609154D01*
X117165983Y-86583517D01*
X117140346Y-86552277D01*
X117121296Y-86516638D01*
X117109565Y-86477968D01*
X117105000Y-86431612D01*
X117105000Y-85780388D01*
X117109565Y-85734032D01*
X117121296Y-85695362D01*
X117140346Y-85659723D01*
X117165983Y-85628483D01*
X117197223Y-85602846D01*
X117232862Y-85583796D01*
X117271532Y-85572065D01*
X117317888Y-85567500D01*
X118394112Y-85567500D01*
X118440468Y-85572065D01*
X118440468Y-85572065D01*
G37*
G36*
X107772468Y-85572065D02*
G01*
X107811138Y-85583796D01*
X107846777Y-85602846D01*
X107878017Y-85628483D01*
X107903654Y-85659723D01*
X107922704Y-85695362D01*
X107934435Y-85734032D01*
X107939000Y-85780388D01*
X107939000Y-86431612D01*
X107934435Y-86477968D01*
X107922704Y-86516638D01*
X107903654Y-86552277D01*
X107878017Y-86583517D01*
X107846777Y-86609154D01*
X107811138Y-86628204D01*
X107772468Y-86639935D01*
X107726112Y-86644500D01*
X106649888Y-86644500D01*
X106603532Y-86639935D01*
X106564862Y-86628204D01*
X106529223Y-86609154D01*
X106497983Y-86583517D01*
X106472346Y-86552277D01*
X106453296Y-86516638D01*
X106441565Y-86477968D01*
X106437000Y-86431612D01*
X106437000Y-85780388D01*
X106441565Y-85734032D01*
X106453296Y-85695362D01*
X106472346Y-85659723D01*
X106497983Y-85628483D01*
X106529223Y-85602846D01*
X106564862Y-85583796D01*
X106603532Y-85572065D01*
X106649888Y-85567500D01*
X107726112Y-85567500D01*
X107772468Y-85572065D01*
X107772468Y-85572065D01*
G37*
G36*
X163264719Y-81767520D02*
G01*
X163453880Y-81824901D01*
X163453883Y-81824902D01*
X163546333Y-81874318D01*
X163628212Y-81918083D01*
X163781015Y-82043485D01*
X163906417Y-82196288D01*
X163999599Y-82370619D01*
X164056980Y-82559780D01*
X164071500Y-82707206D01*
X164071500Y-82900793D01*
X164056980Y-83048219D01*
X163999599Y-83237380D01*
X163999598Y-83237383D01*
X163950182Y-83329833D01*
X163906417Y-83411712D01*
X163781015Y-83564515D01*
X163628212Y-83689917D01*
X163453881Y-83783099D01*
X163264720Y-83840480D01*
X163068000Y-83859855D01*
X162871281Y-83840480D01*
X162682120Y-83783099D01*
X162507788Y-83689917D01*
X162354985Y-83564515D01*
X162229583Y-83411712D01*
X162136401Y-83237381D01*
X162079020Y-83048220D01*
X162064500Y-82900794D01*
X162064500Y-82707207D01*
X162079020Y-82559781D01*
X162136401Y-82370620D01*
X162136402Y-82370617D01*
X162185818Y-82278167D01*
X162229583Y-82196288D01*
X162354985Y-82043485D01*
X162507788Y-81918083D01*
X162682119Y-81824901D01*
X162871280Y-81767520D01*
X163068000Y-81748145D01*
X163264719Y-81767520D01*
X163264719Y-81767520D01*
G37*
G36*
X184600719Y-81767520D02*
G01*
X184789880Y-81824901D01*
X184789883Y-81824902D01*
X184882333Y-81874318D01*
X184964212Y-81918083D01*
X185117015Y-82043485D01*
X185242417Y-82196288D01*
X185335599Y-82370619D01*
X185392980Y-82559780D01*
X185407500Y-82707206D01*
X185407500Y-82900793D01*
X185392980Y-83048219D01*
X185335599Y-83237380D01*
X185335598Y-83237383D01*
X185286182Y-83329833D01*
X185242417Y-83411712D01*
X185117015Y-83564515D01*
X184964212Y-83689917D01*
X184789881Y-83783099D01*
X184600720Y-83840480D01*
X184404000Y-83859855D01*
X184207281Y-83840480D01*
X184018120Y-83783099D01*
X183843788Y-83689917D01*
X183690985Y-83564515D01*
X183565583Y-83411712D01*
X183472401Y-83237381D01*
X183415020Y-83048220D01*
X183400500Y-82900794D01*
X183400500Y-82707207D01*
X183415020Y-82559781D01*
X183472401Y-82370620D01*
X183472402Y-82370617D01*
X183521818Y-82278167D01*
X183565583Y-82196288D01*
X183690985Y-82043485D01*
X183843788Y-81918083D01*
X184018119Y-81824901D01*
X184207280Y-81767520D01*
X184404000Y-81748145D01*
X184600719Y-81767520D01*
X184600719Y-81767520D01*
G37*
G36*
X187140719Y-81767520D02*
G01*
X187329880Y-81824901D01*
X187329883Y-81824902D01*
X187422333Y-81874318D01*
X187504212Y-81918083D01*
X187657015Y-82043485D01*
X187782417Y-82196288D01*
X187875599Y-82370619D01*
X187932980Y-82559780D01*
X187947500Y-82707206D01*
X187947500Y-82900793D01*
X187932980Y-83048219D01*
X187875599Y-83237380D01*
X187875598Y-83237383D01*
X187826182Y-83329833D01*
X187782417Y-83411712D01*
X187657015Y-83564515D01*
X187504212Y-83689917D01*
X187329881Y-83783099D01*
X187140720Y-83840480D01*
X186944000Y-83859855D01*
X186747281Y-83840480D01*
X186558120Y-83783099D01*
X186383788Y-83689917D01*
X186230985Y-83564515D01*
X186105583Y-83411712D01*
X186012401Y-83237381D01*
X185955020Y-83048220D01*
X185940500Y-82900794D01*
X185940500Y-82707207D01*
X185955020Y-82559781D01*
X186012401Y-82370620D01*
X186012402Y-82370617D01*
X186061818Y-82278167D01*
X186105583Y-82196288D01*
X186230985Y-82043485D01*
X186383788Y-81918083D01*
X186558119Y-81824901D01*
X186747280Y-81767520D01*
X186944000Y-81748145D01*
X187140719Y-81767520D01*
X187140719Y-81767520D01*
G37*
G36*
X123132719Y-81767520D02*
G01*
X123321880Y-81824901D01*
X123321883Y-81824902D01*
X123414333Y-81874318D01*
X123496212Y-81918083D01*
X123649015Y-82043485D01*
X123774417Y-82196288D01*
X123867599Y-82370619D01*
X123924980Y-82559780D01*
X123939500Y-82707206D01*
X123939500Y-82900793D01*
X123924980Y-83048219D01*
X123867599Y-83237380D01*
X123867598Y-83237383D01*
X123818182Y-83329833D01*
X123774417Y-83411712D01*
X123649015Y-83564515D01*
X123496212Y-83689917D01*
X123321881Y-83783099D01*
X123132720Y-83840480D01*
X122936000Y-83859855D01*
X122739281Y-83840480D01*
X122550120Y-83783099D01*
X122375788Y-83689917D01*
X122222985Y-83564515D01*
X122097583Y-83411712D01*
X122004401Y-83237381D01*
X121947020Y-83048220D01*
X121932500Y-82900794D01*
X121932500Y-82707207D01*
X121947020Y-82559781D01*
X122004401Y-82370620D01*
X122004402Y-82370617D01*
X122053818Y-82278167D01*
X122097583Y-82196288D01*
X122222985Y-82043485D01*
X122375788Y-81918083D01*
X122550119Y-81824901D01*
X122739280Y-81767520D01*
X122936000Y-81748145D01*
X123132719Y-81767520D01*
X123132719Y-81767520D01*
G37*
G36*
X109924719Y-81767520D02*
G01*
X110113880Y-81824901D01*
X110113883Y-81824902D01*
X110206333Y-81874318D01*
X110288212Y-81918083D01*
X110441015Y-82043485D01*
X110566417Y-82196288D01*
X110659599Y-82370619D01*
X110716980Y-82559780D01*
X110731500Y-82707206D01*
X110731500Y-82900793D01*
X110716980Y-83048219D01*
X110659599Y-83237380D01*
X110659598Y-83237383D01*
X110610182Y-83329833D01*
X110566417Y-83411712D01*
X110441015Y-83564515D01*
X110288212Y-83689917D01*
X110113881Y-83783099D01*
X109924720Y-83840480D01*
X109728000Y-83859855D01*
X109531281Y-83840480D01*
X109342120Y-83783099D01*
X109167788Y-83689917D01*
X109014985Y-83564515D01*
X108889583Y-83411712D01*
X108796401Y-83237381D01*
X108739020Y-83048220D01*
X108724500Y-82900794D01*
X108724500Y-82707207D01*
X108739020Y-82559781D01*
X108796401Y-82370620D01*
X108796402Y-82370617D01*
X108845818Y-82278167D01*
X108889583Y-82196288D01*
X109014985Y-82043485D01*
X109167788Y-81918083D01*
X109342119Y-81824901D01*
X109531280Y-81767520D01*
X109728000Y-81748145D01*
X109924719Y-81767520D01*
X109924719Y-81767520D01*
G37*
G36*
X120592719Y-81767520D02*
G01*
X120781880Y-81824901D01*
X120781883Y-81824902D01*
X120874333Y-81874318D01*
X120956212Y-81918083D01*
X121109015Y-82043485D01*
X121234417Y-82196288D01*
X121327599Y-82370619D01*
X121384980Y-82559780D01*
X121399500Y-82707206D01*
X121399500Y-82900793D01*
X121384980Y-83048219D01*
X121327599Y-83237380D01*
X121327598Y-83237383D01*
X121278182Y-83329833D01*
X121234417Y-83411712D01*
X121109015Y-83564515D01*
X120956212Y-83689917D01*
X120781881Y-83783099D01*
X120592720Y-83840480D01*
X120396000Y-83859855D01*
X120199281Y-83840480D01*
X120010120Y-83783099D01*
X119835788Y-83689917D01*
X119682985Y-83564515D01*
X119557583Y-83411712D01*
X119464401Y-83237381D01*
X119407020Y-83048220D01*
X119392500Y-82900794D01*
X119392500Y-82707207D01*
X119407020Y-82559781D01*
X119464401Y-82370620D01*
X119464402Y-82370617D01*
X119513818Y-82278167D01*
X119557583Y-82196288D01*
X119682985Y-82043485D01*
X119835788Y-81918083D01*
X120010119Y-81824901D01*
X120199280Y-81767520D01*
X120396000Y-81748145D01*
X120592719Y-81767520D01*
X120592719Y-81767520D01*
G37*
G36*
X176472719Y-81767520D02*
G01*
X176661880Y-81824901D01*
X176661883Y-81824902D01*
X176754333Y-81874318D01*
X176836212Y-81918083D01*
X176989015Y-82043485D01*
X177114417Y-82196288D01*
X177207599Y-82370619D01*
X177264980Y-82559780D01*
X177279500Y-82707206D01*
X177279500Y-82900793D01*
X177264980Y-83048219D01*
X177207599Y-83237380D01*
X177207598Y-83237383D01*
X177158182Y-83329833D01*
X177114417Y-83411712D01*
X176989015Y-83564515D01*
X176836212Y-83689917D01*
X176661881Y-83783099D01*
X176472720Y-83840480D01*
X176276000Y-83859855D01*
X176079281Y-83840480D01*
X175890120Y-83783099D01*
X175715788Y-83689917D01*
X175562985Y-83564515D01*
X175437583Y-83411712D01*
X175344401Y-83237381D01*
X175287020Y-83048220D01*
X175272500Y-82900794D01*
X175272500Y-82707207D01*
X175287020Y-82559781D01*
X175344401Y-82370620D01*
X175344402Y-82370617D01*
X175393818Y-82278167D01*
X175437583Y-82196288D01*
X175562985Y-82043485D01*
X175715788Y-81918083D01*
X175890119Y-81824901D01*
X176079280Y-81767520D01*
X176276000Y-81748145D01*
X176472719Y-81767520D01*
X176472719Y-81767520D01*
G37*
G36*
X112464719Y-81767520D02*
G01*
X112653880Y-81824901D01*
X112653883Y-81824902D01*
X112746333Y-81874318D01*
X112828212Y-81918083D01*
X112981015Y-82043485D01*
X113106417Y-82196288D01*
X113199599Y-82370619D01*
X113256980Y-82559780D01*
X113271500Y-82707206D01*
X113271500Y-82900793D01*
X113256980Y-83048219D01*
X113199599Y-83237380D01*
X113199598Y-83237383D01*
X113150182Y-83329833D01*
X113106417Y-83411712D01*
X112981015Y-83564515D01*
X112828212Y-83689917D01*
X112653881Y-83783099D01*
X112464720Y-83840480D01*
X112268000Y-83859855D01*
X112071281Y-83840480D01*
X111882120Y-83783099D01*
X111707788Y-83689917D01*
X111554985Y-83564515D01*
X111429583Y-83411712D01*
X111336401Y-83237381D01*
X111279020Y-83048220D01*
X111264500Y-82900794D01*
X111264500Y-82707207D01*
X111279020Y-82559781D01*
X111336401Y-82370620D01*
X111336402Y-82370617D01*
X111385818Y-82278167D01*
X111429583Y-82196288D01*
X111554985Y-82043485D01*
X111707788Y-81918083D01*
X111882119Y-81824901D01*
X112071280Y-81767520D01*
X112268000Y-81748145D01*
X112464719Y-81767520D01*
X112464719Y-81767520D01*
G37*
G36*
X131260719Y-81767520D02*
G01*
X131449880Y-81824901D01*
X131449883Y-81824902D01*
X131542333Y-81874318D01*
X131624212Y-81918083D01*
X131777015Y-82043485D01*
X131902417Y-82196288D01*
X131995599Y-82370619D01*
X132052980Y-82559780D01*
X132067500Y-82707206D01*
X132067500Y-82900793D01*
X132052980Y-83048219D01*
X131995599Y-83237380D01*
X131995598Y-83237383D01*
X131946182Y-83329833D01*
X131902417Y-83411712D01*
X131777015Y-83564515D01*
X131624212Y-83689917D01*
X131449881Y-83783099D01*
X131260720Y-83840480D01*
X131064000Y-83859855D01*
X130867281Y-83840480D01*
X130678120Y-83783099D01*
X130503788Y-83689917D01*
X130350985Y-83564515D01*
X130225583Y-83411712D01*
X130132401Y-83237381D01*
X130075020Y-83048220D01*
X130060500Y-82900794D01*
X130060500Y-82707207D01*
X130075020Y-82559781D01*
X130132401Y-82370620D01*
X130132402Y-82370617D01*
X130181818Y-82278167D01*
X130225583Y-82196288D01*
X130350985Y-82043485D01*
X130503788Y-81918083D01*
X130678119Y-81824901D01*
X130867280Y-81767520D01*
X131064000Y-81748145D01*
X131260719Y-81767520D01*
X131260719Y-81767520D01*
G37*
G36*
X173932719Y-81767520D02*
G01*
X174121880Y-81824901D01*
X174121883Y-81824902D01*
X174214333Y-81874318D01*
X174296212Y-81918083D01*
X174449015Y-82043485D01*
X174574417Y-82196288D01*
X174667599Y-82370619D01*
X174724980Y-82559780D01*
X174739500Y-82707206D01*
X174739500Y-82900793D01*
X174724980Y-83048219D01*
X174667599Y-83237380D01*
X174667598Y-83237383D01*
X174618182Y-83329833D01*
X174574417Y-83411712D01*
X174449015Y-83564515D01*
X174296212Y-83689917D01*
X174121881Y-83783099D01*
X173932720Y-83840480D01*
X173736000Y-83859855D01*
X173539281Y-83840480D01*
X173350120Y-83783099D01*
X173175788Y-83689917D01*
X173022985Y-83564515D01*
X172897583Y-83411712D01*
X172804401Y-83237381D01*
X172747020Y-83048220D01*
X172732500Y-82900794D01*
X172732500Y-82707207D01*
X172747020Y-82559781D01*
X172804401Y-82370620D01*
X172804402Y-82370617D01*
X172853818Y-82278167D01*
X172897583Y-82196288D01*
X173022985Y-82043485D01*
X173175788Y-81918083D01*
X173350119Y-81824901D01*
X173539280Y-81767520D01*
X173736000Y-81748145D01*
X173932719Y-81767520D01*
X173932719Y-81767520D01*
G37*
G36*
X165804719Y-81767520D02*
G01*
X165993880Y-81824901D01*
X165993883Y-81824902D01*
X166086333Y-81874318D01*
X166168212Y-81918083D01*
X166321015Y-82043485D01*
X166446417Y-82196288D01*
X166539599Y-82370619D01*
X166596980Y-82559780D01*
X166611500Y-82707206D01*
X166611500Y-82900793D01*
X166596980Y-83048219D01*
X166539599Y-83237380D01*
X166539598Y-83237383D01*
X166490182Y-83329833D01*
X166446417Y-83411712D01*
X166321015Y-83564515D01*
X166168212Y-83689917D01*
X165993881Y-83783099D01*
X165804720Y-83840480D01*
X165608000Y-83859855D01*
X165411281Y-83840480D01*
X165222120Y-83783099D01*
X165047788Y-83689917D01*
X164894985Y-83564515D01*
X164769583Y-83411712D01*
X164676401Y-83237381D01*
X164619020Y-83048220D01*
X164604500Y-82900794D01*
X164604500Y-82707207D01*
X164619020Y-82559781D01*
X164676401Y-82370620D01*
X164676402Y-82370617D01*
X164725818Y-82278167D01*
X164769583Y-82196288D01*
X164894985Y-82043485D01*
X165047788Y-81918083D01*
X165222119Y-81824901D01*
X165411280Y-81767520D01*
X165608000Y-81748145D01*
X165804719Y-81767520D01*
X165804719Y-81767520D01*
G37*
G36*
X141928719Y-81767520D02*
G01*
X142117880Y-81824901D01*
X142117883Y-81824902D01*
X142210333Y-81874318D01*
X142292212Y-81918083D01*
X142445015Y-82043485D01*
X142570417Y-82196288D01*
X142663599Y-82370619D01*
X142720980Y-82559780D01*
X142735500Y-82707206D01*
X142735500Y-82900793D01*
X142720980Y-83048219D01*
X142663599Y-83237380D01*
X142663598Y-83237383D01*
X142614182Y-83329833D01*
X142570417Y-83411712D01*
X142445015Y-83564515D01*
X142292212Y-83689917D01*
X142117881Y-83783099D01*
X141928720Y-83840480D01*
X141732000Y-83859855D01*
X141535281Y-83840480D01*
X141346120Y-83783099D01*
X141171788Y-83689917D01*
X141018985Y-83564515D01*
X140893583Y-83411712D01*
X140800401Y-83237381D01*
X140743020Y-83048220D01*
X140728500Y-82900794D01*
X140728500Y-82707207D01*
X140743020Y-82559781D01*
X140800401Y-82370620D01*
X140800402Y-82370617D01*
X140849818Y-82278167D01*
X140893583Y-82196288D01*
X141018985Y-82043485D01*
X141171788Y-81918083D01*
X141346119Y-81824901D01*
X141535280Y-81767520D01*
X141732000Y-81748145D01*
X141928719Y-81767520D01*
X141928719Y-81767520D01*
G37*
G36*
X144468719Y-81767520D02*
G01*
X144657880Y-81824901D01*
X144657883Y-81824902D01*
X144750333Y-81874318D01*
X144832212Y-81918083D01*
X144985015Y-82043485D01*
X145110417Y-82196288D01*
X145203599Y-82370619D01*
X145260980Y-82559780D01*
X145275500Y-82707206D01*
X145275500Y-82900793D01*
X145260980Y-83048219D01*
X145203599Y-83237380D01*
X145203598Y-83237383D01*
X145154182Y-83329833D01*
X145110417Y-83411712D01*
X144985015Y-83564515D01*
X144832212Y-83689917D01*
X144657881Y-83783099D01*
X144468720Y-83840480D01*
X144272000Y-83859855D01*
X144075281Y-83840480D01*
X143886120Y-83783099D01*
X143711788Y-83689917D01*
X143558985Y-83564515D01*
X143433583Y-83411712D01*
X143340401Y-83237381D01*
X143283020Y-83048220D01*
X143268500Y-82900794D01*
X143268500Y-82707207D01*
X143283020Y-82559781D01*
X143340401Y-82370620D01*
X143340402Y-82370617D01*
X143389818Y-82278167D01*
X143433583Y-82196288D01*
X143558985Y-82043485D01*
X143711788Y-81918083D01*
X143886119Y-81824901D01*
X144075280Y-81767520D01*
X144272000Y-81748145D01*
X144468719Y-81767520D01*
X144468719Y-81767520D01*
G37*
G36*
X152596719Y-81767520D02*
G01*
X152785880Y-81824901D01*
X152785883Y-81824902D01*
X152878333Y-81874318D01*
X152960212Y-81918083D01*
X153113015Y-82043485D01*
X153238417Y-82196288D01*
X153331599Y-82370619D01*
X153388980Y-82559780D01*
X153403500Y-82707206D01*
X153403500Y-82900793D01*
X153388980Y-83048219D01*
X153331599Y-83237380D01*
X153331598Y-83237383D01*
X153282182Y-83329833D01*
X153238417Y-83411712D01*
X153113015Y-83564515D01*
X152960212Y-83689917D01*
X152785881Y-83783099D01*
X152596720Y-83840480D01*
X152400000Y-83859855D01*
X152203281Y-83840480D01*
X152014120Y-83783099D01*
X151839788Y-83689917D01*
X151686985Y-83564515D01*
X151561583Y-83411712D01*
X151468401Y-83237381D01*
X151411020Y-83048220D01*
X151396500Y-82900794D01*
X151396500Y-82707207D01*
X151411020Y-82559781D01*
X151468401Y-82370620D01*
X151468402Y-82370617D01*
X151517818Y-82278167D01*
X151561583Y-82196288D01*
X151686985Y-82043485D01*
X151839788Y-81918083D01*
X152014119Y-81824901D01*
X152203280Y-81767520D01*
X152400000Y-81748145D01*
X152596719Y-81767520D01*
X152596719Y-81767520D01*
G37*
G36*
X155136719Y-81767520D02*
G01*
X155325880Y-81824901D01*
X155325883Y-81824902D01*
X155418333Y-81874318D01*
X155500212Y-81918083D01*
X155653015Y-82043485D01*
X155778417Y-82196288D01*
X155871599Y-82370619D01*
X155928980Y-82559780D01*
X155943500Y-82707206D01*
X155943500Y-82900793D01*
X155928980Y-83048219D01*
X155871599Y-83237380D01*
X155871598Y-83237383D01*
X155822182Y-83329833D01*
X155778417Y-83411712D01*
X155653015Y-83564515D01*
X155500212Y-83689917D01*
X155325881Y-83783099D01*
X155136720Y-83840480D01*
X154940000Y-83859855D01*
X154743281Y-83840480D01*
X154554120Y-83783099D01*
X154379788Y-83689917D01*
X154226985Y-83564515D01*
X154101583Y-83411712D01*
X154008401Y-83237381D01*
X153951020Y-83048220D01*
X153936500Y-82900794D01*
X153936500Y-82707207D01*
X153951020Y-82559781D01*
X154008401Y-82370620D01*
X154008402Y-82370617D01*
X154057818Y-82278167D01*
X154101583Y-82196288D01*
X154226985Y-82043485D01*
X154379788Y-81918083D01*
X154554119Y-81824901D01*
X154743280Y-81767520D01*
X154940000Y-81748145D01*
X155136719Y-81767520D01*
X155136719Y-81767520D01*
G37*
G36*
X133800719Y-81767520D02*
G01*
X133989880Y-81824901D01*
X133989883Y-81824902D01*
X134082333Y-81874318D01*
X134164212Y-81918083D01*
X134317015Y-82043485D01*
X134442417Y-82196288D01*
X134535599Y-82370619D01*
X134592980Y-82559780D01*
X134607500Y-82707206D01*
X134607500Y-82900793D01*
X134592980Y-83048219D01*
X134535599Y-83237380D01*
X134535598Y-83237383D01*
X134486182Y-83329833D01*
X134442417Y-83411712D01*
X134317015Y-83564515D01*
X134164212Y-83689917D01*
X133989881Y-83783099D01*
X133800720Y-83840480D01*
X133604000Y-83859855D01*
X133407281Y-83840480D01*
X133218120Y-83783099D01*
X133043788Y-83689917D01*
X132890985Y-83564515D01*
X132765583Y-83411712D01*
X132672401Y-83237381D01*
X132615020Y-83048220D01*
X132600500Y-82900794D01*
X132600500Y-82707207D01*
X132615020Y-82559781D01*
X132672401Y-82370620D01*
X132672402Y-82370617D01*
X132721818Y-82278167D01*
X132765583Y-82196288D01*
X132890985Y-82043485D01*
X133043788Y-81918083D01*
X133218119Y-81824901D01*
X133407280Y-81767520D01*
X133604000Y-81748145D01*
X133800719Y-81767520D01*
X133800719Y-81767520D01*
G37*
G36*
X182867500Y-83855000D02*
G01*
X180860500Y-83855000D01*
X180860500Y-81753000D01*
X182867500Y-81753000D01*
X182867500Y-83855000D01*
X182867500Y-83855000D01*
G37*
G36*
X129527500Y-83855000D02*
G01*
X127520500Y-83855000D01*
X127520500Y-81753000D01*
X129527500Y-81753000D01*
X129527500Y-83855000D01*
X129527500Y-83855000D01*
G37*
G36*
X118859500Y-83855000D02*
G01*
X116852500Y-83855000D01*
X116852500Y-81753000D01*
X118859500Y-81753000D01*
X118859500Y-83855000D01*
X118859500Y-83855000D01*
G37*
G36*
X140195500Y-83855000D02*
G01*
X138188500Y-83855000D01*
X138188500Y-81753000D01*
X140195500Y-81753000D01*
X140195500Y-83855000D01*
X140195500Y-83855000D01*
G37*
G36*
X172199500Y-83855000D02*
G01*
X170192500Y-83855000D01*
X170192500Y-81753000D01*
X172199500Y-81753000D01*
X172199500Y-83855000D01*
X172199500Y-83855000D01*
G37*
G36*
X161531500Y-83855000D02*
G01*
X159524500Y-83855000D01*
X159524500Y-81753000D01*
X161531500Y-81753000D01*
X161531500Y-83855000D01*
X161531500Y-83855000D01*
G37*
G36*
X150863500Y-83855000D02*
G01*
X148856500Y-83855000D01*
X148856500Y-81753000D01*
X150863500Y-81753000D01*
X150863500Y-83855000D01*
X150863500Y-83855000D01*
G37*
G36*
X108191500Y-83855000D02*
G01*
X106184500Y-83855000D01*
X106184500Y-81753000D01*
X108191500Y-81753000D01*
X108191500Y-83855000D01*
X108191500Y-83855000D01*
G37*
G36*
X176187000Y-79387000D02*
G01*
X174785000Y-79387000D01*
X174785000Y-77585000D01*
X176187000Y-77585000D01*
X176187000Y-79387000D01*
X176187000Y-79387000D01*
G37*
G36*
X108679000Y-79387000D02*
G01*
X107277000Y-79387000D01*
X107277000Y-77585000D01*
X108679000Y-77585000D01*
X108679000Y-79387000D01*
X108679000Y-79387000D01*
G37*
G36*
X112179000Y-79387000D02*
G01*
X110777000Y-79387000D01*
X110777000Y-77585000D01*
X112179000Y-77585000D01*
X112179000Y-79387000D01*
X112179000Y-79387000D01*
G37*
G36*
X119347000Y-79387000D02*
G01*
X117945000Y-79387000D01*
X117945000Y-77585000D01*
X119347000Y-77585000D01*
X119347000Y-79387000D01*
X119347000Y-79387000D01*
G37*
G36*
X122847000Y-79387000D02*
G01*
X121445000Y-79387000D01*
X121445000Y-77585000D01*
X122847000Y-77585000D01*
X122847000Y-79387000D01*
X122847000Y-79387000D01*
G37*
G36*
X130015000Y-79387000D02*
G01*
X128613000Y-79387000D01*
X128613000Y-77585000D01*
X130015000Y-77585000D01*
X130015000Y-79387000D01*
X130015000Y-79387000D01*
G37*
G36*
X141191000Y-79387000D02*
G01*
X139789000Y-79387000D01*
X139789000Y-77585000D01*
X141191000Y-77585000D01*
X141191000Y-79387000D01*
X141191000Y-79387000D01*
G37*
G36*
X144691000Y-79387000D02*
G01*
X143289000Y-79387000D01*
X143289000Y-77585000D01*
X144691000Y-77585000D01*
X144691000Y-79387000D01*
X144691000Y-79387000D01*
G37*
G36*
X151859000Y-79387000D02*
G01*
X150457000Y-79387000D01*
X150457000Y-77585000D01*
X151859000Y-77585000D01*
X151859000Y-79387000D01*
X151859000Y-79387000D01*
G37*
G36*
X155359000Y-79387000D02*
G01*
X153957000Y-79387000D01*
X153957000Y-77585000D01*
X155359000Y-77585000D01*
X155359000Y-79387000D01*
X155359000Y-79387000D01*
G37*
G36*
X162019000Y-79387000D02*
G01*
X160617000Y-79387000D01*
X160617000Y-77585000D01*
X162019000Y-77585000D01*
X162019000Y-79387000D01*
X162019000Y-79387000D01*
G37*
G36*
X165519000Y-79387000D02*
G01*
X164117000Y-79387000D01*
X164117000Y-77585000D01*
X165519000Y-77585000D01*
X165519000Y-79387000D01*
X165519000Y-79387000D01*
G37*
G36*
X183355000Y-79387000D02*
G01*
X181953000Y-79387000D01*
X181953000Y-77585000D01*
X183355000Y-77585000D01*
X183355000Y-79387000D01*
X183355000Y-79387000D01*
G37*
G36*
X133515000Y-79387000D02*
G01*
X132113000Y-79387000D01*
X132113000Y-77585000D01*
X133515000Y-77585000D01*
X133515000Y-79387000D01*
X133515000Y-79387000D01*
G37*
G36*
X186855000Y-79387000D02*
G01*
X185453000Y-79387000D01*
X185453000Y-77585000D01*
X186855000Y-77585000D01*
X186855000Y-79387000D01*
X186855000Y-79387000D01*
G37*
G36*
X172687000Y-79387000D02*
G01*
X171285000Y-79387000D01*
X171285000Y-77585000D01*
X172687000Y-77585000D01*
X172687000Y-79387000D01*
X172687000Y-79387000D01*
G37*
G36*
X109904669Y-64351686D02*
G01*
X110081058Y-64369059D01*
X110420548Y-64472042D01*
X110420550Y-64472043D01*
X110733422Y-64639277D01*
X110733424Y-64639278D01*
X110733423Y-64639278D01*
X111007661Y-64864339D01*
X111232722Y-65138577D01*
X111399958Y-65451452D01*
X111502941Y-65790942D01*
X111537714Y-66144000D01*
X111502941Y-66497058D01*
X111399958Y-66836548D01*
X111399957Y-66836550D01*
X111232723Y-67149422D01*
X111007661Y-67423661D01*
X110733422Y-67648723D01*
X110420550Y-67815957D01*
X110420548Y-67815958D01*
X110081058Y-67918941D01*
X109904669Y-67936314D01*
X109816476Y-67945000D01*
X109639524Y-67945000D01*
X109551331Y-67936314D01*
X109374942Y-67918941D01*
X109035452Y-67815958D01*
X109035450Y-67815957D01*
X108722578Y-67648723D01*
X108448339Y-67423661D01*
X108223277Y-67149422D01*
X108056043Y-66836550D01*
X108056042Y-66836548D01*
X107953059Y-66497058D01*
X107918286Y-66144000D01*
X107953059Y-65790942D01*
X108056042Y-65451452D01*
X108223278Y-65138577D01*
X108448339Y-64864339D01*
X108722577Y-64639278D01*
X108722576Y-64639278D01*
X108722578Y-64639277D01*
X109035450Y-64472043D01*
X109035452Y-64472042D01*
X109374942Y-64369059D01*
X109551331Y-64351686D01*
X109639524Y-64343000D01*
X109816476Y-64343000D01*
X109904669Y-64351686D01*
X109904669Y-64351686D01*
G37*
G36*
X120572669Y-64351686D02*
G01*
X120749058Y-64369059D01*
X121088548Y-64472042D01*
X121088550Y-64472043D01*
X121401422Y-64639277D01*
X121401424Y-64639278D01*
X121401423Y-64639278D01*
X121675661Y-64864339D01*
X121900722Y-65138577D01*
X122067958Y-65451452D01*
X122170941Y-65790942D01*
X122205714Y-66144000D01*
X122170941Y-66497058D01*
X122067958Y-66836548D01*
X122067957Y-66836550D01*
X121900723Y-67149422D01*
X121675661Y-67423661D01*
X121401422Y-67648723D01*
X121088550Y-67815957D01*
X121088548Y-67815958D01*
X120749058Y-67918941D01*
X120572669Y-67936314D01*
X120484476Y-67945000D01*
X120307524Y-67945000D01*
X120219331Y-67936314D01*
X120042942Y-67918941D01*
X119703452Y-67815958D01*
X119703450Y-67815957D01*
X119390578Y-67648723D01*
X119116339Y-67423661D01*
X118891277Y-67149422D01*
X118724043Y-66836550D01*
X118724042Y-66836548D01*
X118621059Y-66497058D01*
X118586286Y-66144000D01*
X118621059Y-65790942D01*
X118724042Y-65451452D01*
X118891278Y-65138577D01*
X119116339Y-64864339D01*
X119390577Y-64639278D01*
X119390576Y-64639278D01*
X119390578Y-64639277D01*
X119703450Y-64472043D01*
X119703452Y-64472042D01*
X120042942Y-64369059D01*
X120219331Y-64351686D01*
X120307524Y-64343000D01*
X120484476Y-64343000D01*
X120572669Y-64351686D01*
X120572669Y-64351686D01*
G37*
G36*
X131240669Y-64351686D02*
G01*
X131417058Y-64369059D01*
X131756548Y-64472042D01*
X131756550Y-64472043D01*
X132069422Y-64639277D01*
X132069424Y-64639278D01*
X132069423Y-64639278D01*
X132343661Y-64864339D01*
X132568722Y-65138577D01*
X132735958Y-65451452D01*
X132838941Y-65790942D01*
X132873714Y-66144000D01*
X132838941Y-66497058D01*
X132735958Y-66836548D01*
X132735957Y-66836550D01*
X132568723Y-67149422D01*
X132343661Y-67423661D01*
X132069422Y-67648723D01*
X131756550Y-67815957D01*
X131756548Y-67815958D01*
X131417058Y-67918941D01*
X131240669Y-67936314D01*
X131152476Y-67945000D01*
X130975524Y-67945000D01*
X130887331Y-67936314D01*
X130710942Y-67918941D01*
X130371452Y-67815958D01*
X130371450Y-67815957D01*
X130058578Y-67648723D01*
X129784339Y-67423661D01*
X129559277Y-67149422D01*
X129392043Y-66836550D01*
X129392042Y-66836548D01*
X129289059Y-66497058D01*
X129254286Y-66144000D01*
X129289059Y-65790942D01*
X129392042Y-65451452D01*
X129559278Y-65138577D01*
X129784339Y-64864339D01*
X130058577Y-64639278D01*
X130058576Y-64639278D01*
X130058578Y-64639277D01*
X130371450Y-64472043D01*
X130371452Y-64472042D01*
X130710942Y-64369059D01*
X130887331Y-64351686D01*
X130975524Y-64343000D01*
X131152476Y-64343000D01*
X131240669Y-64351686D01*
X131240669Y-64351686D01*
G37*
G36*
X141908669Y-64351686D02*
G01*
X142085058Y-64369059D01*
X142424548Y-64472042D01*
X142424550Y-64472043D01*
X142737422Y-64639277D01*
X142737424Y-64639278D01*
X142737423Y-64639278D01*
X143011661Y-64864339D01*
X143236722Y-65138577D01*
X143403958Y-65451452D01*
X143506941Y-65790942D01*
X143541714Y-66144000D01*
X143506941Y-66497058D01*
X143403958Y-66836548D01*
X143403957Y-66836550D01*
X143236723Y-67149422D01*
X143011661Y-67423661D01*
X142737422Y-67648723D01*
X142424550Y-67815957D01*
X142424548Y-67815958D01*
X142085058Y-67918941D01*
X141908669Y-67936314D01*
X141820476Y-67945000D01*
X141643524Y-67945000D01*
X141555331Y-67936314D01*
X141378942Y-67918941D01*
X141039452Y-67815958D01*
X141039450Y-67815957D01*
X140726578Y-67648723D01*
X140452339Y-67423661D01*
X140227277Y-67149422D01*
X140060043Y-66836550D01*
X140060042Y-66836548D01*
X139957059Y-66497058D01*
X139922286Y-66144000D01*
X139957059Y-65790942D01*
X140060042Y-65451452D01*
X140227278Y-65138577D01*
X140452339Y-64864339D01*
X140726577Y-64639278D01*
X140726576Y-64639278D01*
X140726578Y-64639277D01*
X141039450Y-64472043D01*
X141039452Y-64472042D01*
X141378942Y-64369059D01*
X141555331Y-64351686D01*
X141643524Y-64343000D01*
X141820476Y-64343000D01*
X141908669Y-64351686D01*
X141908669Y-64351686D01*
G37*
G36*
X152576669Y-64351686D02*
G01*
X152753058Y-64369059D01*
X153092548Y-64472042D01*
X153092550Y-64472043D01*
X153405422Y-64639277D01*
X153405424Y-64639278D01*
X153405423Y-64639278D01*
X153679661Y-64864339D01*
X153904722Y-65138577D01*
X154071958Y-65451452D01*
X154174941Y-65790942D01*
X154209714Y-66144000D01*
X154174941Y-66497058D01*
X154071958Y-66836548D01*
X154071957Y-66836550D01*
X153904723Y-67149422D01*
X153679661Y-67423661D01*
X153405422Y-67648723D01*
X153092550Y-67815957D01*
X153092548Y-67815958D01*
X152753058Y-67918941D01*
X152576669Y-67936314D01*
X152488476Y-67945000D01*
X152311524Y-67945000D01*
X152223331Y-67936314D01*
X152046942Y-67918941D01*
X151707452Y-67815958D01*
X151707450Y-67815957D01*
X151394578Y-67648723D01*
X151120339Y-67423661D01*
X150895277Y-67149422D01*
X150728043Y-66836550D01*
X150728042Y-66836548D01*
X150625059Y-66497058D01*
X150590286Y-66144000D01*
X150625059Y-65790942D01*
X150728042Y-65451452D01*
X150895278Y-65138577D01*
X151120339Y-64864339D01*
X151394577Y-64639278D01*
X151394576Y-64639278D01*
X151394578Y-64639277D01*
X151707450Y-64472043D01*
X151707452Y-64472042D01*
X152046942Y-64369059D01*
X152223331Y-64351686D01*
X152311524Y-64343000D01*
X152488476Y-64343000D01*
X152576669Y-64351686D01*
X152576669Y-64351686D01*
G37*
G36*
X163244669Y-64351686D02*
G01*
X163421058Y-64369059D01*
X163760548Y-64472042D01*
X163760550Y-64472043D01*
X164073422Y-64639277D01*
X164073424Y-64639278D01*
X164073423Y-64639278D01*
X164347661Y-64864339D01*
X164572722Y-65138577D01*
X164739958Y-65451452D01*
X164842941Y-65790942D01*
X164877714Y-66144000D01*
X164842941Y-66497058D01*
X164739958Y-66836548D01*
X164739957Y-66836550D01*
X164572723Y-67149422D01*
X164347661Y-67423661D01*
X164073422Y-67648723D01*
X163760550Y-67815957D01*
X163760548Y-67815958D01*
X163421058Y-67918941D01*
X163244669Y-67936314D01*
X163156476Y-67945000D01*
X162979524Y-67945000D01*
X162891331Y-67936314D01*
X162714942Y-67918941D01*
X162375452Y-67815958D01*
X162375450Y-67815957D01*
X162062578Y-67648723D01*
X161788339Y-67423661D01*
X161563277Y-67149422D01*
X161396043Y-66836550D01*
X161396042Y-66836548D01*
X161293059Y-66497058D01*
X161258286Y-66144000D01*
X161293059Y-65790942D01*
X161396042Y-65451452D01*
X161563278Y-65138577D01*
X161788339Y-64864339D01*
X162062577Y-64639278D01*
X162062576Y-64639278D01*
X162062578Y-64639277D01*
X162375450Y-64472043D01*
X162375452Y-64472042D01*
X162714942Y-64369059D01*
X162891331Y-64351686D01*
X162979524Y-64343000D01*
X163156476Y-64343000D01*
X163244669Y-64351686D01*
X163244669Y-64351686D01*
G37*
G36*
X173912669Y-64351686D02*
G01*
X174089058Y-64369059D01*
X174428548Y-64472042D01*
X174428550Y-64472043D01*
X174741422Y-64639277D01*
X174741424Y-64639278D01*
X174741423Y-64639278D01*
X175015661Y-64864339D01*
X175240722Y-65138577D01*
X175407958Y-65451452D01*
X175510941Y-65790942D01*
X175545714Y-66144000D01*
X175510941Y-66497058D01*
X175407958Y-66836548D01*
X175407957Y-66836550D01*
X175240723Y-67149422D01*
X175015661Y-67423661D01*
X174741422Y-67648723D01*
X174428550Y-67815957D01*
X174428548Y-67815958D01*
X174089058Y-67918941D01*
X173912669Y-67936314D01*
X173824476Y-67945000D01*
X173647524Y-67945000D01*
X173559331Y-67936314D01*
X173382942Y-67918941D01*
X173043452Y-67815958D01*
X173043450Y-67815957D01*
X172730578Y-67648723D01*
X172456339Y-67423661D01*
X172231277Y-67149422D01*
X172064043Y-66836550D01*
X172064042Y-66836548D01*
X171961059Y-66497058D01*
X171926286Y-66144000D01*
X171961059Y-65790942D01*
X172064042Y-65451452D01*
X172231278Y-65138577D01*
X172456339Y-64864339D01*
X172730577Y-64639278D01*
X172730576Y-64639278D01*
X172730578Y-64639277D01*
X173043450Y-64472043D01*
X173043452Y-64472042D01*
X173382942Y-64369059D01*
X173559331Y-64351686D01*
X173647524Y-64343000D01*
X173824476Y-64343000D01*
X173912669Y-64351686D01*
X173912669Y-64351686D01*
G37*
G36*
X184580669Y-64351686D02*
G01*
X184757058Y-64369059D01*
X185096548Y-64472042D01*
X185096550Y-64472043D01*
X185409422Y-64639277D01*
X185409424Y-64639278D01*
X185409423Y-64639278D01*
X185683661Y-64864339D01*
X185908722Y-65138577D01*
X186075958Y-65451452D01*
X186178941Y-65790942D01*
X186213714Y-66144000D01*
X186178941Y-66497058D01*
X186075958Y-66836548D01*
X186075957Y-66836550D01*
X185908723Y-67149422D01*
X185683661Y-67423661D01*
X185409422Y-67648723D01*
X185096550Y-67815957D01*
X185096548Y-67815958D01*
X184757058Y-67918941D01*
X184580669Y-67936314D01*
X184492476Y-67945000D01*
X184315524Y-67945000D01*
X184227331Y-67936314D01*
X184050942Y-67918941D01*
X183711452Y-67815958D01*
X183711450Y-67815957D01*
X183398578Y-67648723D01*
X183124339Y-67423661D01*
X182899277Y-67149422D01*
X182732043Y-66836550D01*
X182732042Y-66836548D01*
X182629059Y-66497058D01*
X182594286Y-66144000D01*
X182629059Y-65790942D01*
X182732042Y-65451452D01*
X182899278Y-65138577D01*
X183124339Y-64864339D01*
X183398577Y-64639278D01*
X183398576Y-64639278D01*
X183398578Y-64639277D01*
X183711450Y-64472043D01*
X183711452Y-64472042D01*
X184050942Y-64369059D01*
X184227331Y-64351686D01*
X184315524Y-64343000D01*
X184492476Y-64343000D01*
X184580669Y-64351686D01*
X184580669Y-64351686D01*
G37*
M02*
