M48
; DRILL file {KiCad 5.1.4-e60b266~84~ubuntu18.04.1} date 18.09.2019 (ср) 22:40:00 EEST
; FORMAT={-:-/ absolute / inch / decimal}
; #@! TF.CreationDate,2019-09-18T22:40:00+03:00
; #@! TF.GenerationSoftware,Kicad,Pcbnew,5.1.4-e60b266~84~ubuntu18.04.1
; #@! TF.FileFunction,Plated,1,2,PTH
FMAT,2
INCH
T1C0.0157
T2C0.0315
T3C0.0394
T4C0.0433
T5C0.0512
T6C0.1378
%
G90
G05
T1
X4.25Y-4.435
X4.29Y-4.595
X4.29Y-4.7
X4.32Y-3.16
X4.505Y-4.65
X4.505Y-4.715
X4.515Y-4.42
X4.595Y-4.245
X4.76Y-4.525
X4.785Y-4.655
X4.785Y-4.71
X4.88Y-4.51
X4.955Y-4.15
X4.97Y-4.24
X4.975Y-4.345
X5.03Y-4.15
X5.04Y-4.44
X5.045Y-4.265
X5.115Y-4.15
X5.135Y-4.355
X5.315Y-4.605
X5.38Y-4.73
X5.41Y-4.365
X5.435Y-4.45
X5.435Y-4.555
X5.465Y-4.26
X5.48Y-4.4
X5.515Y-4.53
X5.755Y-4.45
X5.835Y-4.635
X5.885Y-4.455
X6.04Y-4.445
X6.05Y-4.265
X6.215Y-4.265
X6.22Y-4.46
X6.36Y-4.265
X6.39Y-4.465
X6.39Y-4.58
X6.475Y-4.105
X6.555Y-4.465
X6.56Y-4.585
X6.575Y-4.265
X6.72Y-4.26
X6.92Y-4.265
X6.93Y-4.4
T2
X4.9Y-4.59
X4.9Y-4.6884
X4.4Y-4.2522
X4.4Y-4.39
X4.4Y-4.59
X4.4Y-4.6884
T3
X5.46Y-4.71
X5.56Y-4.71
X4.18Y-4.61
X4.18Y-4.71
X5.62Y-4.27
X5.62Y-4.37
X5.72Y-4.27
X5.72Y-4.37
X5.82Y-4.27
X5.82Y-4.37
T4
X7.16Y-3.26
X7.26Y-3.26
X7.36Y-3.26
X6.74Y-3.26
X6.84Y-3.26
X6.94Y-3.26
X6.32Y-3.26
X6.42Y-3.26
X6.52Y-3.26
X5.7241Y-4.5328
X5.7241Y-4.71
X5.98Y-4.5328
X5.98Y-4.71
X4.64Y-3.26
X4.74Y-3.26
X4.84Y-3.26
X4.22Y-3.26
X4.32Y-3.26
X4.42Y-3.26
X5.06Y-3.26
X5.16Y-3.26
X5.26Y-3.26
X5.48Y-3.26
X5.58Y-3.26
X5.68Y-3.26
X5.9Y-3.26
X6.0Y-3.26
X6.1Y-3.26
T5
X6.94Y-4.71
X7.1369Y-4.71
X7.3337Y-4.71
X6.28Y-4.71
X6.4769Y-4.71
X6.6737Y-4.71
T6
X4.6117Y-3.7809
X5.3991Y-3.7809
X6.1865Y-3.7809
X6.9739Y-3.7809
T0
M30
