G04 #@! TF.GenerationSoftware,KiCad,Pcbnew,5.1.4-e60b266~84~ubuntu18.04.1*
G04 #@! TF.CreationDate,2019-09-18T22:30:48+03:00*
G04 #@! TF.ProjectId,spotweld,73706f74-7765-46c6-942e-6b696361645f,rev?*
G04 #@! TF.SameCoordinates,Original*
G04 #@! TF.FileFunction,Paste,Top*
G04 #@! TF.FilePolarity,Positive*
%FSLAX46Y46*%
G04 Gerber Fmt 4.6, Leading zero omitted, Abs format (unit mm)*
G04 Created by KiCad (PCBNEW 5.1.4-e60b266~84~ubuntu18.04.1) date 2019-09-18 22:30:48*
%MOMM*%
%LPD*%
G04 APERTURE LIST*
%ADD10C,0.100000*%
%ADD11C,0.975000*%
%ADD12C,1.000000*%
%ADD13R,2.200000X1.840000*%
%ADD14R,1.000000X1.500000*%
%ADD15R,1.000000X1.800000*%
%ADD16C,0.850000*%
%ADD17C,0.600000*%
%ADD18C,0.920000*%
%ADD19R,1.200000X0.900000*%
%ADD20C,1.250000*%
G04 APERTURE END LIST*
D10*
G36*
X137476142Y-116268174D02*
G01*
X137499803Y-116271684D01*
X137523007Y-116277496D01*
X137545529Y-116285554D01*
X137567153Y-116295782D01*
X137587670Y-116308079D01*
X137606883Y-116322329D01*
X137624607Y-116338393D01*
X137640671Y-116356117D01*
X137654921Y-116375330D01*
X137667218Y-116395847D01*
X137677446Y-116417471D01*
X137685504Y-116439993D01*
X137691316Y-116463197D01*
X137694826Y-116486858D01*
X137696000Y-116510750D01*
X137696000Y-117423250D01*
X137694826Y-117447142D01*
X137691316Y-117470803D01*
X137685504Y-117494007D01*
X137677446Y-117516529D01*
X137667218Y-117538153D01*
X137654921Y-117558670D01*
X137640671Y-117577883D01*
X137624607Y-117595607D01*
X137606883Y-117611671D01*
X137587670Y-117625921D01*
X137567153Y-117638218D01*
X137545529Y-117648446D01*
X137523007Y-117656504D01*
X137499803Y-117662316D01*
X137476142Y-117665826D01*
X137452250Y-117667000D01*
X136964750Y-117667000D01*
X136940858Y-117665826D01*
X136917197Y-117662316D01*
X136893993Y-117656504D01*
X136871471Y-117648446D01*
X136849847Y-117638218D01*
X136829330Y-117625921D01*
X136810117Y-117611671D01*
X136792393Y-117595607D01*
X136776329Y-117577883D01*
X136762079Y-117558670D01*
X136749782Y-117538153D01*
X136739554Y-117516529D01*
X136731496Y-117494007D01*
X136725684Y-117470803D01*
X136722174Y-117447142D01*
X136721000Y-117423250D01*
X136721000Y-116510750D01*
X136722174Y-116486858D01*
X136725684Y-116463197D01*
X136731496Y-116439993D01*
X136739554Y-116417471D01*
X136749782Y-116395847D01*
X136762079Y-116375330D01*
X136776329Y-116356117D01*
X136792393Y-116338393D01*
X136810117Y-116322329D01*
X136829330Y-116308079D01*
X136849847Y-116295782D01*
X136871471Y-116285554D01*
X136893993Y-116277496D01*
X136917197Y-116271684D01*
X136940858Y-116268174D01*
X136964750Y-116267000D01*
X137452250Y-116267000D01*
X137476142Y-116268174D01*
X137476142Y-116268174D01*
G37*
D11*
X137208500Y-116967000D03*
D10*
G36*
X135601142Y-116268174D02*
G01*
X135624803Y-116271684D01*
X135648007Y-116277496D01*
X135670529Y-116285554D01*
X135692153Y-116295782D01*
X135712670Y-116308079D01*
X135731883Y-116322329D01*
X135749607Y-116338393D01*
X135765671Y-116356117D01*
X135779921Y-116375330D01*
X135792218Y-116395847D01*
X135802446Y-116417471D01*
X135810504Y-116439993D01*
X135816316Y-116463197D01*
X135819826Y-116486858D01*
X135821000Y-116510750D01*
X135821000Y-117423250D01*
X135819826Y-117447142D01*
X135816316Y-117470803D01*
X135810504Y-117494007D01*
X135802446Y-117516529D01*
X135792218Y-117538153D01*
X135779921Y-117558670D01*
X135765671Y-117577883D01*
X135749607Y-117595607D01*
X135731883Y-117611671D01*
X135712670Y-117625921D01*
X135692153Y-117638218D01*
X135670529Y-117648446D01*
X135648007Y-117656504D01*
X135624803Y-117662316D01*
X135601142Y-117665826D01*
X135577250Y-117667000D01*
X135089750Y-117667000D01*
X135065858Y-117665826D01*
X135042197Y-117662316D01*
X135018993Y-117656504D01*
X134996471Y-117648446D01*
X134974847Y-117638218D01*
X134954330Y-117625921D01*
X134935117Y-117611671D01*
X134917393Y-117595607D01*
X134901329Y-117577883D01*
X134887079Y-117558670D01*
X134874782Y-117538153D01*
X134864554Y-117516529D01*
X134856496Y-117494007D01*
X134850684Y-117470803D01*
X134847174Y-117447142D01*
X134846000Y-117423250D01*
X134846000Y-116510750D01*
X134847174Y-116486858D01*
X134850684Y-116463197D01*
X134856496Y-116439993D01*
X134864554Y-116417471D01*
X134874782Y-116395847D01*
X134887079Y-116375330D01*
X134901329Y-116356117D01*
X134917393Y-116338393D01*
X134935117Y-116322329D01*
X134954330Y-116308079D01*
X134974847Y-116295782D01*
X134996471Y-116285554D01*
X135018993Y-116277496D01*
X135042197Y-116271684D01*
X135065858Y-116268174D01*
X135089750Y-116267000D01*
X135577250Y-116267000D01*
X135601142Y-116268174D01*
X135601142Y-116268174D01*
G37*
D11*
X135333500Y-116967000D03*
D12*
X117856000Y-118110000D03*
D10*
G36*
X116756000Y-118610000D02*
G01*
X117456000Y-117610000D01*
X118256000Y-117610000D01*
X118956000Y-118610000D01*
X116756000Y-118610000D01*
X116756000Y-118610000D01*
G37*
D13*
X117856000Y-119519700D03*
D14*
X116356000Y-116706200D03*
D15*
X117856000Y-116852700D03*
D14*
X119356000Y-116706200D03*
D16*
X117856000Y-120853200D03*
D10*
G36*
X118956000Y-120428200D02*
G01*
X118356000Y-121278200D01*
X117356000Y-121278200D01*
X116756000Y-120428200D01*
X118956000Y-120428200D01*
X118956000Y-120428200D01*
G37*
G36*
X119776703Y-110063722D02*
G01*
X119791264Y-110065882D01*
X119805543Y-110069459D01*
X119819403Y-110074418D01*
X119832710Y-110080712D01*
X119845336Y-110088280D01*
X119857159Y-110097048D01*
X119868066Y-110106934D01*
X119877952Y-110117841D01*
X119886720Y-110129664D01*
X119894288Y-110142290D01*
X119900582Y-110155597D01*
X119905541Y-110169457D01*
X119909118Y-110183736D01*
X119911278Y-110198297D01*
X119912000Y-110213000D01*
X119912000Y-110513000D01*
X119911278Y-110527703D01*
X119909118Y-110542264D01*
X119905541Y-110556543D01*
X119900582Y-110570403D01*
X119894288Y-110583710D01*
X119886720Y-110596336D01*
X119877952Y-110608159D01*
X119868066Y-110619066D01*
X119857159Y-110628952D01*
X119845336Y-110637720D01*
X119832710Y-110645288D01*
X119819403Y-110651582D01*
X119805543Y-110656541D01*
X119791264Y-110660118D01*
X119776703Y-110662278D01*
X119762000Y-110663000D01*
X118112000Y-110663000D01*
X118097297Y-110662278D01*
X118082736Y-110660118D01*
X118068457Y-110656541D01*
X118054597Y-110651582D01*
X118041290Y-110645288D01*
X118028664Y-110637720D01*
X118016841Y-110628952D01*
X118005934Y-110619066D01*
X117996048Y-110608159D01*
X117987280Y-110596336D01*
X117979712Y-110583710D01*
X117973418Y-110570403D01*
X117968459Y-110556543D01*
X117964882Y-110542264D01*
X117962722Y-110527703D01*
X117962000Y-110513000D01*
X117962000Y-110213000D01*
X117962722Y-110198297D01*
X117964882Y-110183736D01*
X117968459Y-110169457D01*
X117973418Y-110155597D01*
X117979712Y-110142290D01*
X117987280Y-110129664D01*
X117996048Y-110117841D01*
X118005934Y-110106934D01*
X118016841Y-110097048D01*
X118028664Y-110088280D01*
X118041290Y-110080712D01*
X118054597Y-110074418D01*
X118068457Y-110069459D01*
X118082736Y-110065882D01*
X118097297Y-110063722D01*
X118112000Y-110063000D01*
X119762000Y-110063000D01*
X119776703Y-110063722D01*
X119776703Y-110063722D01*
G37*
D17*
X118937000Y-110363000D03*
D10*
G36*
X119776703Y-108793722D02*
G01*
X119791264Y-108795882D01*
X119805543Y-108799459D01*
X119819403Y-108804418D01*
X119832710Y-108810712D01*
X119845336Y-108818280D01*
X119857159Y-108827048D01*
X119868066Y-108836934D01*
X119877952Y-108847841D01*
X119886720Y-108859664D01*
X119894288Y-108872290D01*
X119900582Y-108885597D01*
X119905541Y-108899457D01*
X119909118Y-108913736D01*
X119911278Y-108928297D01*
X119912000Y-108943000D01*
X119912000Y-109243000D01*
X119911278Y-109257703D01*
X119909118Y-109272264D01*
X119905541Y-109286543D01*
X119900582Y-109300403D01*
X119894288Y-109313710D01*
X119886720Y-109326336D01*
X119877952Y-109338159D01*
X119868066Y-109349066D01*
X119857159Y-109358952D01*
X119845336Y-109367720D01*
X119832710Y-109375288D01*
X119819403Y-109381582D01*
X119805543Y-109386541D01*
X119791264Y-109390118D01*
X119776703Y-109392278D01*
X119762000Y-109393000D01*
X118112000Y-109393000D01*
X118097297Y-109392278D01*
X118082736Y-109390118D01*
X118068457Y-109386541D01*
X118054597Y-109381582D01*
X118041290Y-109375288D01*
X118028664Y-109367720D01*
X118016841Y-109358952D01*
X118005934Y-109349066D01*
X117996048Y-109338159D01*
X117987280Y-109326336D01*
X117979712Y-109313710D01*
X117973418Y-109300403D01*
X117968459Y-109286543D01*
X117964882Y-109272264D01*
X117962722Y-109257703D01*
X117962000Y-109243000D01*
X117962000Y-108943000D01*
X117962722Y-108928297D01*
X117964882Y-108913736D01*
X117968459Y-108899457D01*
X117973418Y-108885597D01*
X117979712Y-108872290D01*
X117987280Y-108859664D01*
X117996048Y-108847841D01*
X118005934Y-108836934D01*
X118016841Y-108827048D01*
X118028664Y-108818280D01*
X118041290Y-108810712D01*
X118054597Y-108804418D01*
X118068457Y-108799459D01*
X118082736Y-108795882D01*
X118097297Y-108793722D01*
X118112000Y-108793000D01*
X119762000Y-108793000D01*
X119776703Y-108793722D01*
X119776703Y-108793722D01*
G37*
D17*
X118937000Y-109093000D03*
D10*
G36*
X119776703Y-107523722D02*
G01*
X119791264Y-107525882D01*
X119805543Y-107529459D01*
X119819403Y-107534418D01*
X119832710Y-107540712D01*
X119845336Y-107548280D01*
X119857159Y-107557048D01*
X119868066Y-107566934D01*
X119877952Y-107577841D01*
X119886720Y-107589664D01*
X119894288Y-107602290D01*
X119900582Y-107615597D01*
X119905541Y-107629457D01*
X119909118Y-107643736D01*
X119911278Y-107658297D01*
X119912000Y-107673000D01*
X119912000Y-107973000D01*
X119911278Y-107987703D01*
X119909118Y-108002264D01*
X119905541Y-108016543D01*
X119900582Y-108030403D01*
X119894288Y-108043710D01*
X119886720Y-108056336D01*
X119877952Y-108068159D01*
X119868066Y-108079066D01*
X119857159Y-108088952D01*
X119845336Y-108097720D01*
X119832710Y-108105288D01*
X119819403Y-108111582D01*
X119805543Y-108116541D01*
X119791264Y-108120118D01*
X119776703Y-108122278D01*
X119762000Y-108123000D01*
X118112000Y-108123000D01*
X118097297Y-108122278D01*
X118082736Y-108120118D01*
X118068457Y-108116541D01*
X118054597Y-108111582D01*
X118041290Y-108105288D01*
X118028664Y-108097720D01*
X118016841Y-108088952D01*
X118005934Y-108079066D01*
X117996048Y-108068159D01*
X117987280Y-108056336D01*
X117979712Y-108043710D01*
X117973418Y-108030403D01*
X117968459Y-108016543D01*
X117964882Y-108002264D01*
X117962722Y-107987703D01*
X117962000Y-107973000D01*
X117962000Y-107673000D01*
X117962722Y-107658297D01*
X117964882Y-107643736D01*
X117968459Y-107629457D01*
X117973418Y-107615597D01*
X117979712Y-107602290D01*
X117987280Y-107589664D01*
X117996048Y-107577841D01*
X118005934Y-107566934D01*
X118016841Y-107557048D01*
X118028664Y-107548280D01*
X118041290Y-107540712D01*
X118054597Y-107534418D01*
X118068457Y-107529459D01*
X118082736Y-107525882D01*
X118097297Y-107523722D01*
X118112000Y-107523000D01*
X119762000Y-107523000D01*
X119776703Y-107523722D01*
X119776703Y-107523722D01*
G37*
D17*
X118937000Y-107823000D03*
D10*
G36*
X119776703Y-106253722D02*
G01*
X119791264Y-106255882D01*
X119805543Y-106259459D01*
X119819403Y-106264418D01*
X119832710Y-106270712D01*
X119845336Y-106278280D01*
X119857159Y-106287048D01*
X119868066Y-106296934D01*
X119877952Y-106307841D01*
X119886720Y-106319664D01*
X119894288Y-106332290D01*
X119900582Y-106345597D01*
X119905541Y-106359457D01*
X119909118Y-106373736D01*
X119911278Y-106388297D01*
X119912000Y-106403000D01*
X119912000Y-106703000D01*
X119911278Y-106717703D01*
X119909118Y-106732264D01*
X119905541Y-106746543D01*
X119900582Y-106760403D01*
X119894288Y-106773710D01*
X119886720Y-106786336D01*
X119877952Y-106798159D01*
X119868066Y-106809066D01*
X119857159Y-106818952D01*
X119845336Y-106827720D01*
X119832710Y-106835288D01*
X119819403Y-106841582D01*
X119805543Y-106846541D01*
X119791264Y-106850118D01*
X119776703Y-106852278D01*
X119762000Y-106853000D01*
X118112000Y-106853000D01*
X118097297Y-106852278D01*
X118082736Y-106850118D01*
X118068457Y-106846541D01*
X118054597Y-106841582D01*
X118041290Y-106835288D01*
X118028664Y-106827720D01*
X118016841Y-106818952D01*
X118005934Y-106809066D01*
X117996048Y-106798159D01*
X117987280Y-106786336D01*
X117979712Y-106773710D01*
X117973418Y-106760403D01*
X117968459Y-106746543D01*
X117964882Y-106732264D01*
X117962722Y-106717703D01*
X117962000Y-106703000D01*
X117962000Y-106403000D01*
X117962722Y-106388297D01*
X117964882Y-106373736D01*
X117968459Y-106359457D01*
X117973418Y-106345597D01*
X117979712Y-106332290D01*
X117987280Y-106319664D01*
X117996048Y-106307841D01*
X118005934Y-106296934D01*
X118016841Y-106287048D01*
X118028664Y-106278280D01*
X118041290Y-106270712D01*
X118054597Y-106264418D01*
X118068457Y-106259459D01*
X118082736Y-106255882D01*
X118097297Y-106253722D01*
X118112000Y-106253000D01*
X119762000Y-106253000D01*
X119776703Y-106253722D01*
X119776703Y-106253722D01*
G37*
D17*
X118937000Y-106553000D03*
D10*
G36*
X124726703Y-106253722D02*
G01*
X124741264Y-106255882D01*
X124755543Y-106259459D01*
X124769403Y-106264418D01*
X124782710Y-106270712D01*
X124795336Y-106278280D01*
X124807159Y-106287048D01*
X124818066Y-106296934D01*
X124827952Y-106307841D01*
X124836720Y-106319664D01*
X124844288Y-106332290D01*
X124850582Y-106345597D01*
X124855541Y-106359457D01*
X124859118Y-106373736D01*
X124861278Y-106388297D01*
X124862000Y-106403000D01*
X124862000Y-106703000D01*
X124861278Y-106717703D01*
X124859118Y-106732264D01*
X124855541Y-106746543D01*
X124850582Y-106760403D01*
X124844288Y-106773710D01*
X124836720Y-106786336D01*
X124827952Y-106798159D01*
X124818066Y-106809066D01*
X124807159Y-106818952D01*
X124795336Y-106827720D01*
X124782710Y-106835288D01*
X124769403Y-106841582D01*
X124755543Y-106846541D01*
X124741264Y-106850118D01*
X124726703Y-106852278D01*
X124712000Y-106853000D01*
X123062000Y-106853000D01*
X123047297Y-106852278D01*
X123032736Y-106850118D01*
X123018457Y-106846541D01*
X123004597Y-106841582D01*
X122991290Y-106835288D01*
X122978664Y-106827720D01*
X122966841Y-106818952D01*
X122955934Y-106809066D01*
X122946048Y-106798159D01*
X122937280Y-106786336D01*
X122929712Y-106773710D01*
X122923418Y-106760403D01*
X122918459Y-106746543D01*
X122914882Y-106732264D01*
X122912722Y-106717703D01*
X122912000Y-106703000D01*
X122912000Y-106403000D01*
X122912722Y-106388297D01*
X122914882Y-106373736D01*
X122918459Y-106359457D01*
X122923418Y-106345597D01*
X122929712Y-106332290D01*
X122937280Y-106319664D01*
X122946048Y-106307841D01*
X122955934Y-106296934D01*
X122966841Y-106287048D01*
X122978664Y-106278280D01*
X122991290Y-106270712D01*
X123004597Y-106264418D01*
X123018457Y-106259459D01*
X123032736Y-106255882D01*
X123047297Y-106253722D01*
X123062000Y-106253000D01*
X124712000Y-106253000D01*
X124726703Y-106253722D01*
X124726703Y-106253722D01*
G37*
D17*
X123887000Y-106553000D03*
D10*
G36*
X124726703Y-107523722D02*
G01*
X124741264Y-107525882D01*
X124755543Y-107529459D01*
X124769403Y-107534418D01*
X124782710Y-107540712D01*
X124795336Y-107548280D01*
X124807159Y-107557048D01*
X124818066Y-107566934D01*
X124827952Y-107577841D01*
X124836720Y-107589664D01*
X124844288Y-107602290D01*
X124850582Y-107615597D01*
X124855541Y-107629457D01*
X124859118Y-107643736D01*
X124861278Y-107658297D01*
X124862000Y-107673000D01*
X124862000Y-107973000D01*
X124861278Y-107987703D01*
X124859118Y-108002264D01*
X124855541Y-108016543D01*
X124850582Y-108030403D01*
X124844288Y-108043710D01*
X124836720Y-108056336D01*
X124827952Y-108068159D01*
X124818066Y-108079066D01*
X124807159Y-108088952D01*
X124795336Y-108097720D01*
X124782710Y-108105288D01*
X124769403Y-108111582D01*
X124755543Y-108116541D01*
X124741264Y-108120118D01*
X124726703Y-108122278D01*
X124712000Y-108123000D01*
X123062000Y-108123000D01*
X123047297Y-108122278D01*
X123032736Y-108120118D01*
X123018457Y-108116541D01*
X123004597Y-108111582D01*
X122991290Y-108105288D01*
X122978664Y-108097720D01*
X122966841Y-108088952D01*
X122955934Y-108079066D01*
X122946048Y-108068159D01*
X122937280Y-108056336D01*
X122929712Y-108043710D01*
X122923418Y-108030403D01*
X122918459Y-108016543D01*
X122914882Y-108002264D01*
X122912722Y-107987703D01*
X122912000Y-107973000D01*
X122912000Y-107673000D01*
X122912722Y-107658297D01*
X122914882Y-107643736D01*
X122918459Y-107629457D01*
X122923418Y-107615597D01*
X122929712Y-107602290D01*
X122937280Y-107589664D01*
X122946048Y-107577841D01*
X122955934Y-107566934D01*
X122966841Y-107557048D01*
X122978664Y-107548280D01*
X122991290Y-107540712D01*
X123004597Y-107534418D01*
X123018457Y-107529459D01*
X123032736Y-107525882D01*
X123047297Y-107523722D01*
X123062000Y-107523000D01*
X124712000Y-107523000D01*
X124726703Y-107523722D01*
X124726703Y-107523722D01*
G37*
D17*
X123887000Y-107823000D03*
D10*
G36*
X124726703Y-108793722D02*
G01*
X124741264Y-108795882D01*
X124755543Y-108799459D01*
X124769403Y-108804418D01*
X124782710Y-108810712D01*
X124795336Y-108818280D01*
X124807159Y-108827048D01*
X124818066Y-108836934D01*
X124827952Y-108847841D01*
X124836720Y-108859664D01*
X124844288Y-108872290D01*
X124850582Y-108885597D01*
X124855541Y-108899457D01*
X124859118Y-108913736D01*
X124861278Y-108928297D01*
X124862000Y-108943000D01*
X124862000Y-109243000D01*
X124861278Y-109257703D01*
X124859118Y-109272264D01*
X124855541Y-109286543D01*
X124850582Y-109300403D01*
X124844288Y-109313710D01*
X124836720Y-109326336D01*
X124827952Y-109338159D01*
X124818066Y-109349066D01*
X124807159Y-109358952D01*
X124795336Y-109367720D01*
X124782710Y-109375288D01*
X124769403Y-109381582D01*
X124755543Y-109386541D01*
X124741264Y-109390118D01*
X124726703Y-109392278D01*
X124712000Y-109393000D01*
X123062000Y-109393000D01*
X123047297Y-109392278D01*
X123032736Y-109390118D01*
X123018457Y-109386541D01*
X123004597Y-109381582D01*
X122991290Y-109375288D01*
X122978664Y-109367720D01*
X122966841Y-109358952D01*
X122955934Y-109349066D01*
X122946048Y-109338159D01*
X122937280Y-109326336D01*
X122929712Y-109313710D01*
X122923418Y-109300403D01*
X122918459Y-109286543D01*
X122914882Y-109272264D01*
X122912722Y-109257703D01*
X122912000Y-109243000D01*
X122912000Y-108943000D01*
X122912722Y-108928297D01*
X122914882Y-108913736D01*
X122918459Y-108899457D01*
X122923418Y-108885597D01*
X122929712Y-108872290D01*
X122937280Y-108859664D01*
X122946048Y-108847841D01*
X122955934Y-108836934D01*
X122966841Y-108827048D01*
X122978664Y-108818280D01*
X122991290Y-108810712D01*
X123004597Y-108804418D01*
X123018457Y-108799459D01*
X123032736Y-108795882D01*
X123047297Y-108793722D01*
X123062000Y-108793000D01*
X124712000Y-108793000D01*
X124726703Y-108793722D01*
X124726703Y-108793722D01*
G37*
D17*
X123887000Y-109093000D03*
D10*
G36*
X124726703Y-110063722D02*
G01*
X124741264Y-110065882D01*
X124755543Y-110069459D01*
X124769403Y-110074418D01*
X124782710Y-110080712D01*
X124795336Y-110088280D01*
X124807159Y-110097048D01*
X124818066Y-110106934D01*
X124827952Y-110117841D01*
X124836720Y-110129664D01*
X124844288Y-110142290D01*
X124850582Y-110155597D01*
X124855541Y-110169457D01*
X124859118Y-110183736D01*
X124861278Y-110198297D01*
X124862000Y-110213000D01*
X124862000Y-110513000D01*
X124861278Y-110527703D01*
X124859118Y-110542264D01*
X124855541Y-110556543D01*
X124850582Y-110570403D01*
X124844288Y-110583710D01*
X124836720Y-110596336D01*
X124827952Y-110608159D01*
X124818066Y-110619066D01*
X124807159Y-110628952D01*
X124795336Y-110637720D01*
X124782710Y-110645288D01*
X124769403Y-110651582D01*
X124755543Y-110656541D01*
X124741264Y-110660118D01*
X124726703Y-110662278D01*
X124712000Y-110663000D01*
X123062000Y-110663000D01*
X123047297Y-110662278D01*
X123032736Y-110660118D01*
X123018457Y-110656541D01*
X123004597Y-110651582D01*
X122991290Y-110645288D01*
X122978664Y-110637720D01*
X122966841Y-110628952D01*
X122955934Y-110619066D01*
X122946048Y-110608159D01*
X122937280Y-110596336D01*
X122929712Y-110583710D01*
X122923418Y-110570403D01*
X122918459Y-110556543D01*
X122914882Y-110542264D01*
X122912722Y-110527703D01*
X122912000Y-110513000D01*
X122912000Y-110213000D01*
X122912722Y-110198297D01*
X122914882Y-110183736D01*
X122918459Y-110169457D01*
X122923418Y-110155597D01*
X122929712Y-110142290D01*
X122937280Y-110129664D01*
X122946048Y-110117841D01*
X122955934Y-110106934D01*
X122966841Y-110097048D01*
X122978664Y-110088280D01*
X122991290Y-110080712D01*
X123004597Y-110074418D01*
X123018457Y-110069459D01*
X123032736Y-110065882D01*
X123047297Y-110063722D01*
X123062000Y-110063000D01*
X124712000Y-110063000D01*
X124726703Y-110063722D01*
X124726703Y-110063722D01*
G37*
D17*
X123887000Y-110363000D03*
D10*
G36*
X121094544Y-107104108D02*
G01*
X121116871Y-107107419D01*
X121138765Y-107112904D01*
X121160017Y-107120508D01*
X121180421Y-107130158D01*
X121199781Y-107141762D01*
X121217910Y-107155208D01*
X121234635Y-107170365D01*
X121249792Y-107187090D01*
X121263238Y-107205219D01*
X121274842Y-107224579D01*
X121284492Y-107244983D01*
X121292096Y-107266235D01*
X121297581Y-107288129D01*
X121300892Y-107310456D01*
X121302000Y-107333000D01*
X121302000Y-108083000D01*
X121300892Y-108105544D01*
X121297581Y-108127871D01*
X121292096Y-108149765D01*
X121284492Y-108171017D01*
X121274842Y-108191421D01*
X121263238Y-108210781D01*
X121249792Y-108228910D01*
X121234635Y-108245635D01*
X121217910Y-108260792D01*
X121199781Y-108274238D01*
X121180421Y-108285842D01*
X121160017Y-108295492D01*
X121138765Y-108303096D01*
X121116871Y-108308581D01*
X121094544Y-108311892D01*
X121072000Y-108313000D01*
X120612000Y-108313000D01*
X120589456Y-108311892D01*
X120567129Y-108308581D01*
X120545235Y-108303096D01*
X120523983Y-108295492D01*
X120503579Y-108285842D01*
X120484219Y-108274238D01*
X120466090Y-108260792D01*
X120449365Y-108245635D01*
X120434208Y-108228910D01*
X120420762Y-108210781D01*
X120409158Y-108191421D01*
X120399508Y-108171017D01*
X120391904Y-108149765D01*
X120386419Y-108127871D01*
X120383108Y-108105544D01*
X120382000Y-108083000D01*
X120382000Y-107333000D01*
X120383108Y-107310456D01*
X120386419Y-107288129D01*
X120391904Y-107266235D01*
X120399508Y-107244983D01*
X120409158Y-107224579D01*
X120420762Y-107205219D01*
X120434208Y-107187090D01*
X120449365Y-107170365D01*
X120466090Y-107155208D01*
X120484219Y-107141762D01*
X120503579Y-107130158D01*
X120523983Y-107120508D01*
X120545235Y-107112904D01*
X120567129Y-107107419D01*
X120589456Y-107104108D01*
X120612000Y-107103000D01*
X121072000Y-107103000D01*
X121094544Y-107104108D01*
X121094544Y-107104108D01*
G37*
D18*
X120842000Y-107708000D03*
D10*
G36*
X121094544Y-108604108D02*
G01*
X121116871Y-108607419D01*
X121138765Y-108612904D01*
X121160017Y-108620508D01*
X121180421Y-108630158D01*
X121199781Y-108641762D01*
X121217910Y-108655208D01*
X121234635Y-108670365D01*
X121249792Y-108687090D01*
X121263238Y-108705219D01*
X121274842Y-108724579D01*
X121284492Y-108744983D01*
X121292096Y-108766235D01*
X121297581Y-108788129D01*
X121300892Y-108810456D01*
X121302000Y-108833000D01*
X121302000Y-109583000D01*
X121300892Y-109605544D01*
X121297581Y-109627871D01*
X121292096Y-109649765D01*
X121284492Y-109671017D01*
X121274842Y-109691421D01*
X121263238Y-109710781D01*
X121249792Y-109728910D01*
X121234635Y-109745635D01*
X121217910Y-109760792D01*
X121199781Y-109774238D01*
X121180421Y-109785842D01*
X121160017Y-109795492D01*
X121138765Y-109803096D01*
X121116871Y-109808581D01*
X121094544Y-109811892D01*
X121072000Y-109813000D01*
X120612000Y-109813000D01*
X120589456Y-109811892D01*
X120567129Y-109808581D01*
X120545235Y-109803096D01*
X120523983Y-109795492D01*
X120503579Y-109785842D01*
X120484219Y-109774238D01*
X120466090Y-109760792D01*
X120449365Y-109745635D01*
X120434208Y-109728910D01*
X120420762Y-109710781D01*
X120409158Y-109691421D01*
X120399508Y-109671017D01*
X120391904Y-109649765D01*
X120386419Y-109627871D01*
X120383108Y-109605544D01*
X120382000Y-109583000D01*
X120382000Y-108833000D01*
X120383108Y-108810456D01*
X120386419Y-108788129D01*
X120391904Y-108766235D01*
X120399508Y-108744983D01*
X120409158Y-108724579D01*
X120420762Y-108705219D01*
X120434208Y-108687090D01*
X120449365Y-108670365D01*
X120466090Y-108655208D01*
X120484219Y-108641762D01*
X120503579Y-108630158D01*
X120523983Y-108620508D01*
X120545235Y-108612904D01*
X120567129Y-108607419D01*
X120589456Y-108604108D01*
X120612000Y-108603000D01*
X121072000Y-108603000D01*
X121094544Y-108604108D01*
X121094544Y-108604108D01*
G37*
D18*
X120842000Y-109208000D03*
D10*
G36*
X122234544Y-107104108D02*
G01*
X122256871Y-107107419D01*
X122278765Y-107112904D01*
X122300017Y-107120508D01*
X122320421Y-107130158D01*
X122339781Y-107141762D01*
X122357910Y-107155208D01*
X122374635Y-107170365D01*
X122389792Y-107187090D01*
X122403238Y-107205219D01*
X122414842Y-107224579D01*
X122424492Y-107244983D01*
X122432096Y-107266235D01*
X122437581Y-107288129D01*
X122440892Y-107310456D01*
X122442000Y-107333000D01*
X122442000Y-108083000D01*
X122440892Y-108105544D01*
X122437581Y-108127871D01*
X122432096Y-108149765D01*
X122424492Y-108171017D01*
X122414842Y-108191421D01*
X122403238Y-108210781D01*
X122389792Y-108228910D01*
X122374635Y-108245635D01*
X122357910Y-108260792D01*
X122339781Y-108274238D01*
X122320421Y-108285842D01*
X122300017Y-108295492D01*
X122278765Y-108303096D01*
X122256871Y-108308581D01*
X122234544Y-108311892D01*
X122212000Y-108313000D01*
X121752000Y-108313000D01*
X121729456Y-108311892D01*
X121707129Y-108308581D01*
X121685235Y-108303096D01*
X121663983Y-108295492D01*
X121643579Y-108285842D01*
X121624219Y-108274238D01*
X121606090Y-108260792D01*
X121589365Y-108245635D01*
X121574208Y-108228910D01*
X121560762Y-108210781D01*
X121549158Y-108191421D01*
X121539508Y-108171017D01*
X121531904Y-108149765D01*
X121526419Y-108127871D01*
X121523108Y-108105544D01*
X121522000Y-108083000D01*
X121522000Y-107333000D01*
X121523108Y-107310456D01*
X121526419Y-107288129D01*
X121531904Y-107266235D01*
X121539508Y-107244983D01*
X121549158Y-107224579D01*
X121560762Y-107205219D01*
X121574208Y-107187090D01*
X121589365Y-107170365D01*
X121606090Y-107155208D01*
X121624219Y-107141762D01*
X121643579Y-107130158D01*
X121663983Y-107120508D01*
X121685235Y-107112904D01*
X121707129Y-107107419D01*
X121729456Y-107104108D01*
X121752000Y-107103000D01*
X122212000Y-107103000D01*
X122234544Y-107104108D01*
X122234544Y-107104108D01*
G37*
D18*
X121982000Y-107708000D03*
D10*
G36*
X122234544Y-108604108D02*
G01*
X122256871Y-108607419D01*
X122278765Y-108612904D01*
X122300017Y-108620508D01*
X122320421Y-108630158D01*
X122339781Y-108641762D01*
X122357910Y-108655208D01*
X122374635Y-108670365D01*
X122389792Y-108687090D01*
X122403238Y-108705219D01*
X122414842Y-108724579D01*
X122424492Y-108744983D01*
X122432096Y-108766235D01*
X122437581Y-108788129D01*
X122440892Y-108810456D01*
X122442000Y-108833000D01*
X122442000Y-109583000D01*
X122440892Y-109605544D01*
X122437581Y-109627871D01*
X122432096Y-109649765D01*
X122424492Y-109671017D01*
X122414842Y-109691421D01*
X122403238Y-109710781D01*
X122389792Y-109728910D01*
X122374635Y-109745635D01*
X122357910Y-109760792D01*
X122339781Y-109774238D01*
X122320421Y-109785842D01*
X122300017Y-109795492D01*
X122278765Y-109803096D01*
X122256871Y-109808581D01*
X122234544Y-109811892D01*
X122212000Y-109813000D01*
X121752000Y-109813000D01*
X121729456Y-109811892D01*
X121707129Y-109808581D01*
X121685235Y-109803096D01*
X121663983Y-109795492D01*
X121643579Y-109785842D01*
X121624219Y-109774238D01*
X121606090Y-109760792D01*
X121589365Y-109745635D01*
X121574208Y-109728910D01*
X121560762Y-109710781D01*
X121549158Y-109691421D01*
X121539508Y-109671017D01*
X121531904Y-109649765D01*
X121526419Y-109627871D01*
X121523108Y-109605544D01*
X121522000Y-109583000D01*
X121522000Y-108833000D01*
X121523108Y-108810456D01*
X121526419Y-108788129D01*
X121531904Y-108766235D01*
X121539508Y-108744983D01*
X121549158Y-108724579D01*
X121560762Y-108705219D01*
X121574208Y-108687090D01*
X121589365Y-108670365D01*
X121606090Y-108655208D01*
X121624219Y-108641762D01*
X121643579Y-108630158D01*
X121663983Y-108620508D01*
X121685235Y-108612904D01*
X121707129Y-108607419D01*
X121729456Y-108604108D01*
X121752000Y-108603000D01*
X122212000Y-108603000D01*
X122234544Y-108604108D01*
X122234544Y-108604108D01*
G37*
D18*
X121982000Y-109208000D03*
D10*
G36*
X129450703Y-108056722D02*
G01*
X129465264Y-108058882D01*
X129479543Y-108062459D01*
X129493403Y-108067418D01*
X129506710Y-108073712D01*
X129519336Y-108081280D01*
X129531159Y-108090048D01*
X129542066Y-108099934D01*
X129551952Y-108110841D01*
X129560720Y-108122664D01*
X129568288Y-108135290D01*
X129574582Y-108148597D01*
X129579541Y-108162457D01*
X129583118Y-108176736D01*
X129585278Y-108191297D01*
X129586000Y-108206000D01*
X129586000Y-109856000D01*
X129585278Y-109870703D01*
X129583118Y-109885264D01*
X129579541Y-109899543D01*
X129574582Y-109913403D01*
X129568288Y-109926710D01*
X129560720Y-109939336D01*
X129551952Y-109951159D01*
X129542066Y-109962066D01*
X129531159Y-109971952D01*
X129519336Y-109980720D01*
X129506710Y-109988288D01*
X129493403Y-109994582D01*
X129479543Y-109999541D01*
X129465264Y-110003118D01*
X129450703Y-110005278D01*
X129436000Y-110006000D01*
X129136000Y-110006000D01*
X129121297Y-110005278D01*
X129106736Y-110003118D01*
X129092457Y-109999541D01*
X129078597Y-109994582D01*
X129065290Y-109988288D01*
X129052664Y-109980720D01*
X129040841Y-109971952D01*
X129029934Y-109962066D01*
X129020048Y-109951159D01*
X129011280Y-109939336D01*
X129003712Y-109926710D01*
X128997418Y-109913403D01*
X128992459Y-109899543D01*
X128988882Y-109885264D01*
X128986722Y-109870703D01*
X128986000Y-109856000D01*
X128986000Y-108206000D01*
X128986722Y-108191297D01*
X128988882Y-108176736D01*
X128992459Y-108162457D01*
X128997418Y-108148597D01*
X129003712Y-108135290D01*
X129011280Y-108122664D01*
X129020048Y-108110841D01*
X129029934Y-108099934D01*
X129040841Y-108090048D01*
X129052664Y-108081280D01*
X129065290Y-108073712D01*
X129078597Y-108067418D01*
X129092457Y-108062459D01*
X129106736Y-108058882D01*
X129121297Y-108056722D01*
X129136000Y-108056000D01*
X129436000Y-108056000D01*
X129450703Y-108056722D01*
X129450703Y-108056722D01*
G37*
D17*
X129286000Y-109031000D03*
D10*
G36*
X130720703Y-108056722D02*
G01*
X130735264Y-108058882D01*
X130749543Y-108062459D01*
X130763403Y-108067418D01*
X130776710Y-108073712D01*
X130789336Y-108081280D01*
X130801159Y-108090048D01*
X130812066Y-108099934D01*
X130821952Y-108110841D01*
X130830720Y-108122664D01*
X130838288Y-108135290D01*
X130844582Y-108148597D01*
X130849541Y-108162457D01*
X130853118Y-108176736D01*
X130855278Y-108191297D01*
X130856000Y-108206000D01*
X130856000Y-109856000D01*
X130855278Y-109870703D01*
X130853118Y-109885264D01*
X130849541Y-109899543D01*
X130844582Y-109913403D01*
X130838288Y-109926710D01*
X130830720Y-109939336D01*
X130821952Y-109951159D01*
X130812066Y-109962066D01*
X130801159Y-109971952D01*
X130789336Y-109980720D01*
X130776710Y-109988288D01*
X130763403Y-109994582D01*
X130749543Y-109999541D01*
X130735264Y-110003118D01*
X130720703Y-110005278D01*
X130706000Y-110006000D01*
X130406000Y-110006000D01*
X130391297Y-110005278D01*
X130376736Y-110003118D01*
X130362457Y-109999541D01*
X130348597Y-109994582D01*
X130335290Y-109988288D01*
X130322664Y-109980720D01*
X130310841Y-109971952D01*
X130299934Y-109962066D01*
X130290048Y-109951159D01*
X130281280Y-109939336D01*
X130273712Y-109926710D01*
X130267418Y-109913403D01*
X130262459Y-109899543D01*
X130258882Y-109885264D01*
X130256722Y-109870703D01*
X130256000Y-109856000D01*
X130256000Y-108206000D01*
X130256722Y-108191297D01*
X130258882Y-108176736D01*
X130262459Y-108162457D01*
X130267418Y-108148597D01*
X130273712Y-108135290D01*
X130281280Y-108122664D01*
X130290048Y-108110841D01*
X130299934Y-108099934D01*
X130310841Y-108090048D01*
X130322664Y-108081280D01*
X130335290Y-108073712D01*
X130348597Y-108067418D01*
X130362457Y-108062459D01*
X130376736Y-108058882D01*
X130391297Y-108056722D01*
X130406000Y-108056000D01*
X130706000Y-108056000D01*
X130720703Y-108056722D01*
X130720703Y-108056722D01*
G37*
D17*
X130556000Y-109031000D03*
D10*
G36*
X131990703Y-108056722D02*
G01*
X132005264Y-108058882D01*
X132019543Y-108062459D01*
X132033403Y-108067418D01*
X132046710Y-108073712D01*
X132059336Y-108081280D01*
X132071159Y-108090048D01*
X132082066Y-108099934D01*
X132091952Y-108110841D01*
X132100720Y-108122664D01*
X132108288Y-108135290D01*
X132114582Y-108148597D01*
X132119541Y-108162457D01*
X132123118Y-108176736D01*
X132125278Y-108191297D01*
X132126000Y-108206000D01*
X132126000Y-109856000D01*
X132125278Y-109870703D01*
X132123118Y-109885264D01*
X132119541Y-109899543D01*
X132114582Y-109913403D01*
X132108288Y-109926710D01*
X132100720Y-109939336D01*
X132091952Y-109951159D01*
X132082066Y-109962066D01*
X132071159Y-109971952D01*
X132059336Y-109980720D01*
X132046710Y-109988288D01*
X132033403Y-109994582D01*
X132019543Y-109999541D01*
X132005264Y-110003118D01*
X131990703Y-110005278D01*
X131976000Y-110006000D01*
X131676000Y-110006000D01*
X131661297Y-110005278D01*
X131646736Y-110003118D01*
X131632457Y-109999541D01*
X131618597Y-109994582D01*
X131605290Y-109988288D01*
X131592664Y-109980720D01*
X131580841Y-109971952D01*
X131569934Y-109962066D01*
X131560048Y-109951159D01*
X131551280Y-109939336D01*
X131543712Y-109926710D01*
X131537418Y-109913403D01*
X131532459Y-109899543D01*
X131528882Y-109885264D01*
X131526722Y-109870703D01*
X131526000Y-109856000D01*
X131526000Y-108206000D01*
X131526722Y-108191297D01*
X131528882Y-108176736D01*
X131532459Y-108162457D01*
X131537418Y-108148597D01*
X131543712Y-108135290D01*
X131551280Y-108122664D01*
X131560048Y-108110841D01*
X131569934Y-108099934D01*
X131580841Y-108090048D01*
X131592664Y-108081280D01*
X131605290Y-108073712D01*
X131618597Y-108067418D01*
X131632457Y-108062459D01*
X131646736Y-108058882D01*
X131661297Y-108056722D01*
X131676000Y-108056000D01*
X131976000Y-108056000D01*
X131990703Y-108056722D01*
X131990703Y-108056722D01*
G37*
D17*
X131826000Y-109031000D03*
D10*
G36*
X133260703Y-108056722D02*
G01*
X133275264Y-108058882D01*
X133289543Y-108062459D01*
X133303403Y-108067418D01*
X133316710Y-108073712D01*
X133329336Y-108081280D01*
X133341159Y-108090048D01*
X133352066Y-108099934D01*
X133361952Y-108110841D01*
X133370720Y-108122664D01*
X133378288Y-108135290D01*
X133384582Y-108148597D01*
X133389541Y-108162457D01*
X133393118Y-108176736D01*
X133395278Y-108191297D01*
X133396000Y-108206000D01*
X133396000Y-109856000D01*
X133395278Y-109870703D01*
X133393118Y-109885264D01*
X133389541Y-109899543D01*
X133384582Y-109913403D01*
X133378288Y-109926710D01*
X133370720Y-109939336D01*
X133361952Y-109951159D01*
X133352066Y-109962066D01*
X133341159Y-109971952D01*
X133329336Y-109980720D01*
X133316710Y-109988288D01*
X133303403Y-109994582D01*
X133289543Y-109999541D01*
X133275264Y-110003118D01*
X133260703Y-110005278D01*
X133246000Y-110006000D01*
X132946000Y-110006000D01*
X132931297Y-110005278D01*
X132916736Y-110003118D01*
X132902457Y-109999541D01*
X132888597Y-109994582D01*
X132875290Y-109988288D01*
X132862664Y-109980720D01*
X132850841Y-109971952D01*
X132839934Y-109962066D01*
X132830048Y-109951159D01*
X132821280Y-109939336D01*
X132813712Y-109926710D01*
X132807418Y-109913403D01*
X132802459Y-109899543D01*
X132798882Y-109885264D01*
X132796722Y-109870703D01*
X132796000Y-109856000D01*
X132796000Y-108206000D01*
X132796722Y-108191297D01*
X132798882Y-108176736D01*
X132802459Y-108162457D01*
X132807418Y-108148597D01*
X132813712Y-108135290D01*
X132821280Y-108122664D01*
X132830048Y-108110841D01*
X132839934Y-108099934D01*
X132850841Y-108090048D01*
X132862664Y-108081280D01*
X132875290Y-108073712D01*
X132888597Y-108067418D01*
X132902457Y-108062459D01*
X132916736Y-108058882D01*
X132931297Y-108056722D01*
X132946000Y-108056000D01*
X133246000Y-108056000D01*
X133260703Y-108056722D01*
X133260703Y-108056722D01*
G37*
D17*
X133096000Y-109031000D03*
D10*
G36*
X134530703Y-108056722D02*
G01*
X134545264Y-108058882D01*
X134559543Y-108062459D01*
X134573403Y-108067418D01*
X134586710Y-108073712D01*
X134599336Y-108081280D01*
X134611159Y-108090048D01*
X134622066Y-108099934D01*
X134631952Y-108110841D01*
X134640720Y-108122664D01*
X134648288Y-108135290D01*
X134654582Y-108148597D01*
X134659541Y-108162457D01*
X134663118Y-108176736D01*
X134665278Y-108191297D01*
X134666000Y-108206000D01*
X134666000Y-109856000D01*
X134665278Y-109870703D01*
X134663118Y-109885264D01*
X134659541Y-109899543D01*
X134654582Y-109913403D01*
X134648288Y-109926710D01*
X134640720Y-109939336D01*
X134631952Y-109951159D01*
X134622066Y-109962066D01*
X134611159Y-109971952D01*
X134599336Y-109980720D01*
X134586710Y-109988288D01*
X134573403Y-109994582D01*
X134559543Y-109999541D01*
X134545264Y-110003118D01*
X134530703Y-110005278D01*
X134516000Y-110006000D01*
X134216000Y-110006000D01*
X134201297Y-110005278D01*
X134186736Y-110003118D01*
X134172457Y-109999541D01*
X134158597Y-109994582D01*
X134145290Y-109988288D01*
X134132664Y-109980720D01*
X134120841Y-109971952D01*
X134109934Y-109962066D01*
X134100048Y-109951159D01*
X134091280Y-109939336D01*
X134083712Y-109926710D01*
X134077418Y-109913403D01*
X134072459Y-109899543D01*
X134068882Y-109885264D01*
X134066722Y-109870703D01*
X134066000Y-109856000D01*
X134066000Y-108206000D01*
X134066722Y-108191297D01*
X134068882Y-108176736D01*
X134072459Y-108162457D01*
X134077418Y-108148597D01*
X134083712Y-108135290D01*
X134091280Y-108122664D01*
X134100048Y-108110841D01*
X134109934Y-108099934D01*
X134120841Y-108090048D01*
X134132664Y-108081280D01*
X134145290Y-108073712D01*
X134158597Y-108067418D01*
X134172457Y-108062459D01*
X134186736Y-108058882D01*
X134201297Y-108056722D01*
X134216000Y-108056000D01*
X134516000Y-108056000D01*
X134530703Y-108056722D01*
X134530703Y-108056722D01*
G37*
D17*
X134366000Y-109031000D03*
D10*
G36*
X135800703Y-108056722D02*
G01*
X135815264Y-108058882D01*
X135829543Y-108062459D01*
X135843403Y-108067418D01*
X135856710Y-108073712D01*
X135869336Y-108081280D01*
X135881159Y-108090048D01*
X135892066Y-108099934D01*
X135901952Y-108110841D01*
X135910720Y-108122664D01*
X135918288Y-108135290D01*
X135924582Y-108148597D01*
X135929541Y-108162457D01*
X135933118Y-108176736D01*
X135935278Y-108191297D01*
X135936000Y-108206000D01*
X135936000Y-109856000D01*
X135935278Y-109870703D01*
X135933118Y-109885264D01*
X135929541Y-109899543D01*
X135924582Y-109913403D01*
X135918288Y-109926710D01*
X135910720Y-109939336D01*
X135901952Y-109951159D01*
X135892066Y-109962066D01*
X135881159Y-109971952D01*
X135869336Y-109980720D01*
X135856710Y-109988288D01*
X135843403Y-109994582D01*
X135829543Y-109999541D01*
X135815264Y-110003118D01*
X135800703Y-110005278D01*
X135786000Y-110006000D01*
X135486000Y-110006000D01*
X135471297Y-110005278D01*
X135456736Y-110003118D01*
X135442457Y-109999541D01*
X135428597Y-109994582D01*
X135415290Y-109988288D01*
X135402664Y-109980720D01*
X135390841Y-109971952D01*
X135379934Y-109962066D01*
X135370048Y-109951159D01*
X135361280Y-109939336D01*
X135353712Y-109926710D01*
X135347418Y-109913403D01*
X135342459Y-109899543D01*
X135338882Y-109885264D01*
X135336722Y-109870703D01*
X135336000Y-109856000D01*
X135336000Y-108206000D01*
X135336722Y-108191297D01*
X135338882Y-108176736D01*
X135342459Y-108162457D01*
X135347418Y-108148597D01*
X135353712Y-108135290D01*
X135361280Y-108122664D01*
X135370048Y-108110841D01*
X135379934Y-108099934D01*
X135390841Y-108090048D01*
X135402664Y-108081280D01*
X135415290Y-108073712D01*
X135428597Y-108067418D01*
X135442457Y-108062459D01*
X135456736Y-108058882D01*
X135471297Y-108056722D01*
X135486000Y-108056000D01*
X135786000Y-108056000D01*
X135800703Y-108056722D01*
X135800703Y-108056722D01*
G37*
D17*
X135636000Y-109031000D03*
D10*
G36*
X137070703Y-108056722D02*
G01*
X137085264Y-108058882D01*
X137099543Y-108062459D01*
X137113403Y-108067418D01*
X137126710Y-108073712D01*
X137139336Y-108081280D01*
X137151159Y-108090048D01*
X137162066Y-108099934D01*
X137171952Y-108110841D01*
X137180720Y-108122664D01*
X137188288Y-108135290D01*
X137194582Y-108148597D01*
X137199541Y-108162457D01*
X137203118Y-108176736D01*
X137205278Y-108191297D01*
X137206000Y-108206000D01*
X137206000Y-109856000D01*
X137205278Y-109870703D01*
X137203118Y-109885264D01*
X137199541Y-109899543D01*
X137194582Y-109913403D01*
X137188288Y-109926710D01*
X137180720Y-109939336D01*
X137171952Y-109951159D01*
X137162066Y-109962066D01*
X137151159Y-109971952D01*
X137139336Y-109980720D01*
X137126710Y-109988288D01*
X137113403Y-109994582D01*
X137099543Y-109999541D01*
X137085264Y-110003118D01*
X137070703Y-110005278D01*
X137056000Y-110006000D01*
X136756000Y-110006000D01*
X136741297Y-110005278D01*
X136726736Y-110003118D01*
X136712457Y-109999541D01*
X136698597Y-109994582D01*
X136685290Y-109988288D01*
X136672664Y-109980720D01*
X136660841Y-109971952D01*
X136649934Y-109962066D01*
X136640048Y-109951159D01*
X136631280Y-109939336D01*
X136623712Y-109926710D01*
X136617418Y-109913403D01*
X136612459Y-109899543D01*
X136608882Y-109885264D01*
X136606722Y-109870703D01*
X136606000Y-109856000D01*
X136606000Y-108206000D01*
X136606722Y-108191297D01*
X136608882Y-108176736D01*
X136612459Y-108162457D01*
X136617418Y-108148597D01*
X136623712Y-108135290D01*
X136631280Y-108122664D01*
X136640048Y-108110841D01*
X136649934Y-108099934D01*
X136660841Y-108090048D01*
X136672664Y-108081280D01*
X136685290Y-108073712D01*
X136698597Y-108067418D01*
X136712457Y-108062459D01*
X136726736Y-108058882D01*
X136741297Y-108056722D01*
X136756000Y-108056000D01*
X137056000Y-108056000D01*
X137070703Y-108056722D01*
X137070703Y-108056722D01*
G37*
D17*
X136906000Y-109031000D03*
D10*
G36*
X137070703Y-113006722D02*
G01*
X137085264Y-113008882D01*
X137099543Y-113012459D01*
X137113403Y-113017418D01*
X137126710Y-113023712D01*
X137139336Y-113031280D01*
X137151159Y-113040048D01*
X137162066Y-113049934D01*
X137171952Y-113060841D01*
X137180720Y-113072664D01*
X137188288Y-113085290D01*
X137194582Y-113098597D01*
X137199541Y-113112457D01*
X137203118Y-113126736D01*
X137205278Y-113141297D01*
X137206000Y-113156000D01*
X137206000Y-114806000D01*
X137205278Y-114820703D01*
X137203118Y-114835264D01*
X137199541Y-114849543D01*
X137194582Y-114863403D01*
X137188288Y-114876710D01*
X137180720Y-114889336D01*
X137171952Y-114901159D01*
X137162066Y-114912066D01*
X137151159Y-114921952D01*
X137139336Y-114930720D01*
X137126710Y-114938288D01*
X137113403Y-114944582D01*
X137099543Y-114949541D01*
X137085264Y-114953118D01*
X137070703Y-114955278D01*
X137056000Y-114956000D01*
X136756000Y-114956000D01*
X136741297Y-114955278D01*
X136726736Y-114953118D01*
X136712457Y-114949541D01*
X136698597Y-114944582D01*
X136685290Y-114938288D01*
X136672664Y-114930720D01*
X136660841Y-114921952D01*
X136649934Y-114912066D01*
X136640048Y-114901159D01*
X136631280Y-114889336D01*
X136623712Y-114876710D01*
X136617418Y-114863403D01*
X136612459Y-114849543D01*
X136608882Y-114835264D01*
X136606722Y-114820703D01*
X136606000Y-114806000D01*
X136606000Y-113156000D01*
X136606722Y-113141297D01*
X136608882Y-113126736D01*
X136612459Y-113112457D01*
X136617418Y-113098597D01*
X136623712Y-113085290D01*
X136631280Y-113072664D01*
X136640048Y-113060841D01*
X136649934Y-113049934D01*
X136660841Y-113040048D01*
X136672664Y-113031280D01*
X136685290Y-113023712D01*
X136698597Y-113017418D01*
X136712457Y-113012459D01*
X136726736Y-113008882D01*
X136741297Y-113006722D01*
X136756000Y-113006000D01*
X137056000Y-113006000D01*
X137070703Y-113006722D01*
X137070703Y-113006722D01*
G37*
D17*
X136906000Y-113981000D03*
D10*
G36*
X135800703Y-113006722D02*
G01*
X135815264Y-113008882D01*
X135829543Y-113012459D01*
X135843403Y-113017418D01*
X135856710Y-113023712D01*
X135869336Y-113031280D01*
X135881159Y-113040048D01*
X135892066Y-113049934D01*
X135901952Y-113060841D01*
X135910720Y-113072664D01*
X135918288Y-113085290D01*
X135924582Y-113098597D01*
X135929541Y-113112457D01*
X135933118Y-113126736D01*
X135935278Y-113141297D01*
X135936000Y-113156000D01*
X135936000Y-114806000D01*
X135935278Y-114820703D01*
X135933118Y-114835264D01*
X135929541Y-114849543D01*
X135924582Y-114863403D01*
X135918288Y-114876710D01*
X135910720Y-114889336D01*
X135901952Y-114901159D01*
X135892066Y-114912066D01*
X135881159Y-114921952D01*
X135869336Y-114930720D01*
X135856710Y-114938288D01*
X135843403Y-114944582D01*
X135829543Y-114949541D01*
X135815264Y-114953118D01*
X135800703Y-114955278D01*
X135786000Y-114956000D01*
X135486000Y-114956000D01*
X135471297Y-114955278D01*
X135456736Y-114953118D01*
X135442457Y-114949541D01*
X135428597Y-114944582D01*
X135415290Y-114938288D01*
X135402664Y-114930720D01*
X135390841Y-114921952D01*
X135379934Y-114912066D01*
X135370048Y-114901159D01*
X135361280Y-114889336D01*
X135353712Y-114876710D01*
X135347418Y-114863403D01*
X135342459Y-114849543D01*
X135338882Y-114835264D01*
X135336722Y-114820703D01*
X135336000Y-114806000D01*
X135336000Y-113156000D01*
X135336722Y-113141297D01*
X135338882Y-113126736D01*
X135342459Y-113112457D01*
X135347418Y-113098597D01*
X135353712Y-113085290D01*
X135361280Y-113072664D01*
X135370048Y-113060841D01*
X135379934Y-113049934D01*
X135390841Y-113040048D01*
X135402664Y-113031280D01*
X135415290Y-113023712D01*
X135428597Y-113017418D01*
X135442457Y-113012459D01*
X135456736Y-113008882D01*
X135471297Y-113006722D01*
X135486000Y-113006000D01*
X135786000Y-113006000D01*
X135800703Y-113006722D01*
X135800703Y-113006722D01*
G37*
D17*
X135636000Y-113981000D03*
D10*
G36*
X134530703Y-113006722D02*
G01*
X134545264Y-113008882D01*
X134559543Y-113012459D01*
X134573403Y-113017418D01*
X134586710Y-113023712D01*
X134599336Y-113031280D01*
X134611159Y-113040048D01*
X134622066Y-113049934D01*
X134631952Y-113060841D01*
X134640720Y-113072664D01*
X134648288Y-113085290D01*
X134654582Y-113098597D01*
X134659541Y-113112457D01*
X134663118Y-113126736D01*
X134665278Y-113141297D01*
X134666000Y-113156000D01*
X134666000Y-114806000D01*
X134665278Y-114820703D01*
X134663118Y-114835264D01*
X134659541Y-114849543D01*
X134654582Y-114863403D01*
X134648288Y-114876710D01*
X134640720Y-114889336D01*
X134631952Y-114901159D01*
X134622066Y-114912066D01*
X134611159Y-114921952D01*
X134599336Y-114930720D01*
X134586710Y-114938288D01*
X134573403Y-114944582D01*
X134559543Y-114949541D01*
X134545264Y-114953118D01*
X134530703Y-114955278D01*
X134516000Y-114956000D01*
X134216000Y-114956000D01*
X134201297Y-114955278D01*
X134186736Y-114953118D01*
X134172457Y-114949541D01*
X134158597Y-114944582D01*
X134145290Y-114938288D01*
X134132664Y-114930720D01*
X134120841Y-114921952D01*
X134109934Y-114912066D01*
X134100048Y-114901159D01*
X134091280Y-114889336D01*
X134083712Y-114876710D01*
X134077418Y-114863403D01*
X134072459Y-114849543D01*
X134068882Y-114835264D01*
X134066722Y-114820703D01*
X134066000Y-114806000D01*
X134066000Y-113156000D01*
X134066722Y-113141297D01*
X134068882Y-113126736D01*
X134072459Y-113112457D01*
X134077418Y-113098597D01*
X134083712Y-113085290D01*
X134091280Y-113072664D01*
X134100048Y-113060841D01*
X134109934Y-113049934D01*
X134120841Y-113040048D01*
X134132664Y-113031280D01*
X134145290Y-113023712D01*
X134158597Y-113017418D01*
X134172457Y-113012459D01*
X134186736Y-113008882D01*
X134201297Y-113006722D01*
X134216000Y-113006000D01*
X134516000Y-113006000D01*
X134530703Y-113006722D01*
X134530703Y-113006722D01*
G37*
D17*
X134366000Y-113981000D03*
D10*
G36*
X133260703Y-113006722D02*
G01*
X133275264Y-113008882D01*
X133289543Y-113012459D01*
X133303403Y-113017418D01*
X133316710Y-113023712D01*
X133329336Y-113031280D01*
X133341159Y-113040048D01*
X133352066Y-113049934D01*
X133361952Y-113060841D01*
X133370720Y-113072664D01*
X133378288Y-113085290D01*
X133384582Y-113098597D01*
X133389541Y-113112457D01*
X133393118Y-113126736D01*
X133395278Y-113141297D01*
X133396000Y-113156000D01*
X133396000Y-114806000D01*
X133395278Y-114820703D01*
X133393118Y-114835264D01*
X133389541Y-114849543D01*
X133384582Y-114863403D01*
X133378288Y-114876710D01*
X133370720Y-114889336D01*
X133361952Y-114901159D01*
X133352066Y-114912066D01*
X133341159Y-114921952D01*
X133329336Y-114930720D01*
X133316710Y-114938288D01*
X133303403Y-114944582D01*
X133289543Y-114949541D01*
X133275264Y-114953118D01*
X133260703Y-114955278D01*
X133246000Y-114956000D01*
X132946000Y-114956000D01*
X132931297Y-114955278D01*
X132916736Y-114953118D01*
X132902457Y-114949541D01*
X132888597Y-114944582D01*
X132875290Y-114938288D01*
X132862664Y-114930720D01*
X132850841Y-114921952D01*
X132839934Y-114912066D01*
X132830048Y-114901159D01*
X132821280Y-114889336D01*
X132813712Y-114876710D01*
X132807418Y-114863403D01*
X132802459Y-114849543D01*
X132798882Y-114835264D01*
X132796722Y-114820703D01*
X132796000Y-114806000D01*
X132796000Y-113156000D01*
X132796722Y-113141297D01*
X132798882Y-113126736D01*
X132802459Y-113112457D01*
X132807418Y-113098597D01*
X132813712Y-113085290D01*
X132821280Y-113072664D01*
X132830048Y-113060841D01*
X132839934Y-113049934D01*
X132850841Y-113040048D01*
X132862664Y-113031280D01*
X132875290Y-113023712D01*
X132888597Y-113017418D01*
X132902457Y-113012459D01*
X132916736Y-113008882D01*
X132931297Y-113006722D01*
X132946000Y-113006000D01*
X133246000Y-113006000D01*
X133260703Y-113006722D01*
X133260703Y-113006722D01*
G37*
D17*
X133096000Y-113981000D03*
D10*
G36*
X131990703Y-113006722D02*
G01*
X132005264Y-113008882D01*
X132019543Y-113012459D01*
X132033403Y-113017418D01*
X132046710Y-113023712D01*
X132059336Y-113031280D01*
X132071159Y-113040048D01*
X132082066Y-113049934D01*
X132091952Y-113060841D01*
X132100720Y-113072664D01*
X132108288Y-113085290D01*
X132114582Y-113098597D01*
X132119541Y-113112457D01*
X132123118Y-113126736D01*
X132125278Y-113141297D01*
X132126000Y-113156000D01*
X132126000Y-114806000D01*
X132125278Y-114820703D01*
X132123118Y-114835264D01*
X132119541Y-114849543D01*
X132114582Y-114863403D01*
X132108288Y-114876710D01*
X132100720Y-114889336D01*
X132091952Y-114901159D01*
X132082066Y-114912066D01*
X132071159Y-114921952D01*
X132059336Y-114930720D01*
X132046710Y-114938288D01*
X132033403Y-114944582D01*
X132019543Y-114949541D01*
X132005264Y-114953118D01*
X131990703Y-114955278D01*
X131976000Y-114956000D01*
X131676000Y-114956000D01*
X131661297Y-114955278D01*
X131646736Y-114953118D01*
X131632457Y-114949541D01*
X131618597Y-114944582D01*
X131605290Y-114938288D01*
X131592664Y-114930720D01*
X131580841Y-114921952D01*
X131569934Y-114912066D01*
X131560048Y-114901159D01*
X131551280Y-114889336D01*
X131543712Y-114876710D01*
X131537418Y-114863403D01*
X131532459Y-114849543D01*
X131528882Y-114835264D01*
X131526722Y-114820703D01*
X131526000Y-114806000D01*
X131526000Y-113156000D01*
X131526722Y-113141297D01*
X131528882Y-113126736D01*
X131532459Y-113112457D01*
X131537418Y-113098597D01*
X131543712Y-113085290D01*
X131551280Y-113072664D01*
X131560048Y-113060841D01*
X131569934Y-113049934D01*
X131580841Y-113040048D01*
X131592664Y-113031280D01*
X131605290Y-113023712D01*
X131618597Y-113017418D01*
X131632457Y-113012459D01*
X131646736Y-113008882D01*
X131661297Y-113006722D01*
X131676000Y-113006000D01*
X131976000Y-113006000D01*
X131990703Y-113006722D01*
X131990703Y-113006722D01*
G37*
D17*
X131826000Y-113981000D03*
D10*
G36*
X130720703Y-113006722D02*
G01*
X130735264Y-113008882D01*
X130749543Y-113012459D01*
X130763403Y-113017418D01*
X130776710Y-113023712D01*
X130789336Y-113031280D01*
X130801159Y-113040048D01*
X130812066Y-113049934D01*
X130821952Y-113060841D01*
X130830720Y-113072664D01*
X130838288Y-113085290D01*
X130844582Y-113098597D01*
X130849541Y-113112457D01*
X130853118Y-113126736D01*
X130855278Y-113141297D01*
X130856000Y-113156000D01*
X130856000Y-114806000D01*
X130855278Y-114820703D01*
X130853118Y-114835264D01*
X130849541Y-114849543D01*
X130844582Y-114863403D01*
X130838288Y-114876710D01*
X130830720Y-114889336D01*
X130821952Y-114901159D01*
X130812066Y-114912066D01*
X130801159Y-114921952D01*
X130789336Y-114930720D01*
X130776710Y-114938288D01*
X130763403Y-114944582D01*
X130749543Y-114949541D01*
X130735264Y-114953118D01*
X130720703Y-114955278D01*
X130706000Y-114956000D01*
X130406000Y-114956000D01*
X130391297Y-114955278D01*
X130376736Y-114953118D01*
X130362457Y-114949541D01*
X130348597Y-114944582D01*
X130335290Y-114938288D01*
X130322664Y-114930720D01*
X130310841Y-114921952D01*
X130299934Y-114912066D01*
X130290048Y-114901159D01*
X130281280Y-114889336D01*
X130273712Y-114876710D01*
X130267418Y-114863403D01*
X130262459Y-114849543D01*
X130258882Y-114835264D01*
X130256722Y-114820703D01*
X130256000Y-114806000D01*
X130256000Y-113156000D01*
X130256722Y-113141297D01*
X130258882Y-113126736D01*
X130262459Y-113112457D01*
X130267418Y-113098597D01*
X130273712Y-113085290D01*
X130281280Y-113072664D01*
X130290048Y-113060841D01*
X130299934Y-113049934D01*
X130310841Y-113040048D01*
X130322664Y-113031280D01*
X130335290Y-113023712D01*
X130348597Y-113017418D01*
X130362457Y-113012459D01*
X130376736Y-113008882D01*
X130391297Y-113006722D01*
X130406000Y-113006000D01*
X130706000Y-113006000D01*
X130720703Y-113006722D01*
X130720703Y-113006722D01*
G37*
D17*
X130556000Y-113981000D03*
D10*
G36*
X129450703Y-113006722D02*
G01*
X129465264Y-113008882D01*
X129479543Y-113012459D01*
X129493403Y-113017418D01*
X129506710Y-113023712D01*
X129519336Y-113031280D01*
X129531159Y-113040048D01*
X129542066Y-113049934D01*
X129551952Y-113060841D01*
X129560720Y-113072664D01*
X129568288Y-113085290D01*
X129574582Y-113098597D01*
X129579541Y-113112457D01*
X129583118Y-113126736D01*
X129585278Y-113141297D01*
X129586000Y-113156000D01*
X129586000Y-114806000D01*
X129585278Y-114820703D01*
X129583118Y-114835264D01*
X129579541Y-114849543D01*
X129574582Y-114863403D01*
X129568288Y-114876710D01*
X129560720Y-114889336D01*
X129551952Y-114901159D01*
X129542066Y-114912066D01*
X129531159Y-114921952D01*
X129519336Y-114930720D01*
X129506710Y-114938288D01*
X129493403Y-114944582D01*
X129479543Y-114949541D01*
X129465264Y-114953118D01*
X129450703Y-114955278D01*
X129436000Y-114956000D01*
X129136000Y-114956000D01*
X129121297Y-114955278D01*
X129106736Y-114953118D01*
X129092457Y-114949541D01*
X129078597Y-114944582D01*
X129065290Y-114938288D01*
X129052664Y-114930720D01*
X129040841Y-114921952D01*
X129029934Y-114912066D01*
X129020048Y-114901159D01*
X129011280Y-114889336D01*
X129003712Y-114876710D01*
X128997418Y-114863403D01*
X128992459Y-114849543D01*
X128988882Y-114835264D01*
X128986722Y-114820703D01*
X128986000Y-114806000D01*
X128986000Y-113156000D01*
X128986722Y-113141297D01*
X128988882Y-113126736D01*
X128992459Y-113112457D01*
X128997418Y-113098597D01*
X129003712Y-113085290D01*
X129011280Y-113072664D01*
X129020048Y-113060841D01*
X129029934Y-113049934D01*
X129040841Y-113040048D01*
X129052664Y-113031280D01*
X129065290Y-113023712D01*
X129078597Y-113017418D01*
X129092457Y-113012459D01*
X129106736Y-113008882D01*
X129121297Y-113006722D01*
X129136000Y-113006000D01*
X129436000Y-113006000D01*
X129450703Y-113006722D01*
X129450703Y-113006722D01*
G37*
D17*
X129286000Y-113981000D03*
D10*
G36*
X135395642Y-119443174D02*
G01*
X135419303Y-119446684D01*
X135442507Y-119452496D01*
X135465029Y-119460554D01*
X135486653Y-119470782D01*
X135507170Y-119483079D01*
X135526383Y-119497329D01*
X135544107Y-119513393D01*
X135560171Y-119531117D01*
X135574421Y-119550330D01*
X135586718Y-119570847D01*
X135596946Y-119592471D01*
X135605004Y-119614993D01*
X135610816Y-119638197D01*
X135614326Y-119661858D01*
X135615500Y-119685750D01*
X135615500Y-120598250D01*
X135614326Y-120622142D01*
X135610816Y-120645803D01*
X135605004Y-120669007D01*
X135596946Y-120691529D01*
X135586718Y-120713153D01*
X135574421Y-120733670D01*
X135560171Y-120752883D01*
X135544107Y-120770607D01*
X135526383Y-120786671D01*
X135507170Y-120800921D01*
X135486653Y-120813218D01*
X135465029Y-120823446D01*
X135442507Y-120831504D01*
X135419303Y-120837316D01*
X135395642Y-120840826D01*
X135371750Y-120842000D01*
X134884250Y-120842000D01*
X134860358Y-120840826D01*
X134836697Y-120837316D01*
X134813493Y-120831504D01*
X134790971Y-120823446D01*
X134769347Y-120813218D01*
X134748830Y-120800921D01*
X134729617Y-120786671D01*
X134711893Y-120770607D01*
X134695829Y-120752883D01*
X134681579Y-120733670D01*
X134669282Y-120713153D01*
X134659054Y-120691529D01*
X134650996Y-120669007D01*
X134645184Y-120645803D01*
X134641674Y-120622142D01*
X134640500Y-120598250D01*
X134640500Y-119685750D01*
X134641674Y-119661858D01*
X134645184Y-119638197D01*
X134650996Y-119614993D01*
X134659054Y-119592471D01*
X134669282Y-119570847D01*
X134681579Y-119550330D01*
X134695829Y-119531117D01*
X134711893Y-119513393D01*
X134729617Y-119497329D01*
X134748830Y-119483079D01*
X134769347Y-119470782D01*
X134790971Y-119460554D01*
X134813493Y-119452496D01*
X134836697Y-119446684D01*
X134860358Y-119443174D01*
X134884250Y-119442000D01*
X135371750Y-119442000D01*
X135395642Y-119443174D01*
X135395642Y-119443174D01*
G37*
D11*
X135128000Y-120142000D03*
D10*
G36*
X133520642Y-119443174D02*
G01*
X133544303Y-119446684D01*
X133567507Y-119452496D01*
X133590029Y-119460554D01*
X133611653Y-119470782D01*
X133632170Y-119483079D01*
X133651383Y-119497329D01*
X133669107Y-119513393D01*
X133685171Y-119531117D01*
X133699421Y-119550330D01*
X133711718Y-119570847D01*
X133721946Y-119592471D01*
X133730004Y-119614993D01*
X133735816Y-119638197D01*
X133739326Y-119661858D01*
X133740500Y-119685750D01*
X133740500Y-120598250D01*
X133739326Y-120622142D01*
X133735816Y-120645803D01*
X133730004Y-120669007D01*
X133721946Y-120691529D01*
X133711718Y-120713153D01*
X133699421Y-120733670D01*
X133685171Y-120752883D01*
X133669107Y-120770607D01*
X133651383Y-120786671D01*
X133632170Y-120800921D01*
X133611653Y-120813218D01*
X133590029Y-120823446D01*
X133567507Y-120831504D01*
X133544303Y-120837316D01*
X133520642Y-120840826D01*
X133496750Y-120842000D01*
X133009250Y-120842000D01*
X132985358Y-120840826D01*
X132961697Y-120837316D01*
X132938493Y-120831504D01*
X132915971Y-120823446D01*
X132894347Y-120813218D01*
X132873830Y-120800921D01*
X132854617Y-120786671D01*
X132836893Y-120770607D01*
X132820829Y-120752883D01*
X132806579Y-120733670D01*
X132794282Y-120713153D01*
X132784054Y-120691529D01*
X132775996Y-120669007D01*
X132770184Y-120645803D01*
X132766674Y-120622142D01*
X132765500Y-120598250D01*
X132765500Y-119685750D01*
X132766674Y-119661858D01*
X132770184Y-119638197D01*
X132775996Y-119614993D01*
X132784054Y-119592471D01*
X132794282Y-119570847D01*
X132806579Y-119550330D01*
X132820829Y-119531117D01*
X132836893Y-119513393D01*
X132854617Y-119497329D01*
X132873830Y-119483079D01*
X132894347Y-119470782D01*
X132915971Y-119460554D01*
X132938493Y-119452496D01*
X132961697Y-119446684D01*
X132985358Y-119443174D01*
X133009250Y-119442000D01*
X133496750Y-119442000D01*
X133520642Y-119443174D01*
X133520642Y-119443174D01*
G37*
D11*
X133253000Y-120142000D03*
D10*
G36*
X129807642Y-116395174D02*
G01*
X129831303Y-116398684D01*
X129854507Y-116404496D01*
X129877029Y-116412554D01*
X129898653Y-116422782D01*
X129919170Y-116435079D01*
X129938383Y-116449329D01*
X129956107Y-116465393D01*
X129972171Y-116483117D01*
X129986421Y-116502330D01*
X129998718Y-116522847D01*
X130008946Y-116544471D01*
X130017004Y-116566993D01*
X130022816Y-116590197D01*
X130026326Y-116613858D01*
X130027500Y-116637750D01*
X130027500Y-117550250D01*
X130026326Y-117574142D01*
X130022816Y-117597803D01*
X130017004Y-117621007D01*
X130008946Y-117643529D01*
X129998718Y-117665153D01*
X129986421Y-117685670D01*
X129972171Y-117704883D01*
X129956107Y-117722607D01*
X129938383Y-117738671D01*
X129919170Y-117752921D01*
X129898653Y-117765218D01*
X129877029Y-117775446D01*
X129854507Y-117783504D01*
X129831303Y-117789316D01*
X129807642Y-117792826D01*
X129783750Y-117794000D01*
X129296250Y-117794000D01*
X129272358Y-117792826D01*
X129248697Y-117789316D01*
X129225493Y-117783504D01*
X129202971Y-117775446D01*
X129181347Y-117765218D01*
X129160830Y-117752921D01*
X129141617Y-117738671D01*
X129123893Y-117722607D01*
X129107829Y-117704883D01*
X129093579Y-117685670D01*
X129081282Y-117665153D01*
X129071054Y-117643529D01*
X129062996Y-117621007D01*
X129057184Y-117597803D01*
X129053674Y-117574142D01*
X129052500Y-117550250D01*
X129052500Y-116637750D01*
X129053674Y-116613858D01*
X129057184Y-116590197D01*
X129062996Y-116566993D01*
X129071054Y-116544471D01*
X129081282Y-116522847D01*
X129093579Y-116502330D01*
X129107829Y-116483117D01*
X129123893Y-116465393D01*
X129141617Y-116449329D01*
X129160830Y-116435079D01*
X129181347Y-116422782D01*
X129202971Y-116412554D01*
X129225493Y-116404496D01*
X129248697Y-116398684D01*
X129272358Y-116395174D01*
X129296250Y-116394000D01*
X129783750Y-116394000D01*
X129807642Y-116395174D01*
X129807642Y-116395174D01*
G37*
D11*
X129540000Y-117094000D03*
D10*
G36*
X131682642Y-116395174D02*
G01*
X131706303Y-116398684D01*
X131729507Y-116404496D01*
X131752029Y-116412554D01*
X131773653Y-116422782D01*
X131794170Y-116435079D01*
X131813383Y-116449329D01*
X131831107Y-116465393D01*
X131847171Y-116483117D01*
X131861421Y-116502330D01*
X131873718Y-116522847D01*
X131883946Y-116544471D01*
X131892004Y-116566993D01*
X131897816Y-116590197D01*
X131901326Y-116613858D01*
X131902500Y-116637750D01*
X131902500Y-117550250D01*
X131901326Y-117574142D01*
X131897816Y-117597803D01*
X131892004Y-117621007D01*
X131883946Y-117643529D01*
X131873718Y-117665153D01*
X131861421Y-117685670D01*
X131847171Y-117704883D01*
X131831107Y-117722607D01*
X131813383Y-117738671D01*
X131794170Y-117752921D01*
X131773653Y-117765218D01*
X131752029Y-117775446D01*
X131729507Y-117783504D01*
X131706303Y-117789316D01*
X131682642Y-117792826D01*
X131658750Y-117794000D01*
X131171250Y-117794000D01*
X131147358Y-117792826D01*
X131123697Y-117789316D01*
X131100493Y-117783504D01*
X131077971Y-117775446D01*
X131056347Y-117765218D01*
X131035830Y-117752921D01*
X131016617Y-117738671D01*
X130998893Y-117722607D01*
X130982829Y-117704883D01*
X130968579Y-117685670D01*
X130956282Y-117665153D01*
X130946054Y-117643529D01*
X130937996Y-117621007D01*
X130932184Y-117597803D01*
X130928674Y-117574142D01*
X130927500Y-117550250D01*
X130927500Y-116637750D01*
X130928674Y-116613858D01*
X130932184Y-116590197D01*
X130937996Y-116566993D01*
X130946054Y-116544471D01*
X130956282Y-116522847D01*
X130968579Y-116502330D01*
X130982829Y-116483117D01*
X130998893Y-116465393D01*
X131016617Y-116449329D01*
X131035830Y-116435079D01*
X131056347Y-116422782D01*
X131077971Y-116412554D01*
X131100493Y-116404496D01*
X131123697Y-116398684D01*
X131147358Y-116395174D01*
X131171250Y-116394000D01*
X131658750Y-116394000D01*
X131682642Y-116395174D01*
X131682642Y-116395174D01*
G37*
D11*
X131415000Y-117094000D03*
D19*
X106172000Y-110872000D03*
X106172000Y-114172000D03*
D10*
G36*
X131331642Y-119443174D02*
G01*
X131355303Y-119446684D01*
X131378507Y-119452496D01*
X131401029Y-119460554D01*
X131422653Y-119470782D01*
X131443170Y-119483079D01*
X131462383Y-119497329D01*
X131480107Y-119513393D01*
X131496171Y-119531117D01*
X131510421Y-119550330D01*
X131522718Y-119570847D01*
X131532946Y-119592471D01*
X131541004Y-119614993D01*
X131546816Y-119638197D01*
X131550326Y-119661858D01*
X131551500Y-119685750D01*
X131551500Y-120598250D01*
X131550326Y-120622142D01*
X131546816Y-120645803D01*
X131541004Y-120669007D01*
X131532946Y-120691529D01*
X131522718Y-120713153D01*
X131510421Y-120733670D01*
X131496171Y-120752883D01*
X131480107Y-120770607D01*
X131462383Y-120786671D01*
X131443170Y-120800921D01*
X131422653Y-120813218D01*
X131401029Y-120823446D01*
X131378507Y-120831504D01*
X131355303Y-120837316D01*
X131331642Y-120840826D01*
X131307750Y-120842000D01*
X130820250Y-120842000D01*
X130796358Y-120840826D01*
X130772697Y-120837316D01*
X130749493Y-120831504D01*
X130726971Y-120823446D01*
X130705347Y-120813218D01*
X130684830Y-120800921D01*
X130665617Y-120786671D01*
X130647893Y-120770607D01*
X130631829Y-120752883D01*
X130617579Y-120733670D01*
X130605282Y-120713153D01*
X130595054Y-120691529D01*
X130586996Y-120669007D01*
X130581184Y-120645803D01*
X130577674Y-120622142D01*
X130576500Y-120598250D01*
X130576500Y-119685750D01*
X130577674Y-119661858D01*
X130581184Y-119638197D01*
X130586996Y-119614993D01*
X130595054Y-119592471D01*
X130605282Y-119570847D01*
X130617579Y-119550330D01*
X130631829Y-119531117D01*
X130647893Y-119513393D01*
X130665617Y-119497329D01*
X130684830Y-119483079D01*
X130705347Y-119470782D01*
X130726971Y-119460554D01*
X130749493Y-119452496D01*
X130772697Y-119446684D01*
X130796358Y-119443174D01*
X130820250Y-119442000D01*
X131307750Y-119442000D01*
X131331642Y-119443174D01*
X131331642Y-119443174D01*
G37*
D11*
X131064000Y-120142000D03*
D10*
G36*
X129456642Y-119443174D02*
G01*
X129480303Y-119446684D01*
X129503507Y-119452496D01*
X129526029Y-119460554D01*
X129547653Y-119470782D01*
X129568170Y-119483079D01*
X129587383Y-119497329D01*
X129605107Y-119513393D01*
X129621171Y-119531117D01*
X129635421Y-119550330D01*
X129647718Y-119570847D01*
X129657946Y-119592471D01*
X129666004Y-119614993D01*
X129671816Y-119638197D01*
X129675326Y-119661858D01*
X129676500Y-119685750D01*
X129676500Y-120598250D01*
X129675326Y-120622142D01*
X129671816Y-120645803D01*
X129666004Y-120669007D01*
X129657946Y-120691529D01*
X129647718Y-120713153D01*
X129635421Y-120733670D01*
X129621171Y-120752883D01*
X129605107Y-120770607D01*
X129587383Y-120786671D01*
X129568170Y-120800921D01*
X129547653Y-120813218D01*
X129526029Y-120823446D01*
X129503507Y-120831504D01*
X129480303Y-120837316D01*
X129456642Y-120840826D01*
X129432750Y-120842000D01*
X128945250Y-120842000D01*
X128921358Y-120840826D01*
X128897697Y-120837316D01*
X128874493Y-120831504D01*
X128851971Y-120823446D01*
X128830347Y-120813218D01*
X128809830Y-120800921D01*
X128790617Y-120786671D01*
X128772893Y-120770607D01*
X128756829Y-120752883D01*
X128742579Y-120733670D01*
X128730282Y-120713153D01*
X128720054Y-120691529D01*
X128711996Y-120669007D01*
X128706184Y-120645803D01*
X128702674Y-120622142D01*
X128701500Y-120598250D01*
X128701500Y-119685750D01*
X128702674Y-119661858D01*
X128706184Y-119638197D01*
X128711996Y-119614993D01*
X128720054Y-119592471D01*
X128730282Y-119570847D01*
X128742579Y-119550330D01*
X128756829Y-119531117D01*
X128772893Y-119513393D01*
X128790617Y-119497329D01*
X128809830Y-119483079D01*
X128830347Y-119470782D01*
X128851971Y-119460554D01*
X128874493Y-119452496D01*
X128897697Y-119446684D01*
X128921358Y-119443174D01*
X128945250Y-119442000D01*
X129432750Y-119442000D01*
X129456642Y-119443174D01*
X129456642Y-119443174D01*
G37*
D11*
X129189000Y-120142000D03*
D10*
G36*
X117615642Y-113855174D02*
G01*
X117639303Y-113858684D01*
X117662507Y-113864496D01*
X117685029Y-113872554D01*
X117706653Y-113882782D01*
X117727170Y-113895079D01*
X117746383Y-113909329D01*
X117764107Y-113925393D01*
X117780171Y-113943117D01*
X117794421Y-113962330D01*
X117806718Y-113982847D01*
X117816946Y-114004471D01*
X117825004Y-114026993D01*
X117830816Y-114050197D01*
X117834326Y-114073858D01*
X117835500Y-114097750D01*
X117835500Y-115010250D01*
X117834326Y-115034142D01*
X117830816Y-115057803D01*
X117825004Y-115081007D01*
X117816946Y-115103529D01*
X117806718Y-115125153D01*
X117794421Y-115145670D01*
X117780171Y-115164883D01*
X117764107Y-115182607D01*
X117746383Y-115198671D01*
X117727170Y-115212921D01*
X117706653Y-115225218D01*
X117685029Y-115235446D01*
X117662507Y-115243504D01*
X117639303Y-115249316D01*
X117615642Y-115252826D01*
X117591750Y-115254000D01*
X117104250Y-115254000D01*
X117080358Y-115252826D01*
X117056697Y-115249316D01*
X117033493Y-115243504D01*
X117010971Y-115235446D01*
X116989347Y-115225218D01*
X116968830Y-115212921D01*
X116949617Y-115198671D01*
X116931893Y-115182607D01*
X116915829Y-115164883D01*
X116901579Y-115145670D01*
X116889282Y-115125153D01*
X116879054Y-115103529D01*
X116870996Y-115081007D01*
X116865184Y-115057803D01*
X116861674Y-115034142D01*
X116860500Y-115010250D01*
X116860500Y-114097750D01*
X116861674Y-114073858D01*
X116865184Y-114050197D01*
X116870996Y-114026993D01*
X116879054Y-114004471D01*
X116889282Y-113982847D01*
X116901579Y-113962330D01*
X116915829Y-113943117D01*
X116931893Y-113925393D01*
X116949617Y-113909329D01*
X116968830Y-113895079D01*
X116989347Y-113882782D01*
X117010971Y-113872554D01*
X117033493Y-113864496D01*
X117056697Y-113858684D01*
X117080358Y-113855174D01*
X117104250Y-113854000D01*
X117591750Y-113854000D01*
X117615642Y-113855174D01*
X117615642Y-113855174D01*
G37*
D11*
X117348000Y-114554000D03*
D10*
G36*
X115740642Y-113855174D02*
G01*
X115764303Y-113858684D01*
X115787507Y-113864496D01*
X115810029Y-113872554D01*
X115831653Y-113882782D01*
X115852170Y-113895079D01*
X115871383Y-113909329D01*
X115889107Y-113925393D01*
X115905171Y-113943117D01*
X115919421Y-113962330D01*
X115931718Y-113982847D01*
X115941946Y-114004471D01*
X115950004Y-114026993D01*
X115955816Y-114050197D01*
X115959326Y-114073858D01*
X115960500Y-114097750D01*
X115960500Y-115010250D01*
X115959326Y-115034142D01*
X115955816Y-115057803D01*
X115950004Y-115081007D01*
X115941946Y-115103529D01*
X115931718Y-115125153D01*
X115919421Y-115145670D01*
X115905171Y-115164883D01*
X115889107Y-115182607D01*
X115871383Y-115198671D01*
X115852170Y-115212921D01*
X115831653Y-115225218D01*
X115810029Y-115235446D01*
X115787507Y-115243504D01*
X115764303Y-115249316D01*
X115740642Y-115252826D01*
X115716750Y-115254000D01*
X115229250Y-115254000D01*
X115205358Y-115252826D01*
X115181697Y-115249316D01*
X115158493Y-115243504D01*
X115135971Y-115235446D01*
X115114347Y-115225218D01*
X115093830Y-115212921D01*
X115074617Y-115198671D01*
X115056893Y-115182607D01*
X115040829Y-115164883D01*
X115026579Y-115145670D01*
X115014282Y-115125153D01*
X115004054Y-115103529D01*
X114995996Y-115081007D01*
X114990184Y-115057803D01*
X114986674Y-115034142D01*
X114985500Y-115010250D01*
X114985500Y-114097750D01*
X114986674Y-114073858D01*
X114990184Y-114050197D01*
X114995996Y-114026993D01*
X115004054Y-114004471D01*
X115014282Y-113982847D01*
X115026579Y-113962330D01*
X115040829Y-113943117D01*
X115056893Y-113925393D01*
X115074617Y-113909329D01*
X115093830Y-113895079D01*
X115114347Y-113882782D01*
X115135971Y-113872554D01*
X115158493Y-113864496D01*
X115181697Y-113858684D01*
X115205358Y-113855174D01*
X115229250Y-113854000D01*
X115716750Y-113854000D01*
X115740642Y-113855174D01*
X115740642Y-113855174D01*
G37*
D11*
X115473000Y-114554000D03*
D10*
G36*
X119139642Y-111823174D02*
G01*
X119163303Y-111826684D01*
X119186507Y-111832496D01*
X119209029Y-111840554D01*
X119230653Y-111850782D01*
X119251170Y-111863079D01*
X119270383Y-111877329D01*
X119288107Y-111893393D01*
X119304171Y-111911117D01*
X119318421Y-111930330D01*
X119330718Y-111950847D01*
X119340946Y-111972471D01*
X119349004Y-111994993D01*
X119354816Y-112018197D01*
X119358326Y-112041858D01*
X119359500Y-112065750D01*
X119359500Y-112978250D01*
X119358326Y-113002142D01*
X119354816Y-113025803D01*
X119349004Y-113049007D01*
X119340946Y-113071529D01*
X119330718Y-113093153D01*
X119318421Y-113113670D01*
X119304171Y-113132883D01*
X119288107Y-113150607D01*
X119270383Y-113166671D01*
X119251170Y-113180921D01*
X119230653Y-113193218D01*
X119209029Y-113203446D01*
X119186507Y-113211504D01*
X119163303Y-113217316D01*
X119139642Y-113220826D01*
X119115750Y-113222000D01*
X118628250Y-113222000D01*
X118604358Y-113220826D01*
X118580697Y-113217316D01*
X118557493Y-113211504D01*
X118534971Y-113203446D01*
X118513347Y-113193218D01*
X118492830Y-113180921D01*
X118473617Y-113166671D01*
X118455893Y-113150607D01*
X118439829Y-113132883D01*
X118425579Y-113113670D01*
X118413282Y-113093153D01*
X118403054Y-113071529D01*
X118394996Y-113049007D01*
X118389184Y-113025803D01*
X118385674Y-113002142D01*
X118384500Y-112978250D01*
X118384500Y-112065750D01*
X118385674Y-112041858D01*
X118389184Y-112018197D01*
X118394996Y-111994993D01*
X118403054Y-111972471D01*
X118413282Y-111950847D01*
X118425579Y-111930330D01*
X118439829Y-111911117D01*
X118455893Y-111893393D01*
X118473617Y-111877329D01*
X118492830Y-111863079D01*
X118513347Y-111850782D01*
X118534971Y-111840554D01*
X118557493Y-111832496D01*
X118580697Y-111826684D01*
X118604358Y-111823174D01*
X118628250Y-111822000D01*
X119115750Y-111822000D01*
X119139642Y-111823174D01*
X119139642Y-111823174D01*
G37*
D11*
X118872000Y-112522000D03*
D10*
G36*
X117264642Y-111823174D02*
G01*
X117288303Y-111826684D01*
X117311507Y-111832496D01*
X117334029Y-111840554D01*
X117355653Y-111850782D01*
X117376170Y-111863079D01*
X117395383Y-111877329D01*
X117413107Y-111893393D01*
X117429171Y-111911117D01*
X117443421Y-111930330D01*
X117455718Y-111950847D01*
X117465946Y-111972471D01*
X117474004Y-111994993D01*
X117479816Y-112018197D01*
X117483326Y-112041858D01*
X117484500Y-112065750D01*
X117484500Y-112978250D01*
X117483326Y-113002142D01*
X117479816Y-113025803D01*
X117474004Y-113049007D01*
X117465946Y-113071529D01*
X117455718Y-113093153D01*
X117443421Y-113113670D01*
X117429171Y-113132883D01*
X117413107Y-113150607D01*
X117395383Y-113166671D01*
X117376170Y-113180921D01*
X117355653Y-113193218D01*
X117334029Y-113203446D01*
X117311507Y-113211504D01*
X117288303Y-113217316D01*
X117264642Y-113220826D01*
X117240750Y-113222000D01*
X116753250Y-113222000D01*
X116729358Y-113220826D01*
X116705697Y-113217316D01*
X116682493Y-113211504D01*
X116659971Y-113203446D01*
X116638347Y-113193218D01*
X116617830Y-113180921D01*
X116598617Y-113166671D01*
X116580893Y-113150607D01*
X116564829Y-113132883D01*
X116550579Y-113113670D01*
X116538282Y-113093153D01*
X116528054Y-113071529D01*
X116519996Y-113049007D01*
X116514184Y-113025803D01*
X116510674Y-113002142D01*
X116509500Y-112978250D01*
X116509500Y-112065750D01*
X116510674Y-112041858D01*
X116514184Y-112018197D01*
X116519996Y-111994993D01*
X116528054Y-111972471D01*
X116538282Y-111950847D01*
X116550579Y-111930330D01*
X116564829Y-111911117D01*
X116580893Y-111893393D01*
X116598617Y-111877329D01*
X116617830Y-111863079D01*
X116638347Y-111850782D01*
X116659971Y-111840554D01*
X116682493Y-111832496D01*
X116705697Y-111826684D01*
X116729358Y-111823174D01*
X116753250Y-111822000D01*
X117240750Y-111822000D01*
X117264642Y-111823174D01*
X117264642Y-111823174D01*
G37*
D11*
X116997000Y-112522000D03*
D10*
G36*
X121551504Y-111648204D02*
G01*
X121575773Y-111651804D01*
X121599571Y-111657765D01*
X121622671Y-111666030D01*
X121644849Y-111676520D01*
X121665893Y-111689133D01*
X121685598Y-111703747D01*
X121703777Y-111720223D01*
X121720253Y-111738402D01*
X121734867Y-111758107D01*
X121747480Y-111779151D01*
X121757970Y-111801329D01*
X121766235Y-111824429D01*
X121772196Y-111848227D01*
X121775796Y-111872496D01*
X121777000Y-111897000D01*
X121777000Y-113147000D01*
X121775796Y-113171504D01*
X121772196Y-113195773D01*
X121766235Y-113219571D01*
X121757970Y-113242671D01*
X121747480Y-113264849D01*
X121734867Y-113285893D01*
X121720253Y-113305598D01*
X121703777Y-113323777D01*
X121685598Y-113340253D01*
X121665893Y-113354867D01*
X121644849Y-113367480D01*
X121622671Y-113377970D01*
X121599571Y-113386235D01*
X121575773Y-113392196D01*
X121551504Y-113395796D01*
X121527000Y-113397000D01*
X120777000Y-113397000D01*
X120752496Y-113395796D01*
X120728227Y-113392196D01*
X120704429Y-113386235D01*
X120681329Y-113377970D01*
X120659151Y-113367480D01*
X120638107Y-113354867D01*
X120618402Y-113340253D01*
X120600223Y-113323777D01*
X120583747Y-113305598D01*
X120569133Y-113285893D01*
X120556520Y-113264849D01*
X120546030Y-113242671D01*
X120537765Y-113219571D01*
X120531804Y-113195773D01*
X120528204Y-113171504D01*
X120527000Y-113147000D01*
X120527000Y-111897000D01*
X120528204Y-111872496D01*
X120531804Y-111848227D01*
X120537765Y-111824429D01*
X120546030Y-111801329D01*
X120556520Y-111779151D01*
X120569133Y-111758107D01*
X120583747Y-111738402D01*
X120600223Y-111720223D01*
X120618402Y-111703747D01*
X120638107Y-111689133D01*
X120659151Y-111676520D01*
X120681329Y-111666030D01*
X120704429Y-111657765D01*
X120728227Y-111651804D01*
X120752496Y-111648204D01*
X120777000Y-111647000D01*
X121527000Y-111647000D01*
X121551504Y-111648204D01*
X121551504Y-111648204D01*
G37*
D20*
X121152000Y-112522000D03*
D10*
G36*
X124351504Y-111648204D02*
G01*
X124375773Y-111651804D01*
X124399571Y-111657765D01*
X124422671Y-111666030D01*
X124444849Y-111676520D01*
X124465893Y-111689133D01*
X124485598Y-111703747D01*
X124503777Y-111720223D01*
X124520253Y-111738402D01*
X124534867Y-111758107D01*
X124547480Y-111779151D01*
X124557970Y-111801329D01*
X124566235Y-111824429D01*
X124572196Y-111848227D01*
X124575796Y-111872496D01*
X124577000Y-111897000D01*
X124577000Y-113147000D01*
X124575796Y-113171504D01*
X124572196Y-113195773D01*
X124566235Y-113219571D01*
X124557970Y-113242671D01*
X124547480Y-113264849D01*
X124534867Y-113285893D01*
X124520253Y-113305598D01*
X124503777Y-113323777D01*
X124485598Y-113340253D01*
X124465893Y-113354867D01*
X124444849Y-113367480D01*
X124422671Y-113377970D01*
X124399571Y-113386235D01*
X124375773Y-113392196D01*
X124351504Y-113395796D01*
X124327000Y-113397000D01*
X123577000Y-113397000D01*
X123552496Y-113395796D01*
X123528227Y-113392196D01*
X123504429Y-113386235D01*
X123481329Y-113377970D01*
X123459151Y-113367480D01*
X123438107Y-113354867D01*
X123418402Y-113340253D01*
X123400223Y-113323777D01*
X123383747Y-113305598D01*
X123369133Y-113285893D01*
X123356520Y-113264849D01*
X123346030Y-113242671D01*
X123337765Y-113219571D01*
X123331804Y-113195773D01*
X123328204Y-113171504D01*
X123327000Y-113147000D01*
X123327000Y-111897000D01*
X123328204Y-111872496D01*
X123331804Y-111848227D01*
X123337765Y-111824429D01*
X123346030Y-111801329D01*
X123356520Y-111779151D01*
X123369133Y-111758107D01*
X123383747Y-111738402D01*
X123400223Y-111720223D01*
X123418402Y-111703747D01*
X123438107Y-111689133D01*
X123459151Y-111676520D01*
X123481329Y-111666030D01*
X123504429Y-111657765D01*
X123528227Y-111651804D01*
X123552496Y-111648204D01*
X123577000Y-111647000D01*
X124327000Y-111647000D01*
X124351504Y-111648204D01*
X124351504Y-111648204D01*
G37*
D20*
X123952000Y-112522000D03*
D10*
G36*
X126972142Y-110511674D02*
G01*
X126995803Y-110515184D01*
X127019007Y-110520996D01*
X127041529Y-110529054D01*
X127063153Y-110539282D01*
X127083670Y-110551579D01*
X127102883Y-110565829D01*
X127120607Y-110581893D01*
X127136671Y-110599617D01*
X127150921Y-110618830D01*
X127163218Y-110639347D01*
X127173446Y-110660971D01*
X127181504Y-110683493D01*
X127187316Y-110706697D01*
X127190826Y-110730358D01*
X127192000Y-110754250D01*
X127192000Y-111241750D01*
X127190826Y-111265642D01*
X127187316Y-111289303D01*
X127181504Y-111312507D01*
X127173446Y-111335029D01*
X127163218Y-111356653D01*
X127150921Y-111377170D01*
X127136671Y-111396383D01*
X127120607Y-111414107D01*
X127102883Y-111430171D01*
X127083670Y-111444421D01*
X127063153Y-111456718D01*
X127041529Y-111466946D01*
X127019007Y-111475004D01*
X126995803Y-111480816D01*
X126972142Y-111484326D01*
X126948250Y-111485500D01*
X126035750Y-111485500D01*
X126011858Y-111484326D01*
X125988197Y-111480816D01*
X125964993Y-111475004D01*
X125942471Y-111466946D01*
X125920847Y-111456718D01*
X125900330Y-111444421D01*
X125881117Y-111430171D01*
X125863393Y-111414107D01*
X125847329Y-111396383D01*
X125833079Y-111377170D01*
X125820782Y-111356653D01*
X125810554Y-111335029D01*
X125802496Y-111312507D01*
X125796684Y-111289303D01*
X125793174Y-111265642D01*
X125792000Y-111241750D01*
X125792000Y-110754250D01*
X125793174Y-110730358D01*
X125796684Y-110706697D01*
X125802496Y-110683493D01*
X125810554Y-110660971D01*
X125820782Y-110639347D01*
X125833079Y-110618830D01*
X125847329Y-110599617D01*
X125863393Y-110581893D01*
X125881117Y-110565829D01*
X125900330Y-110551579D01*
X125920847Y-110539282D01*
X125942471Y-110529054D01*
X125964993Y-110520996D01*
X125988197Y-110515184D01*
X126011858Y-110511674D01*
X126035750Y-110510500D01*
X126948250Y-110510500D01*
X126972142Y-110511674D01*
X126972142Y-110511674D01*
G37*
D11*
X126492000Y-110998000D03*
D10*
G36*
X126972142Y-112386674D02*
G01*
X126995803Y-112390184D01*
X127019007Y-112395996D01*
X127041529Y-112404054D01*
X127063153Y-112414282D01*
X127083670Y-112426579D01*
X127102883Y-112440829D01*
X127120607Y-112456893D01*
X127136671Y-112474617D01*
X127150921Y-112493830D01*
X127163218Y-112514347D01*
X127173446Y-112535971D01*
X127181504Y-112558493D01*
X127187316Y-112581697D01*
X127190826Y-112605358D01*
X127192000Y-112629250D01*
X127192000Y-113116750D01*
X127190826Y-113140642D01*
X127187316Y-113164303D01*
X127181504Y-113187507D01*
X127173446Y-113210029D01*
X127163218Y-113231653D01*
X127150921Y-113252170D01*
X127136671Y-113271383D01*
X127120607Y-113289107D01*
X127102883Y-113305171D01*
X127083670Y-113319421D01*
X127063153Y-113331718D01*
X127041529Y-113341946D01*
X127019007Y-113350004D01*
X126995803Y-113355816D01*
X126972142Y-113359326D01*
X126948250Y-113360500D01*
X126035750Y-113360500D01*
X126011858Y-113359326D01*
X125988197Y-113355816D01*
X125964993Y-113350004D01*
X125942471Y-113341946D01*
X125920847Y-113331718D01*
X125900330Y-113319421D01*
X125881117Y-113305171D01*
X125863393Y-113289107D01*
X125847329Y-113271383D01*
X125833079Y-113252170D01*
X125820782Y-113231653D01*
X125810554Y-113210029D01*
X125802496Y-113187507D01*
X125796684Y-113164303D01*
X125793174Y-113140642D01*
X125792000Y-113116750D01*
X125792000Y-112629250D01*
X125793174Y-112605358D01*
X125796684Y-112581697D01*
X125802496Y-112558493D01*
X125810554Y-112535971D01*
X125820782Y-112514347D01*
X125833079Y-112493830D01*
X125847329Y-112474617D01*
X125863393Y-112456893D01*
X125881117Y-112440829D01*
X125900330Y-112426579D01*
X125920847Y-112414282D01*
X125942471Y-112404054D01*
X125964993Y-112395996D01*
X125988197Y-112390184D01*
X126011858Y-112386674D01*
X126035750Y-112385500D01*
X126948250Y-112385500D01*
X126972142Y-112386674D01*
X126972142Y-112386674D01*
G37*
D11*
X126492000Y-112873000D03*
M02*
