G04 #@! TF.GenerationSoftware,KiCad,Pcbnew,5.1.4-e60b266~84~ubuntu18.04.1*
G04 #@! TF.CreationDate,2019-09-18T22:39:51+03:00*
G04 #@! TF.ProjectId,spotweld,73706f74-7765-46c6-942e-6b696361645f,rev?*
G04 #@! TF.SameCoordinates,Original*
G04 #@! TF.FileFunction,Paste,Bot*
G04 #@! TF.FilePolarity,Positive*
%FSLAX46Y46*%
G04 Gerber Fmt 4.6, Leading zero omitted, Abs format (unit mm)*
G04 Created by KiCad (PCBNEW 5.1.4-e60b266~84~ubuntu18.04.1) date 2019-09-18 22:39:51*
%MOMM*%
%LPD*%
G04 APERTURE LIST*
%ADD10C,0.100000*%
%ADD11C,0.975000*%
%ADD12R,1.300000X1.700000*%
G04 APERTURE END LIST*
D10*
G36*
X182344142Y-85776674D02*
G01*
X182367803Y-85780184D01*
X182391007Y-85785996D01*
X182413529Y-85794054D01*
X182435153Y-85804282D01*
X182455670Y-85816579D01*
X182474883Y-85830829D01*
X182492607Y-85846893D01*
X182508671Y-85864617D01*
X182522921Y-85883830D01*
X182535218Y-85904347D01*
X182545446Y-85925971D01*
X182553504Y-85948493D01*
X182559316Y-85971697D01*
X182562826Y-85995358D01*
X182564000Y-86019250D01*
X182564000Y-86506750D01*
X182562826Y-86530642D01*
X182559316Y-86554303D01*
X182553504Y-86577507D01*
X182545446Y-86600029D01*
X182535218Y-86621653D01*
X182522921Y-86642170D01*
X182508671Y-86661383D01*
X182492607Y-86679107D01*
X182474883Y-86695171D01*
X182455670Y-86709421D01*
X182435153Y-86721718D01*
X182413529Y-86731946D01*
X182391007Y-86740004D01*
X182367803Y-86745816D01*
X182344142Y-86749326D01*
X182320250Y-86750500D01*
X181407750Y-86750500D01*
X181383858Y-86749326D01*
X181360197Y-86745816D01*
X181336993Y-86740004D01*
X181314471Y-86731946D01*
X181292847Y-86721718D01*
X181272330Y-86709421D01*
X181253117Y-86695171D01*
X181235393Y-86679107D01*
X181219329Y-86661383D01*
X181205079Y-86642170D01*
X181192782Y-86621653D01*
X181182554Y-86600029D01*
X181174496Y-86577507D01*
X181168684Y-86554303D01*
X181165174Y-86530642D01*
X181164000Y-86506750D01*
X181164000Y-86019250D01*
X181165174Y-85995358D01*
X181168684Y-85971697D01*
X181174496Y-85948493D01*
X181182554Y-85925971D01*
X181192782Y-85904347D01*
X181205079Y-85883830D01*
X181219329Y-85864617D01*
X181235393Y-85846893D01*
X181253117Y-85830829D01*
X181272330Y-85816579D01*
X181292847Y-85804282D01*
X181314471Y-85794054D01*
X181336993Y-85785996D01*
X181360197Y-85780184D01*
X181383858Y-85776674D01*
X181407750Y-85775500D01*
X182320250Y-85775500D01*
X182344142Y-85776674D01*
X182344142Y-85776674D01*
G37*
D11*
X181864000Y-86263000D03*
D10*
G36*
X182344142Y-87651674D02*
G01*
X182367803Y-87655184D01*
X182391007Y-87660996D01*
X182413529Y-87669054D01*
X182435153Y-87679282D01*
X182455670Y-87691579D01*
X182474883Y-87705829D01*
X182492607Y-87721893D01*
X182508671Y-87739617D01*
X182522921Y-87758830D01*
X182535218Y-87779347D01*
X182545446Y-87800971D01*
X182553504Y-87823493D01*
X182559316Y-87846697D01*
X182562826Y-87870358D01*
X182564000Y-87894250D01*
X182564000Y-88381750D01*
X182562826Y-88405642D01*
X182559316Y-88429303D01*
X182553504Y-88452507D01*
X182545446Y-88475029D01*
X182535218Y-88496653D01*
X182522921Y-88517170D01*
X182508671Y-88536383D01*
X182492607Y-88554107D01*
X182474883Y-88570171D01*
X182455670Y-88584421D01*
X182435153Y-88596718D01*
X182413529Y-88606946D01*
X182391007Y-88615004D01*
X182367803Y-88620816D01*
X182344142Y-88624326D01*
X182320250Y-88625500D01*
X181407750Y-88625500D01*
X181383858Y-88624326D01*
X181360197Y-88620816D01*
X181336993Y-88615004D01*
X181314471Y-88606946D01*
X181292847Y-88596718D01*
X181272330Y-88584421D01*
X181253117Y-88570171D01*
X181235393Y-88554107D01*
X181219329Y-88536383D01*
X181205079Y-88517170D01*
X181192782Y-88496653D01*
X181182554Y-88475029D01*
X181174496Y-88452507D01*
X181168684Y-88429303D01*
X181165174Y-88405642D01*
X181164000Y-88381750D01*
X181164000Y-87894250D01*
X181165174Y-87870358D01*
X181168684Y-87846697D01*
X181174496Y-87823493D01*
X181182554Y-87800971D01*
X181192782Y-87779347D01*
X181205079Y-87758830D01*
X181219329Y-87739617D01*
X181235393Y-87721893D01*
X181253117Y-87705829D01*
X181272330Y-87691579D01*
X181292847Y-87679282D01*
X181314471Y-87669054D01*
X181336993Y-87660996D01*
X181360197Y-87655184D01*
X181383858Y-87651674D01*
X181407750Y-87650500D01*
X182320250Y-87650500D01*
X182344142Y-87651674D01*
X182344142Y-87651674D01*
G37*
D11*
X181864000Y-88138000D03*
D10*
G36*
X171676142Y-85649674D02*
G01*
X171699803Y-85653184D01*
X171723007Y-85658996D01*
X171745529Y-85667054D01*
X171767153Y-85677282D01*
X171787670Y-85689579D01*
X171806883Y-85703829D01*
X171824607Y-85719893D01*
X171840671Y-85737617D01*
X171854921Y-85756830D01*
X171867218Y-85777347D01*
X171877446Y-85798971D01*
X171885504Y-85821493D01*
X171891316Y-85844697D01*
X171894826Y-85868358D01*
X171896000Y-85892250D01*
X171896000Y-86379750D01*
X171894826Y-86403642D01*
X171891316Y-86427303D01*
X171885504Y-86450507D01*
X171877446Y-86473029D01*
X171867218Y-86494653D01*
X171854921Y-86515170D01*
X171840671Y-86534383D01*
X171824607Y-86552107D01*
X171806883Y-86568171D01*
X171787670Y-86582421D01*
X171767153Y-86594718D01*
X171745529Y-86604946D01*
X171723007Y-86613004D01*
X171699803Y-86618816D01*
X171676142Y-86622326D01*
X171652250Y-86623500D01*
X170739750Y-86623500D01*
X170715858Y-86622326D01*
X170692197Y-86618816D01*
X170668993Y-86613004D01*
X170646471Y-86604946D01*
X170624847Y-86594718D01*
X170604330Y-86582421D01*
X170585117Y-86568171D01*
X170567393Y-86552107D01*
X170551329Y-86534383D01*
X170537079Y-86515170D01*
X170524782Y-86494653D01*
X170514554Y-86473029D01*
X170506496Y-86450507D01*
X170500684Y-86427303D01*
X170497174Y-86403642D01*
X170496000Y-86379750D01*
X170496000Y-85892250D01*
X170497174Y-85868358D01*
X170500684Y-85844697D01*
X170506496Y-85821493D01*
X170514554Y-85798971D01*
X170524782Y-85777347D01*
X170537079Y-85756830D01*
X170551329Y-85737617D01*
X170567393Y-85719893D01*
X170585117Y-85703829D01*
X170604330Y-85689579D01*
X170624847Y-85677282D01*
X170646471Y-85667054D01*
X170668993Y-85658996D01*
X170692197Y-85653184D01*
X170715858Y-85649674D01*
X170739750Y-85648500D01*
X171652250Y-85648500D01*
X171676142Y-85649674D01*
X171676142Y-85649674D01*
G37*
D11*
X171196000Y-86136000D03*
D10*
G36*
X171676142Y-87524674D02*
G01*
X171699803Y-87528184D01*
X171723007Y-87533996D01*
X171745529Y-87542054D01*
X171767153Y-87552282D01*
X171787670Y-87564579D01*
X171806883Y-87578829D01*
X171824607Y-87594893D01*
X171840671Y-87612617D01*
X171854921Y-87631830D01*
X171867218Y-87652347D01*
X171877446Y-87673971D01*
X171885504Y-87696493D01*
X171891316Y-87719697D01*
X171894826Y-87743358D01*
X171896000Y-87767250D01*
X171896000Y-88254750D01*
X171894826Y-88278642D01*
X171891316Y-88302303D01*
X171885504Y-88325507D01*
X171877446Y-88348029D01*
X171867218Y-88369653D01*
X171854921Y-88390170D01*
X171840671Y-88409383D01*
X171824607Y-88427107D01*
X171806883Y-88443171D01*
X171787670Y-88457421D01*
X171767153Y-88469718D01*
X171745529Y-88479946D01*
X171723007Y-88488004D01*
X171699803Y-88493816D01*
X171676142Y-88497326D01*
X171652250Y-88498500D01*
X170739750Y-88498500D01*
X170715858Y-88497326D01*
X170692197Y-88493816D01*
X170668993Y-88488004D01*
X170646471Y-88479946D01*
X170624847Y-88469718D01*
X170604330Y-88457421D01*
X170585117Y-88443171D01*
X170567393Y-88427107D01*
X170551329Y-88409383D01*
X170537079Y-88390170D01*
X170524782Y-88369653D01*
X170514554Y-88348029D01*
X170506496Y-88325507D01*
X170500684Y-88302303D01*
X170497174Y-88278642D01*
X170496000Y-88254750D01*
X170496000Y-87767250D01*
X170497174Y-87743358D01*
X170500684Y-87719697D01*
X170506496Y-87696493D01*
X170514554Y-87673971D01*
X170524782Y-87652347D01*
X170537079Y-87631830D01*
X170551329Y-87612617D01*
X170567393Y-87594893D01*
X170585117Y-87578829D01*
X170604330Y-87564579D01*
X170624847Y-87552282D01*
X170646471Y-87542054D01*
X170668993Y-87533996D01*
X170692197Y-87528184D01*
X170715858Y-87524674D01*
X170739750Y-87523500D01*
X171652250Y-87523500D01*
X171676142Y-87524674D01*
X171676142Y-87524674D01*
G37*
D11*
X171196000Y-88011000D03*
D10*
G36*
X161008142Y-85698174D02*
G01*
X161031803Y-85701684D01*
X161055007Y-85707496D01*
X161077529Y-85715554D01*
X161099153Y-85725782D01*
X161119670Y-85738079D01*
X161138883Y-85752329D01*
X161156607Y-85768393D01*
X161172671Y-85786117D01*
X161186921Y-85805330D01*
X161199218Y-85825847D01*
X161209446Y-85847471D01*
X161217504Y-85869993D01*
X161223316Y-85893197D01*
X161226826Y-85916858D01*
X161228000Y-85940750D01*
X161228000Y-86428250D01*
X161226826Y-86452142D01*
X161223316Y-86475803D01*
X161217504Y-86499007D01*
X161209446Y-86521529D01*
X161199218Y-86543153D01*
X161186921Y-86563670D01*
X161172671Y-86582883D01*
X161156607Y-86600607D01*
X161138883Y-86616671D01*
X161119670Y-86630921D01*
X161099153Y-86643218D01*
X161077529Y-86653446D01*
X161055007Y-86661504D01*
X161031803Y-86667316D01*
X161008142Y-86670826D01*
X160984250Y-86672000D01*
X160071750Y-86672000D01*
X160047858Y-86670826D01*
X160024197Y-86667316D01*
X160000993Y-86661504D01*
X159978471Y-86653446D01*
X159956847Y-86643218D01*
X159936330Y-86630921D01*
X159917117Y-86616671D01*
X159899393Y-86600607D01*
X159883329Y-86582883D01*
X159869079Y-86563670D01*
X159856782Y-86543153D01*
X159846554Y-86521529D01*
X159838496Y-86499007D01*
X159832684Y-86475803D01*
X159829174Y-86452142D01*
X159828000Y-86428250D01*
X159828000Y-85940750D01*
X159829174Y-85916858D01*
X159832684Y-85893197D01*
X159838496Y-85869993D01*
X159846554Y-85847471D01*
X159856782Y-85825847D01*
X159869079Y-85805330D01*
X159883329Y-85786117D01*
X159899393Y-85768393D01*
X159917117Y-85752329D01*
X159936330Y-85738079D01*
X159956847Y-85725782D01*
X159978471Y-85715554D01*
X160000993Y-85707496D01*
X160024197Y-85701684D01*
X160047858Y-85698174D01*
X160071750Y-85697000D01*
X160984250Y-85697000D01*
X161008142Y-85698174D01*
X161008142Y-85698174D01*
G37*
D11*
X160528000Y-86184500D03*
D10*
G36*
X161008142Y-87573174D02*
G01*
X161031803Y-87576684D01*
X161055007Y-87582496D01*
X161077529Y-87590554D01*
X161099153Y-87600782D01*
X161119670Y-87613079D01*
X161138883Y-87627329D01*
X161156607Y-87643393D01*
X161172671Y-87661117D01*
X161186921Y-87680330D01*
X161199218Y-87700847D01*
X161209446Y-87722471D01*
X161217504Y-87744993D01*
X161223316Y-87768197D01*
X161226826Y-87791858D01*
X161228000Y-87815750D01*
X161228000Y-88303250D01*
X161226826Y-88327142D01*
X161223316Y-88350803D01*
X161217504Y-88374007D01*
X161209446Y-88396529D01*
X161199218Y-88418153D01*
X161186921Y-88438670D01*
X161172671Y-88457883D01*
X161156607Y-88475607D01*
X161138883Y-88491671D01*
X161119670Y-88505921D01*
X161099153Y-88518218D01*
X161077529Y-88528446D01*
X161055007Y-88536504D01*
X161031803Y-88542316D01*
X161008142Y-88545826D01*
X160984250Y-88547000D01*
X160071750Y-88547000D01*
X160047858Y-88545826D01*
X160024197Y-88542316D01*
X160000993Y-88536504D01*
X159978471Y-88528446D01*
X159956847Y-88518218D01*
X159936330Y-88505921D01*
X159917117Y-88491671D01*
X159899393Y-88475607D01*
X159883329Y-88457883D01*
X159869079Y-88438670D01*
X159856782Y-88418153D01*
X159846554Y-88396529D01*
X159838496Y-88374007D01*
X159832684Y-88350803D01*
X159829174Y-88327142D01*
X159828000Y-88303250D01*
X159828000Y-87815750D01*
X159829174Y-87791858D01*
X159832684Y-87768197D01*
X159838496Y-87744993D01*
X159846554Y-87722471D01*
X159856782Y-87700847D01*
X159869079Y-87680330D01*
X159883329Y-87661117D01*
X159899393Y-87643393D01*
X159917117Y-87627329D01*
X159936330Y-87613079D01*
X159956847Y-87600782D01*
X159978471Y-87590554D01*
X160000993Y-87582496D01*
X160024197Y-87576684D01*
X160047858Y-87573174D01*
X160071750Y-87572000D01*
X160984250Y-87572000D01*
X161008142Y-87573174D01*
X161008142Y-87573174D01*
G37*
D11*
X160528000Y-88059500D03*
D10*
G36*
X150340142Y-85619674D02*
G01*
X150363803Y-85623184D01*
X150387007Y-85628996D01*
X150409529Y-85637054D01*
X150431153Y-85647282D01*
X150451670Y-85659579D01*
X150470883Y-85673829D01*
X150488607Y-85689893D01*
X150504671Y-85707617D01*
X150518921Y-85726830D01*
X150531218Y-85747347D01*
X150541446Y-85768971D01*
X150549504Y-85791493D01*
X150555316Y-85814697D01*
X150558826Y-85838358D01*
X150560000Y-85862250D01*
X150560000Y-86349750D01*
X150558826Y-86373642D01*
X150555316Y-86397303D01*
X150549504Y-86420507D01*
X150541446Y-86443029D01*
X150531218Y-86464653D01*
X150518921Y-86485170D01*
X150504671Y-86504383D01*
X150488607Y-86522107D01*
X150470883Y-86538171D01*
X150451670Y-86552421D01*
X150431153Y-86564718D01*
X150409529Y-86574946D01*
X150387007Y-86583004D01*
X150363803Y-86588816D01*
X150340142Y-86592326D01*
X150316250Y-86593500D01*
X149403750Y-86593500D01*
X149379858Y-86592326D01*
X149356197Y-86588816D01*
X149332993Y-86583004D01*
X149310471Y-86574946D01*
X149288847Y-86564718D01*
X149268330Y-86552421D01*
X149249117Y-86538171D01*
X149231393Y-86522107D01*
X149215329Y-86504383D01*
X149201079Y-86485170D01*
X149188782Y-86464653D01*
X149178554Y-86443029D01*
X149170496Y-86420507D01*
X149164684Y-86397303D01*
X149161174Y-86373642D01*
X149160000Y-86349750D01*
X149160000Y-85862250D01*
X149161174Y-85838358D01*
X149164684Y-85814697D01*
X149170496Y-85791493D01*
X149178554Y-85768971D01*
X149188782Y-85747347D01*
X149201079Y-85726830D01*
X149215329Y-85707617D01*
X149231393Y-85689893D01*
X149249117Y-85673829D01*
X149268330Y-85659579D01*
X149288847Y-85647282D01*
X149310471Y-85637054D01*
X149332993Y-85628996D01*
X149356197Y-85623184D01*
X149379858Y-85619674D01*
X149403750Y-85618500D01*
X150316250Y-85618500D01*
X150340142Y-85619674D01*
X150340142Y-85619674D01*
G37*
D11*
X149860000Y-86106000D03*
D10*
G36*
X150340142Y-87494674D02*
G01*
X150363803Y-87498184D01*
X150387007Y-87503996D01*
X150409529Y-87512054D01*
X150431153Y-87522282D01*
X150451670Y-87534579D01*
X150470883Y-87548829D01*
X150488607Y-87564893D01*
X150504671Y-87582617D01*
X150518921Y-87601830D01*
X150531218Y-87622347D01*
X150541446Y-87643971D01*
X150549504Y-87666493D01*
X150555316Y-87689697D01*
X150558826Y-87713358D01*
X150560000Y-87737250D01*
X150560000Y-88224750D01*
X150558826Y-88248642D01*
X150555316Y-88272303D01*
X150549504Y-88295507D01*
X150541446Y-88318029D01*
X150531218Y-88339653D01*
X150518921Y-88360170D01*
X150504671Y-88379383D01*
X150488607Y-88397107D01*
X150470883Y-88413171D01*
X150451670Y-88427421D01*
X150431153Y-88439718D01*
X150409529Y-88449946D01*
X150387007Y-88458004D01*
X150363803Y-88463816D01*
X150340142Y-88467326D01*
X150316250Y-88468500D01*
X149403750Y-88468500D01*
X149379858Y-88467326D01*
X149356197Y-88463816D01*
X149332993Y-88458004D01*
X149310471Y-88449946D01*
X149288847Y-88439718D01*
X149268330Y-88427421D01*
X149249117Y-88413171D01*
X149231393Y-88397107D01*
X149215329Y-88379383D01*
X149201079Y-88360170D01*
X149188782Y-88339653D01*
X149178554Y-88318029D01*
X149170496Y-88295507D01*
X149164684Y-88272303D01*
X149161174Y-88248642D01*
X149160000Y-88224750D01*
X149160000Y-87737250D01*
X149161174Y-87713358D01*
X149164684Y-87689697D01*
X149170496Y-87666493D01*
X149178554Y-87643971D01*
X149188782Y-87622347D01*
X149201079Y-87601830D01*
X149215329Y-87582617D01*
X149231393Y-87564893D01*
X149249117Y-87548829D01*
X149268330Y-87534579D01*
X149288847Y-87522282D01*
X149310471Y-87512054D01*
X149332993Y-87503996D01*
X149356197Y-87498184D01*
X149379858Y-87494674D01*
X149403750Y-87493500D01*
X150316250Y-87493500D01*
X150340142Y-87494674D01*
X150340142Y-87494674D01*
G37*
D11*
X149860000Y-87981000D03*
D10*
G36*
X139672142Y-85619674D02*
G01*
X139695803Y-85623184D01*
X139719007Y-85628996D01*
X139741529Y-85637054D01*
X139763153Y-85647282D01*
X139783670Y-85659579D01*
X139802883Y-85673829D01*
X139820607Y-85689893D01*
X139836671Y-85707617D01*
X139850921Y-85726830D01*
X139863218Y-85747347D01*
X139873446Y-85768971D01*
X139881504Y-85791493D01*
X139887316Y-85814697D01*
X139890826Y-85838358D01*
X139892000Y-85862250D01*
X139892000Y-86349750D01*
X139890826Y-86373642D01*
X139887316Y-86397303D01*
X139881504Y-86420507D01*
X139873446Y-86443029D01*
X139863218Y-86464653D01*
X139850921Y-86485170D01*
X139836671Y-86504383D01*
X139820607Y-86522107D01*
X139802883Y-86538171D01*
X139783670Y-86552421D01*
X139763153Y-86564718D01*
X139741529Y-86574946D01*
X139719007Y-86583004D01*
X139695803Y-86588816D01*
X139672142Y-86592326D01*
X139648250Y-86593500D01*
X138735750Y-86593500D01*
X138711858Y-86592326D01*
X138688197Y-86588816D01*
X138664993Y-86583004D01*
X138642471Y-86574946D01*
X138620847Y-86564718D01*
X138600330Y-86552421D01*
X138581117Y-86538171D01*
X138563393Y-86522107D01*
X138547329Y-86504383D01*
X138533079Y-86485170D01*
X138520782Y-86464653D01*
X138510554Y-86443029D01*
X138502496Y-86420507D01*
X138496684Y-86397303D01*
X138493174Y-86373642D01*
X138492000Y-86349750D01*
X138492000Y-85862250D01*
X138493174Y-85838358D01*
X138496684Y-85814697D01*
X138502496Y-85791493D01*
X138510554Y-85768971D01*
X138520782Y-85747347D01*
X138533079Y-85726830D01*
X138547329Y-85707617D01*
X138563393Y-85689893D01*
X138581117Y-85673829D01*
X138600330Y-85659579D01*
X138620847Y-85647282D01*
X138642471Y-85637054D01*
X138664993Y-85628996D01*
X138688197Y-85623184D01*
X138711858Y-85619674D01*
X138735750Y-85618500D01*
X139648250Y-85618500D01*
X139672142Y-85619674D01*
X139672142Y-85619674D01*
G37*
D11*
X139192000Y-86106000D03*
D10*
G36*
X139672142Y-87494674D02*
G01*
X139695803Y-87498184D01*
X139719007Y-87503996D01*
X139741529Y-87512054D01*
X139763153Y-87522282D01*
X139783670Y-87534579D01*
X139802883Y-87548829D01*
X139820607Y-87564893D01*
X139836671Y-87582617D01*
X139850921Y-87601830D01*
X139863218Y-87622347D01*
X139873446Y-87643971D01*
X139881504Y-87666493D01*
X139887316Y-87689697D01*
X139890826Y-87713358D01*
X139892000Y-87737250D01*
X139892000Y-88224750D01*
X139890826Y-88248642D01*
X139887316Y-88272303D01*
X139881504Y-88295507D01*
X139873446Y-88318029D01*
X139863218Y-88339653D01*
X139850921Y-88360170D01*
X139836671Y-88379383D01*
X139820607Y-88397107D01*
X139802883Y-88413171D01*
X139783670Y-88427421D01*
X139763153Y-88439718D01*
X139741529Y-88449946D01*
X139719007Y-88458004D01*
X139695803Y-88463816D01*
X139672142Y-88467326D01*
X139648250Y-88468500D01*
X138735750Y-88468500D01*
X138711858Y-88467326D01*
X138688197Y-88463816D01*
X138664993Y-88458004D01*
X138642471Y-88449946D01*
X138620847Y-88439718D01*
X138600330Y-88427421D01*
X138581117Y-88413171D01*
X138563393Y-88397107D01*
X138547329Y-88379383D01*
X138533079Y-88360170D01*
X138520782Y-88339653D01*
X138510554Y-88318029D01*
X138502496Y-88295507D01*
X138496684Y-88272303D01*
X138493174Y-88248642D01*
X138492000Y-88224750D01*
X138492000Y-87737250D01*
X138493174Y-87713358D01*
X138496684Y-87689697D01*
X138502496Y-87666493D01*
X138510554Y-87643971D01*
X138520782Y-87622347D01*
X138533079Y-87601830D01*
X138547329Y-87582617D01*
X138563393Y-87564893D01*
X138581117Y-87548829D01*
X138600330Y-87534579D01*
X138620847Y-87522282D01*
X138642471Y-87512054D01*
X138664993Y-87503996D01*
X138688197Y-87498184D01*
X138711858Y-87494674D01*
X138735750Y-87493500D01*
X139648250Y-87493500D01*
X139672142Y-87494674D01*
X139672142Y-87494674D01*
G37*
D11*
X139192000Y-87981000D03*
D10*
G36*
X129004142Y-85619674D02*
G01*
X129027803Y-85623184D01*
X129051007Y-85628996D01*
X129073529Y-85637054D01*
X129095153Y-85647282D01*
X129115670Y-85659579D01*
X129134883Y-85673829D01*
X129152607Y-85689893D01*
X129168671Y-85707617D01*
X129182921Y-85726830D01*
X129195218Y-85747347D01*
X129205446Y-85768971D01*
X129213504Y-85791493D01*
X129219316Y-85814697D01*
X129222826Y-85838358D01*
X129224000Y-85862250D01*
X129224000Y-86349750D01*
X129222826Y-86373642D01*
X129219316Y-86397303D01*
X129213504Y-86420507D01*
X129205446Y-86443029D01*
X129195218Y-86464653D01*
X129182921Y-86485170D01*
X129168671Y-86504383D01*
X129152607Y-86522107D01*
X129134883Y-86538171D01*
X129115670Y-86552421D01*
X129095153Y-86564718D01*
X129073529Y-86574946D01*
X129051007Y-86583004D01*
X129027803Y-86588816D01*
X129004142Y-86592326D01*
X128980250Y-86593500D01*
X128067750Y-86593500D01*
X128043858Y-86592326D01*
X128020197Y-86588816D01*
X127996993Y-86583004D01*
X127974471Y-86574946D01*
X127952847Y-86564718D01*
X127932330Y-86552421D01*
X127913117Y-86538171D01*
X127895393Y-86522107D01*
X127879329Y-86504383D01*
X127865079Y-86485170D01*
X127852782Y-86464653D01*
X127842554Y-86443029D01*
X127834496Y-86420507D01*
X127828684Y-86397303D01*
X127825174Y-86373642D01*
X127824000Y-86349750D01*
X127824000Y-85862250D01*
X127825174Y-85838358D01*
X127828684Y-85814697D01*
X127834496Y-85791493D01*
X127842554Y-85768971D01*
X127852782Y-85747347D01*
X127865079Y-85726830D01*
X127879329Y-85707617D01*
X127895393Y-85689893D01*
X127913117Y-85673829D01*
X127932330Y-85659579D01*
X127952847Y-85647282D01*
X127974471Y-85637054D01*
X127996993Y-85628996D01*
X128020197Y-85623184D01*
X128043858Y-85619674D01*
X128067750Y-85618500D01*
X128980250Y-85618500D01*
X129004142Y-85619674D01*
X129004142Y-85619674D01*
G37*
D11*
X128524000Y-86106000D03*
D10*
G36*
X129004142Y-87494674D02*
G01*
X129027803Y-87498184D01*
X129051007Y-87503996D01*
X129073529Y-87512054D01*
X129095153Y-87522282D01*
X129115670Y-87534579D01*
X129134883Y-87548829D01*
X129152607Y-87564893D01*
X129168671Y-87582617D01*
X129182921Y-87601830D01*
X129195218Y-87622347D01*
X129205446Y-87643971D01*
X129213504Y-87666493D01*
X129219316Y-87689697D01*
X129222826Y-87713358D01*
X129224000Y-87737250D01*
X129224000Y-88224750D01*
X129222826Y-88248642D01*
X129219316Y-88272303D01*
X129213504Y-88295507D01*
X129205446Y-88318029D01*
X129195218Y-88339653D01*
X129182921Y-88360170D01*
X129168671Y-88379383D01*
X129152607Y-88397107D01*
X129134883Y-88413171D01*
X129115670Y-88427421D01*
X129095153Y-88439718D01*
X129073529Y-88449946D01*
X129051007Y-88458004D01*
X129027803Y-88463816D01*
X129004142Y-88467326D01*
X128980250Y-88468500D01*
X128067750Y-88468500D01*
X128043858Y-88467326D01*
X128020197Y-88463816D01*
X127996993Y-88458004D01*
X127974471Y-88449946D01*
X127952847Y-88439718D01*
X127932330Y-88427421D01*
X127913117Y-88413171D01*
X127895393Y-88397107D01*
X127879329Y-88379383D01*
X127865079Y-88360170D01*
X127852782Y-88339653D01*
X127842554Y-88318029D01*
X127834496Y-88295507D01*
X127828684Y-88272303D01*
X127825174Y-88248642D01*
X127824000Y-88224750D01*
X127824000Y-87737250D01*
X127825174Y-87713358D01*
X127828684Y-87689697D01*
X127834496Y-87666493D01*
X127842554Y-87643971D01*
X127852782Y-87622347D01*
X127865079Y-87601830D01*
X127879329Y-87582617D01*
X127895393Y-87564893D01*
X127913117Y-87548829D01*
X127932330Y-87534579D01*
X127952847Y-87522282D01*
X127974471Y-87512054D01*
X127996993Y-87503996D01*
X128020197Y-87498184D01*
X128043858Y-87494674D01*
X128067750Y-87493500D01*
X128980250Y-87493500D01*
X129004142Y-87494674D01*
X129004142Y-87494674D01*
G37*
D11*
X128524000Y-87981000D03*
D10*
G36*
X118336142Y-85619674D02*
G01*
X118359803Y-85623184D01*
X118383007Y-85628996D01*
X118405529Y-85637054D01*
X118427153Y-85647282D01*
X118447670Y-85659579D01*
X118466883Y-85673829D01*
X118484607Y-85689893D01*
X118500671Y-85707617D01*
X118514921Y-85726830D01*
X118527218Y-85747347D01*
X118537446Y-85768971D01*
X118545504Y-85791493D01*
X118551316Y-85814697D01*
X118554826Y-85838358D01*
X118556000Y-85862250D01*
X118556000Y-86349750D01*
X118554826Y-86373642D01*
X118551316Y-86397303D01*
X118545504Y-86420507D01*
X118537446Y-86443029D01*
X118527218Y-86464653D01*
X118514921Y-86485170D01*
X118500671Y-86504383D01*
X118484607Y-86522107D01*
X118466883Y-86538171D01*
X118447670Y-86552421D01*
X118427153Y-86564718D01*
X118405529Y-86574946D01*
X118383007Y-86583004D01*
X118359803Y-86588816D01*
X118336142Y-86592326D01*
X118312250Y-86593500D01*
X117399750Y-86593500D01*
X117375858Y-86592326D01*
X117352197Y-86588816D01*
X117328993Y-86583004D01*
X117306471Y-86574946D01*
X117284847Y-86564718D01*
X117264330Y-86552421D01*
X117245117Y-86538171D01*
X117227393Y-86522107D01*
X117211329Y-86504383D01*
X117197079Y-86485170D01*
X117184782Y-86464653D01*
X117174554Y-86443029D01*
X117166496Y-86420507D01*
X117160684Y-86397303D01*
X117157174Y-86373642D01*
X117156000Y-86349750D01*
X117156000Y-85862250D01*
X117157174Y-85838358D01*
X117160684Y-85814697D01*
X117166496Y-85791493D01*
X117174554Y-85768971D01*
X117184782Y-85747347D01*
X117197079Y-85726830D01*
X117211329Y-85707617D01*
X117227393Y-85689893D01*
X117245117Y-85673829D01*
X117264330Y-85659579D01*
X117284847Y-85647282D01*
X117306471Y-85637054D01*
X117328993Y-85628996D01*
X117352197Y-85623184D01*
X117375858Y-85619674D01*
X117399750Y-85618500D01*
X118312250Y-85618500D01*
X118336142Y-85619674D01*
X118336142Y-85619674D01*
G37*
D11*
X117856000Y-86106000D03*
D10*
G36*
X118336142Y-87494674D02*
G01*
X118359803Y-87498184D01*
X118383007Y-87503996D01*
X118405529Y-87512054D01*
X118427153Y-87522282D01*
X118447670Y-87534579D01*
X118466883Y-87548829D01*
X118484607Y-87564893D01*
X118500671Y-87582617D01*
X118514921Y-87601830D01*
X118527218Y-87622347D01*
X118537446Y-87643971D01*
X118545504Y-87666493D01*
X118551316Y-87689697D01*
X118554826Y-87713358D01*
X118556000Y-87737250D01*
X118556000Y-88224750D01*
X118554826Y-88248642D01*
X118551316Y-88272303D01*
X118545504Y-88295507D01*
X118537446Y-88318029D01*
X118527218Y-88339653D01*
X118514921Y-88360170D01*
X118500671Y-88379383D01*
X118484607Y-88397107D01*
X118466883Y-88413171D01*
X118447670Y-88427421D01*
X118427153Y-88439718D01*
X118405529Y-88449946D01*
X118383007Y-88458004D01*
X118359803Y-88463816D01*
X118336142Y-88467326D01*
X118312250Y-88468500D01*
X117399750Y-88468500D01*
X117375858Y-88467326D01*
X117352197Y-88463816D01*
X117328993Y-88458004D01*
X117306471Y-88449946D01*
X117284847Y-88439718D01*
X117264330Y-88427421D01*
X117245117Y-88413171D01*
X117227393Y-88397107D01*
X117211329Y-88379383D01*
X117197079Y-88360170D01*
X117184782Y-88339653D01*
X117174554Y-88318029D01*
X117166496Y-88295507D01*
X117160684Y-88272303D01*
X117157174Y-88248642D01*
X117156000Y-88224750D01*
X117156000Y-87737250D01*
X117157174Y-87713358D01*
X117160684Y-87689697D01*
X117166496Y-87666493D01*
X117174554Y-87643971D01*
X117184782Y-87622347D01*
X117197079Y-87601830D01*
X117211329Y-87582617D01*
X117227393Y-87564893D01*
X117245117Y-87548829D01*
X117264330Y-87534579D01*
X117284847Y-87522282D01*
X117306471Y-87512054D01*
X117328993Y-87503996D01*
X117352197Y-87498184D01*
X117375858Y-87494674D01*
X117399750Y-87493500D01*
X118312250Y-87493500D01*
X118336142Y-87494674D01*
X118336142Y-87494674D01*
G37*
D11*
X117856000Y-87981000D03*
D10*
G36*
X107668142Y-85619674D02*
G01*
X107691803Y-85623184D01*
X107715007Y-85628996D01*
X107737529Y-85637054D01*
X107759153Y-85647282D01*
X107779670Y-85659579D01*
X107798883Y-85673829D01*
X107816607Y-85689893D01*
X107832671Y-85707617D01*
X107846921Y-85726830D01*
X107859218Y-85747347D01*
X107869446Y-85768971D01*
X107877504Y-85791493D01*
X107883316Y-85814697D01*
X107886826Y-85838358D01*
X107888000Y-85862250D01*
X107888000Y-86349750D01*
X107886826Y-86373642D01*
X107883316Y-86397303D01*
X107877504Y-86420507D01*
X107869446Y-86443029D01*
X107859218Y-86464653D01*
X107846921Y-86485170D01*
X107832671Y-86504383D01*
X107816607Y-86522107D01*
X107798883Y-86538171D01*
X107779670Y-86552421D01*
X107759153Y-86564718D01*
X107737529Y-86574946D01*
X107715007Y-86583004D01*
X107691803Y-86588816D01*
X107668142Y-86592326D01*
X107644250Y-86593500D01*
X106731750Y-86593500D01*
X106707858Y-86592326D01*
X106684197Y-86588816D01*
X106660993Y-86583004D01*
X106638471Y-86574946D01*
X106616847Y-86564718D01*
X106596330Y-86552421D01*
X106577117Y-86538171D01*
X106559393Y-86522107D01*
X106543329Y-86504383D01*
X106529079Y-86485170D01*
X106516782Y-86464653D01*
X106506554Y-86443029D01*
X106498496Y-86420507D01*
X106492684Y-86397303D01*
X106489174Y-86373642D01*
X106488000Y-86349750D01*
X106488000Y-85862250D01*
X106489174Y-85838358D01*
X106492684Y-85814697D01*
X106498496Y-85791493D01*
X106506554Y-85768971D01*
X106516782Y-85747347D01*
X106529079Y-85726830D01*
X106543329Y-85707617D01*
X106559393Y-85689893D01*
X106577117Y-85673829D01*
X106596330Y-85659579D01*
X106616847Y-85647282D01*
X106638471Y-85637054D01*
X106660993Y-85628996D01*
X106684197Y-85623184D01*
X106707858Y-85619674D01*
X106731750Y-85618500D01*
X107644250Y-85618500D01*
X107668142Y-85619674D01*
X107668142Y-85619674D01*
G37*
D11*
X107188000Y-86106000D03*
D10*
G36*
X107668142Y-87494674D02*
G01*
X107691803Y-87498184D01*
X107715007Y-87503996D01*
X107737529Y-87512054D01*
X107759153Y-87522282D01*
X107779670Y-87534579D01*
X107798883Y-87548829D01*
X107816607Y-87564893D01*
X107832671Y-87582617D01*
X107846921Y-87601830D01*
X107859218Y-87622347D01*
X107869446Y-87643971D01*
X107877504Y-87666493D01*
X107883316Y-87689697D01*
X107886826Y-87713358D01*
X107888000Y-87737250D01*
X107888000Y-88224750D01*
X107886826Y-88248642D01*
X107883316Y-88272303D01*
X107877504Y-88295507D01*
X107869446Y-88318029D01*
X107859218Y-88339653D01*
X107846921Y-88360170D01*
X107832671Y-88379383D01*
X107816607Y-88397107D01*
X107798883Y-88413171D01*
X107779670Y-88427421D01*
X107759153Y-88439718D01*
X107737529Y-88449946D01*
X107715007Y-88458004D01*
X107691803Y-88463816D01*
X107668142Y-88467326D01*
X107644250Y-88468500D01*
X106731750Y-88468500D01*
X106707858Y-88467326D01*
X106684197Y-88463816D01*
X106660993Y-88458004D01*
X106638471Y-88449946D01*
X106616847Y-88439718D01*
X106596330Y-88427421D01*
X106577117Y-88413171D01*
X106559393Y-88397107D01*
X106543329Y-88379383D01*
X106529079Y-88360170D01*
X106516782Y-88339653D01*
X106506554Y-88318029D01*
X106498496Y-88295507D01*
X106492684Y-88272303D01*
X106489174Y-88248642D01*
X106488000Y-88224750D01*
X106488000Y-87737250D01*
X106489174Y-87713358D01*
X106492684Y-87689697D01*
X106498496Y-87666493D01*
X106506554Y-87643971D01*
X106516782Y-87622347D01*
X106529079Y-87601830D01*
X106543329Y-87582617D01*
X106559393Y-87564893D01*
X106577117Y-87548829D01*
X106596330Y-87534579D01*
X106616847Y-87522282D01*
X106638471Y-87512054D01*
X106660993Y-87503996D01*
X106684197Y-87498184D01*
X106707858Y-87494674D01*
X106731750Y-87493500D01*
X107644250Y-87493500D01*
X107668142Y-87494674D01*
X107668142Y-87494674D01*
G37*
D11*
X107188000Y-87981000D03*
D10*
G36*
X120663642Y-102171174D02*
G01*
X120687303Y-102174684D01*
X120710507Y-102180496D01*
X120733029Y-102188554D01*
X120754653Y-102198782D01*
X120775170Y-102211079D01*
X120794383Y-102225329D01*
X120812107Y-102241393D01*
X120828171Y-102259117D01*
X120842421Y-102278330D01*
X120854718Y-102298847D01*
X120864946Y-102320471D01*
X120873004Y-102342993D01*
X120878816Y-102366197D01*
X120882326Y-102389858D01*
X120883500Y-102413750D01*
X120883500Y-103326250D01*
X120882326Y-103350142D01*
X120878816Y-103373803D01*
X120873004Y-103397007D01*
X120864946Y-103419529D01*
X120854718Y-103441153D01*
X120842421Y-103461670D01*
X120828171Y-103480883D01*
X120812107Y-103498607D01*
X120794383Y-103514671D01*
X120775170Y-103528921D01*
X120754653Y-103541218D01*
X120733029Y-103551446D01*
X120710507Y-103559504D01*
X120687303Y-103565316D01*
X120663642Y-103568826D01*
X120639750Y-103570000D01*
X120152250Y-103570000D01*
X120128358Y-103568826D01*
X120104697Y-103565316D01*
X120081493Y-103559504D01*
X120058971Y-103551446D01*
X120037347Y-103541218D01*
X120016830Y-103528921D01*
X119997617Y-103514671D01*
X119979893Y-103498607D01*
X119963829Y-103480883D01*
X119949579Y-103461670D01*
X119937282Y-103441153D01*
X119927054Y-103419529D01*
X119918996Y-103397007D01*
X119913184Y-103373803D01*
X119909674Y-103350142D01*
X119908500Y-103326250D01*
X119908500Y-102413750D01*
X119909674Y-102389858D01*
X119913184Y-102366197D01*
X119918996Y-102342993D01*
X119927054Y-102320471D01*
X119937282Y-102298847D01*
X119949579Y-102278330D01*
X119963829Y-102259117D01*
X119979893Y-102241393D01*
X119997617Y-102225329D01*
X120016830Y-102211079D01*
X120037347Y-102198782D01*
X120058971Y-102188554D01*
X120081493Y-102180496D01*
X120104697Y-102174684D01*
X120128358Y-102171174D01*
X120152250Y-102170000D01*
X120639750Y-102170000D01*
X120663642Y-102171174D01*
X120663642Y-102171174D01*
G37*
D11*
X120396000Y-102870000D03*
D10*
G36*
X118788642Y-102171174D02*
G01*
X118812303Y-102174684D01*
X118835507Y-102180496D01*
X118858029Y-102188554D01*
X118879653Y-102198782D01*
X118900170Y-102211079D01*
X118919383Y-102225329D01*
X118937107Y-102241393D01*
X118953171Y-102259117D01*
X118967421Y-102278330D01*
X118979718Y-102298847D01*
X118989946Y-102320471D01*
X118998004Y-102342993D01*
X119003816Y-102366197D01*
X119007326Y-102389858D01*
X119008500Y-102413750D01*
X119008500Y-103326250D01*
X119007326Y-103350142D01*
X119003816Y-103373803D01*
X118998004Y-103397007D01*
X118989946Y-103419529D01*
X118979718Y-103441153D01*
X118967421Y-103461670D01*
X118953171Y-103480883D01*
X118937107Y-103498607D01*
X118919383Y-103514671D01*
X118900170Y-103528921D01*
X118879653Y-103541218D01*
X118858029Y-103551446D01*
X118835507Y-103559504D01*
X118812303Y-103565316D01*
X118788642Y-103568826D01*
X118764750Y-103570000D01*
X118277250Y-103570000D01*
X118253358Y-103568826D01*
X118229697Y-103565316D01*
X118206493Y-103559504D01*
X118183971Y-103551446D01*
X118162347Y-103541218D01*
X118141830Y-103528921D01*
X118122617Y-103514671D01*
X118104893Y-103498607D01*
X118088829Y-103480883D01*
X118074579Y-103461670D01*
X118062282Y-103441153D01*
X118052054Y-103419529D01*
X118043996Y-103397007D01*
X118038184Y-103373803D01*
X118034674Y-103350142D01*
X118033500Y-103326250D01*
X118033500Y-102413750D01*
X118034674Y-102389858D01*
X118038184Y-102366197D01*
X118043996Y-102342993D01*
X118052054Y-102320471D01*
X118062282Y-102298847D01*
X118074579Y-102278330D01*
X118088829Y-102259117D01*
X118104893Y-102241393D01*
X118122617Y-102225329D01*
X118141830Y-102211079D01*
X118162347Y-102198782D01*
X118183971Y-102188554D01*
X118206493Y-102180496D01*
X118229697Y-102174684D01*
X118253358Y-102171174D01*
X118277250Y-102170000D01*
X118764750Y-102170000D01*
X118788642Y-102171174D01*
X118788642Y-102171174D01*
G37*
D11*
X118521000Y-102870000D03*
D10*
G36*
X116685142Y-104083174D02*
G01*
X116708803Y-104086684D01*
X116732007Y-104092496D01*
X116754529Y-104100554D01*
X116776153Y-104110782D01*
X116796670Y-104123079D01*
X116815883Y-104137329D01*
X116833607Y-104153393D01*
X116849671Y-104171117D01*
X116863921Y-104190330D01*
X116876218Y-104210847D01*
X116886446Y-104232471D01*
X116894504Y-104254993D01*
X116900316Y-104278197D01*
X116903826Y-104301858D01*
X116905000Y-104325750D01*
X116905000Y-104813250D01*
X116903826Y-104837142D01*
X116900316Y-104860803D01*
X116894504Y-104884007D01*
X116886446Y-104906529D01*
X116876218Y-104928153D01*
X116863921Y-104948670D01*
X116849671Y-104967883D01*
X116833607Y-104985607D01*
X116815883Y-105001671D01*
X116796670Y-105015921D01*
X116776153Y-105028218D01*
X116754529Y-105038446D01*
X116732007Y-105046504D01*
X116708803Y-105052316D01*
X116685142Y-105055826D01*
X116661250Y-105057000D01*
X115748750Y-105057000D01*
X115724858Y-105055826D01*
X115701197Y-105052316D01*
X115677993Y-105046504D01*
X115655471Y-105038446D01*
X115633847Y-105028218D01*
X115613330Y-105015921D01*
X115594117Y-105001671D01*
X115576393Y-104985607D01*
X115560329Y-104967883D01*
X115546079Y-104948670D01*
X115533782Y-104928153D01*
X115523554Y-104906529D01*
X115515496Y-104884007D01*
X115509684Y-104860803D01*
X115506174Y-104837142D01*
X115505000Y-104813250D01*
X115505000Y-104325750D01*
X115506174Y-104301858D01*
X115509684Y-104278197D01*
X115515496Y-104254993D01*
X115523554Y-104232471D01*
X115533782Y-104210847D01*
X115546079Y-104190330D01*
X115560329Y-104171117D01*
X115576393Y-104153393D01*
X115594117Y-104137329D01*
X115613330Y-104123079D01*
X115633847Y-104110782D01*
X115655471Y-104100554D01*
X115677993Y-104092496D01*
X115701197Y-104086684D01*
X115724858Y-104083174D01*
X115748750Y-104082000D01*
X116661250Y-104082000D01*
X116685142Y-104083174D01*
X116685142Y-104083174D01*
G37*
D11*
X116205000Y-104569500D03*
D10*
G36*
X116685142Y-102208174D02*
G01*
X116708803Y-102211684D01*
X116732007Y-102217496D01*
X116754529Y-102225554D01*
X116776153Y-102235782D01*
X116796670Y-102248079D01*
X116815883Y-102262329D01*
X116833607Y-102278393D01*
X116849671Y-102296117D01*
X116863921Y-102315330D01*
X116876218Y-102335847D01*
X116886446Y-102357471D01*
X116894504Y-102379993D01*
X116900316Y-102403197D01*
X116903826Y-102426858D01*
X116905000Y-102450750D01*
X116905000Y-102938250D01*
X116903826Y-102962142D01*
X116900316Y-102985803D01*
X116894504Y-103009007D01*
X116886446Y-103031529D01*
X116876218Y-103053153D01*
X116863921Y-103073670D01*
X116849671Y-103092883D01*
X116833607Y-103110607D01*
X116815883Y-103126671D01*
X116796670Y-103140921D01*
X116776153Y-103153218D01*
X116754529Y-103163446D01*
X116732007Y-103171504D01*
X116708803Y-103177316D01*
X116685142Y-103180826D01*
X116661250Y-103182000D01*
X115748750Y-103182000D01*
X115724858Y-103180826D01*
X115701197Y-103177316D01*
X115677993Y-103171504D01*
X115655471Y-103163446D01*
X115633847Y-103153218D01*
X115613330Y-103140921D01*
X115594117Y-103126671D01*
X115576393Y-103110607D01*
X115560329Y-103092883D01*
X115546079Y-103073670D01*
X115533782Y-103053153D01*
X115523554Y-103031529D01*
X115515496Y-103009007D01*
X115509684Y-102985803D01*
X115506174Y-102962142D01*
X115505000Y-102938250D01*
X115505000Y-102450750D01*
X115506174Y-102426858D01*
X115509684Y-102403197D01*
X115515496Y-102379993D01*
X115523554Y-102357471D01*
X115533782Y-102335847D01*
X115546079Y-102315330D01*
X115560329Y-102296117D01*
X115576393Y-102278393D01*
X115594117Y-102262329D01*
X115613330Y-102248079D01*
X115633847Y-102235782D01*
X115655471Y-102225554D01*
X115677993Y-102217496D01*
X115701197Y-102211684D01*
X115724858Y-102208174D01*
X115748750Y-102207000D01*
X116661250Y-102207000D01*
X116685142Y-102208174D01*
X116685142Y-102208174D01*
G37*
D11*
X116205000Y-102694500D03*
D12*
X186154000Y-78486000D03*
X182654000Y-78486000D03*
X175486000Y-78486000D03*
X171986000Y-78486000D03*
X164818000Y-78486000D03*
X161318000Y-78486000D03*
X154658000Y-78486000D03*
X151158000Y-78486000D03*
X143990000Y-78486000D03*
X140490000Y-78486000D03*
X132814000Y-78486000D03*
X129314000Y-78486000D03*
X122146000Y-78486000D03*
X118646000Y-78486000D03*
X111478000Y-78486000D03*
X107978000Y-78486000D03*
X187932000Y-86614000D03*
X184432000Y-86614000D03*
M02*
