G04 #@! TF.GenerationSoftware,KiCad,Pcbnew,5.1.4-e60b266~84~ubuntu18.04.1*
G04 #@! TF.CreationDate,2019-09-18T22:39:51+03:00*
G04 #@! TF.ProjectId,spotweld,73706f74-7765-46c6-942e-6b696361645f,rev?*
G04 #@! TF.SameCoordinates,Original*
G04 #@! TF.FileFunction,Copper,L1,Top*
G04 #@! TF.FilePolarity,Positive*
%FSLAX46Y46*%
G04 Gerber Fmt 4.6, Leading zero omitted, Abs format (unit mm)*
G04 Created by KiCad (PCBNEW 5.1.4-e60b266~84~ubuntu18.04.1) date 2019-09-18 22:39:51*
%MOMM*%
%LPD*%
G04 APERTURE LIST*
%ADD10C,2.000000*%
%ADD11O,1.905000X2.000000*%
%ADD12R,1.905000X2.000000*%
%ADD13C,0.100000*%
%ADD14C,0.975000*%
%ADD15C,1.000000*%
%ADD16R,2.200000X1.840000*%
%ADD17R,1.000000X1.500000*%
%ADD18R,1.000000X1.800000*%
%ADD19C,0.850000*%
%ADD20C,0.600000*%
%ADD21C,2.290000*%
%ADD22C,2.340000*%
%ADD23O,1.700000X1.700000*%
%ADD24R,1.700000X1.700000*%
%ADD25R,1.200000X0.900000*%
%ADD26C,1.600000*%
%ADD27R,1.600000X1.600000*%
%ADD28C,1.250000*%
%ADD29C,8.000000*%
%ADD30C,0.800000*%
%ADD31C,2.000000*%
%ADD32C,1.000000*%
%ADD33C,0.500000*%
%ADD34C,0.250000*%
%ADD35C,0.254000*%
G04 APERTURE END LIST*
D10*
X145392000Y-119634000D03*
X145392000Y-115134000D03*
X151892000Y-119634000D03*
X151892000Y-115134000D03*
D11*
X186944000Y-82804000D03*
X184404000Y-82804000D03*
D12*
X181864000Y-82804000D03*
D11*
X176276000Y-82804000D03*
X173736000Y-82804000D03*
D12*
X171196000Y-82804000D03*
X160528000Y-82804000D03*
D11*
X163068000Y-82804000D03*
X165608000Y-82804000D03*
X154940000Y-82804000D03*
X152400000Y-82804000D03*
D12*
X149860000Y-82804000D03*
D11*
X144272000Y-82804000D03*
X141732000Y-82804000D03*
D12*
X139192000Y-82804000D03*
X128524000Y-82804000D03*
D11*
X131064000Y-82804000D03*
X133604000Y-82804000D03*
X122936000Y-82804000D03*
X120396000Y-82804000D03*
D12*
X117856000Y-82804000D03*
X107188000Y-82804000D03*
D11*
X109728000Y-82804000D03*
X112268000Y-82804000D03*
D13*
G36*
X137476142Y-116268174D02*
G01*
X137499803Y-116271684D01*
X137523007Y-116277496D01*
X137545529Y-116285554D01*
X137567153Y-116295782D01*
X137587670Y-116308079D01*
X137606883Y-116322329D01*
X137624607Y-116338393D01*
X137640671Y-116356117D01*
X137654921Y-116375330D01*
X137667218Y-116395847D01*
X137677446Y-116417471D01*
X137685504Y-116439993D01*
X137691316Y-116463197D01*
X137694826Y-116486858D01*
X137696000Y-116510750D01*
X137696000Y-117423250D01*
X137694826Y-117447142D01*
X137691316Y-117470803D01*
X137685504Y-117494007D01*
X137677446Y-117516529D01*
X137667218Y-117538153D01*
X137654921Y-117558670D01*
X137640671Y-117577883D01*
X137624607Y-117595607D01*
X137606883Y-117611671D01*
X137587670Y-117625921D01*
X137567153Y-117638218D01*
X137545529Y-117648446D01*
X137523007Y-117656504D01*
X137499803Y-117662316D01*
X137476142Y-117665826D01*
X137452250Y-117667000D01*
X136964750Y-117667000D01*
X136940858Y-117665826D01*
X136917197Y-117662316D01*
X136893993Y-117656504D01*
X136871471Y-117648446D01*
X136849847Y-117638218D01*
X136829330Y-117625921D01*
X136810117Y-117611671D01*
X136792393Y-117595607D01*
X136776329Y-117577883D01*
X136762079Y-117558670D01*
X136749782Y-117538153D01*
X136739554Y-117516529D01*
X136731496Y-117494007D01*
X136725684Y-117470803D01*
X136722174Y-117447142D01*
X136721000Y-117423250D01*
X136721000Y-116510750D01*
X136722174Y-116486858D01*
X136725684Y-116463197D01*
X136731496Y-116439993D01*
X136739554Y-116417471D01*
X136749782Y-116395847D01*
X136762079Y-116375330D01*
X136776329Y-116356117D01*
X136792393Y-116338393D01*
X136810117Y-116322329D01*
X136829330Y-116308079D01*
X136849847Y-116295782D01*
X136871471Y-116285554D01*
X136893993Y-116277496D01*
X136917197Y-116271684D01*
X136940858Y-116268174D01*
X136964750Y-116267000D01*
X137452250Y-116267000D01*
X137476142Y-116268174D01*
X137476142Y-116268174D01*
G37*
D14*
X137208500Y-116967000D03*
D13*
G36*
X135601142Y-116268174D02*
G01*
X135624803Y-116271684D01*
X135648007Y-116277496D01*
X135670529Y-116285554D01*
X135692153Y-116295782D01*
X135712670Y-116308079D01*
X135731883Y-116322329D01*
X135749607Y-116338393D01*
X135765671Y-116356117D01*
X135779921Y-116375330D01*
X135792218Y-116395847D01*
X135802446Y-116417471D01*
X135810504Y-116439993D01*
X135816316Y-116463197D01*
X135819826Y-116486858D01*
X135821000Y-116510750D01*
X135821000Y-117423250D01*
X135819826Y-117447142D01*
X135816316Y-117470803D01*
X135810504Y-117494007D01*
X135802446Y-117516529D01*
X135792218Y-117538153D01*
X135779921Y-117558670D01*
X135765671Y-117577883D01*
X135749607Y-117595607D01*
X135731883Y-117611671D01*
X135712670Y-117625921D01*
X135692153Y-117638218D01*
X135670529Y-117648446D01*
X135648007Y-117656504D01*
X135624803Y-117662316D01*
X135601142Y-117665826D01*
X135577250Y-117667000D01*
X135089750Y-117667000D01*
X135065858Y-117665826D01*
X135042197Y-117662316D01*
X135018993Y-117656504D01*
X134996471Y-117648446D01*
X134974847Y-117638218D01*
X134954330Y-117625921D01*
X134935117Y-117611671D01*
X134917393Y-117595607D01*
X134901329Y-117577883D01*
X134887079Y-117558670D01*
X134874782Y-117538153D01*
X134864554Y-117516529D01*
X134856496Y-117494007D01*
X134850684Y-117470803D01*
X134847174Y-117447142D01*
X134846000Y-117423250D01*
X134846000Y-116510750D01*
X134847174Y-116486858D01*
X134850684Y-116463197D01*
X134856496Y-116439993D01*
X134864554Y-116417471D01*
X134874782Y-116395847D01*
X134887079Y-116375330D01*
X134901329Y-116356117D01*
X134917393Y-116338393D01*
X134935117Y-116322329D01*
X134954330Y-116308079D01*
X134974847Y-116295782D01*
X134996471Y-116285554D01*
X135018993Y-116277496D01*
X135042197Y-116271684D01*
X135065858Y-116268174D01*
X135089750Y-116267000D01*
X135577250Y-116267000D01*
X135601142Y-116268174D01*
X135601142Y-116268174D01*
G37*
D14*
X135333500Y-116967000D03*
D15*
X117856000Y-118110000D03*
D13*
G36*
X116756000Y-118610000D02*
G01*
X117456000Y-117610000D01*
X118256000Y-117610000D01*
X118956000Y-118610000D01*
X116756000Y-118610000D01*
X116756000Y-118610000D01*
G37*
D16*
X117856000Y-119519700D03*
D17*
X116356000Y-116706200D03*
D18*
X117856000Y-116852700D03*
D17*
X119356000Y-116706200D03*
D19*
X117856000Y-120853200D03*
D13*
G36*
X118956000Y-120428200D02*
G01*
X118356000Y-121278200D01*
X117356000Y-121278200D01*
X116756000Y-120428200D01*
X118956000Y-120428200D01*
X118956000Y-120428200D01*
G37*
G36*
X119776703Y-110063722D02*
G01*
X119791264Y-110065882D01*
X119805543Y-110069459D01*
X119819403Y-110074418D01*
X119832710Y-110080712D01*
X119845336Y-110088280D01*
X119857159Y-110097048D01*
X119868066Y-110106934D01*
X119877952Y-110117841D01*
X119886720Y-110129664D01*
X119894288Y-110142290D01*
X119900582Y-110155597D01*
X119905541Y-110169457D01*
X119909118Y-110183736D01*
X119911278Y-110198297D01*
X119912000Y-110213000D01*
X119912000Y-110513000D01*
X119911278Y-110527703D01*
X119909118Y-110542264D01*
X119905541Y-110556543D01*
X119900582Y-110570403D01*
X119894288Y-110583710D01*
X119886720Y-110596336D01*
X119877952Y-110608159D01*
X119868066Y-110619066D01*
X119857159Y-110628952D01*
X119845336Y-110637720D01*
X119832710Y-110645288D01*
X119819403Y-110651582D01*
X119805543Y-110656541D01*
X119791264Y-110660118D01*
X119776703Y-110662278D01*
X119762000Y-110663000D01*
X118112000Y-110663000D01*
X118097297Y-110662278D01*
X118082736Y-110660118D01*
X118068457Y-110656541D01*
X118054597Y-110651582D01*
X118041290Y-110645288D01*
X118028664Y-110637720D01*
X118016841Y-110628952D01*
X118005934Y-110619066D01*
X117996048Y-110608159D01*
X117987280Y-110596336D01*
X117979712Y-110583710D01*
X117973418Y-110570403D01*
X117968459Y-110556543D01*
X117964882Y-110542264D01*
X117962722Y-110527703D01*
X117962000Y-110513000D01*
X117962000Y-110213000D01*
X117962722Y-110198297D01*
X117964882Y-110183736D01*
X117968459Y-110169457D01*
X117973418Y-110155597D01*
X117979712Y-110142290D01*
X117987280Y-110129664D01*
X117996048Y-110117841D01*
X118005934Y-110106934D01*
X118016841Y-110097048D01*
X118028664Y-110088280D01*
X118041290Y-110080712D01*
X118054597Y-110074418D01*
X118068457Y-110069459D01*
X118082736Y-110065882D01*
X118097297Y-110063722D01*
X118112000Y-110063000D01*
X119762000Y-110063000D01*
X119776703Y-110063722D01*
X119776703Y-110063722D01*
G37*
D20*
X118937000Y-110363000D03*
D13*
G36*
X119776703Y-108793722D02*
G01*
X119791264Y-108795882D01*
X119805543Y-108799459D01*
X119819403Y-108804418D01*
X119832710Y-108810712D01*
X119845336Y-108818280D01*
X119857159Y-108827048D01*
X119868066Y-108836934D01*
X119877952Y-108847841D01*
X119886720Y-108859664D01*
X119894288Y-108872290D01*
X119900582Y-108885597D01*
X119905541Y-108899457D01*
X119909118Y-108913736D01*
X119911278Y-108928297D01*
X119912000Y-108943000D01*
X119912000Y-109243000D01*
X119911278Y-109257703D01*
X119909118Y-109272264D01*
X119905541Y-109286543D01*
X119900582Y-109300403D01*
X119894288Y-109313710D01*
X119886720Y-109326336D01*
X119877952Y-109338159D01*
X119868066Y-109349066D01*
X119857159Y-109358952D01*
X119845336Y-109367720D01*
X119832710Y-109375288D01*
X119819403Y-109381582D01*
X119805543Y-109386541D01*
X119791264Y-109390118D01*
X119776703Y-109392278D01*
X119762000Y-109393000D01*
X118112000Y-109393000D01*
X118097297Y-109392278D01*
X118082736Y-109390118D01*
X118068457Y-109386541D01*
X118054597Y-109381582D01*
X118041290Y-109375288D01*
X118028664Y-109367720D01*
X118016841Y-109358952D01*
X118005934Y-109349066D01*
X117996048Y-109338159D01*
X117987280Y-109326336D01*
X117979712Y-109313710D01*
X117973418Y-109300403D01*
X117968459Y-109286543D01*
X117964882Y-109272264D01*
X117962722Y-109257703D01*
X117962000Y-109243000D01*
X117962000Y-108943000D01*
X117962722Y-108928297D01*
X117964882Y-108913736D01*
X117968459Y-108899457D01*
X117973418Y-108885597D01*
X117979712Y-108872290D01*
X117987280Y-108859664D01*
X117996048Y-108847841D01*
X118005934Y-108836934D01*
X118016841Y-108827048D01*
X118028664Y-108818280D01*
X118041290Y-108810712D01*
X118054597Y-108804418D01*
X118068457Y-108799459D01*
X118082736Y-108795882D01*
X118097297Y-108793722D01*
X118112000Y-108793000D01*
X119762000Y-108793000D01*
X119776703Y-108793722D01*
X119776703Y-108793722D01*
G37*
D20*
X118937000Y-109093000D03*
D13*
G36*
X119776703Y-107523722D02*
G01*
X119791264Y-107525882D01*
X119805543Y-107529459D01*
X119819403Y-107534418D01*
X119832710Y-107540712D01*
X119845336Y-107548280D01*
X119857159Y-107557048D01*
X119868066Y-107566934D01*
X119877952Y-107577841D01*
X119886720Y-107589664D01*
X119894288Y-107602290D01*
X119900582Y-107615597D01*
X119905541Y-107629457D01*
X119909118Y-107643736D01*
X119911278Y-107658297D01*
X119912000Y-107673000D01*
X119912000Y-107973000D01*
X119911278Y-107987703D01*
X119909118Y-108002264D01*
X119905541Y-108016543D01*
X119900582Y-108030403D01*
X119894288Y-108043710D01*
X119886720Y-108056336D01*
X119877952Y-108068159D01*
X119868066Y-108079066D01*
X119857159Y-108088952D01*
X119845336Y-108097720D01*
X119832710Y-108105288D01*
X119819403Y-108111582D01*
X119805543Y-108116541D01*
X119791264Y-108120118D01*
X119776703Y-108122278D01*
X119762000Y-108123000D01*
X118112000Y-108123000D01*
X118097297Y-108122278D01*
X118082736Y-108120118D01*
X118068457Y-108116541D01*
X118054597Y-108111582D01*
X118041290Y-108105288D01*
X118028664Y-108097720D01*
X118016841Y-108088952D01*
X118005934Y-108079066D01*
X117996048Y-108068159D01*
X117987280Y-108056336D01*
X117979712Y-108043710D01*
X117973418Y-108030403D01*
X117968459Y-108016543D01*
X117964882Y-108002264D01*
X117962722Y-107987703D01*
X117962000Y-107973000D01*
X117962000Y-107673000D01*
X117962722Y-107658297D01*
X117964882Y-107643736D01*
X117968459Y-107629457D01*
X117973418Y-107615597D01*
X117979712Y-107602290D01*
X117987280Y-107589664D01*
X117996048Y-107577841D01*
X118005934Y-107566934D01*
X118016841Y-107557048D01*
X118028664Y-107548280D01*
X118041290Y-107540712D01*
X118054597Y-107534418D01*
X118068457Y-107529459D01*
X118082736Y-107525882D01*
X118097297Y-107523722D01*
X118112000Y-107523000D01*
X119762000Y-107523000D01*
X119776703Y-107523722D01*
X119776703Y-107523722D01*
G37*
D20*
X118937000Y-107823000D03*
D13*
G36*
X119776703Y-106253722D02*
G01*
X119791264Y-106255882D01*
X119805543Y-106259459D01*
X119819403Y-106264418D01*
X119832710Y-106270712D01*
X119845336Y-106278280D01*
X119857159Y-106287048D01*
X119868066Y-106296934D01*
X119877952Y-106307841D01*
X119886720Y-106319664D01*
X119894288Y-106332290D01*
X119900582Y-106345597D01*
X119905541Y-106359457D01*
X119909118Y-106373736D01*
X119911278Y-106388297D01*
X119912000Y-106403000D01*
X119912000Y-106703000D01*
X119911278Y-106717703D01*
X119909118Y-106732264D01*
X119905541Y-106746543D01*
X119900582Y-106760403D01*
X119894288Y-106773710D01*
X119886720Y-106786336D01*
X119877952Y-106798159D01*
X119868066Y-106809066D01*
X119857159Y-106818952D01*
X119845336Y-106827720D01*
X119832710Y-106835288D01*
X119819403Y-106841582D01*
X119805543Y-106846541D01*
X119791264Y-106850118D01*
X119776703Y-106852278D01*
X119762000Y-106853000D01*
X118112000Y-106853000D01*
X118097297Y-106852278D01*
X118082736Y-106850118D01*
X118068457Y-106846541D01*
X118054597Y-106841582D01*
X118041290Y-106835288D01*
X118028664Y-106827720D01*
X118016841Y-106818952D01*
X118005934Y-106809066D01*
X117996048Y-106798159D01*
X117987280Y-106786336D01*
X117979712Y-106773710D01*
X117973418Y-106760403D01*
X117968459Y-106746543D01*
X117964882Y-106732264D01*
X117962722Y-106717703D01*
X117962000Y-106703000D01*
X117962000Y-106403000D01*
X117962722Y-106388297D01*
X117964882Y-106373736D01*
X117968459Y-106359457D01*
X117973418Y-106345597D01*
X117979712Y-106332290D01*
X117987280Y-106319664D01*
X117996048Y-106307841D01*
X118005934Y-106296934D01*
X118016841Y-106287048D01*
X118028664Y-106278280D01*
X118041290Y-106270712D01*
X118054597Y-106264418D01*
X118068457Y-106259459D01*
X118082736Y-106255882D01*
X118097297Y-106253722D01*
X118112000Y-106253000D01*
X119762000Y-106253000D01*
X119776703Y-106253722D01*
X119776703Y-106253722D01*
G37*
D20*
X118937000Y-106553000D03*
D13*
G36*
X124726703Y-106253722D02*
G01*
X124741264Y-106255882D01*
X124755543Y-106259459D01*
X124769403Y-106264418D01*
X124782710Y-106270712D01*
X124795336Y-106278280D01*
X124807159Y-106287048D01*
X124818066Y-106296934D01*
X124827952Y-106307841D01*
X124836720Y-106319664D01*
X124844288Y-106332290D01*
X124850582Y-106345597D01*
X124855541Y-106359457D01*
X124859118Y-106373736D01*
X124861278Y-106388297D01*
X124862000Y-106403000D01*
X124862000Y-106703000D01*
X124861278Y-106717703D01*
X124859118Y-106732264D01*
X124855541Y-106746543D01*
X124850582Y-106760403D01*
X124844288Y-106773710D01*
X124836720Y-106786336D01*
X124827952Y-106798159D01*
X124818066Y-106809066D01*
X124807159Y-106818952D01*
X124795336Y-106827720D01*
X124782710Y-106835288D01*
X124769403Y-106841582D01*
X124755543Y-106846541D01*
X124741264Y-106850118D01*
X124726703Y-106852278D01*
X124712000Y-106853000D01*
X123062000Y-106853000D01*
X123047297Y-106852278D01*
X123032736Y-106850118D01*
X123018457Y-106846541D01*
X123004597Y-106841582D01*
X122991290Y-106835288D01*
X122978664Y-106827720D01*
X122966841Y-106818952D01*
X122955934Y-106809066D01*
X122946048Y-106798159D01*
X122937280Y-106786336D01*
X122929712Y-106773710D01*
X122923418Y-106760403D01*
X122918459Y-106746543D01*
X122914882Y-106732264D01*
X122912722Y-106717703D01*
X122912000Y-106703000D01*
X122912000Y-106403000D01*
X122912722Y-106388297D01*
X122914882Y-106373736D01*
X122918459Y-106359457D01*
X122923418Y-106345597D01*
X122929712Y-106332290D01*
X122937280Y-106319664D01*
X122946048Y-106307841D01*
X122955934Y-106296934D01*
X122966841Y-106287048D01*
X122978664Y-106278280D01*
X122991290Y-106270712D01*
X123004597Y-106264418D01*
X123018457Y-106259459D01*
X123032736Y-106255882D01*
X123047297Y-106253722D01*
X123062000Y-106253000D01*
X124712000Y-106253000D01*
X124726703Y-106253722D01*
X124726703Y-106253722D01*
G37*
D20*
X123887000Y-106553000D03*
D13*
G36*
X124726703Y-107523722D02*
G01*
X124741264Y-107525882D01*
X124755543Y-107529459D01*
X124769403Y-107534418D01*
X124782710Y-107540712D01*
X124795336Y-107548280D01*
X124807159Y-107557048D01*
X124818066Y-107566934D01*
X124827952Y-107577841D01*
X124836720Y-107589664D01*
X124844288Y-107602290D01*
X124850582Y-107615597D01*
X124855541Y-107629457D01*
X124859118Y-107643736D01*
X124861278Y-107658297D01*
X124862000Y-107673000D01*
X124862000Y-107973000D01*
X124861278Y-107987703D01*
X124859118Y-108002264D01*
X124855541Y-108016543D01*
X124850582Y-108030403D01*
X124844288Y-108043710D01*
X124836720Y-108056336D01*
X124827952Y-108068159D01*
X124818066Y-108079066D01*
X124807159Y-108088952D01*
X124795336Y-108097720D01*
X124782710Y-108105288D01*
X124769403Y-108111582D01*
X124755543Y-108116541D01*
X124741264Y-108120118D01*
X124726703Y-108122278D01*
X124712000Y-108123000D01*
X123062000Y-108123000D01*
X123047297Y-108122278D01*
X123032736Y-108120118D01*
X123018457Y-108116541D01*
X123004597Y-108111582D01*
X122991290Y-108105288D01*
X122978664Y-108097720D01*
X122966841Y-108088952D01*
X122955934Y-108079066D01*
X122946048Y-108068159D01*
X122937280Y-108056336D01*
X122929712Y-108043710D01*
X122923418Y-108030403D01*
X122918459Y-108016543D01*
X122914882Y-108002264D01*
X122912722Y-107987703D01*
X122912000Y-107973000D01*
X122912000Y-107673000D01*
X122912722Y-107658297D01*
X122914882Y-107643736D01*
X122918459Y-107629457D01*
X122923418Y-107615597D01*
X122929712Y-107602290D01*
X122937280Y-107589664D01*
X122946048Y-107577841D01*
X122955934Y-107566934D01*
X122966841Y-107557048D01*
X122978664Y-107548280D01*
X122991290Y-107540712D01*
X123004597Y-107534418D01*
X123018457Y-107529459D01*
X123032736Y-107525882D01*
X123047297Y-107523722D01*
X123062000Y-107523000D01*
X124712000Y-107523000D01*
X124726703Y-107523722D01*
X124726703Y-107523722D01*
G37*
D20*
X123887000Y-107823000D03*
D13*
G36*
X124726703Y-108793722D02*
G01*
X124741264Y-108795882D01*
X124755543Y-108799459D01*
X124769403Y-108804418D01*
X124782710Y-108810712D01*
X124795336Y-108818280D01*
X124807159Y-108827048D01*
X124818066Y-108836934D01*
X124827952Y-108847841D01*
X124836720Y-108859664D01*
X124844288Y-108872290D01*
X124850582Y-108885597D01*
X124855541Y-108899457D01*
X124859118Y-108913736D01*
X124861278Y-108928297D01*
X124862000Y-108943000D01*
X124862000Y-109243000D01*
X124861278Y-109257703D01*
X124859118Y-109272264D01*
X124855541Y-109286543D01*
X124850582Y-109300403D01*
X124844288Y-109313710D01*
X124836720Y-109326336D01*
X124827952Y-109338159D01*
X124818066Y-109349066D01*
X124807159Y-109358952D01*
X124795336Y-109367720D01*
X124782710Y-109375288D01*
X124769403Y-109381582D01*
X124755543Y-109386541D01*
X124741264Y-109390118D01*
X124726703Y-109392278D01*
X124712000Y-109393000D01*
X123062000Y-109393000D01*
X123047297Y-109392278D01*
X123032736Y-109390118D01*
X123018457Y-109386541D01*
X123004597Y-109381582D01*
X122991290Y-109375288D01*
X122978664Y-109367720D01*
X122966841Y-109358952D01*
X122955934Y-109349066D01*
X122946048Y-109338159D01*
X122937280Y-109326336D01*
X122929712Y-109313710D01*
X122923418Y-109300403D01*
X122918459Y-109286543D01*
X122914882Y-109272264D01*
X122912722Y-109257703D01*
X122912000Y-109243000D01*
X122912000Y-108943000D01*
X122912722Y-108928297D01*
X122914882Y-108913736D01*
X122918459Y-108899457D01*
X122923418Y-108885597D01*
X122929712Y-108872290D01*
X122937280Y-108859664D01*
X122946048Y-108847841D01*
X122955934Y-108836934D01*
X122966841Y-108827048D01*
X122978664Y-108818280D01*
X122991290Y-108810712D01*
X123004597Y-108804418D01*
X123018457Y-108799459D01*
X123032736Y-108795882D01*
X123047297Y-108793722D01*
X123062000Y-108793000D01*
X124712000Y-108793000D01*
X124726703Y-108793722D01*
X124726703Y-108793722D01*
G37*
D20*
X123887000Y-109093000D03*
D13*
G36*
X124726703Y-110063722D02*
G01*
X124741264Y-110065882D01*
X124755543Y-110069459D01*
X124769403Y-110074418D01*
X124782710Y-110080712D01*
X124795336Y-110088280D01*
X124807159Y-110097048D01*
X124818066Y-110106934D01*
X124827952Y-110117841D01*
X124836720Y-110129664D01*
X124844288Y-110142290D01*
X124850582Y-110155597D01*
X124855541Y-110169457D01*
X124859118Y-110183736D01*
X124861278Y-110198297D01*
X124862000Y-110213000D01*
X124862000Y-110513000D01*
X124861278Y-110527703D01*
X124859118Y-110542264D01*
X124855541Y-110556543D01*
X124850582Y-110570403D01*
X124844288Y-110583710D01*
X124836720Y-110596336D01*
X124827952Y-110608159D01*
X124818066Y-110619066D01*
X124807159Y-110628952D01*
X124795336Y-110637720D01*
X124782710Y-110645288D01*
X124769403Y-110651582D01*
X124755543Y-110656541D01*
X124741264Y-110660118D01*
X124726703Y-110662278D01*
X124712000Y-110663000D01*
X123062000Y-110663000D01*
X123047297Y-110662278D01*
X123032736Y-110660118D01*
X123018457Y-110656541D01*
X123004597Y-110651582D01*
X122991290Y-110645288D01*
X122978664Y-110637720D01*
X122966841Y-110628952D01*
X122955934Y-110619066D01*
X122946048Y-110608159D01*
X122937280Y-110596336D01*
X122929712Y-110583710D01*
X122923418Y-110570403D01*
X122918459Y-110556543D01*
X122914882Y-110542264D01*
X122912722Y-110527703D01*
X122912000Y-110513000D01*
X122912000Y-110213000D01*
X122912722Y-110198297D01*
X122914882Y-110183736D01*
X122918459Y-110169457D01*
X122923418Y-110155597D01*
X122929712Y-110142290D01*
X122937280Y-110129664D01*
X122946048Y-110117841D01*
X122955934Y-110106934D01*
X122966841Y-110097048D01*
X122978664Y-110088280D01*
X122991290Y-110080712D01*
X123004597Y-110074418D01*
X123018457Y-110069459D01*
X123032736Y-110065882D01*
X123047297Y-110063722D01*
X123062000Y-110063000D01*
X124712000Y-110063000D01*
X124726703Y-110063722D01*
X124726703Y-110063722D01*
G37*
D20*
X123887000Y-110363000D03*
D13*
G36*
X122331505Y-106959204D02*
G01*
X122355773Y-106962804D01*
X122379572Y-106968765D01*
X122402671Y-106977030D01*
X122424850Y-106987520D01*
X122445893Y-107000132D01*
X122465599Y-107014747D01*
X122483777Y-107031223D01*
X122500253Y-107049401D01*
X122514868Y-107069107D01*
X122527480Y-107090150D01*
X122537970Y-107112329D01*
X122546235Y-107135428D01*
X122552196Y-107159227D01*
X122555796Y-107183495D01*
X122557000Y-107207999D01*
X122557000Y-109708001D01*
X122555796Y-109732505D01*
X122552196Y-109756773D01*
X122546235Y-109780572D01*
X122537970Y-109803671D01*
X122527480Y-109825850D01*
X122514868Y-109846893D01*
X122500253Y-109866599D01*
X122483777Y-109884777D01*
X122465599Y-109901253D01*
X122445893Y-109915868D01*
X122424850Y-109928480D01*
X122402671Y-109938970D01*
X122379572Y-109947235D01*
X122355773Y-109953196D01*
X122331505Y-109956796D01*
X122307001Y-109958000D01*
X120516999Y-109958000D01*
X120492495Y-109956796D01*
X120468227Y-109953196D01*
X120444428Y-109947235D01*
X120421329Y-109938970D01*
X120399150Y-109928480D01*
X120378107Y-109915868D01*
X120358401Y-109901253D01*
X120340223Y-109884777D01*
X120323747Y-109866599D01*
X120309132Y-109846893D01*
X120296520Y-109825850D01*
X120286030Y-109803671D01*
X120277765Y-109780572D01*
X120271804Y-109756773D01*
X120268204Y-109732505D01*
X120267000Y-109708001D01*
X120267000Y-107207999D01*
X120268204Y-107183495D01*
X120271804Y-107159227D01*
X120277765Y-107135428D01*
X120286030Y-107112329D01*
X120296520Y-107090150D01*
X120309132Y-107069107D01*
X120323747Y-107049401D01*
X120340223Y-107031223D01*
X120358401Y-107014747D01*
X120378107Y-107000132D01*
X120399150Y-106987520D01*
X120421329Y-106977030D01*
X120444428Y-106968765D01*
X120468227Y-106962804D01*
X120492495Y-106959204D01*
X120516999Y-106958000D01*
X122307001Y-106958000D01*
X122331505Y-106959204D01*
X122331505Y-106959204D01*
G37*
D21*
X121412000Y-108458000D03*
D13*
G36*
X129450703Y-108056722D02*
G01*
X129465264Y-108058882D01*
X129479543Y-108062459D01*
X129493403Y-108067418D01*
X129506710Y-108073712D01*
X129519336Y-108081280D01*
X129531159Y-108090048D01*
X129542066Y-108099934D01*
X129551952Y-108110841D01*
X129560720Y-108122664D01*
X129568288Y-108135290D01*
X129574582Y-108148597D01*
X129579541Y-108162457D01*
X129583118Y-108176736D01*
X129585278Y-108191297D01*
X129586000Y-108206000D01*
X129586000Y-109856000D01*
X129585278Y-109870703D01*
X129583118Y-109885264D01*
X129579541Y-109899543D01*
X129574582Y-109913403D01*
X129568288Y-109926710D01*
X129560720Y-109939336D01*
X129551952Y-109951159D01*
X129542066Y-109962066D01*
X129531159Y-109971952D01*
X129519336Y-109980720D01*
X129506710Y-109988288D01*
X129493403Y-109994582D01*
X129479543Y-109999541D01*
X129465264Y-110003118D01*
X129450703Y-110005278D01*
X129436000Y-110006000D01*
X129136000Y-110006000D01*
X129121297Y-110005278D01*
X129106736Y-110003118D01*
X129092457Y-109999541D01*
X129078597Y-109994582D01*
X129065290Y-109988288D01*
X129052664Y-109980720D01*
X129040841Y-109971952D01*
X129029934Y-109962066D01*
X129020048Y-109951159D01*
X129011280Y-109939336D01*
X129003712Y-109926710D01*
X128997418Y-109913403D01*
X128992459Y-109899543D01*
X128988882Y-109885264D01*
X128986722Y-109870703D01*
X128986000Y-109856000D01*
X128986000Y-108206000D01*
X128986722Y-108191297D01*
X128988882Y-108176736D01*
X128992459Y-108162457D01*
X128997418Y-108148597D01*
X129003712Y-108135290D01*
X129011280Y-108122664D01*
X129020048Y-108110841D01*
X129029934Y-108099934D01*
X129040841Y-108090048D01*
X129052664Y-108081280D01*
X129065290Y-108073712D01*
X129078597Y-108067418D01*
X129092457Y-108062459D01*
X129106736Y-108058882D01*
X129121297Y-108056722D01*
X129136000Y-108056000D01*
X129436000Y-108056000D01*
X129450703Y-108056722D01*
X129450703Y-108056722D01*
G37*
D20*
X129286000Y-109031000D03*
D13*
G36*
X130720703Y-108056722D02*
G01*
X130735264Y-108058882D01*
X130749543Y-108062459D01*
X130763403Y-108067418D01*
X130776710Y-108073712D01*
X130789336Y-108081280D01*
X130801159Y-108090048D01*
X130812066Y-108099934D01*
X130821952Y-108110841D01*
X130830720Y-108122664D01*
X130838288Y-108135290D01*
X130844582Y-108148597D01*
X130849541Y-108162457D01*
X130853118Y-108176736D01*
X130855278Y-108191297D01*
X130856000Y-108206000D01*
X130856000Y-109856000D01*
X130855278Y-109870703D01*
X130853118Y-109885264D01*
X130849541Y-109899543D01*
X130844582Y-109913403D01*
X130838288Y-109926710D01*
X130830720Y-109939336D01*
X130821952Y-109951159D01*
X130812066Y-109962066D01*
X130801159Y-109971952D01*
X130789336Y-109980720D01*
X130776710Y-109988288D01*
X130763403Y-109994582D01*
X130749543Y-109999541D01*
X130735264Y-110003118D01*
X130720703Y-110005278D01*
X130706000Y-110006000D01*
X130406000Y-110006000D01*
X130391297Y-110005278D01*
X130376736Y-110003118D01*
X130362457Y-109999541D01*
X130348597Y-109994582D01*
X130335290Y-109988288D01*
X130322664Y-109980720D01*
X130310841Y-109971952D01*
X130299934Y-109962066D01*
X130290048Y-109951159D01*
X130281280Y-109939336D01*
X130273712Y-109926710D01*
X130267418Y-109913403D01*
X130262459Y-109899543D01*
X130258882Y-109885264D01*
X130256722Y-109870703D01*
X130256000Y-109856000D01*
X130256000Y-108206000D01*
X130256722Y-108191297D01*
X130258882Y-108176736D01*
X130262459Y-108162457D01*
X130267418Y-108148597D01*
X130273712Y-108135290D01*
X130281280Y-108122664D01*
X130290048Y-108110841D01*
X130299934Y-108099934D01*
X130310841Y-108090048D01*
X130322664Y-108081280D01*
X130335290Y-108073712D01*
X130348597Y-108067418D01*
X130362457Y-108062459D01*
X130376736Y-108058882D01*
X130391297Y-108056722D01*
X130406000Y-108056000D01*
X130706000Y-108056000D01*
X130720703Y-108056722D01*
X130720703Y-108056722D01*
G37*
D20*
X130556000Y-109031000D03*
D13*
G36*
X131990703Y-108056722D02*
G01*
X132005264Y-108058882D01*
X132019543Y-108062459D01*
X132033403Y-108067418D01*
X132046710Y-108073712D01*
X132059336Y-108081280D01*
X132071159Y-108090048D01*
X132082066Y-108099934D01*
X132091952Y-108110841D01*
X132100720Y-108122664D01*
X132108288Y-108135290D01*
X132114582Y-108148597D01*
X132119541Y-108162457D01*
X132123118Y-108176736D01*
X132125278Y-108191297D01*
X132126000Y-108206000D01*
X132126000Y-109856000D01*
X132125278Y-109870703D01*
X132123118Y-109885264D01*
X132119541Y-109899543D01*
X132114582Y-109913403D01*
X132108288Y-109926710D01*
X132100720Y-109939336D01*
X132091952Y-109951159D01*
X132082066Y-109962066D01*
X132071159Y-109971952D01*
X132059336Y-109980720D01*
X132046710Y-109988288D01*
X132033403Y-109994582D01*
X132019543Y-109999541D01*
X132005264Y-110003118D01*
X131990703Y-110005278D01*
X131976000Y-110006000D01*
X131676000Y-110006000D01*
X131661297Y-110005278D01*
X131646736Y-110003118D01*
X131632457Y-109999541D01*
X131618597Y-109994582D01*
X131605290Y-109988288D01*
X131592664Y-109980720D01*
X131580841Y-109971952D01*
X131569934Y-109962066D01*
X131560048Y-109951159D01*
X131551280Y-109939336D01*
X131543712Y-109926710D01*
X131537418Y-109913403D01*
X131532459Y-109899543D01*
X131528882Y-109885264D01*
X131526722Y-109870703D01*
X131526000Y-109856000D01*
X131526000Y-108206000D01*
X131526722Y-108191297D01*
X131528882Y-108176736D01*
X131532459Y-108162457D01*
X131537418Y-108148597D01*
X131543712Y-108135290D01*
X131551280Y-108122664D01*
X131560048Y-108110841D01*
X131569934Y-108099934D01*
X131580841Y-108090048D01*
X131592664Y-108081280D01*
X131605290Y-108073712D01*
X131618597Y-108067418D01*
X131632457Y-108062459D01*
X131646736Y-108058882D01*
X131661297Y-108056722D01*
X131676000Y-108056000D01*
X131976000Y-108056000D01*
X131990703Y-108056722D01*
X131990703Y-108056722D01*
G37*
D20*
X131826000Y-109031000D03*
D13*
G36*
X133260703Y-108056722D02*
G01*
X133275264Y-108058882D01*
X133289543Y-108062459D01*
X133303403Y-108067418D01*
X133316710Y-108073712D01*
X133329336Y-108081280D01*
X133341159Y-108090048D01*
X133352066Y-108099934D01*
X133361952Y-108110841D01*
X133370720Y-108122664D01*
X133378288Y-108135290D01*
X133384582Y-108148597D01*
X133389541Y-108162457D01*
X133393118Y-108176736D01*
X133395278Y-108191297D01*
X133396000Y-108206000D01*
X133396000Y-109856000D01*
X133395278Y-109870703D01*
X133393118Y-109885264D01*
X133389541Y-109899543D01*
X133384582Y-109913403D01*
X133378288Y-109926710D01*
X133370720Y-109939336D01*
X133361952Y-109951159D01*
X133352066Y-109962066D01*
X133341159Y-109971952D01*
X133329336Y-109980720D01*
X133316710Y-109988288D01*
X133303403Y-109994582D01*
X133289543Y-109999541D01*
X133275264Y-110003118D01*
X133260703Y-110005278D01*
X133246000Y-110006000D01*
X132946000Y-110006000D01*
X132931297Y-110005278D01*
X132916736Y-110003118D01*
X132902457Y-109999541D01*
X132888597Y-109994582D01*
X132875290Y-109988288D01*
X132862664Y-109980720D01*
X132850841Y-109971952D01*
X132839934Y-109962066D01*
X132830048Y-109951159D01*
X132821280Y-109939336D01*
X132813712Y-109926710D01*
X132807418Y-109913403D01*
X132802459Y-109899543D01*
X132798882Y-109885264D01*
X132796722Y-109870703D01*
X132796000Y-109856000D01*
X132796000Y-108206000D01*
X132796722Y-108191297D01*
X132798882Y-108176736D01*
X132802459Y-108162457D01*
X132807418Y-108148597D01*
X132813712Y-108135290D01*
X132821280Y-108122664D01*
X132830048Y-108110841D01*
X132839934Y-108099934D01*
X132850841Y-108090048D01*
X132862664Y-108081280D01*
X132875290Y-108073712D01*
X132888597Y-108067418D01*
X132902457Y-108062459D01*
X132916736Y-108058882D01*
X132931297Y-108056722D01*
X132946000Y-108056000D01*
X133246000Y-108056000D01*
X133260703Y-108056722D01*
X133260703Y-108056722D01*
G37*
D20*
X133096000Y-109031000D03*
D13*
G36*
X134530703Y-108056722D02*
G01*
X134545264Y-108058882D01*
X134559543Y-108062459D01*
X134573403Y-108067418D01*
X134586710Y-108073712D01*
X134599336Y-108081280D01*
X134611159Y-108090048D01*
X134622066Y-108099934D01*
X134631952Y-108110841D01*
X134640720Y-108122664D01*
X134648288Y-108135290D01*
X134654582Y-108148597D01*
X134659541Y-108162457D01*
X134663118Y-108176736D01*
X134665278Y-108191297D01*
X134666000Y-108206000D01*
X134666000Y-109856000D01*
X134665278Y-109870703D01*
X134663118Y-109885264D01*
X134659541Y-109899543D01*
X134654582Y-109913403D01*
X134648288Y-109926710D01*
X134640720Y-109939336D01*
X134631952Y-109951159D01*
X134622066Y-109962066D01*
X134611159Y-109971952D01*
X134599336Y-109980720D01*
X134586710Y-109988288D01*
X134573403Y-109994582D01*
X134559543Y-109999541D01*
X134545264Y-110003118D01*
X134530703Y-110005278D01*
X134516000Y-110006000D01*
X134216000Y-110006000D01*
X134201297Y-110005278D01*
X134186736Y-110003118D01*
X134172457Y-109999541D01*
X134158597Y-109994582D01*
X134145290Y-109988288D01*
X134132664Y-109980720D01*
X134120841Y-109971952D01*
X134109934Y-109962066D01*
X134100048Y-109951159D01*
X134091280Y-109939336D01*
X134083712Y-109926710D01*
X134077418Y-109913403D01*
X134072459Y-109899543D01*
X134068882Y-109885264D01*
X134066722Y-109870703D01*
X134066000Y-109856000D01*
X134066000Y-108206000D01*
X134066722Y-108191297D01*
X134068882Y-108176736D01*
X134072459Y-108162457D01*
X134077418Y-108148597D01*
X134083712Y-108135290D01*
X134091280Y-108122664D01*
X134100048Y-108110841D01*
X134109934Y-108099934D01*
X134120841Y-108090048D01*
X134132664Y-108081280D01*
X134145290Y-108073712D01*
X134158597Y-108067418D01*
X134172457Y-108062459D01*
X134186736Y-108058882D01*
X134201297Y-108056722D01*
X134216000Y-108056000D01*
X134516000Y-108056000D01*
X134530703Y-108056722D01*
X134530703Y-108056722D01*
G37*
D20*
X134366000Y-109031000D03*
D13*
G36*
X135800703Y-108056722D02*
G01*
X135815264Y-108058882D01*
X135829543Y-108062459D01*
X135843403Y-108067418D01*
X135856710Y-108073712D01*
X135869336Y-108081280D01*
X135881159Y-108090048D01*
X135892066Y-108099934D01*
X135901952Y-108110841D01*
X135910720Y-108122664D01*
X135918288Y-108135290D01*
X135924582Y-108148597D01*
X135929541Y-108162457D01*
X135933118Y-108176736D01*
X135935278Y-108191297D01*
X135936000Y-108206000D01*
X135936000Y-109856000D01*
X135935278Y-109870703D01*
X135933118Y-109885264D01*
X135929541Y-109899543D01*
X135924582Y-109913403D01*
X135918288Y-109926710D01*
X135910720Y-109939336D01*
X135901952Y-109951159D01*
X135892066Y-109962066D01*
X135881159Y-109971952D01*
X135869336Y-109980720D01*
X135856710Y-109988288D01*
X135843403Y-109994582D01*
X135829543Y-109999541D01*
X135815264Y-110003118D01*
X135800703Y-110005278D01*
X135786000Y-110006000D01*
X135486000Y-110006000D01*
X135471297Y-110005278D01*
X135456736Y-110003118D01*
X135442457Y-109999541D01*
X135428597Y-109994582D01*
X135415290Y-109988288D01*
X135402664Y-109980720D01*
X135390841Y-109971952D01*
X135379934Y-109962066D01*
X135370048Y-109951159D01*
X135361280Y-109939336D01*
X135353712Y-109926710D01*
X135347418Y-109913403D01*
X135342459Y-109899543D01*
X135338882Y-109885264D01*
X135336722Y-109870703D01*
X135336000Y-109856000D01*
X135336000Y-108206000D01*
X135336722Y-108191297D01*
X135338882Y-108176736D01*
X135342459Y-108162457D01*
X135347418Y-108148597D01*
X135353712Y-108135290D01*
X135361280Y-108122664D01*
X135370048Y-108110841D01*
X135379934Y-108099934D01*
X135390841Y-108090048D01*
X135402664Y-108081280D01*
X135415290Y-108073712D01*
X135428597Y-108067418D01*
X135442457Y-108062459D01*
X135456736Y-108058882D01*
X135471297Y-108056722D01*
X135486000Y-108056000D01*
X135786000Y-108056000D01*
X135800703Y-108056722D01*
X135800703Y-108056722D01*
G37*
D20*
X135636000Y-109031000D03*
D13*
G36*
X137070703Y-108056722D02*
G01*
X137085264Y-108058882D01*
X137099543Y-108062459D01*
X137113403Y-108067418D01*
X137126710Y-108073712D01*
X137139336Y-108081280D01*
X137151159Y-108090048D01*
X137162066Y-108099934D01*
X137171952Y-108110841D01*
X137180720Y-108122664D01*
X137188288Y-108135290D01*
X137194582Y-108148597D01*
X137199541Y-108162457D01*
X137203118Y-108176736D01*
X137205278Y-108191297D01*
X137206000Y-108206000D01*
X137206000Y-109856000D01*
X137205278Y-109870703D01*
X137203118Y-109885264D01*
X137199541Y-109899543D01*
X137194582Y-109913403D01*
X137188288Y-109926710D01*
X137180720Y-109939336D01*
X137171952Y-109951159D01*
X137162066Y-109962066D01*
X137151159Y-109971952D01*
X137139336Y-109980720D01*
X137126710Y-109988288D01*
X137113403Y-109994582D01*
X137099543Y-109999541D01*
X137085264Y-110003118D01*
X137070703Y-110005278D01*
X137056000Y-110006000D01*
X136756000Y-110006000D01*
X136741297Y-110005278D01*
X136726736Y-110003118D01*
X136712457Y-109999541D01*
X136698597Y-109994582D01*
X136685290Y-109988288D01*
X136672664Y-109980720D01*
X136660841Y-109971952D01*
X136649934Y-109962066D01*
X136640048Y-109951159D01*
X136631280Y-109939336D01*
X136623712Y-109926710D01*
X136617418Y-109913403D01*
X136612459Y-109899543D01*
X136608882Y-109885264D01*
X136606722Y-109870703D01*
X136606000Y-109856000D01*
X136606000Y-108206000D01*
X136606722Y-108191297D01*
X136608882Y-108176736D01*
X136612459Y-108162457D01*
X136617418Y-108148597D01*
X136623712Y-108135290D01*
X136631280Y-108122664D01*
X136640048Y-108110841D01*
X136649934Y-108099934D01*
X136660841Y-108090048D01*
X136672664Y-108081280D01*
X136685290Y-108073712D01*
X136698597Y-108067418D01*
X136712457Y-108062459D01*
X136726736Y-108058882D01*
X136741297Y-108056722D01*
X136756000Y-108056000D01*
X137056000Y-108056000D01*
X137070703Y-108056722D01*
X137070703Y-108056722D01*
G37*
D20*
X136906000Y-109031000D03*
D13*
G36*
X137070703Y-113006722D02*
G01*
X137085264Y-113008882D01*
X137099543Y-113012459D01*
X137113403Y-113017418D01*
X137126710Y-113023712D01*
X137139336Y-113031280D01*
X137151159Y-113040048D01*
X137162066Y-113049934D01*
X137171952Y-113060841D01*
X137180720Y-113072664D01*
X137188288Y-113085290D01*
X137194582Y-113098597D01*
X137199541Y-113112457D01*
X137203118Y-113126736D01*
X137205278Y-113141297D01*
X137206000Y-113156000D01*
X137206000Y-114806000D01*
X137205278Y-114820703D01*
X137203118Y-114835264D01*
X137199541Y-114849543D01*
X137194582Y-114863403D01*
X137188288Y-114876710D01*
X137180720Y-114889336D01*
X137171952Y-114901159D01*
X137162066Y-114912066D01*
X137151159Y-114921952D01*
X137139336Y-114930720D01*
X137126710Y-114938288D01*
X137113403Y-114944582D01*
X137099543Y-114949541D01*
X137085264Y-114953118D01*
X137070703Y-114955278D01*
X137056000Y-114956000D01*
X136756000Y-114956000D01*
X136741297Y-114955278D01*
X136726736Y-114953118D01*
X136712457Y-114949541D01*
X136698597Y-114944582D01*
X136685290Y-114938288D01*
X136672664Y-114930720D01*
X136660841Y-114921952D01*
X136649934Y-114912066D01*
X136640048Y-114901159D01*
X136631280Y-114889336D01*
X136623712Y-114876710D01*
X136617418Y-114863403D01*
X136612459Y-114849543D01*
X136608882Y-114835264D01*
X136606722Y-114820703D01*
X136606000Y-114806000D01*
X136606000Y-113156000D01*
X136606722Y-113141297D01*
X136608882Y-113126736D01*
X136612459Y-113112457D01*
X136617418Y-113098597D01*
X136623712Y-113085290D01*
X136631280Y-113072664D01*
X136640048Y-113060841D01*
X136649934Y-113049934D01*
X136660841Y-113040048D01*
X136672664Y-113031280D01*
X136685290Y-113023712D01*
X136698597Y-113017418D01*
X136712457Y-113012459D01*
X136726736Y-113008882D01*
X136741297Y-113006722D01*
X136756000Y-113006000D01*
X137056000Y-113006000D01*
X137070703Y-113006722D01*
X137070703Y-113006722D01*
G37*
D20*
X136906000Y-113981000D03*
D13*
G36*
X135800703Y-113006722D02*
G01*
X135815264Y-113008882D01*
X135829543Y-113012459D01*
X135843403Y-113017418D01*
X135856710Y-113023712D01*
X135869336Y-113031280D01*
X135881159Y-113040048D01*
X135892066Y-113049934D01*
X135901952Y-113060841D01*
X135910720Y-113072664D01*
X135918288Y-113085290D01*
X135924582Y-113098597D01*
X135929541Y-113112457D01*
X135933118Y-113126736D01*
X135935278Y-113141297D01*
X135936000Y-113156000D01*
X135936000Y-114806000D01*
X135935278Y-114820703D01*
X135933118Y-114835264D01*
X135929541Y-114849543D01*
X135924582Y-114863403D01*
X135918288Y-114876710D01*
X135910720Y-114889336D01*
X135901952Y-114901159D01*
X135892066Y-114912066D01*
X135881159Y-114921952D01*
X135869336Y-114930720D01*
X135856710Y-114938288D01*
X135843403Y-114944582D01*
X135829543Y-114949541D01*
X135815264Y-114953118D01*
X135800703Y-114955278D01*
X135786000Y-114956000D01*
X135486000Y-114956000D01*
X135471297Y-114955278D01*
X135456736Y-114953118D01*
X135442457Y-114949541D01*
X135428597Y-114944582D01*
X135415290Y-114938288D01*
X135402664Y-114930720D01*
X135390841Y-114921952D01*
X135379934Y-114912066D01*
X135370048Y-114901159D01*
X135361280Y-114889336D01*
X135353712Y-114876710D01*
X135347418Y-114863403D01*
X135342459Y-114849543D01*
X135338882Y-114835264D01*
X135336722Y-114820703D01*
X135336000Y-114806000D01*
X135336000Y-113156000D01*
X135336722Y-113141297D01*
X135338882Y-113126736D01*
X135342459Y-113112457D01*
X135347418Y-113098597D01*
X135353712Y-113085290D01*
X135361280Y-113072664D01*
X135370048Y-113060841D01*
X135379934Y-113049934D01*
X135390841Y-113040048D01*
X135402664Y-113031280D01*
X135415290Y-113023712D01*
X135428597Y-113017418D01*
X135442457Y-113012459D01*
X135456736Y-113008882D01*
X135471297Y-113006722D01*
X135486000Y-113006000D01*
X135786000Y-113006000D01*
X135800703Y-113006722D01*
X135800703Y-113006722D01*
G37*
D20*
X135636000Y-113981000D03*
D13*
G36*
X134530703Y-113006722D02*
G01*
X134545264Y-113008882D01*
X134559543Y-113012459D01*
X134573403Y-113017418D01*
X134586710Y-113023712D01*
X134599336Y-113031280D01*
X134611159Y-113040048D01*
X134622066Y-113049934D01*
X134631952Y-113060841D01*
X134640720Y-113072664D01*
X134648288Y-113085290D01*
X134654582Y-113098597D01*
X134659541Y-113112457D01*
X134663118Y-113126736D01*
X134665278Y-113141297D01*
X134666000Y-113156000D01*
X134666000Y-114806000D01*
X134665278Y-114820703D01*
X134663118Y-114835264D01*
X134659541Y-114849543D01*
X134654582Y-114863403D01*
X134648288Y-114876710D01*
X134640720Y-114889336D01*
X134631952Y-114901159D01*
X134622066Y-114912066D01*
X134611159Y-114921952D01*
X134599336Y-114930720D01*
X134586710Y-114938288D01*
X134573403Y-114944582D01*
X134559543Y-114949541D01*
X134545264Y-114953118D01*
X134530703Y-114955278D01*
X134516000Y-114956000D01*
X134216000Y-114956000D01*
X134201297Y-114955278D01*
X134186736Y-114953118D01*
X134172457Y-114949541D01*
X134158597Y-114944582D01*
X134145290Y-114938288D01*
X134132664Y-114930720D01*
X134120841Y-114921952D01*
X134109934Y-114912066D01*
X134100048Y-114901159D01*
X134091280Y-114889336D01*
X134083712Y-114876710D01*
X134077418Y-114863403D01*
X134072459Y-114849543D01*
X134068882Y-114835264D01*
X134066722Y-114820703D01*
X134066000Y-114806000D01*
X134066000Y-113156000D01*
X134066722Y-113141297D01*
X134068882Y-113126736D01*
X134072459Y-113112457D01*
X134077418Y-113098597D01*
X134083712Y-113085290D01*
X134091280Y-113072664D01*
X134100048Y-113060841D01*
X134109934Y-113049934D01*
X134120841Y-113040048D01*
X134132664Y-113031280D01*
X134145290Y-113023712D01*
X134158597Y-113017418D01*
X134172457Y-113012459D01*
X134186736Y-113008882D01*
X134201297Y-113006722D01*
X134216000Y-113006000D01*
X134516000Y-113006000D01*
X134530703Y-113006722D01*
X134530703Y-113006722D01*
G37*
D20*
X134366000Y-113981000D03*
D13*
G36*
X133260703Y-113006722D02*
G01*
X133275264Y-113008882D01*
X133289543Y-113012459D01*
X133303403Y-113017418D01*
X133316710Y-113023712D01*
X133329336Y-113031280D01*
X133341159Y-113040048D01*
X133352066Y-113049934D01*
X133361952Y-113060841D01*
X133370720Y-113072664D01*
X133378288Y-113085290D01*
X133384582Y-113098597D01*
X133389541Y-113112457D01*
X133393118Y-113126736D01*
X133395278Y-113141297D01*
X133396000Y-113156000D01*
X133396000Y-114806000D01*
X133395278Y-114820703D01*
X133393118Y-114835264D01*
X133389541Y-114849543D01*
X133384582Y-114863403D01*
X133378288Y-114876710D01*
X133370720Y-114889336D01*
X133361952Y-114901159D01*
X133352066Y-114912066D01*
X133341159Y-114921952D01*
X133329336Y-114930720D01*
X133316710Y-114938288D01*
X133303403Y-114944582D01*
X133289543Y-114949541D01*
X133275264Y-114953118D01*
X133260703Y-114955278D01*
X133246000Y-114956000D01*
X132946000Y-114956000D01*
X132931297Y-114955278D01*
X132916736Y-114953118D01*
X132902457Y-114949541D01*
X132888597Y-114944582D01*
X132875290Y-114938288D01*
X132862664Y-114930720D01*
X132850841Y-114921952D01*
X132839934Y-114912066D01*
X132830048Y-114901159D01*
X132821280Y-114889336D01*
X132813712Y-114876710D01*
X132807418Y-114863403D01*
X132802459Y-114849543D01*
X132798882Y-114835264D01*
X132796722Y-114820703D01*
X132796000Y-114806000D01*
X132796000Y-113156000D01*
X132796722Y-113141297D01*
X132798882Y-113126736D01*
X132802459Y-113112457D01*
X132807418Y-113098597D01*
X132813712Y-113085290D01*
X132821280Y-113072664D01*
X132830048Y-113060841D01*
X132839934Y-113049934D01*
X132850841Y-113040048D01*
X132862664Y-113031280D01*
X132875290Y-113023712D01*
X132888597Y-113017418D01*
X132902457Y-113012459D01*
X132916736Y-113008882D01*
X132931297Y-113006722D01*
X132946000Y-113006000D01*
X133246000Y-113006000D01*
X133260703Y-113006722D01*
X133260703Y-113006722D01*
G37*
D20*
X133096000Y-113981000D03*
D13*
G36*
X131990703Y-113006722D02*
G01*
X132005264Y-113008882D01*
X132019543Y-113012459D01*
X132033403Y-113017418D01*
X132046710Y-113023712D01*
X132059336Y-113031280D01*
X132071159Y-113040048D01*
X132082066Y-113049934D01*
X132091952Y-113060841D01*
X132100720Y-113072664D01*
X132108288Y-113085290D01*
X132114582Y-113098597D01*
X132119541Y-113112457D01*
X132123118Y-113126736D01*
X132125278Y-113141297D01*
X132126000Y-113156000D01*
X132126000Y-114806000D01*
X132125278Y-114820703D01*
X132123118Y-114835264D01*
X132119541Y-114849543D01*
X132114582Y-114863403D01*
X132108288Y-114876710D01*
X132100720Y-114889336D01*
X132091952Y-114901159D01*
X132082066Y-114912066D01*
X132071159Y-114921952D01*
X132059336Y-114930720D01*
X132046710Y-114938288D01*
X132033403Y-114944582D01*
X132019543Y-114949541D01*
X132005264Y-114953118D01*
X131990703Y-114955278D01*
X131976000Y-114956000D01*
X131676000Y-114956000D01*
X131661297Y-114955278D01*
X131646736Y-114953118D01*
X131632457Y-114949541D01*
X131618597Y-114944582D01*
X131605290Y-114938288D01*
X131592664Y-114930720D01*
X131580841Y-114921952D01*
X131569934Y-114912066D01*
X131560048Y-114901159D01*
X131551280Y-114889336D01*
X131543712Y-114876710D01*
X131537418Y-114863403D01*
X131532459Y-114849543D01*
X131528882Y-114835264D01*
X131526722Y-114820703D01*
X131526000Y-114806000D01*
X131526000Y-113156000D01*
X131526722Y-113141297D01*
X131528882Y-113126736D01*
X131532459Y-113112457D01*
X131537418Y-113098597D01*
X131543712Y-113085290D01*
X131551280Y-113072664D01*
X131560048Y-113060841D01*
X131569934Y-113049934D01*
X131580841Y-113040048D01*
X131592664Y-113031280D01*
X131605290Y-113023712D01*
X131618597Y-113017418D01*
X131632457Y-113012459D01*
X131646736Y-113008882D01*
X131661297Y-113006722D01*
X131676000Y-113006000D01*
X131976000Y-113006000D01*
X131990703Y-113006722D01*
X131990703Y-113006722D01*
G37*
D20*
X131826000Y-113981000D03*
D13*
G36*
X130720703Y-113006722D02*
G01*
X130735264Y-113008882D01*
X130749543Y-113012459D01*
X130763403Y-113017418D01*
X130776710Y-113023712D01*
X130789336Y-113031280D01*
X130801159Y-113040048D01*
X130812066Y-113049934D01*
X130821952Y-113060841D01*
X130830720Y-113072664D01*
X130838288Y-113085290D01*
X130844582Y-113098597D01*
X130849541Y-113112457D01*
X130853118Y-113126736D01*
X130855278Y-113141297D01*
X130856000Y-113156000D01*
X130856000Y-114806000D01*
X130855278Y-114820703D01*
X130853118Y-114835264D01*
X130849541Y-114849543D01*
X130844582Y-114863403D01*
X130838288Y-114876710D01*
X130830720Y-114889336D01*
X130821952Y-114901159D01*
X130812066Y-114912066D01*
X130801159Y-114921952D01*
X130789336Y-114930720D01*
X130776710Y-114938288D01*
X130763403Y-114944582D01*
X130749543Y-114949541D01*
X130735264Y-114953118D01*
X130720703Y-114955278D01*
X130706000Y-114956000D01*
X130406000Y-114956000D01*
X130391297Y-114955278D01*
X130376736Y-114953118D01*
X130362457Y-114949541D01*
X130348597Y-114944582D01*
X130335290Y-114938288D01*
X130322664Y-114930720D01*
X130310841Y-114921952D01*
X130299934Y-114912066D01*
X130290048Y-114901159D01*
X130281280Y-114889336D01*
X130273712Y-114876710D01*
X130267418Y-114863403D01*
X130262459Y-114849543D01*
X130258882Y-114835264D01*
X130256722Y-114820703D01*
X130256000Y-114806000D01*
X130256000Y-113156000D01*
X130256722Y-113141297D01*
X130258882Y-113126736D01*
X130262459Y-113112457D01*
X130267418Y-113098597D01*
X130273712Y-113085290D01*
X130281280Y-113072664D01*
X130290048Y-113060841D01*
X130299934Y-113049934D01*
X130310841Y-113040048D01*
X130322664Y-113031280D01*
X130335290Y-113023712D01*
X130348597Y-113017418D01*
X130362457Y-113012459D01*
X130376736Y-113008882D01*
X130391297Y-113006722D01*
X130406000Y-113006000D01*
X130706000Y-113006000D01*
X130720703Y-113006722D01*
X130720703Y-113006722D01*
G37*
D20*
X130556000Y-113981000D03*
D13*
G36*
X129450703Y-113006722D02*
G01*
X129465264Y-113008882D01*
X129479543Y-113012459D01*
X129493403Y-113017418D01*
X129506710Y-113023712D01*
X129519336Y-113031280D01*
X129531159Y-113040048D01*
X129542066Y-113049934D01*
X129551952Y-113060841D01*
X129560720Y-113072664D01*
X129568288Y-113085290D01*
X129574582Y-113098597D01*
X129579541Y-113112457D01*
X129583118Y-113126736D01*
X129585278Y-113141297D01*
X129586000Y-113156000D01*
X129586000Y-114806000D01*
X129585278Y-114820703D01*
X129583118Y-114835264D01*
X129579541Y-114849543D01*
X129574582Y-114863403D01*
X129568288Y-114876710D01*
X129560720Y-114889336D01*
X129551952Y-114901159D01*
X129542066Y-114912066D01*
X129531159Y-114921952D01*
X129519336Y-114930720D01*
X129506710Y-114938288D01*
X129493403Y-114944582D01*
X129479543Y-114949541D01*
X129465264Y-114953118D01*
X129450703Y-114955278D01*
X129436000Y-114956000D01*
X129136000Y-114956000D01*
X129121297Y-114955278D01*
X129106736Y-114953118D01*
X129092457Y-114949541D01*
X129078597Y-114944582D01*
X129065290Y-114938288D01*
X129052664Y-114930720D01*
X129040841Y-114921952D01*
X129029934Y-114912066D01*
X129020048Y-114901159D01*
X129011280Y-114889336D01*
X129003712Y-114876710D01*
X128997418Y-114863403D01*
X128992459Y-114849543D01*
X128988882Y-114835264D01*
X128986722Y-114820703D01*
X128986000Y-114806000D01*
X128986000Y-113156000D01*
X128986722Y-113141297D01*
X128988882Y-113126736D01*
X128992459Y-113112457D01*
X128997418Y-113098597D01*
X129003712Y-113085290D01*
X129011280Y-113072664D01*
X129020048Y-113060841D01*
X129029934Y-113049934D01*
X129040841Y-113040048D01*
X129052664Y-113031280D01*
X129065290Y-113023712D01*
X129078597Y-113017418D01*
X129092457Y-113012459D01*
X129106736Y-113008882D01*
X129121297Y-113006722D01*
X129136000Y-113006000D01*
X129436000Y-113006000D01*
X129450703Y-113006722D01*
X129450703Y-113006722D01*
G37*
D20*
X129286000Y-113981000D03*
D22*
X176276000Y-119634000D03*
X181276000Y-119634000D03*
X186276000Y-119634000D03*
X159512000Y-119634000D03*
X164512000Y-119634000D03*
X169512000Y-119634000D03*
D13*
G36*
X135395642Y-119443174D02*
G01*
X135419303Y-119446684D01*
X135442507Y-119452496D01*
X135465029Y-119460554D01*
X135486653Y-119470782D01*
X135507170Y-119483079D01*
X135526383Y-119497329D01*
X135544107Y-119513393D01*
X135560171Y-119531117D01*
X135574421Y-119550330D01*
X135586718Y-119570847D01*
X135596946Y-119592471D01*
X135605004Y-119614993D01*
X135610816Y-119638197D01*
X135614326Y-119661858D01*
X135615500Y-119685750D01*
X135615500Y-120598250D01*
X135614326Y-120622142D01*
X135610816Y-120645803D01*
X135605004Y-120669007D01*
X135596946Y-120691529D01*
X135586718Y-120713153D01*
X135574421Y-120733670D01*
X135560171Y-120752883D01*
X135544107Y-120770607D01*
X135526383Y-120786671D01*
X135507170Y-120800921D01*
X135486653Y-120813218D01*
X135465029Y-120823446D01*
X135442507Y-120831504D01*
X135419303Y-120837316D01*
X135395642Y-120840826D01*
X135371750Y-120842000D01*
X134884250Y-120842000D01*
X134860358Y-120840826D01*
X134836697Y-120837316D01*
X134813493Y-120831504D01*
X134790971Y-120823446D01*
X134769347Y-120813218D01*
X134748830Y-120800921D01*
X134729617Y-120786671D01*
X134711893Y-120770607D01*
X134695829Y-120752883D01*
X134681579Y-120733670D01*
X134669282Y-120713153D01*
X134659054Y-120691529D01*
X134650996Y-120669007D01*
X134645184Y-120645803D01*
X134641674Y-120622142D01*
X134640500Y-120598250D01*
X134640500Y-119685750D01*
X134641674Y-119661858D01*
X134645184Y-119638197D01*
X134650996Y-119614993D01*
X134659054Y-119592471D01*
X134669282Y-119570847D01*
X134681579Y-119550330D01*
X134695829Y-119531117D01*
X134711893Y-119513393D01*
X134729617Y-119497329D01*
X134748830Y-119483079D01*
X134769347Y-119470782D01*
X134790971Y-119460554D01*
X134813493Y-119452496D01*
X134836697Y-119446684D01*
X134860358Y-119443174D01*
X134884250Y-119442000D01*
X135371750Y-119442000D01*
X135395642Y-119443174D01*
X135395642Y-119443174D01*
G37*
D14*
X135128000Y-120142000D03*
D13*
G36*
X133520642Y-119443174D02*
G01*
X133544303Y-119446684D01*
X133567507Y-119452496D01*
X133590029Y-119460554D01*
X133611653Y-119470782D01*
X133632170Y-119483079D01*
X133651383Y-119497329D01*
X133669107Y-119513393D01*
X133685171Y-119531117D01*
X133699421Y-119550330D01*
X133711718Y-119570847D01*
X133721946Y-119592471D01*
X133730004Y-119614993D01*
X133735816Y-119638197D01*
X133739326Y-119661858D01*
X133740500Y-119685750D01*
X133740500Y-120598250D01*
X133739326Y-120622142D01*
X133735816Y-120645803D01*
X133730004Y-120669007D01*
X133721946Y-120691529D01*
X133711718Y-120713153D01*
X133699421Y-120733670D01*
X133685171Y-120752883D01*
X133669107Y-120770607D01*
X133651383Y-120786671D01*
X133632170Y-120800921D01*
X133611653Y-120813218D01*
X133590029Y-120823446D01*
X133567507Y-120831504D01*
X133544303Y-120837316D01*
X133520642Y-120840826D01*
X133496750Y-120842000D01*
X133009250Y-120842000D01*
X132985358Y-120840826D01*
X132961697Y-120837316D01*
X132938493Y-120831504D01*
X132915971Y-120823446D01*
X132894347Y-120813218D01*
X132873830Y-120800921D01*
X132854617Y-120786671D01*
X132836893Y-120770607D01*
X132820829Y-120752883D01*
X132806579Y-120733670D01*
X132794282Y-120713153D01*
X132784054Y-120691529D01*
X132775996Y-120669007D01*
X132770184Y-120645803D01*
X132766674Y-120622142D01*
X132765500Y-120598250D01*
X132765500Y-119685750D01*
X132766674Y-119661858D01*
X132770184Y-119638197D01*
X132775996Y-119614993D01*
X132784054Y-119592471D01*
X132794282Y-119570847D01*
X132806579Y-119550330D01*
X132820829Y-119531117D01*
X132836893Y-119513393D01*
X132854617Y-119497329D01*
X132873830Y-119483079D01*
X132894347Y-119470782D01*
X132915971Y-119460554D01*
X132938493Y-119452496D01*
X132961697Y-119446684D01*
X132985358Y-119443174D01*
X133009250Y-119442000D01*
X133496750Y-119442000D01*
X133520642Y-119443174D01*
X133520642Y-119443174D01*
G37*
D14*
X133253000Y-120142000D03*
D13*
G36*
X129807642Y-116395174D02*
G01*
X129831303Y-116398684D01*
X129854507Y-116404496D01*
X129877029Y-116412554D01*
X129898653Y-116422782D01*
X129919170Y-116435079D01*
X129938383Y-116449329D01*
X129956107Y-116465393D01*
X129972171Y-116483117D01*
X129986421Y-116502330D01*
X129998718Y-116522847D01*
X130008946Y-116544471D01*
X130017004Y-116566993D01*
X130022816Y-116590197D01*
X130026326Y-116613858D01*
X130027500Y-116637750D01*
X130027500Y-117550250D01*
X130026326Y-117574142D01*
X130022816Y-117597803D01*
X130017004Y-117621007D01*
X130008946Y-117643529D01*
X129998718Y-117665153D01*
X129986421Y-117685670D01*
X129972171Y-117704883D01*
X129956107Y-117722607D01*
X129938383Y-117738671D01*
X129919170Y-117752921D01*
X129898653Y-117765218D01*
X129877029Y-117775446D01*
X129854507Y-117783504D01*
X129831303Y-117789316D01*
X129807642Y-117792826D01*
X129783750Y-117794000D01*
X129296250Y-117794000D01*
X129272358Y-117792826D01*
X129248697Y-117789316D01*
X129225493Y-117783504D01*
X129202971Y-117775446D01*
X129181347Y-117765218D01*
X129160830Y-117752921D01*
X129141617Y-117738671D01*
X129123893Y-117722607D01*
X129107829Y-117704883D01*
X129093579Y-117685670D01*
X129081282Y-117665153D01*
X129071054Y-117643529D01*
X129062996Y-117621007D01*
X129057184Y-117597803D01*
X129053674Y-117574142D01*
X129052500Y-117550250D01*
X129052500Y-116637750D01*
X129053674Y-116613858D01*
X129057184Y-116590197D01*
X129062996Y-116566993D01*
X129071054Y-116544471D01*
X129081282Y-116522847D01*
X129093579Y-116502330D01*
X129107829Y-116483117D01*
X129123893Y-116465393D01*
X129141617Y-116449329D01*
X129160830Y-116435079D01*
X129181347Y-116422782D01*
X129202971Y-116412554D01*
X129225493Y-116404496D01*
X129248697Y-116398684D01*
X129272358Y-116395174D01*
X129296250Y-116394000D01*
X129783750Y-116394000D01*
X129807642Y-116395174D01*
X129807642Y-116395174D01*
G37*
D14*
X129540000Y-117094000D03*
D13*
G36*
X131682642Y-116395174D02*
G01*
X131706303Y-116398684D01*
X131729507Y-116404496D01*
X131752029Y-116412554D01*
X131773653Y-116422782D01*
X131794170Y-116435079D01*
X131813383Y-116449329D01*
X131831107Y-116465393D01*
X131847171Y-116483117D01*
X131861421Y-116502330D01*
X131873718Y-116522847D01*
X131883946Y-116544471D01*
X131892004Y-116566993D01*
X131897816Y-116590197D01*
X131901326Y-116613858D01*
X131902500Y-116637750D01*
X131902500Y-117550250D01*
X131901326Y-117574142D01*
X131897816Y-117597803D01*
X131892004Y-117621007D01*
X131883946Y-117643529D01*
X131873718Y-117665153D01*
X131861421Y-117685670D01*
X131847171Y-117704883D01*
X131831107Y-117722607D01*
X131813383Y-117738671D01*
X131794170Y-117752921D01*
X131773653Y-117765218D01*
X131752029Y-117775446D01*
X131729507Y-117783504D01*
X131706303Y-117789316D01*
X131682642Y-117792826D01*
X131658750Y-117794000D01*
X131171250Y-117794000D01*
X131147358Y-117792826D01*
X131123697Y-117789316D01*
X131100493Y-117783504D01*
X131077971Y-117775446D01*
X131056347Y-117765218D01*
X131035830Y-117752921D01*
X131016617Y-117738671D01*
X130998893Y-117722607D01*
X130982829Y-117704883D01*
X130968579Y-117685670D01*
X130956282Y-117665153D01*
X130946054Y-117643529D01*
X130937996Y-117621007D01*
X130932184Y-117597803D01*
X130928674Y-117574142D01*
X130927500Y-117550250D01*
X130927500Y-116637750D01*
X130928674Y-116613858D01*
X130932184Y-116590197D01*
X130937996Y-116566993D01*
X130946054Y-116544471D01*
X130956282Y-116522847D01*
X130968579Y-116502330D01*
X130982829Y-116483117D01*
X130998893Y-116465393D01*
X131016617Y-116449329D01*
X131035830Y-116435079D01*
X131056347Y-116422782D01*
X131077971Y-116412554D01*
X131100493Y-116404496D01*
X131123697Y-116398684D01*
X131147358Y-116395174D01*
X131171250Y-116394000D01*
X131658750Y-116394000D01*
X131682642Y-116395174D01*
X131682642Y-116395174D01*
G37*
D14*
X131415000Y-117094000D03*
D23*
X106172000Y-119634000D03*
D24*
X106172000Y-117094000D03*
D23*
X141224000Y-119634000D03*
D24*
X138684000Y-119634000D03*
D23*
X142748000Y-110998000D03*
X142748000Y-108458000D03*
X145288000Y-110998000D03*
X145288000Y-108458000D03*
X147828000Y-110998000D03*
D24*
X147828000Y-108458000D03*
D25*
X106172000Y-110872000D03*
X106172000Y-114172000D03*
D13*
G36*
X131331642Y-119443174D02*
G01*
X131355303Y-119446684D01*
X131378507Y-119452496D01*
X131401029Y-119460554D01*
X131422653Y-119470782D01*
X131443170Y-119483079D01*
X131462383Y-119497329D01*
X131480107Y-119513393D01*
X131496171Y-119531117D01*
X131510421Y-119550330D01*
X131522718Y-119570847D01*
X131532946Y-119592471D01*
X131541004Y-119614993D01*
X131546816Y-119638197D01*
X131550326Y-119661858D01*
X131551500Y-119685750D01*
X131551500Y-120598250D01*
X131550326Y-120622142D01*
X131546816Y-120645803D01*
X131541004Y-120669007D01*
X131532946Y-120691529D01*
X131522718Y-120713153D01*
X131510421Y-120733670D01*
X131496171Y-120752883D01*
X131480107Y-120770607D01*
X131462383Y-120786671D01*
X131443170Y-120800921D01*
X131422653Y-120813218D01*
X131401029Y-120823446D01*
X131378507Y-120831504D01*
X131355303Y-120837316D01*
X131331642Y-120840826D01*
X131307750Y-120842000D01*
X130820250Y-120842000D01*
X130796358Y-120840826D01*
X130772697Y-120837316D01*
X130749493Y-120831504D01*
X130726971Y-120823446D01*
X130705347Y-120813218D01*
X130684830Y-120800921D01*
X130665617Y-120786671D01*
X130647893Y-120770607D01*
X130631829Y-120752883D01*
X130617579Y-120733670D01*
X130605282Y-120713153D01*
X130595054Y-120691529D01*
X130586996Y-120669007D01*
X130581184Y-120645803D01*
X130577674Y-120622142D01*
X130576500Y-120598250D01*
X130576500Y-119685750D01*
X130577674Y-119661858D01*
X130581184Y-119638197D01*
X130586996Y-119614993D01*
X130595054Y-119592471D01*
X130605282Y-119570847D01*
X130617579Y-119550330D01*
X130631829Y-119531117D01*
X130647893Y-119513393D01*
X130665617Y-119497329D01*
X130684830Y-119483079D01*
X130705347Y-119470782D01*
X130726971Y-119460554D01*
X130749493Y-119452496D01*
X130772697Y-119446684D01*
X130796358Y-119443174D01*
X130820250Y-119442000D01*
X131307750Y-119442000D01*
X131331642Y-119443174D01*
X131331642Y-119443174D01*
G37*
D14*
X131064000Y-120142000D03*
D13*
G36*
X129456642Y-119443174D02*
G01*
X129480303Y-119446684D01*
X129503507Y-119452496D01*
X129526029Y-119460554D01*
X129547653Y-119470782D01*
X129568170Y-119483079D01*
X129587383Y-119497329D01*
X129605107Y-119513393D01*
X129621171Y-119531117D01*
X129635421Y-119550330D01*
X129647718Y-119570847D01*
X129657946Y-119592471D01*
X129666004Y-119614993D01*
X129671816Y-119638197D01*
X129675326Y-119661858D01*
X129676500Y-119685750D01*
X129676500Y-120598250D01*
X129675326Y-120622142D01*
X129671816Y-120645803D01*
X129666004Y-120669007D01*
X129657946Y-120691529D01*
X129647718Y-120713153D01*
X129635421Y-120733670D01*
X129621171Y-120752883D01*
X129605107Y-120770607D01*
X129587383Y-120786671D01*
X129568170Y-120800921D01*
X129547653Y-120813218D01*
X129526029Y-120823446D01*
X129503507Y-120831504D01*
X129480303Y-120837316D01*
X129456642Y-120840826D01*
X129432750Y-120842000D01*
X128945250Y-120842000D01*
X128921358Y-120840826D01*
X128897697Y-120837316D01*
X128874493Y-120831504D01*
X128851971Y-120823446D01*
X128830347Y-120813218D01*
X128809830Y-120800921D01*
X128790617Y-120786671D01*
X128772893Y-120770607D01*
X128756829Y-120752883D01*
X128742579Y-120733670D01*
X128730282Y-120713153D01*
X128720054Y-120691529D01*
X128711996Y-120669007D01*
X128706184Y-120645803D01*
X128702674Y-120622142D01*
X128701500Y-120598250D01*
X128701500Y-119685750D01*
X128702674Y-119661858D01*
X128706184Y-119638197D01*
X128711996Y-119614993D01*
X128720054Y-119592471D01*
X128730282Y-119570847D01*
X128742579Y-119550330D01*
X128756829Y-119531117D01*
X128772893Y-119513393D01*
X128790617Y-119497329D01*
X128809830Y-119483079D01*
X128830347Y-119470782D01*
X128851971Y-119460554D01*
X128874493Y-119452496D01*
X128897697Y-119446684D01*
X128921358Y-119443174D01*
X128945250Y-119442000D01*
X129432750Y-119442000D01*
X129456642Y-119443174D01*
X129456642Y-119443174D01*
G37*
D14*
X129189000Y-120142000D03*
D13*
G36*
X117615642Y-113855174D02*
G01*
X117639303Y-113858684D01*
X117662507Y-113864496D01*
X117685029Y-113872554D01*
X117706653Y-113882782D01*
X117727170Y-113895079D01*
X117746383Y-113909329D01*
X117764107Y-113925393D01*
X117780171Y-113943117D01*
X117794421Y-113962330D01*
X117806718Y-113982847D01*
X117816946Y-114004471D01*
X117825004Y-114026993D01*
X117830816Y-114050197D01*
X117834326Y-114073858D01*
X117835500Y-114097750D01*
X117835500Y-115010250D01*
X117834326Y-115034142D01*
X117830816Y-115057803D01*
X117825004Y-115081007D01*
X117816946Y-115103529D01*
X117806718Y-115125153D01*
X117794421Y-115145670D01*
X117780171Y-115164883D01*
X117764107Y-115182607D01*
X117746383Y-115198671D01*
X117727170Y-115212921D01*
X117706653Y-115225218D01*
X117685029Y-115235446D01*
X117662507Y-115243504D01*
X117639303Y-115249316D01*
X117615642Y-115252826D01*
X117591750Y-115254000D01*
X117104250Y-115254000D01*
X117080358Y-115252826D01*
X117056697Y-115249316D01*
X117033493Y-115243504D01*
X117010971Y-115235446D01*
X116989347Y-115225218D01*
X116968830Y-115212921D01*
X116949617Y-115198671D01*
X116931893Y-115182607D01*
X116915829Y-115164883D01*
X116901579Y-115145670D01*
X116889282Y-115125153D01*
X116879054Y-115103529D01*
X116870996Y-115081007D01*
X116865184Y-115057803D01*
X116861674Y-115034142D01*
X116860500Y-115010250D01*
X116860500Y-114097750D01*
X116861674Y-114073858D01*
X116865184Y-114050197D01*
X116870996Y-114026993D01*
X116879054Y-114004471D01*
X116889282Y-113982847D01*
X116901579Y-113962330D01*
X116915829Y-113943117D01*
X116931893Y-113925393D01*
X116949617Y-113909329D01*
X116968830Y-113895079D01*
X116989347Y-113882782D01*
X117010971Y-113872554D01*
X117033493Y-113864496D01*
X117056697Y-113858684D01*
X117080358Y-113855174D01*
X117104250Y-113854000D01*
X117591750Y-113854000D01*
X117615642Y-113855174D01*
X117615642Y-113855174D01*
G37*
D14*
X117348000Y-114554000D03*
D13*
G36*
X115740642Y-113855174D02*
G01*
X115764303Y-113858684D01*
X115787507Y-113864496D01*
X115810029Y-113872554D01*
X115831653Y-113882782D01*
X115852170Y-113895079D01*
X115871383Y-113909329D01*
X115889107Y-113925393D01*
X115905171Y-113943117D01*
X115919421Y-113962330D01*
X115931718Y-113982847D01*
X115941946Y-114004471D01*
X115950004Y-114026993D01*
X115955816Y-114050197D01*
X115959326Y-114073858D01*
X115960500Y-114097750D01*
X115960500Y-115010250D01*
X115959326Y-115034142D01*
X115955816Y-115057803D01*
X115950004Y-115081007D01*
X115941946Y-115103529D01*
X115931718Y-115125153D01*
X115919421Y-115145670D01*
X115905171Y-115164883D01*
X115889107Y-115182607D01*
X115871383Y-115198671D01*
X115852170Y-115212921D01*
X115831653Y-115225218D01*
X115810029Y-115235446D01*
X115787507Y-115243504D01*
X115764303Y-115249316D01*
X115740642Y-115252826D01*
X115716750Y-115254000D01*
X115229250Y-115254000D01*
X115205358Y-115252826D01*
X115181697Y-115249316D01*
X115158493Y-115243504D01*
X115135971Y-115235446D01*
X115114347Y-115225218D01*
X115093830Y-115212921D01*
X115074617Y-115198671D01*
X115056893Y-115182607D01*
X115040829Y-115164883D01*
X115026579Y-115145670D01*
X115014282Y-115125153D01*
X115004054Y-115103529D01*
X114995996Y-115081007D01*
X114990184Y-115057803D01*
X114986674Y-115034142D01*
X114985500Y-115010250D01*
X114985500Y-114097750D01*
X114986674Y-114073858D01*
X114990184Y-114050197D01*
X114995996Y-114026993D01*
X115004054Y-114004471D01*
X115014282Y-113982847D01*
X115026579Y-113962330D01*
X115040829Y-113943117D01*
X115056893Y-113925393D01*
X115074617Y-113909329D01*
X115093830Y-113895079D01*
X115114347Y-113882782D01*
X115135971Y-113872554D01*
X115158493Y-113864496D01*
X115181697Y-113858684D01*
X115205358Y-113855174D01*
X115229250Y-113854000D01*
X115716750Y-113854000D01*
X115740642Y-113855174D01*
X115740642Y-113855174D01*
G37*
D14*
X115473000Y-114554000D03*
D26*
X111760000Y-119086000D03*
D27*
X111760000Y-116586000D03*
D13*
G36*
X119139642Y-111823174D02*
G01*
X119163303Y-111826684D01*
X119186507Y-111832496D01*
X119209029Y-111840554D01*
X119230653Y-111850782D01*
X119251170Y-111863079D01*
X119270383Y-111877329D01*
X119288107Y-111893393D01*
X119304171Y-111911117D01*
X119318421Y-111930330D01*
X119330718Y-111950847D01*
X119340946Y-111972471D01*
X119349004Y-111994993D01*
X119354816Y-112018197D01*
X119358326Y-112041858D01*
X119359500Y-112065750D01*
X119359500Y-112978250D01*
X119358326Y-113002142D01*
X119354816Y-113025803D01*
X119349004Y-113049007D01*
X119340946Y-113071529D01*
X119330718Y-113093153D01*
X119318421Y-113113670D01*
X119304171Y-113132883D01*
X119288107Y-113150607D01*
X119270383Y-113166671D01*
X119251170Y-113180921D01*
X119230653Y-113193218D01*
X119209029Y-113203446D01*
X119186507Y-113211504D01*
X119163303Y-113217316D01*
X119139642Y-113220826D01*
X119115750Y-113222000D01*
X118628250Y-113222000D01*
X118604358Y-113220826D01*
X118580697Y-113217316D01*
X118557493Y-113211504D01*
X118534971Y-113203446D01*
X118513347Y-113193218D01*
X118492830Y-113180921D01*
X118473617Y-113166671D01*
X118455893Y-113150607D01*
X118439829Y-113132883D01*
X118425579Y-113113670D01*
X118413282Y-113093153D01*
X118403054Y-113071529D01*
X118394996Y-113049007D01*
X118389184Y-113025803D01*
X118385674Y-113002142D01*
X118384500Y-112978250D01*
X118384500Y-112065750D01*
X118385674Y-112041858D01*
X118389184Y-112018197D01*
X118394996Y-111994993D01*
X118403054Y-111972471D01*
X118413282Y-111950847D01*
X118425579Y-111930330D01*
X118439829Y-111911117D01*
X118455893Y-111893393D01*
X118473617Y-111877329D01*
X118492830Y-111863079D01*
X118513347Y-111850782D01*
X118534971Y-111840554D01*
X118557493Y-111832496D01*
X118580697Y-111826684D01*
X118604358Y-111823174D01*
X118628250Y-111822000D01*
X119115750Y-111822000D01*
X119139642Y-111823174D01*
X119139642Y-111823174D01*
G37*
D14*
X118872000Y-112522000D03*
D13*
G36*
X117264642Y-111823174D02*
G01*
X117288303Y-111826684D01*
X117311507Y-111832496D01*
X117334029Y-111840554D01*
X117355653Y-111850782D01*
X117376170Y-111863079D01*
X117395383Y-111877329D01*
X117413107Y-111893393D01*
X117429171Y-111911117D01*
X117443421Y-111930330D01*
X117455718Y-111950847D01*
X117465946Y-111972471D01*
X117474004Y-111994993D01*
X117479816Y-112018197D01*
X117483326Y-112041858D01*
X117484500Y-112065750D01*
X117484500Y-112978250D01*
X117483326Y-113002142D01*
X117479816Y-113025803D01*
X117474004Y-113049007D01*
X117465946Y-113071529D01*
X117455718Y-113093153D01*
X117443421Y-113113670D01*
X117429171Y-113132883D01*
X117413107Y-113150607D01*
X117395383Y-113166671D01*
X117376170Y-113180921D01*
X117355653Y-113193218D01*
X117334029Y-113203446D01*
X117311507Y-113211504D01*
X117288303Y-113217316D01*
X117264642Y-113220826D01*
X117240750Y-113222000D01*
X116753250Y-113222000D01*
X116729358Y-113220826D01*
X116705697Y-113217316D01*
X116682493Y-113211504D01*
X116659971Y-113203446D01*
X116638347Y-113193218D01*
X116617830Y-113180921D01*
X116598617Y-113166671D01*
X116580893Y-113150607D01*
X116564829Y-113132883D01*
X116550579Y-113113670D01*
X116538282Y-113093153D01*
X116528054Y-113071529D01*
X116519996Y-113049007D01*
X116514184Y-113025803D01*
X116510674Y-113002142D01*
X116509500Y-112978250D01*
X116509500Y-112065750D01*
X116510674Y-112041858D01*
X116514184Y-112018197D01*
X116519996Y-111994993D01*
X116528054Y-111972471D01*
X116538282Y-111950847D01*
X116550579Y-111930330D01*
X116564829Y-111911117D01*
X116580893Y-111893393D01*
X116598617Y-111877329D01*
X116617830Y-111863079D01*
X116638347Y-111850782D01*
X116659971Y-111840554D01*
X116682493Y-111832496D01*
X116705697Y-111826684D01*
X116729358Y-111823174D01*
X116753250Y-111822000D01*
X117240750Y-111822000D01*
X117264642Y-111823174D01*
X117264642Y-111823174D01*
G37*
D14*
X116997000Y-112522000D03*
D13*
G36*
X121551504Y-111648204D02*
G01*
X121575773Y-111651804D01*
X121599571Y-111657765D01*
X121622671Y-111666030D01*
X121644849Y-111676520D01*
X121665893Y-111689133D01*
X121685598Y-111703747D01*
X121703777Y-111720223D01*
X121720253Y-111738402D01*
X121734867Y-111758107D01*
X121747480Y-111779151D01*
X121757970Y-111801329D01*
X121766235Y-111824429D01*
X121772196Y-111848227D01*
X121775796Y-111872496D01*
X121777000Y-111897000D01*
X121777000Y-113147000D01*
X121775796Y-113171504D01*
X121772196Y-113195773D01*
X121766235Y-113219571D01*
X121757970Y-113242671D01*
X121747480Y-113264849D01*
X121734867Y-113285893D01*
X121720253Y-113305598D01*
X121703777Y-113323777D01*
X121685598Y-113340253D01*
X121665893Y-113354867D01*
X121644849Y-113367480D01*
X121622671Y-113377970D01*
X121599571Y-113386235D01*
X121575773Y-113392196D01*
X121551504Y-113395796D01*
X121527000Y-113397000D01*
X120777000Y-113397000D01*
X120752496Y-113395796D01*
X120728227Y-113392196D01*
X120704429Y-113386235D01*
X120681329Y-113377970D01*
X120659151Y-113367480D01*
X120638107Y-113354867D01*
X120618402Y-113340253D01*
X120600223Y-113323777D01*
X120583747Y-113305598D01*
X120569133Y-113285893D01*
X120556520Y-113264849D01*
X120546030Y-113242671D01*
X120537765Y-113219571D01*
X120531804Y-113195773D01*
X120528204Y-113171504D01*
X120527000Y-113147000D01*
X120527000Y-111897000D01*
X120528204Y-111872496D01*
X120531804Y-111848227D01*
X120537765Y-111824429D01*
X120546030Y-111801329D01*
X120556520Y-111779151D01*
X120569133Y-111758107D01*
X120583747Y-111738402D01*
X120600223Y-111720223D01*
X120618402Y-111703747D01*
X120638107Y-111689133D01*
X120659151Y-111676520D01*
X120681329Y-111666030D01*
X120704429Y-111657765D01*
X120728227Y-111651804D01*
X120752496Y-111648204D01*
X120777000Y-111647000D01*
X121527000Y-111647000D01*
X121551504Y-111648204D01*
X121551504Y-111648204D01*
G37*
D28*
X121152000Y-112522000D03*
D13*
G36*
X124351504Y-111648204D02*
G01*
X124375773Y-111651804D01*
X124399571Y-111657765D01*
X124422671Y-111666030D01*
X124444849Y-111676520D01*
X124465893Y-111689133D01*
X124485598Y-111703747D01*
X124503777Y-111720223D01*
X124520253Y-111738402D01*
X124534867Y-111758107D01*
X124547480Y-111779151D01*
X124557970Y-111801329D01*
X124566235Y-111824429D01*
X124572196Y-111848227D01*
X124575796Y-111872496D01*
X124577000Y-111897000D01*
X124577000Y-113147000D01*
X124575796Y-113171504D01*
X124572196Y-113195773D01*
X124566235Y-113219571D01*
X124557970Y-113242671D01*
X124547480Y-113264849D01*
X124534867Y-113285893D01*
X124520253Y-113305598D01*
X124503777Y-113323777D01*
X124485598Y-113340253D01*
X124465893Y-113354867D01*
X124444849Y-113367480D01*
X124422671Y-113377970D01*
X124399571Y-113386235D01*
X124375773Y-113392196D01*
X124351504Y-113395796D01*
X124327000Y-113397000D01*
X123577000Y-113397000D01*
X123552496Y-113395796D01*
X123528227Y-113392196D01*
X123504429Y-113386235D01*
X123481329Y-113377970D01*
X123459151Y-113367480D01*
X123438107Y-113354867D01*
X123418402Y-113340253D01*
X123400223Y-113323777D01*
X123383747Y-113305598D01*
X123369133Y-113285893D01*
X123356520Y-113264849D01*
X123346030Y-113242671D01*
X123337765Y-113219571D01*
X123331804Y-113195773D01*
X123328204Y-113171504D01*
X123327000Y-113147000D01*
X123327000Y-111897000D01*
X123328204Y-111872496D01*
X123331804Y-111848227D01*
X123337765Y-111824429D01*
X123346030Y-111801329D01*
X123356520Y-111779151D01*
X123369133Y-111758107D01*
X123383747Y-111738402D01*
X123400223Y-111720223D01*
X123418402Y-111703747D01*
X123438107Y-111689133D01*
X123459151Y-111676520D01*
X123481329Y-111666030D01*
X123504429Y-111657765D01*
X123528227Y-111651804D01*
X123552496Y-111648204D01*
X123577000Y-111647000D01*
X124327000Y-111647000D01*
X124351504Y-111648204D01*
X124351504Y-111648204D01*
G37*
D28*
X123952000Y-112522000D03*
D26*
X111760000Y-108006000D03*
D27*
X111760000Y-111506000D03*
D26*
X124460000Y-119086000D03*
D27*
X124460000Y-116586000D03*
D13*
G36*
X126972142Y-110511674D02*
G01*
X126995803Y-110515184D01*
X127019007Y-110520996D01*
X127041529Y-110529054D01*
X127063153Y-110539282D01*
X127083670Y-110551579D01*
X127102883Y-110565829D01*
X127120607Y-110581893D01*
X127136671Y-110599617D01*
X127150921Y-110618830D01*
X127163218Y-110639347D01*
X127173446Y-110660971D01*
X127181504Y-110683493D01*
X127187316Y-110706697D01*
X127190826Y-110730358D01*
X127192000Y-110754250D01*
X127192000Y-111241750D01*
X127190826Y-111265642D01*
X127187316Y-111289303D01*
X127181504Y-111312507D01*
X127173446Y-111335029D01*
X127163218Y-111356653D01*
X127150921Y-111377170D01*
X127136671Y-111396383D01*
X127120607Y-111414107D01*
X127102883Y-111430171D01*
X127083670Y-111444421D01*
X127063153Y-111456718D01*
X127041529Y-111466946D01*
X127019007Y-111475004D01*
X126995803Y-111480816D01*
X126972142Y-111484326D01*
X126948250Y-111485500D01*
X126035750Y-111485500D01*
X126011858Y-111484326D01*
X125988197Y-111480816D01*
X125964993Y-111475004D01*
X125942471Y-111466946D01*
X125920847Y-111456718D01*
X125900330Y-111444421D01*
X125881117Y-111430171D01*
X125863393Y-111414107D01*
X125847329Y-111396383D01*
X125833079Y-111377170D01*
X125820782Y-111356653D01*
X125810554Y-111335029D01*
X125802496Y-111312507D01*
X125796684Y-111289303D01*
X125793174Y-111265642D01*
X125792000Y-111241750D01*
X125792000Y-110754250D01*
X125793174Y-110730358D01*
X125796684Y-110706697D01*
X125802496Y-110683493D01*
X125810554Y-110660971D01*
X125820782Y-110639347D01*
X125833079Y-110618830D01*
X125847329Y-110599617D01*
X125863393Y-110581893D01*
X125881117Y-110565829D01*
X125900330Y-110551579D01*
X125920847Y-110539282D01*
X125942471Y-110529054D01*
X125964993Y-110520996D01*
X125988197Y-110515184D01*
X126011858Y-110511674D01*
X126035750Y-110510500D01*
X126948250Y-110510500D01*
X126972142Y-110511674D01*
X126972142Y-110511674D01*
G37*
D14*
X126492000Y-110998000D03*
D13*
G36*
X126972142Y-112386674D02*
G01*
X126995803Y-112390184D01*
X127019007Y-112395996D01*
X127041529Y-112404054D01*
X127063153Y-112414282D01*
X127083670Y-112426579D01*
X127102883Y-112440829D01*
X127120607Y-112456893D01*
X127136671Y-112474617D01*
X127150921Y-112493830D01*
X127163218Y-112514347D01*
X127173446Y-112535971D01*
X127181504Y-112558493D01*
X127187316Y-112581697D01*
X127190826Y-112605358D01*
X127192000Y-112629250D01*
X127192000Y-113116750D01*
X127190826Y-113140642D01*
X127187316Y-113164303D01*
X127181504Y-113187507D01*
X127173446Y-113210029D01*
X127163218Y-113231653D01*
X127150921Y-113252170D01*
X127136671Y-113271383D01*
X127120607Y-113289107D01*
X127102883Y-113305171D01*
X127083670Y-113319421D01*
X127063153Y-113331718D01*
X127041529Y-113341946D01*
X127019007Y-113350004D01*
X126995803Y-113355816D01*
X126972142Y-113359326D01*
X126948250Y-113360500D01*
X126035750Y-113360500D01*
X126011858Y-113359326D01*
X125988197Y-113355816D01*
X125964993Y-113350004D01*
X125942471Y-113341946D01*
X125920847Y-113331718D01*
X125900330Y-113319421D01*
X125881117Y-113305171D01*
X125863393Y-113289107D01*
X125847329Y-113271383D01*
X125833079Y-113252170D01*
X125820782Y-113231653D01*
X125810554Y-113210029D01*
X125802496Y-113187507D01*
X125796684Y-113164303D01*
X125793174Y-113140642D01*
X125792000Y-113116750D01*
X125792000Y-112629250D01*
X125793174Y-112605358D01*
X125796684Y-112581697D01*
X125802496Y-112558493D01*
X125810554Y-112535971D01*
X125820782Y-112514347D01*
X125833079Y-112493830D01*
X125847329Y-112474617D01*
X125863393Y-112456893D01*
X125881117Y-112440829D01*
X125900330Y-112426579D01*
X125920847Y-112414282D01*
X125942471Y-112404054D01*
X125964993Y-112395996D01*
X125988197Y-112390184D01*
X126011858Y-112386674D01*
X126035750Y-112385500D01*
X126948250Y-112385500D01*
X126972142Y-112386674D01*
X126972142Y-112386674D01*
G37*
D14*
X126492000Y-112873000D03*
D29*
X117138000Y-96034000D03*
X137138000Y-96034000D03*
X157138000Y-96034000D03*
X177138000Y-96034000D03*
D30*
X138049000Y-113030000D03*
X137414000Y-110871000D03*
X138049000Y-115697000D03*
X129921000Y-105410000D03*
X127762000Y-105410000D03*
X125857000Y-105410000D03*
X153670000Y-108331000D03*
X157861000Y-108331000D03*
X161544000Y-108331000D03*
X170688000Y-108204000D03*
X175768000Y-108331000D03*
X176022000Y-111760000D03*
X107950000Y-112649000D03*
X114681000Y-112268000D03*
X126365000Y-110363000D03*
X126238000Y-107696000D03*
X128143000Y-108331000D03*
X136652000Y-120142000D03*
X121539000Y-119634000D03*
X114427000Y-119761000D03*
X146177000Y-113030000D03*
X149479000Y-113157000D03*
X148209000Y-117729000D03*
X162306000Y-113411000D03*
X162306000Y-116332000D03*
X166497000Y-113411000D03*
X166624000Y-116459000D03*
X167005000Y-108331000D03*
X157988000Y-113284000D03*
X153416000Y-112903000D03*
X120904000Y-114935000D03*
X123952000Y-114554000D03*
X114427000Y-118110000D03*
X121539000Y-118237000D03*
X108966000Y-116713000D03*
X108966000Y-119380000D03*
X140081000Y-115062000D03*
X130429000Y-110617000D03*
X128016000Y-112776000D03*
X139192000Y-111760000D03*
X116713000Y-107823000D03*
X164465000Y-104267000D03*
X109728000Y-80264000D03*
X138811000Y-108204000D03*
X135001000Y-116967000D03*
D31*
X112268000Y-82804000D02*
X112268000Y-86868000D01*
X112268000Y-82804000D02*
X114046000Y-82804000D01*
X114046000Y-82804000D02*
X114554000Y-83312000D01*
X114554000Y-83312000D02*
X114554000Y-85852000D01*
X122936000Y-86106000D02*
X122936000Y-82804000D01*
X122936000Y-82804000D02*
X124714000Y-82804000D01*
X124714000Y-82804000D02*
X125222000Y-83312000D01*
X125222000Y-83312000D02*
X125222000Y-86106000D01*
X144272000Y-82804000D02*
X144272000Y-86106000D01*
X144272000Y-82804000D02*
X144780000Y-82804000D01*
X144780000Y-82804000D02*
X146304000Y-84328000D01*
X146304000Y-84328000D02*
X146304000Y-86360000D01*
X165608000Y-86868000D02*
X165608000Y-82804000D01*
X165608000Y-82804000D02*
X166624000Y-82804000D01*
X166624000Y-82804000D02*
X167640000Y-83820000D01*
X167640000Y-83820000D02*
X167640000Y-86360000D01*
X176276000Y-82804000D02*
X176276000Y-85804000D01*
X176276000Y-82804000D02*
X177038000Y-82804000D01*
X177038000Y-82804000D02*
X178054000Y-83820000D01*
X178054000Y-83820000D02*
X178054000Y-86106000D01*
X186944000Y-82804000D02*
X186944000Y-85804000D01*
X186944000Y-82804000D02*
X188214000Y-84074000D01*
X188214000Y-84074000D02*
X188214000Y-87122000D01*
X154940000Y-82804000D02*
X154940000Y-86614000D01*
X154940000Y-82804000D02*
X155702000Y-82804000D01*
X155702000Y-82804000D02*
X156972000Y-84074000D01*
X156972000Y-84074000D02*
X156972000Y-86106000D01*
X133604000Y-82804000D02*
X133604000Y-87122000D01*
X133604000Y-82804000D02*
X133858000Y-82804000D01*
X133858000Y-82804000D02*
X135890000Y-84836000D01*
X135890000Y-84836000D02*
X135890000Y-87122000D01*
D32*
X111760000Y-108006000D02*
X108006000Y-108006000D01*
X108006000Y-108006000D02*
X105410000Y-105410000D01*
X105410000Y-105410000D02*
X105410000Y-97409000D01*
X106785000Y-96034000D02*
X117138000Y-96034000D01*
X105410000Y-97409000D02*
X106785000Y-96034000D01*
D33*
X116997000Y-113403000D02*
X116997000Y-112522000D01*
X117348000Y-114554000D02*
X117348000Y-113754000D01*
X117348000Y-113754000D02*
X116997000Y-113403000D01*
X124339800Y-116706200D02*
X124460000Y-116586000D01*
X119356000Y-116706200D02*
X124339800Y-116706200D01*
X124460000Y-116586000D02*
X125857000Y-116586000D01*
X125857000Y-116586000D02*
X126492000Y-115951000D01*
X126492000Y-114173000D02*
X126684000Y-113981000D01*
X126492000Y-114173000D02*
X126492000Y-112873000D01*
X126492000Y-115951000D02*
X126492000Y-114173000D01*
X129540000Y-117094000D02*
X128524000Y-117094000D01*
X128524000Y-117094000D02*
X128335000Y-116905000D01*
X128335000Y-116905000D02*
X128335000Y-113981000D01*
X128335000Y-113981000D02*
X129286000Y-113981000D01*
D34*
X130556000Y-109031000D02*
X130556000Y-110490000D01*
X130556000Y-110490000D02*
X130429000Y-110617000D01*
X128016000Y-113341685D02*
X128205000Y-113530685D01*
X128205000Y-113530685D02*
X128205000Y-113981000D01*
X128016000Y-112776000D02*
X128016000Y-113341685D01*
D33*
X126684000Y-113981000D02*
X128205000Y-113981000D01*
X128205000Y-113981000D02*
X128335000Y-113981000D01*
X147828000Y-110998000D02*
X167767000Y-110998000D01*
X169512000Y-112743000D02*
X169512000Y-119634000D01*
X167767000Y-110998000D02*
X169512000Y-112743000D01*
X105072000Y-110872000D02*
X106172000Y-110872000D01*
X104775000Y-111169000D02*
X105072000Y-110872000D01*
X104775000Y-117047000D02*
X104775000Y-111169000D01*
X104822000Y-117094000D02*
X104775000Y-117047000D01*
X106172000Y-117094000D02*
X104822000Y-117094000D01*
X111760000Y-111506000D02*
X110363000Y-111506000D01*
X109729000Y-110872000D02*
X106172000Y-110872000D01*
X110363000Y-111506000D02*
X109729000Y-110872000D01*
X118872000Y-110428000D02*
X118937000Y-110363000D01*
X123952000Y-110428000D02*
X123887000Y-110363000D01*
X118999000Y-110871000D02*
X118872000Y-110998000D01*
X123952000Y-110871000D02*
X118999000Y-110871000D01*
X118872000Y-112522000D02*
X118872000Y-110998000D01*
X123952000Y-110871000D02*
X123952000Y-110428000D01*
X118872000Y-110998000D02*
X118872000Y-110428000D01*
X123952000Y-112522000D02*
X123952000Y-110871000D01*
X117862000Y-110363000D02*
X118937000Y-110363000D01*
X114203000Y-110363000D02*
X117862000Y-110363000D01*
X113060000Y-111506000D02*
X114203000Y-110363000D01*
X111760000Y-111506000D02*
X113060000Y-111506000D01*
X115091000Y-114172000D02*
X115473000Y-114554000D01*
X111761000Y-115285000D02*
X111761000Y-114172000D01*
X111760000Y-115286000D02*
X111761000Y-115285000D01*
X111760000Y-116586000D02*
X111760000Y-115286000D01*
X106172000Y-114172000D02*
X111761000Y-114172000D01*
X114426000Y-115776200D02*
X114426000Y-114172000D01*
X116356000Y-116706200D02*
X115356000Y-116706200D01*
X111761000Y-114172000D02*
X114426000Y-114172000D01*
X115356000Y-116706200D02*
X114426000Y-115776200D01*
X114426000Y-114172000D02*
X115091000Y-114172000D01*
D34*
X131064000Y-120142000D02*
X133253000Y-120142000D01*
X143507081Y-113981000D02*
X137306000Y-113981000D01*
X145288000Y-112200081D02*
X143507081Y-113981000D01*
X137306000Y-113981000D02*
X136906000Y-113981000D01*
X145288000Y-110998000D02*
X145288000Y-112200081D01*
X145288000Y-108458000D02*
X143256000Y-106426000D01*
X143256000Y-106426000D02*
X136144000Y-106426000D01*
X135636000Y-106934000D02*
X135636000Y-109031000D01*
X136144000Y-106426000D02*
X135636000Y-106934000D01*
X138114000Y-109031000D02*
X136906000Y-109031000D01*
X138905999Y-109822999D02*
X138114000Y-109031000D01*
X147828000Y-108458000D02*
X146463001Y-109822999D01*
X146463001Y-109822999D02*
X138905999Y-109822999D01*
X150477787Y-115134000D02*
X145392000Y-115134000D01*
X151892000Y-115134000D02*
X150477787Y-115134000D01*
X144392001Y-116133999D02*
X139517001Y-116133999D01*
X145392000Y-115134000D02*
X144392001Y-116133999D01*
X138684000Y-116967000D02*
X138684000Y-119634000D01*
X139517001Y-116133999D02*
X138684000Y-116967000D01*
X134736710Y-109778478D02*
X136718232Y-111760000D01*
X134366000Y-109031000D02*
X134736710Y-109401710D01*
X134736710Y-109401710D02*
X134736710Y-109778478D01*
X136718232Y-111760000D02*
X139192000Y-111760000D01*
X135128000Y-120142000D02*
X136271000Y-118999000D01*
X136271000Y-118999000D02*
X136271000Y-116332000D01*
X135636000Y-115697000D02*
X135636000Y-113981000D01*
X136271000Y-116332000D02*
X135636000Y-115697000D01*
D33*
X118937000Y-107823000D02*
X116713000Y-107823000D01*
X116713000Y-107823000D02*
X116713000Y-108458000D01*
X117348000Y-109093000D02*
X118937000Y-109093000D01*
X116713000Y-108458000D02*
X117348000Y-109093000D01*
D34*
X131826000Y-109031000D02*
X131826000Y-107188000D01*
X131826000Y-107188000D02*
X131826000Y-105791000D01*
X131826000Y-105791000D02*
X133350000Y-104267000D01*
X133350000Y-104267000D02*
X164465000Y-104267000D01*
X133096000Y-109031000D02*
X133096000Y-106426000D01*
X133096000Y-106426000D02*
X134239000Y-105283000D01*
X134239000Y-105283000D02*
X177673000Y-105283000D01*
X181276000Y-108886000D02*
X181276000Y-119634000D01*
X177673000Y-105283000D02*
X181276000Y-108886000D01*
X123887000Y-109093000D02*
X126873000Y-109093000D01*
X126873000Y-109093000D02*
X129286000Y-111506000D01*
X129286000Y-111506000D02*
X133731000Y-111506000D01*
X134366000Y-112141000D02*
X134366000Y-113981000D01*
X133731000Y-111506000D02*
X134366000Y-112141000D01*
D31*
X109728000Y-82804000D02*
X109728000Y-80264000D01*
X120396000Y-82804000D02*
X120396000Y-80772000D01*
X131064000Y-82804000D02*
X131064000Y-80518000D01*
X141732000Y-82804000D02*
X141732000Y-80645000D01*
X152400000Y-82804000D02*
X152400000Y-80391000D01*
X163068000Y-82804000D02*
X163068000Y-80518000D01*
X173736000Y-82804000D02*
X173736000Y-80137000D01*
X184404000Y-82804000D02*
X184404000Y-80010000D01*
D34*
X131415000Y-117094000D02*
X132715000Y-117094000D01*
X133096000Y-116713000D02*
X133096000Y-113981000D01*
X142748000Y-108458000D02*
X139065000Y-108458000D01*
X139065000Y-108458000D02*
X138811000Y-108204000D01*
X132969000Y-116967000D02*
X132905500Y-116903500D01*
X135001000Y-116967000D02*
X132969000Y-116967000D01*
X132715000Y-117094000D02*
X132905500Y-116903500D01*
X132905500Y-116903500D02*
X133096000Y-116713000D01*
D35*
G36*
X189332000Y-81153000D02*
G01*
X104800000Y-81153000D01*
X104800000Y-66144000D01*
X107331461Y-66144000D01*
X107377510Y-66611542D01*
X107513887Y-67061116D01*
X107735351Y-67475446D01*
X108033391Y-67838609D01*
X108396554Y-68136649D01*
X108810884Y-68358113D01*
X109260458Y-68494490D01*
X109610843Y-68529000D01*
X109845157Y-68529000D01*
X110195542Y-68494490D01*
X110645116Y-68358113D01*
X111059446Y-68136649D01*
X111422609Y-67838609D01*
X111720649Y-67475446D01*
X111942113Y-67061116D01*
X112078490Y-66611542D01*
X112124539Y-66144000D01*
X117999461Y-66144000D01*
X118045510Y-66611542D01*
X118181887Y-67061116D01*
X118403351Y-67475446D01*
X118701391Y-67838609D01*
X119064554Y-68136649D01*
X119478884Y-68358113D01*
X119928458Y-68494490D01*
X120278843Y-68529000D01*
X120513157Y-68529000D01*
X120863542Y-68494490D01*
X121313116Y-68358113D01*
X121727446Y-68136649D01*
X122090609Y-67838609D01*
X122388649Y-67475446D01*
X122610113Y-67061116D01*
X122746490Y-66611542D01*
X122792539Y-66144000D01*
X128667461Y-66144000D01*
X128713510Y-66611542D01*
X128849887Y-67061116D01*
X129071351Y-67475446D01*
X129369391Y-67838609D01*
X129732554Y-68136649D01*
X130146884Y-68358113D01*
X130596458Y-68494490D01*
X130946843Y-68529000D01*
X131181157Y-68529000D01*
X131531542Y-68494490D01*
X131981116Y-68358113D01*
X132395446Y-68136649D01*
X132758609Y-67838609D01*
X133056649Y-67475446D01*
X133278113Y-67061116D01*
X133414490Y-66611542D01*
X133460539Y-66144000D01*
X139335461Y-66144000D01*
X139381510Y-66611542D01*
X139517887Y-67061116D01*
X139739351Y-67475446D01*
X140037391Y-67838609D01*
X140400554Y-68136649D01*
X140814884Y-68358113D01*
X141264458Y-68494490D01*
X141614843Y-68529000D01*
X141849157Y-68529000D01*
X142199542Y-68494490D01*
X142649116Y-68358113D01*
X143063446Y-68136649D01*
X143426609Y-67838609D01*
X143724649Y-67475446D01*
X143946113Y-67061116D01*
X144082490Y-66611542D01*
X144128539Y-66144000D01*
X150003461Y-66144000D01*
X150049510Y-66611542D01*
X150185887Y-67061116D01*
X150407351Y-67475446D01*
X150705391Y-67838609D01*
X151068554Y-68136649D01*
X151482884Y-68358113D01*
X151932458Y-68494490D01*
X152282843Y-68529000D01*
X152517157Y-68529000D01*
X152867542Y-68494490D01*
X153317116Y-68358113D01*
X153731446Y-68136649D01*
X154094609Y-67838609D01*
X154392649Y-67475446D01*
X154614113Y-67061116D01*
X154750490Y-66611542D01*
X154796539Y-66144000D01*
X160671461Y-66144000D01*
X160717510Y-66611542D01*
X160853887Y-67061116D01*
X161075351Y-67475446D01*
X161373391Y-67838609D01*
X161736554Y-68136649D01*
X162150884Y-68358113D01*
X162600458Y-68494490D01*
X162950843Y-68529000D01*
X163185157Y-68529000D01*
X163535542Y-68494490D01*
X163985116Y-68358113D01*
X164399446Y-68136649D01*
X164762609Y-67838609D01*
X165060649Y-67475446D01*
X165282113Y-67061116D01*
X165418490Y-66611542D01*
X165464539Y-66144000D01*
X171339461Y-66144000D01*
X171385510Y-66611542D01*
X171521887Y-67061116D01*
X171743351Y-67475446D01*
X172041391Y-67838609D01*
X172404554Y-68136649D01*
X172818884Y-68358113D01*
X173268458Y-68494490D01*
X173618843Y-68529000D01*
X173853157Y-68529000D01*
X174203542Y-68494490D01*
X174653116Y-68358113D01*
X175067446Y-68136649D01*
X175430609Y-67838609D01*
X175728649Y-67475446D01*
X175950113Y-67061116D01*
X176086490Y-66611542D01*
X176132539Y-66144000D01*
X182007461Y-66144000D01*
X182053510Y-66611542D01*
X182189887Y-67061116D01*
X182411351Y-67475446D01*
X182709391Y-67838609D01*
X183072554Y-68136649D01*
X183486884Y-68358113D01*
X183936458Y-68494490D01*
X184286843Y-68529000D01*
X184521157Y-68529000D01*
X184871542Y-68494490D01*
X185321116Y-68358113D01*
X185735446Y-68136649D01*
X186098609Y-67838609D01*
X186396649Y-67475446D01*
X186618113Y-67061116D01*
X186754490Y-66611542D01*
X186800539Y-66144000D01*
X186754490Y-65676458D01*
X186618113Y-65226884D01*
X186396649Y-64812554D01*
X186098609Y-64449391D01*
X185735446Y-64151351D01*
X185321116Y-63929887D01*
X184871542Y-63793510D01*
X184521157Y-63759000D01*
X184286843Y-63759000D01*
X183936458Y-63793510D01*
X183486884Y-63929887D01*
X183072554Y-64151351D01*
X182709391Y-64449391D01*
X182411351Y-64812554D01*
X182189887Y-65226884D01*
X182053510Y-65676458D01*
X182007461Y-66144000D01*
X176132539Y-66144000D01*
X176086490Y-65676458D01*
X175950113Y-65226884D01*
X175728649Y-64812554D01*
X175430609Y-64449391D01*
X175067446Y-64151351D01*
X174653116Y-63929887D01*
X174203542Y-63793510D01*
X173853157Y-63759000D01*
X173618843Y-63759000D01*
X173268458Y-63793510D01*
X172818884Y-63929887D01*
X172404554Y-64151351D01*
X172041391Y-64449391D01*
X171743351Y-64812554D01*
X171521887Y-65226884D01*
X171385510Y-65676458D01*
X171339461Y-66144000D01*
X165464539Y-66144000D01*
X165418490Y-65676458D01*
X165282113Y-65226884D01*
X165060649Y-64812554D01*
X164762609Y-64449391D01*
X164399446Y-64151351D01*
X163985116Y-63929887D01*
X163535542Y-63793510D01*
X163185157Y-63759000D01*
X162950843Y-63759000D01*
X162600458Y-63793510D01*
X162150884Y-63929887D01*
X161736554Y-64151351D01*
X161373391Y-64449391D01*
X161075351Y-64812554D01*
X160853887Y-65226884D01*
X160717510Y-65676458D01*
X160671461Y-66144000D01*
X154796539Y-66144000D01*
X154750490Y-65676458D01*
X154614113Y-65226884D01*
X154392649Y-64812554D01*
X154094609Y-64449391D01*
X153731446Y-64151351D01*
X153317116Y-63929887D01*
X152867542Y-63793510D01*
X152517157Y-63759000D01*
X152282843Y-63759000D01*
X151932458Y-63793510D01*
X151482884Y-63929887D01*
X151068554Y-64151351D01*
X150705391Y-64449391D01*
X150407351Y-64812554D01*
X150185887Y-65226884D01*
X150049510Y-65676458D01*
X150003461Y-66144000D01*
X144128539Y-66144000D01*
X144082490Y-65676458D01*
X143946113Y-65226884D01*
X143724649Y-64812554D01*
X143426609Y-64449391D01*
X143063446Y-64151351D01*
X142649116Y-63929887D01*
X142199542Y-63793510D01*
X141849157Y-63759000D01*
X141614843Y-63759000D01*
X141264458Y-63793510D01*
X140814884Y-63929887D01*
X140400554Y-64151351D01*
X140037391Y-64449391D01*
X139739351Y-64812554D01*
X139517887Y-65226884D01*
X139381510Y-65676458D01*
X139335461Y-66144000D01*
X133460539Y-66144000D01*
X133414490Y-65676458D01*
X133278113Y-65226884D01*
X133056649Y-64812554D01*
X132758609Y-64449391D01*
X132395446Y-64151351D01*
X131981116Y-63929887D01*
X131531542Y-63793510D01*
X131181157Y-63759000D01*
X130946843Y-63759000D01*
X130596458Y-63793510D01*
X130146884Y-63929887D01*
X129732554Y-64151351D01*
X129369391Y-64449391D01*
X129071351Y-64812554D01*
X128849887Y-65226884D01*
X128713510Y-65676458D01*
X128667461Y-66144000D01*
X122792539Y-66144000D01*
X122746490Y-65676458D01*
X122610113Y-65226884D01*
X122388649Y-64812554D01*
X122090609Y-64449391D01*
X121727446Y-64151351D01*
X121313116Y-63929887D01*
X120863542Y-63793510D01*
X120513157Y-63759000D01*
X120278843Y-63759000D01*
X119928458Y-63793510D01*
X119478884Y-63929887D01*
X119064554Y-64151351D01*
X118701391Y-64449391D01*
X118403351Y-64812554D01*
X118181887Y-65226884D01*
X118045510Y-65676458D01*
X117999461Y-66144000D01*
X112124539Y-66144000D01*
X112078490Y-65676458D01*
X111942113Y-65226884D01*
X111720649Y-64812554D01*
X111422609Y-64449391D01*
X111059446Y-64151351D01*
X110645116Y-63929887D01*
X110195542Y-63793510D01*
X109845157Y-63759000D01*
X109610843Y-63759000D01*
X109260458Y-63793510D01*
X108810884Y-63929887D01*
X108396554Y-64151351D01*
X108033391Y-64449391D01*
X107735351Y-64812554D01*
X107513887Y-65226884D01*
X107377510Y-65676458D01*
X107331461Y-66144000D01*
X104800000Y-66144000D01*
X104800000Y-63398000D01*
X189332000Y-63398000D01*
X189332000Y-81153000D01*
X189332000Y-81153000D01*
G37*
X189332000Y-81153000D02*
X104800000Y-81153000D01*
X104800000Y-66144000D01*
X107331461Y-66144000D01*
X107377510Y-66611542D01*
X107513887Y-67061116D01*
X107735351Y-67475446D01*
X108033391Y-67838609D01*
X108396554Y-68136649D01*
X108810884Y-68358113D01*
X109260458Y-68494490D01*
X109610843Y-68529000D01*
X109845157Y-68529000D01*
X110195542Y-68494490D01*
X110645116Y-68358113D01*
X111059446Y-68136649D01*
X111422609Y-67838609D01*
X111720649Y-67475446D01*
X111942113Y-67061116D01*
X112078490Y-66611542D01*
X112124539Y-66144000D01*
X117999461Y-66144000D01*
X118045510Y-66611542D01*
X118181887Y-67061116D01*
X118403351Y-67475446D01*
X118701391Y-67838609D01*
X119064554Y-68136649D01*
X119478884Y-68358113D01*
X119928458Y-68494490D01*
X120278843Y-68529000D01*
X120513157Y-68529000D01*
X120863542Y-68494490D01*
X121313116Y-68358113D01*
X121727446Y-68136649D01*
X122090609Y-67838609D01*
X122388649Y-67475446D01*
X122610113Y-67061116D01*
X122746490Y-66611542D01*
X122792539Y-66144000D01*
X128667461Y-66144000D01*
X128713510Y-66611542D01*
X128849887Y-67061116D01*
X129071351Y-67475446D01*
X129369391Y-67838609D01*
X129732554Y-68136649D01*
X130146884Y-68358113D01*
X130596458Y-68494490D01*
X130946843Y-68529000D01*
X131181157Y-68529000D01*
X131531542Y-68494490D01*
X131981116Y-68358113D01*
X132395446Y-68136649D01*
X132758609Y-67838609D01*
X133056649Y-67475446D01*
X133278113Y-67061116D01*
X133414490Y-66611542D01*
X133460539Y-66144000D01*
X139335461Y-66144000D01*
X139381510Y-66611542D01*
X139517887Y-67061116D01*
X139739351Y-67475446D01*
X140037391Y-67838609D01*
X140400554Y-68136649D01*
X140814884Y-68358113D01*
X141264458Y-68494490D01*
X141614843Y-68529000D01*
X141849157Y-68529000D01*
X142199542Y-68494490D01*
X142649116Y-68358113D01*
X143063446Y-68136649D01*
X143426609Y-67838609D01*
X143724649Y-67475446D01*
X143946113Y-67061116D01*
X144082490Y-66611542D01*
X144128539Y-66144000D01*
X150003461Y-66144000D01*
X150049510Y-66611542D01*
X150185887Y-67061116D01*
X150407351Y-67475446D01*
X150705391Y-67838609D01*
X151068554Y-68136649D01*
X151482884Y-68358113D01*
X151932458Y-68494490D01*
X152282843Y-68529000D01*
X152517157Y-68529000D01*
X152867542Y-68494490D01*
X153317116Y-68358113D01*
X153731446Y-68136649D01*
X154094609Y-67838609D01*
X154392649Y-67475446D01*
X154614113Y-67061116D01*
X154750490Y-66611542D01*
X154796539Y-66144000D01*
X160671461Y-66144000D01*
X160717510Y-66611542D01*
X160853887Y-67061116D01*
X161075351Y-67475446D01*
X161373391Y-67838609D01*
X161736554Y-68136649D01*
X162150884Y-68358113D01*
X162600458Y-68494490D01*
X162950843Y-68529000D01*
X163185157Y-68529000D01*
X163535542Y-68494490D01*
X163985116Y-68358113D01*
X164399446Y-68136649D01*
X164762609Y-67838609D01*
X165060649Y-67475446D01*
X165282113Y-67061116D01*
X165418490Y-66611542D01*
X165464539Y-66144000D01*
X171339461Y-66144000D01*
X171385510Y-66611542D01*
X171521887Y-67061116D01*
X171743351Y-67475446D01*
X172041391Y-67838609D01*
X172404554Y-68136649D01*
X172818884Y-68358113D01*
X173268458Y-68494490D01*
X173618843Y-68529000D01*
X173853157Y-68529000D01*
X174203542Y-68494490D01*
X174653116Y-68358113D01*
X175067446Y-68136649D01*
X175430609Y-67838609D01*
X175728649Y-67475446D01*
X175950113Y-67061116D01*
X176086490Y-66611542D01*
X176132539Y-66144000D01*
X182007461Y-66144000D01*
X182053510Y-66611542D01*
X182189887Y-67061116D01*
X182411351Y-67475446D01*
X182709391Y-67838609D01*
X183072554Y-68136649D01*
X183486884Y-68358113D01*
X183936458Y-68494490D01*
X184286843Y-68529000D01*
X184521157Y-68529000D01*
X184871542Y-68494490D01*
X185321116Y-68358113D01*
X185735446Y-68136649D01*
X186098609Y-67838609D01*
X186396649Y-67475446D01*
X186618113Y-67061116D01*
X186754490Y-66611542D01*
X186800539Y-66144000D01*
X186754490Y-65676458D01*
X186618113Y-65226884D01*
X186396649Y-64812554D01*
X186098609Y-64449391D01*
X185735446Y-64151351D01*
X185321116Y-63929887D01*
X184871542Y-63793510D01*
X184521157Y-63759000D01*
X184286843Y-63759000D01*
X183936458Y-63793510D01*
X183486884Y-63929887D01*
X183072554Y-64151351D01*
X182709391Y-64449391D01*
X182411351Y-64812554D01*
X182189887Y-65226884D01*
X182053510Y-65676458D01*
X182007461Y-66144000D01*
X176132539Y-66144000D01*
X176086490Y-65676458D01*
X175950113Y-65226884D01*
X175728649Y-64812554D01*
X175430609Y-64449391D01*
X175067446Y-64151351D01*
X174653116Y-63929887D01*
X174203542Y-63793510D01*
X173853157Y-63759000D01*
X173618843Y-63759000D01*
X173268458Y-63793510D01*
X172818884Y-63929887D01*
X172404554Y-64151351D01*
X172041391Y-64449391D01*
X171743351Y-64812554D01*
X171521887Y-65226884D01*
X171385510Y-65676458D01*
X171339461Y-66144000D01*
X165464539Y-66144000D01*
X165418490Y-65676458D01*
X165282113Y-65226884D01*
X165060649Y-64812554D01*
X164762609Y-64449391D01*
X164399446Y-64151351D01*
X163985116Y-63929887D01*
X163535542Y-63793510D01*
X163185157Y-63759000D01*
X162950843Y-63759000D01*
X162600458Y-63793510D01*
X162150884Y-63929887D01*
X161736554Y-64151351D01*
X161373391Y-64449391D01*
X161075351Y-64812554D01*
X160853887Y-65226884D01*
X160717510Y-65676458D01*
X160671461Y-66144000D01*
X154796539Y-66144000D01*
X154750490Y-65676458D01*
X154614113Y-65226884D01*
X154392649Y-64812554D01*
X154094609Y-64449391D01*
X153731446Y-64151351D01*
X153317116Y-63929887D01*
X152867542Y-63793510D01*
X152517157Y-63759000D01*
X152282843Y-63759000D01*
X151932458Y-63793510D01*
X151482884Y-63929887D01*
X151068554Y-64151351D01*
X150705391Y-64449391D01*
X150407351Y-64812554D01*
X150185887Y-65226884D01*
X150049510Y-65676458D01*
X150003461Y-66144000D01*
X144128539Y-66144000D01*
X144082490Y-65676458D01*
X143946113Y-65226884D01*
X143724649Y-64812554D01*
X143426609Y-64449391D01*
X143063446Y-64151351D01*
X142649116Y-63929887D01*
X142199542Y-63793510D01*
X141849157Y-63759000D01*
X141614843Y-63759000D01*
X141264458Y-63793510D01*
X140814884Y-63929887D01*
X140400554Y-64151351D01*
X140037391Y-64449391D01*
X139739351Y-64812554D01*
X139517887Y-65226884D01*
X139381510Y-65676458D01*
X139335461Y-66144000D01*
X133460539Y-66144000D01*
X133414490Y-65676458D01*
X133278113Y-65226884D01*
X133056649Y-64812554D01*
X132758609Y-64449391D01*
X132395446Y-64151351D01*
X131981116Y-63929887D01*
X131531542Y-63793510D01*
X131181157Y-63759000D01*
X130946843Y-63759000D01*
X130596458Y-63793510D01*
X130146884Y-63929887D01*
X129732554Y-64151351D01*
X129369391Y-64449391D01*
X129071351Y-64812554D01*
X128849887Y-65226884D01*
X128713510Y-65676458D01*
X128667461Y-66144000D01*
X122792539Y-66144000D01*
X122746490Y-65676458D01*
X122610113Y-65226884D01*
X122388649Y-64812554D01*
X122090609Y-64449391D01*
X121727446Y-64151351D01*
X121313116Y-63929887D01*
X120863542Y-63793510D01*
X120513157Y-63759000D01*
X120278843Y-63759000D01*
X119928458Y-63793510D01*
X119478884Y-63929887D01*
X119064554Y-64151351D01*
X118701391Y-64449391D01*
X118403351Y-64812554D01*
X118181887Y-65226884D01*
X118045510Y-65676458D01*
X117999461Y-66144000D01*
X112124539Y-66144000D01*
X112078490Y-65676458D01*
X111942113Y-65226884D01*
X111720649Y-64812554D01*
X111422609Y-64449391D01*
X111059446Y-64151351D01*
X110645116Y-63929887D01*
X110195542Y-63793510D01*
X109845157Y-63759000D01*
X109610843Y-63759000D01*
X109260458Y-63793510D01*
X108810884Y-63929887D01*
X108396554Y-64151351D01*
X108033391Y-64449391D01*
X107735351Y-64812554D01*
X107513887Y-65226884D01*
X107377510Y-65676458D01*
X107331461Y-66144000D01*
X104800000Y-66144000D01*
X104800000Y-63398000D01*
X189332000Y-63398000D01*
X189332000Y-81153000D01*
G36*
X189332001Y-102489000D02*
G01*
X104800000Y-102489000D01*
X104800000Y-85217000D01*
X189332000Y-85217000D01*
X189332001Y-102489000D01*
X189332001Y-102489000D01*
G37*
X189332001Y-102489000D02*
X104800000Y-102489000D01*
X104800000Y-85217000D01*
X189332000Y-85217000D01*
X189332001Y-102489000D01*
G36*
X127450000Y-116861531D02*
G01*
X127445719Y-116905000D01*
X127450000Y-116948469D01*
X127450000Y-116948476D01*
X127458773Y-117037546D01*
X127462805Y-117078490D01*
X127467510Y-117093999D01*
X127513411Y-117245312D01*
X127595589Y-117399058D01*
X127706183Y-117533817D01*
X127739956Y-117561534D01*
X127867466Y-117689044D01*
X127895183Y-117722817D01*
X128029941Y-117833411D01*
X128183687Y-117915589D01*
X128350510Y-117966195D01*
X128480523Y-117979000D01*
X128480533Y-117979000D01*
X128523999Y-117983281D01*
X128532205Y-117982473D01*
X128563042Y-118040164D01*
X128672708Y-118173792D01*
X128806336Y-118283458D01*
X128958791Y-118364947D01*
X129124215Y-118415128D01*
X129296250Y-118432072D01*
X129783750Y-118432072D01*
X129955785Y-118415128D01*
X130121209Y-118364947D01*
X130273664Y-118283458D01*
X130407292Y-118173792D01*
X130477500Y-118088244D01*
X130547708Y-118173792D01*
X130681336Y-118283458D01*
X130833791Y-118364947D01*
X130999215Y-118415128D01*
X131171250Y-118432072D01*
X131658750Y-118432072D01*
X131830785Y-118415128D01*
X131996209Y-118364947D01*
X132148664Y-118283458D01*
X132282292Y-118173792D01*
X132391958Y-118040164D01*
X132473447Y-117887709D01*
X132483673Y-117854000D01*
X132677678Y-117854000D01*
X132715000Y-117857676D01*
X132752322Y-117854000D01*
X132752333Y-117854000D01*
X132863986Y-117843003D01*
X133007247Y-117799546D01*
X133139276Y-117728974D01*
X133141681Y-117727000D01*
X134264827Y-117727000D01*
X134275053Y-117760709D01*
X134356542Y-117913164D01*
X134466208Y-118046792D01*
X134599836Y-118156458D01*
X134752291Y-118237947D01*
X134917715Y-118288128D01*
X135089750Y-118305072D01*
X135511000Y-118305072D01*
X135511000Y-118684198D01*
X135389520Y-118805678D01*
X135371750Y-118803928D01*
X134884250Y-118803928D01*
X134712215Y-118820872D01*
X134546791Y-118871053D01*
X134394336Y-118952542D01*
X134260708Y-119062208D01*
X134190500Y-119147756D01*
X134120292Y-119062208D01*
X133986664Y-118952542D01*
X133834209Y-118871053D01*
X133668785Y-118820872D01*
X133496750Y-118803928D01*
X133009250Y-118803928D01*
X132837215Y-118820872D01*
X132671791Y-118871053D01*
X132519336Y-118952542D01*
X132385708Y-119062208D01*
X132276042Y-119195836D01*
X132194553Y-119348291D01*
X132184327Y-119382000D01*
X132132673Y-119382000D01*
X132122447Y-119348291D01*
X132040958Y-119195836D01*
X131931292Y-119062208D01*
X131797664Y-118952542D01*
X131645209Y-118871053D01*
X131479785Y-118820872D01*
X131307750Y-118803928D01*
X130820250Y-118803928D01*
X130648215Y-118820872D01*
X130482791Y-118871053D01*
X130330336Y-118952542D01*
X130196708Y-119062208D01*
X130191492Y-119068564D01*
X130127685Y-118990815D01*
X130030994Y-118911463D01*
X129920680Y-118852498D01*
X129800982Y-118816188D01*
X129676500Y-118803928D01*
X129474750Y-118807000D01*
X129316000Y-118965750D01*
X129316000Y-120015000D01*
X129336000Y-120015000D01*
X129336000Y-120269000D01*
X129316000Y-120269000D01*
X129316000Y-120289000D01*
X129062000Y-120289000D01*
X129062000Y-120269000D01*
X128225250Y-120269000D01*
X128066500Y-120427750D01*
X128063428Y-120842000D01*
X128075688Y-120966482D01*
X128087676Y-121006000D01*
X119329165Y-121006000D01*
X119347377Y-120980200D01*
X119291855Y-120980200D01*
X119310494Y-120970237D01*
X119407185Y-120890885D01*
X119486537Y-120794194D01*
X119545502Y-120683880D01*
X119581812Y-120564182D01*
X119594072Y-120439700D01*
X119594019Y-120428739D01*
X119594072Y-120428200D01*
X119594013Y-120427605D01*
X119592324Y-120078702D01*
X123646903Y-120078702D01*
X123718486Y-120322671D01*
X123973996Y-120443571D01*
X124248184Y-120512300D01*
X124530512Y-120526217D01*
X124810130Y-120484787D01*
X125076292Y-120389603D01*
X125201514Y-120322671D01*
X125273097Y-120078702D01*
X124460000Y-119265605D01*
X123646903Y-120078702D01*
X119592324Y-120078702D01*
X119591000Y-119805450D01*
X119432250Y-119646700D01*
X117983000Y-119646700D01*
X117983000Y-119666700D01*
X117729000Y-119666700D01*
X117729000Y-119646700D01*
X116279750Y-119646700D01*
X116121000Y-119805450D01*
X116117928Y-120439700D01*
X116118251Y-120442977D01*
X116118137Y-120444542D01*
X116119422Y-120454869D01*
X116130188Y-120564182D01*
X116166498Y-120683880D01*
X116225463Y-120794194D01*
X116304815Y-120890885D01*
X116401506Y-120970237D01*
X116420145Y-120980200D01*
X116364623Y-120980200D01*
X116382835Y-121006000D01*
X106724761Y-121006000D01*
X106803252Y-120978157D01*
X107053355Y-120829178D01*
X107269588Y-120634269D01*
X107443641Y-120400920D01*
X107568825Y-120138099D01*
X107586841Y-120078702D01*
X110946903Y-120078702D01*
X111018486Y-120322671D01*
X111273996Y-120443571D01*
X111548184Y-120512300D01*
X111830512Y-120526217D01*
X112110130Y-120484787D01*
X112376292Y-120389603D01*
X112501514Y-120322671D01*
X112573097Y-120078702D01*
X111760000Y-119265605D01*
X110946903Y-120078702D01*
X107586841Y-120078702D01*
X107613476Y-119990890D01*
X107492155Y-119761000D01*
X106299000Y-119761000D01*
X106299000Y-119781000D01*
X106045000Y-119781000D01*
X106045000Y-119761000D01*
X106025000Y-119761000D01*
X106025000Y-119507000D01*
X106045000Y-119507000D01*
X106045000Y-119487000D01*
X106299000Y-119487000D01*
X106299000Y-119507000D01*
X107492155Y-119507000D01*
X107613476Y-119277110D01*
X107576897Y-119156512D01*
X110319783Y-119156512D01*
X110361213Y-119436130D01*
X110456397Y-119702292D01*
X110523329Y-119827514D01*
X110767298Y-119899097D01*
X111580395Y-119086000D01*
X111939605Y-119086000D01*
X112752702Y-119899097D01*
X112996671Y-119827514D01*
X113117571Y-119572004D01*
X113186300Y-119297816D01*
X113200217Y-119015488D01*
X113158787Y-118735870D01*
X113063603Y-118469708D01*
X112996671Y-118344486D01*
X112752702Y-118272903D01*
X111939605Y-119086000D01*
X111580395Y-119086000D01*
X110767298Y-118272903D01*
X110523329Y-118344486D01*
X110402429Y-118599996D01*
X110333700Y-118874184D01*
X110319783Y-119156512D01*
X107576897Y-119156512D01*
X107568825Y-119129901D01*
X107443641Y-118867080D01*
X107269588Y-118633731D01*
X107185534Y-118557966D01*
X107266180Y-118533502D01*
X107376494Y-118474537D01*
X107473185Y-118395185D01*
X107552537Y-118298494D01*
X107611502Y-118188180D01*
X107647812Y-118068482D01*
X107660072Y-117944000D01*
X107660072Y-116244000D01*
X107647812Y-116119518D01*
X107611502Y-115999820D01*
X107552537Y-115889506D01*
X107473185Y-115792815D01*
X107376494Y-115713463D01*
X107266180Y-115654498D01*
X107146482Y-115618188D01*
X107022000Y-115605928D01*
X105660000Y-115605928D01*
X105660000Y-115260072D01*
X106772000Y-115260072D01*
X106896482Y-115247812D01*
X107016180Y-115211502D01*
X107126494Y-115152537D01*
X107223185Y-115073185D01*
X107236468Y-115057000D01*
X110876000Y-115057000D01*
X110876000Y-115156201D01*
X110835518Y-115160188D01*
X110715820Y-115196498D01*
X110605506Y-115255463D01*
X110508815Y-115334815D01*
X110429463Y-115431506D01*
X110370498Y-115541820D01*
X110334188Y-115661518D01*
X110321928Y-115786000D01*
X110321928Y-117386000D01*
X110334188Y-117510482D01*
X110370498Y-117630180D01*
X110429463Y-117740494D01*
X110508815Y-117837185D01*
X110605506Y-117916537D01*
X110715820Y-117975502D01*
X110835518Y-118011812D01*
X110960000Y-118024072D01*
X110967215Y-118024072D01*
X110946903Y-118093298D01*
X111760000Y-118906395D01*
X112573097Y-118093298D01*
X112552785Y-118024072D01*
X112560000Y-118024072D01*
X112684482Y-118011812D01*
X112804180Y-117975502D01*
X112914494Y-117916537D01*
X113011185Y-117837185D01*
X113090537Y-117740494D01*
X113149502Y-117630180D01*
X113185812Y-117510482D01*
X113198072Y-117386000D01*
X113198072Y-115786000D01*
X113185812Y-115661518D01*
X113149502Y-115541820D01*
X113090537Y-115431506D01*
X113011185Y-115334815D01*
X112914494Y-115255463D01*
X112804180Y-115196498D01*
X112684482Y-115160188D01*
X112646000Y-115156398D01*
X112646000Y-115057000D01*
X113541000Y-115057000D01*
X113541000Y-115732731D01*
X113536719Y-115776200D01*
X113541000Y-115819669D01*
X113541000Y-115819676D01*
X113551813Y-115929468D01*
X113553805Y-115949690D01*
X113569012Y-115999820D01*
X113604411Y-116116512D01*
X113686589Y-116270258D01*
X113797183Y-116405017D01*
X113830956Y-116432734D01*
X114699470Y-117301249D01*
X114727183Y-117335017D01*
X114760951Y-117362730D01*
X114760953Y-117362732D01*
X114861941Y-117445611D01*
X115015686Y-117527789D01*
X115182510Y-117578395D01*
X115230941Y-117583165D01*
X115266498Y-117700380D01*
X115325463Y-117810694D01*
X115404815Y-117907385D01*
X115501506Y-117986737D01*
X115611820Y-118045702D01*
X115731518Y-118082012D01*
X115856000Y-118094272D01*
X116370910Y-118094272D01*
X116304815Y-118148515D01*
X116225463Y-118245206D01*
X116166498Y-118355520D01*
X116130188Y-118475218D01*
X116117928Y-118599700D01*
X116117976Y-118609517D01*
X116117928Y-118610000D01*
X116117980Y-118610533D01*
X116121000Y-119233950D01*
X116279750Y-119392700D01*
X117729000Y-119392700D01*
X117729000Y-116971928D01*
X117709000Y-116971928D01*
X117709000Y-116725700D01*
X117729000Y-116725700D01*
X117729000Y-116705700D01*
X117983000Y-116705700D01*
X117983000Y-116725700D01*
X118003000Y-116725700D01*
X118003000Y-116971928D01*
X117983000Y-116971928D01*
X117983000Y-119392700D01*
X119432250Y-119392700D01*
X119591000Y-119233950D01*
X119591375Y-119156512D01*
X123019783Y-119156512D01*
X123061213Y-119436130D01*
X123156397Y-119702292D01*
X123223329Y-119827514D01*
X123467298Y-119899097D01*
X124280395Y-119086000D01*
X124639605Y-119086000D01*
X125452702Y-119899097D01*
X125696671Y-119827514D01*
X125817571Y-119572004D01*
X125850158Y-119442000D01*
X128063428Y-119442000D01*
X128066500Y-119856250D01*
X128225250Y-120015000D01*
X129062000Y-120015000D01*
X129062000Y-118965750D01*
X128903250Y-118807000D01*
X128701500Y-118803928D01*
X128577018Y-118816188D01*
X128457320Y-118852498D01*
X128347006Y-118911463D01*
X128250315Y-118990815D01*
X128170963Y-119087506D01*
X128111998Y-119197820D01*
X128075688Y-119317518D01*
X128063428Y-119442000D01*
X125850158Y-119442000D01*
X125886300Y-119297816D01*
X125900217Y-119015488D01*
X125858787Y-118735870D01*
X125763603Y-118469708D01*
X125696671Y-118344486D01*
X125452702Y-118272903D01*
X124639605Y-119086000D01*
X124280395Y-119086000D01*
X123467298Y-118272903D01*
X123223329Y-118344486D01*
X123102429Y-118599996D01*
X123033700Y-118874184D01*
X123019783Y-119156512D01*
X119591375Y-119156512D01*
X119594072Y-118599700D01*
X119593835Y-118597298D01*
X119593922Y-118596169D01*
X119592837Y-118587157D01*
X119581812Y-118475218D01*
X119545502Y-118355520D01*
X119486537Y-118245206D01*
X119407185Y-118148515D01*
X119341090Y-118094272D01*
X119856000Y-118094272D01*
X119980482Y-118082012D01*
X120100180Y-118045702D01*
X120210494Y-117986737D01*
X120307185Y-117907385D01*
X120386537Y-117810694D01*
X120445502Y-117700380D01*
X120478621Y-117591200D01*
X123058674Y-117591200D01*
X123070498Y-117630180D01*
X123129463Y-117740494D01*
X123208815Y-117837185D01*
X123305506Y-117916537D01*
X123415820Y-117975502D01*
X123535518Y-118011812D01*
X123660000Y-118024072D01*
X123667215Y-118024072D01*
X123646903Y-118093298D01*
X124460000Y-118906395D01*
X125273097Y-118093298D01*
X125252785Y-118024072D01*
X125260000Y-118024072D01*
X125384482Y-118011812D01*
X125504180Y-117975502D01*
X125614494Y-117916537D01*
X125711185Y-117837185D01*
X125790537Y-117740494D01*
X125849502Y-117630180D01*
X125885812Y-117510482D01*
X125889595Y-117472071D01*
X125900469Y-117471000D01*
X125900477Y-117471000D01*
X126030490Y-117458195D01*
X126197313Y-117407589D01*
X126351059Y-117325411D01*
X126485817Y-117214817D01*
X126513534Y-117181044D01*
X127087050Y-116607529D01*
X127120817Y-116579817D01*
X127177500Y-116510750D01*
X127231411Y-116445059D01*
X127313589Y-116291314D01*
X127364195Y-116124490D01*
X127365508Y-116111154D01*
X127377000Y-115994477D01*
X127377000Y-115994469D01*
X127381281Y-115951000D01*
X127377000Y-115907531D01*
X127377000Y-114866000D01*
X127450001Y-114866000D01*
X127450000Y-116861531D01*
X127450000Y-116861531D01*
G37*
X127450000Y-116861531D02*
X127445719Y-116905000D01*
X127450000Y-116948469D01*
X127450000Y-116948476D01*
X127458773Y-117037546D01*
X127462805Y-117078490D01*
X127467510Y-117093999D01*
X127513411Y-117245312D01*
X127595589Y-117399058D01*
X127706183Y-117533817D01*
X127739956Y-117561534D01*
X127867466Y-117689044D01*
X127895183Y-117722817D01*
X128029941Y-117833411D01*
X128183687Y-117915589D01*
X128350510Y-117966195D01*
X128480523Y-117979000D01*
X128480533Y-117979000D01*
X128523999Y-117983281D01*
X128532205Y-117982473D01*
X128563042Y-118040164D01*
X128672708Y-118173792D01*
X128806336Y-118283458D01*
X128958791Y-118364947D01*
X129124215Y-118415128D01*
X129296250Y-118432072D01*
X129783750Y-118432072D01*
X129955785Y-118415128D01*
X130121209Y-118364947D01*
X130273664Y-118283458D01*
X130407292Y-118173792D01*
X130477500Y-118088244D01*
X130547708Y-118173792D01*
X130681336Y-118283458D01*
X130833791Y-118364947D01*
X130999215Y-118415128D01*
X131171250Y-118432072D01*
X131658750Y-118432072D01*
X131830785Y-118415128D01*
X131996209Y-118364947D01*
X132148664Y-118283458D01*
X132282292Y-118173792D01*
X132391958Y-118040164D01*
X132473447Y-117887709D01*
X132483673Y-117854000D01*
X132677678Y-117854000D01*
X132715000Y-117857676D01*
X132752322Y-117854000D01*
X132752333Y-117854000D01*
X132863986Y-117843003D01*
X133007247Y-117799546D01*
X133139276Y-117728974D01*
X133141681Y-117727000D01*
X134264827Y-117727000D01*
X134275053Y-117760709D01*
X134356542Y-117913164D01*
X134466208Y-118046792D01*
X134599836Y-118156458D01*
X134752291Y-118237947D01*
X134917715Y-118288128D01*
X135089750Y-118305072D01*
X135511000Y-118305072D01*
X135511000Y-118684198D01*
X135389520Y-118805678D01*
X135371750Y-118803928D01*
X134884250Y-118803928D01*
X134712215Y-118820872D01*
X134546791Y-118871053D01*
X134394336Y-118952542D01*
X134260708Y-119062208D01*
X134190500Y-119147756D01*
X134120292Y-119062208D01*
X133986664Y-118952542D01*
X133834209Y-118871053D01*
X133668785Y-118820872D01*
X133496750Y-118803928D01*
X133009250Y-118803928D01*
X132837215Y-118820872D01*
X132671791Y-118871053D01*
X132519336Y-118952542D01*
X132385708Y-119062208D01*
X132276042Y-119195836D01*
X132194553Y-119348291D01*
X132184327Y-119382000D01*
X132132673Y-119382000D01*
X132122447Y-119348291D01*
X132040958Y-119195836D01*
X131931292Y-119062208D01*
X131797664Y-118952542D01*
X131645209Y-118871053D01*
X131479785Y-118820872D01*
X131307750Y-118803928D01*
X130820250Y-118803928D01*
X130648215Y-118820872D01*
X130482791Y-118871053D01*
X130330336Y-118952542D01*
X130196708Y-119062208D01*
X130191492Y-119068564D01*
X130127685Y-118990815D01*
X130030994Y-118911463D01*
X129920680Y-118852498D01*
X129800982Y-118816188D01*
X129676500Y-118803928D01*
X129474750Y-118807000D01*
X129316000Y-118965750D01*
X129316000Y-120015000D01*
X129336000Y-120015000D01*
X129336000Y-120269000D01*
X129316000Y-120269000D01*
X129316000Y-120289000D01*
X129062000Y-120289000D01*
X129062000Y-120269000D01*
X128225250Y-120269000D01*
X128066500Y-120427750D01*
X128063428Y-120842000D01*
X128075688Y-120966482D01*
X128087676Y-121006000D01*
X119329165Y-121006000D01*
X119347377Y-120980200D01*
X119291855Y-120980200D01*
X119310494Y-120970237D01*
X119407185Y-120890885D01*
X119486537Y-120794194D01*
X119545502Y-120683880D01*
X119581812Y-120564182D01*
X119594072Y-120439700D01*
X119594019Y-120428739D01*
X119594072Y-120428200D01*
X119594013Y-120427605D01*
X119592324Y-120078702D01*
X123646903Y-120078702D01*
X123718486Y-120322671D01*
X123973996Y-120443571D01*
X124248184Y-120512300D01*
X124530512Y-120526217D01*
X124810130Y-120484787D01*
X125076292Y-120389603D01*
X125201514Y-120322671D01*
X125273097Y-120078702D01*
X124460000Y-119265605D01*
X123646903Y-120078702D01*
X119592324Y-120078702D01*
X119591000Y-119805450D01*
X119432250Y-119646700D01*
X117983000Y-119646700D01*
X117983000Y-119666700D01*
X117729000Y-119666700D01*
X117729000Y-119646700D01*
X116279750Y-119646700D01*
X116121000Y-119805450D01*
X116117928Y-120439700D01*
X116118251Y-120442977D01*
X116118137Y-120444542D01*
X116119422Y-120454869D01*
X116130188Y-120564182D01*
X116166498Y-120683880D01*
X116225463Y-120794194D01*
X116304815Y-120890885D01*
X116401506Y-120970237D01*
X116420145Y-120980200D01*
X116364623Y-120980200D01*
X116382835Y-121006000D01*
X106724761Y-121006000D01*
X106803252Y-120978157D01*
X107053355Y-120829178D01*
X107269588Y-120634269D01*
X107443641Y-120400920D01*
X107568825Y-120138099D01*
X107586841Y-120078702D01*
X110946903Y-120078702D01*
X111018486Y-120322671D01*
X111273996Y-120443571D01*
X111548184Y-120512300D01*
X111830512Y-120526217D01*
X112110130Y-120484787D01*
X112376292Y-120389603D01*
X112501514Y-120322671D01*
X112573097Y-120078702D01*
X111760000Y-119265605D01*
X110946903Y-120078702D01*
X107586841Y-120078702D01*
X107613476Y-119990890D01*
X107492155Y-119761000D01*
X106299000Y-119761000D01*
X106299000Y-119781000D01*
X106045000Y-119781000D01*
X106045000Y-119761000D01*
X106025000Y-119761000D01*
X106025000Y-119507000D01*
X106045000Y-119507000D01*
X106045000Y-119487000D01*
X106299000Y-119487000D01*
X106299000Y-119507000D01*
X107492155Y-119507000D01*
X107613476Y-119277110D01*
X107576897Y-119156512D01*
X110319783Y-119156512D01*
X110361213Y-119436130D01*
X110456397Y-119702292D01*
X110523329Y-119827514D01*
X110767298Y-119899097D01*
X111580395Y-119086000D01*
X111939605Y-119086000D01*
X112752702Y-119899097D01*
X112996671Y-119827514D01*
X113117571Y-119572004D01*
X113186300Y-119297816D01*
X113200217Y-119015488D01*
X113158787Y-118735870D01*
X113063603Y-118469708D01*
X112996671Y-118344486D01*
X112752702Y-118272903D01*
X111939605Y-119086000D01*
X111580395Y-119086000D01*
X110767298Y-118272903D01*
X110523329Y-118344486D01*
X110402429Y-118599996D01*
X110333700Y-118874184D01*
X110319783Y-119156512D01*
X107576897Y-119156512D01*
X107568825Y-119129901D01*
X107443641Y-118867080D01*
X107269588Y-118633731D01*
X107185534Y-118557966D01*
X107266180Y-118533502D01*
X107376494Y-118474537D01*
X107473185Y-118395185D01*
X107552537Y-118298494D01*
X107611502Y-118188180D01*
X107647812Y-118068482D01*
X107660072Y-117944000D01*
X107660072Y-116244000D01*
X107647812Y-116119518D01*
X107611502Y-115999820D01*
X107552537Y-115889506D01*
X107473185Y-115792815D01*
X107376494Y-115713463D01*
X107266180Y-115654498D01*
X107146482Y-115618188D01*
X107022000Y-115605928D01*
X105660000Y-115605928D01*
X105660000Y-115260072D01*
X106772000Y-115260072D01*
X106896482Y-115247812D01*
X107016180Y-115211502D01*
X107126494Y-115152537D01*
X107223185Y-115073185D01*
X107236468Y-115057000D01*
X110876000Y-115057000D01*
X110876000Y-115156201D01*
X110835518Y-115160188D01*
X110715820Y-115196498D01*
X110605506Y-115255463D01*
X110508815Y-115334815D01*
X110429463Y-115431506D01*
X110370498Y-115541820D01*
X110334188Y-115661518D01*
X110321928Y-115786000D01*
X110321928Y-117386000D01*
X110334188Y-117510482D01*
X110370498Y-117630180D01*
X110429463Y-117740494D01*
X110508815Y-117837185D01*
X110605506Y-117916537D01*
X110715820Y-117975502D01*
X110835518Y-118011812D01*
X110960000Y-118024072D01*
X110967215Y-118024072D01*
X110946903Y-118093298D01*
X111760000Y-118906395D01*
X112573097Y-118093298D01*
X112552785Y-118024072D01*
X112560000Y-118024072D01*
X112684482Y-118011812D01*
X112804180Y-117975502D01*
X112914494Y-117916537D01*
X113011185Y-117837185D01*
X113090537Y-117740494D01*
X113149502Y-117630180D01*
X113185812Y-117510482D01*
X113198072Y-117386000D01*
X113198072Y-115786000D01*
X113185812Y-115661518D01*
X113149502Y-115541820D01*
X113090537Y-115431506D01*
X113011185Y-115334815D01*
X112914494Y-115255463D01*
X112804180Y-115196498D01*
X112684482Y-115160188D01*
X112646000Y-115156398D01*
X112646000Y-115057000D01*
X113541000Y-115057000D01*
X113541000Y-115732731D01*
X113536719Y-115776200D01*
X113541000Y-115819669D01*
X113541000Y-115819676D01*
X113551813Y-115929468D01*
X113553805Y-115949690D01*
X113569012Y-115999820D01*
X113604411Y-116116512D01*
X113686589Y-116270258D01*
X113797183Y-116405017D01*
X113830956Y-116432734D01*
X114699470Y-117301249D01*
X114727183Y-117335017D01*
X114760951Y-117362730D01*
X114760953Y-117362732D01*
X114861941Y-117445611D01*
X115015686Y-117527789D01*
X115182510Y-117578395D01*
X115230941Y-117583165D01*
X115266498Y-117700380D01*
X115325463Y-117810694D01*
X115404815Y-117907385D01*
X115501506Y-117986737D01*
X115611820Y-118045702D01*
X115731518Y-118082012D01*
X115856000Y-118094272D01*
X116370910Y-118094272D01*
X116304815Y-118148515D01*
X116225463Y-118245206D01*
X116166498Y-118355520D01*
X116130188Y-118475218D01*
X116117928Y-118599700D01*
X116117976Y-118609517D01*
X116117928Y-118610000D01*
X116117980Y-118610533D01*
X116121000Y-119233950D01*
X116279750Y-119392700D01*
X117729000Y-119392700D01*
X117729000Y-116971928D01*
X117709000Y-116971928D01*
X117709000Y-116725700D01*
X117729000Y-116725700D01*
X117729000Y-116705700D01*
X117983000Y-116705700D01*
X117983000Y-116725700D01*
X118003000Y-116725700D01*
X118003000Y-116971928D01*
X117983000Y-116971928D01*
X117983000Y-119392700D01*
X119432250Y-119392700D01*
X119591000Y-119233950D01*
X119591375Y-119156512D01*
X123019783Y-119156512D01*
X123061213Y-119436130D01*
X123156397Y-119702292D01*
X123223329Y-119827514D01*
X123467298Y-119899097D01*
X124280395Y-119086000D01*
X124639605Y-119086000D01*
X125452702Y-119899097D01*
X125696671Y-119827514D01*
X125817571Y-119572004D01*
X125850158Y-119442000D01*
X128063428Y-119442000D01*
X128066500Y-119856250D01*
X128225250Y-120015000D01*
X129062000Y-120015000D01*
X129062000Y-118965750D01*
X128903250Y-118807000D01*
X128701500Y-118803928D01*
X128577018Y-118816188D01*
X128457320Y-118852498D01*
X128347006Y-118911463D01*
X128250315Y-118990815D01*
X128170963Y-119087506D01*
X128111998Y-119197820D01*
X128075688Y-119317518D01*
X128063428Y-119442000D01*
X125850158Y-119442000D01*
X125886300Y-119297816D01*
X125900217Y-119015488D01*
X125858787Y-118735870D01*
X125763603Y-118469708D01*
X125696671Y-118344486D01*
X125452702Y-118272903D01*
X124639605Y-119086000D01*
X124280395Y-119086000D01*
X123467298Y-118272903D01*
X123223329Y-118344486D01*
X123102429Y-118599996D01*
X123033700Y-118874184D01*
X123019783Y-119156512D01*
X119591375Y-119156512D01*
X119594072Y-118599700D01*
X119593835Y-118597298D01*
X119593922Y-118596169D01*
X119592837Y-118587157D01*
X119581812Y-118475218D01*
X119545502Y-118355520D01*
X119486537Y-118245206D01*
X119407185Y-118148515D01*
X119341090Y-118094272D01*
X119856000Y-118094272D01*
X119980482Y-118082012D01*
X120100180Y-118045702D01*
X120210494Y-117986737D01*
X120307185Y-117907385D01*
X120386537Y-117810694D01*
X120445502Y-117700380D01*
X120478621Y-117591200D01*
X123058674Y-117591200D01*
X123070498Y-117630180D01*
X123129463Y-117740494D01*
X123208815Y-117837185D01*
X123305506Y-117916537D01*
X123415820Y-117975502D01*
X123535518Y-118011812D01*
X123660000Y-118024072D01*
X123667215Y-118024072D01*
X123646903Y-118093298D01*
X124460000Y-118906395D01*
X125273097Y-118093298D01*
X125252785Y-118024072D01*
X125260000Y-118024072D01*
X125384482Y-118011812D01*
X125504180Y-117975502D01*
X125614494Y-117916537D01*
X125711185Y-117837185D01*
X125790537Y-117740494D01*
X125849502Y-117630180D01*
X125885812Y-117510482D01*
X125889595Y-117472071D01*
X125900469Y-117471000D01*
X125900477Y-117471000D01*
X126030490Y-117458195D01*
X126197313Y-117407589D01*
X126351059Y-117325411D01*
X126485817Y-117214817D01*
X126513534Y-117181044D01*
X127087050Y-116607529D01*
X127120817Y-116579817D01*
X127177500Y-116510750D01*
X127231411Y-116445059D01*
X127313589Y-116291314D01*
X127364195Y-116124490D01*
X127365508Y-116111154D01*
X127377000Y-115994477D01*
X127377000Y-115994469D01*
X127381281Y-115951000D01*
X127377000Y-115907531D01*
X127377000Y-114866000D01*
X127450001Y-114866000D01*
X127450000Y-116861531D01*
G36*
X146587294Y-111827014D02*
G01*
X146772866Y-112053134D01*
X146998986Y-112238706D01*
X147256966Y-112376599D01*
X147536889Y-112461513D01*
X147755050Y-112483000D01*
X147900950Y-112483000D01*
X148119111Y-112461513D01*
X148399034Y-112376599D01*
X148657014Y-112238706D01*
X148883134Y-112053134D01*
X149022759Y-111883000D01*
X167400422Y-111883000D01*
X168627000Y-113109579D01*
X168627001Y-118054482D01*
X168361379Y-118231965D01*
X168109965Y-118483379D01*
X167912429Y-118779012D01*
X167776365Y-119107501D01*
X167707000Y-119456223D01*
X167707000Y-119811777D01*
X167776365Y-120160499D01*
X167912429Y-120488988D01*
X168109965Y-120784621D01*
X168331344Y-121006000D01*
X165692656Y-121006000D01*
X165914035Y-120784621D01*
X166111571Y-120488988D01*
X166247635Y-120160499D01*
X166317000Y-119811777D01*
X166317000Y-119456223D01*
X166247635Y-119107501D01*
X166111571Y-118779012D01*
X165914035Y-118483379D01*
X165662621Y-118231965D01*
X165366988Y-118034429D01*
X165038499Y-117898365D01*
X164689777Y-117829000D01*
X164334223Y-117829000D01*
X163985501Y-117898365D01*
X163657012Y-118034429D01*
X163361379Y-118231965D01*
X163109965Y-118483379D01*
X162912429Y-118779012D01*
X162776365Y-119107501D01*
X162707000Y-119456223D01*
X162707000Y-119811777D01*
X162776365Y-120160499D01*
X162912429Y-120488988D01*
X163109965Y-120784621D01*
X163331344Y-121006000D01*
X160541381Y-121006000D01*
X160588997Y-120890602D01*
X159512000Y-119813605D01*
X158435003Y-120890602D01*
X158482619Y-121006000D01*
X152762118Y-121006000D01*
X152847808Y-120769413D01*
X151892000Y-119813605D01*
X150936192Y-120769413D01*
X151021882Y-121006000D01*
X146262118Y-121006000D01*
X146347808Y-120769413D01*
X145392000Y-119813605D01*
X144436192Y-120769413D01*
X144521882Y-121006000D01*
X141780219Y-121006000D01*
X141990920Y-120905641D01*
X142224269Y-120731588D01*
X142419178Y-120515355D01*
X142568157Y-120265252D01*
X142665481Y-119990891D01*
X142544814Y-119761000D01*
X141351000Y-119761000D01*
X141351000Y-119781000D01*
X141097000Y-119781000D01*
X141097000Y-119761000D01*
X141077000Y-119761000D01*
X141077000Y-119696595D01*
X143750282Y-119696595D01*
X143794039Y-120015675D01*
X143899205Y-120320088D01*
X143992186Y-120494044D01*
X144256587Y-120589808D01*
X145212395Y-119634000D01*
X145571605Y-119634000D01*
X146527413Y-120589808D01*
X146791814Y-120494044D01*
X146932704Y-120204429D01*
X147014384Y-119892892D01*
X147026189Y-119696595D01*
X150250282Y-119696595D01*
X150294039Y-120015675D01*
X150399205Y-120320088D01*
X150492186Y-120494044D01*
X150756587Y-120589808D01*
X151712395Y-119634000D01*
X152071605Y-119634000D01*
X153027413Y-120589808D01*
X153291814Y-120494044D01*
X153432704Y-120204429D01*
X153514384Y-119892892D01*
X153526593Y-119689869D01*
X157699127Y-119689869D01*
X157744861Y-120042470D01*
X157858505Y-120379373D01*
X157973611Y-120594725D01*
X158255398Y-120710997D01*
X159332395Y-119634000D01*
X159691605Y-119634000D01*
X160768602Y-120710997D01*
X161050389Y-120594725D01*
X161208257Y-120276140D01*
X161300938Y-119932878D01*
X161324873Y-119578131D01*
X161279139Y-119225530D01*
X161165495Y-118888627D01*
X161050389Y-118673275D01*
X160768602Y-118557003D01*
X159691605Y-119634000D01*
X159332395Y-119634000D01*
X158255398Y-118557003D01*
X157973611Y-118673275D01*
X157815743Y-118991860D01*
X157723062Y-119335122D01*
X157699127Y-119689869D01*
X153526593Y-119689869D01*
X153533718Y-119571405D01*
X153489961Y-119252325D01*
X153384795Y-118947912D01*
X153291814Y-118773956D01*
X153027413Y-118678192D01*
X152071605Y-119634000D01*
X151712395Y-119634000D01*
X150756587Y-118678192D01*
X150492186Y-118773956D01*
X150351296Y-119063571D01*
X150269616Y-119375108D01*
X150250282Y-119696595D01*
X147026189Y-119696595D01*
X147033718Y-119571405D01*
X146989961Y-119252325D01*
X146884795Y-118947912D01*
X146791814Y-118773956D01*
X146527413Y-118678192D01*
X145571605Y-119634000D01*
X145212395Y-119634000D01*
X144256587Y-118678192D01*
X143992186Y-118773956D01*
X143851296Y-119063571D01*
X143769616Y-119375108D01*
X143750282Y-119696595D01*
X141077000Y-119696595D01*
X141077000Y-119507000D01*
X141097000Y-119507000D01*
X141097000Y-118313845D01*
X141351000Y-118313845D01*
X141351000Y-119507000D01*
X142544814Y-119507000D01*
X142665481Y-119277109D01*
X142568157Y-119002748D01*
X142419178Y-118752645D01*
X142224269Y-118536412D01*
X142173558Y-118498587D01*
X144436192Y-118498587D01*
X145392000Y-119454395D01*
X146347808Y-118498587D01*
X150936192Y-118498587D01*
X151892000Y-119454395D01*
X152847808Y-118498587D01*
X152803915Y-118377398D01*
X158435003Y-118377398D01*
X159512000Y-119454395D01*
X160588997Y-118377398D01*
X160472725Y-118095611D01*
X160154140Y-117937743D01*
X159810878Y-117845062D01*
X159456131Y-117821127D01*
X159103530Y-117866861D01*
X158766627Y-117980505D01*
X158551275Y-118095611D01*
X158435003Y-118377398D01*
X152803915Y-118377398D01*
X152752044Y-118234186D01*
X152462429Y-118093296D01*
X152150892Y-118011616D01*
X151829405Y-117992282D01*
X151510325Y-118036039D01*
X151205912Y-118141205D01*
X151031956Y-118234186D01*
X150936192Y-118498587D01*
X146347808Y-118498587D01*
X146252044Y-118234186D01*
X145962429Y-118093296D01*
X145650892Y-118011616D01*
X145329405Y-117992282D01*
X145010325Y-118036039D01*
X144705912Y-118141205D01*
X144531956Y-118234186D01*
X144436192Y-118498587D01*
X142173558Y-118498587D01*
X141990920Y-118362359D01*
X141728099Y-118237175D01*
X141580890Y-118192524D01*
X141351000Y-118313845D01*
X141097000Y-118313845D01*
X140867110Y-118192524D01*
X140719901Y-118237175D01*
X140457080Y-118362359D01*
X140223731Y-118536412D01*
X140147966Y-118620466D01*
X140123502Y-118539820D01*
X140064537Y-118429506D01*
X139985185Y-118332815D01*
X139888494Y-118253463D01*
X139778180Y-118194498D01*
X139658482Y-118158188D01*
X139534000Y-118145928D01*
X139444000Y-118145928D01*
X139444000Y-117281801D01*
X139831803Y-116893999D01*
X144354679Y-116893999D01*
X144392001Y-116897675D01*
X144429323Y-116893999D01*
X144429334Y-116893999D01*
X144540987Y-116883002D01*
X144684248Y-116839545D01*
X144816277Y-116768973D01*
X144900279Y-116700034D01*
X144915088Y-116706168D01*
X145230967Y-116769000D01*
X145553033Y-116769000D01*
X145868912Y-116706168D01*
X146166463Y-116582918D01*
X146434252Y-116403987D01*
X146661987Y-116176252D01*
X146840918Y-115908463D01*
X146846909Y-115894000D01*
X150437091Y-115894000D01*
X150443082Y-115908463D01*
X150622013Y-116176252D01*
X150849748Y-116403987D01*
X151117537Y-116582918D01*
X151415088Y-116706168D01*
X151730967Y-116769000D01*
X152053033Y-116769000D01*
X152368912Y-116706168D01*
X152666463Y-116582918D01*
X152934252Y-116403987D01*
X153161987Y-116176252D01*
X153340918Y-115908463D01*
X153464168Y-115610912D01*
X153527000Y-115295033D01*
X153527000Y-114972967D01*
X153464168Y-114657088D01*
X153340918Y-114359537D01*
X153161987Y-114091748D01*
X152934252Y-113864013D01*
X152666463Y-113685082D01*
X152368912Y-113561832D01*
X152053033Y-113499000D01*
X151730967Y-113499000D01*
X151415088Y-113561832D01*
X151117537Y-113685082D01*
X150849748Y-113864013D01*
X150622013Y-114091748D01*
X150443082Y-114359537D01*
X150437091Y-114374000D01*
X146846909Y-114374000D01*
X146840918Y-114359537D01*
X146661987Y-114091748D01*
X146434252Y-113864013D01*
X146166463Y-113685082D01*
X145868912Y-113561832D01*
X145553033Y-113499000D01*
X145230967Y-113499000D01*
X145022395Y-113540487D01*
X145799003Y-112763880D01*
X145828001Y-112740082D01*
X145922974Y-112624357D01*
X145993546Y-112492328D01*
X146037003Y-112349067D01*
X146044031Y-112277716D01*
X146117014Y-112238706D01*
X146343134Y-112053134D01*
X146528706Y-111827014D01*
X146558000Y-111772209D01*
X146587294Y-111827014D01*
X146587294Y-111827014D01*
G37*
X146587294Y-111827014D02*
X146772866Y-112053134D01*
X146998986Y-112238706D01*
X147256966Y-112376599D01*
X147536889Y-112461513D01*
X147755050Y-112483000D01*
X147900950Y-112483000D01*
X148119111Y-112461513D01*
X148399034Y-112376599D01*
X148657014Y-112238706D01*
X148883134Y-112053134D01*
X149022759Y-111883000D01*
X167400422Y-111883000D01*
X168627000Y-113109579D01*
X168627001Y-118054482D01*
X168361379Y-118231965D01*
X168109965Y-118483379D01*
X167912429Y-118779012D01*
X167776365Y-119107501D01*
X167707000Y-119456223D01*
X167707000Y-119811777D01*
X167776365Y-120160499D01*
X167912429Y-120488988D01*
X168109965Y-120784621D01*
X168331344Y-121006000D01*
X165692656Y-121006000D01*
X165914035Y-120784621D01*
X166111571Y-120488988D01*
X166247635Y-120160499D01*
X166317000Y-119811777D01*
X166317000Y-119456223D01*
X166247635Y-119107501D01*
X166111571Y-118779012D01*
X165914035Y-118483379D01*
X165662621Y-118231965D01*
X165366988Y-118034429D01*
X165038499Y-117898365D01*
X164689777Y-117829000D01*
X164334223Y-117829000D01*
X163985501Y-117898365D01*
X163657012Y-118034429D01*
X163361379Y-118231965D01*
X163109965Y-118483379D01*
X162912429Y-118779012D01*
X162776365Y-119107501D01*
X162707000Y-119456223D01*
X162707000Y-119811777D01*
X162776365Y-120160499D01*
X162912429Y-120488988D01*
X163109965Y-120784621D01*
X163331344Y-121006000D01*
X160541381Y-121006000D01*
X160588997Y-120890602D01*
X159512000Y-119813605D01*
X158435003Y-120890602D01*
X158482619Y-121006000D01*
X152762118Y-121006000D01*
X152847808Y-120769413D01*
X151892000Y-119813605D01*
X150936192Y-120769413D01*
X151021882Y-121006000D01*
X146262118Y-121006000D01*
X146347808Y-120769413D01*
X145392000Y-119813605D01*
X144436192Y-120769413D01*
X144521882Y-121006000D01*
X141780219Y-121006000D01*
X141990920Y-120905641D01*
X142224269Y-120731588D01*
X142419178Y-120515355D01*
X142568157Y-120265252D01*
X142665481Y-119990891D01*
X142544814Y-119761000D01*
X141351000Y-119761000D01*
X141351000Y-119781000D01*
X141097000Y-119781000D01*
X141097000Y-119761000D01*
X141077000Y-119761000D01*
X141077000Y-119696595D01*
X143750282Y-119696595D01*
X143794039Y-120015675D01*
X143899205Y-120320088D01*
X143992186Y-120494044D01*
X144256587Y-120589808D01*
X145212395Y-119634000D01*
X145571605Y-119634000D01*
X146527413Y-120589808D01*
X146791814Y-120494044D01*
X146932704Y-120204429D01*
X147014384Y-119892892D01*
X147026189Y-119696595D01*
X150250282Y-119696595D01*
X150294039Y-120015675D01*
X150399205Y-120320088D01*
X150492186Y-120494044D01*
X150756587Y-120589808D01*
X151712395Y-119634000D01*
X152071605Y-119634000D01*
X153027413Y-120589808D01*
X153291814Y-120494044D01*
X153432704Y-120204429D01*
X153514384Y-119892892D01*
X153526593Y-119689869D01*
X157699127Y-119689869D01*
X157744861Y-120042470D01*
X157858505Y-120379373D01*
X157973611Y-120594725D01*
X158255398Y-120710997D01*
X159332395Y-119634000D01*
X159691605Y-119634000D01*
X160768602Y-120710997D01*
X161050389Y-120594725D01*
X161208257Y-120276140D01*
X161300938Y-119932878D01*
X161324873Y-119578131D01*
X161279139Y-119225530D01*
X161165495Y-118888627D01*
X161050389Y-118673275D01*
X160768602Y-118557003D01*
X159691605Y-119634000D01*
X159332395Y-119634000D01*
X158255398Y-118557003D01*
X157973611Y-118673275D01*
X157815743Y-118991860D01*
X157723062Y-119335122D01*
X157699127Y-119689869D01*
X153526593Y-119689869D01*
X153533718Y-119571405D01*
X153489961Y-119252325D01*
X153384795Y-118947912D01*
X153291814Y-118773956D01*
X153027413Y-118678192D01*
X152071605Y-119634000D01*
X151712395Y-119634000D01*
X150756587Y-118678192D01*
X150492186Y-118773956D01*
X150351296Y-119063571D01*
X150269616Y-119375108D01*
X150250282Y-119696595D01*
X147026189Y-119696595D01*
X147033718Y-119571405D01*
X146989961Y-119252325D01*
X146884795Y-118947912D01*
X146791814Y-118773956D01*
X146527413Y-118678192D01*
X145571605Y-119634000D01*
X145212395Y-119634000D01*
X144256587Y-118678192D01*
X143992186Y-118773956D01*
X143851296Y-119063571D01*
X143769616Y-119375108D01*
X143750282Y-119696595D01*
X141077000Y-119696595D01*
X141077000Y-119507000D01*
X141097000Y-119507000D01*
X141097000Y-118313845D01*
X141351000Y-118313845D01*
X141351000Y-119507000D01*
X142544814Y-119507000D01*
X142665481Y-119277109D01*
X142568157Y-119002748D01*
X142419178Y-118752645D01*
X142224269Y-118536412D01*
X142173558Y-118498587D01*
X144436192Y-118498587D01*
X145392000Y-119454395D01*
X146347808Y-118498587D01*
X150936192Y-118498587D01*
X151892000Y-119454395D01*
X152847808Y-118498587D01*
X152803915Y-118377398D01*
X158435003Y-118377398D01*
X159512000Y-119454395D01*
X160588997Y-118377398D01*
X160472725Y-118095611D01*
X160154140Y-117937743D01*
X159810878Y-117845062D01*
X159456131Y-117821127D01*
X159103530Y-117866861D01*
X158766627Y-117980505D01*
X158551275Y-118095611D01*
X158435003Y-118377398D01*
X152803915Y-118377398D01*
X152752044Y-118234186D01*
X152462429Y-118093296D01*
X152150892Y-118011616D01*
X151829405Y-117992282D01*
X151510325Y-118036039D01*
X151205912Y-118141205D01*
X151031956Y-118234186D01*
X150936192Y-118498587D01*
X146347808Y-118498587D01*
X146252044Y-118234186D01*
X145962429Y-118093296D01*
X145650892Y-118011616D01*
X145329405Y-117992282D01*
X145010325Y-118036039D01*
X144705912Y-118141205D01*
X144531956Y-118234186D01*
X144436192Y-118498587D01*
X142173558Y-118498587D01*
X141990920Y-118362359D01*
X141728099Y-118237175D01*
X141580890Y-118192524D01*
X141351000Y-118313845D01*
X141097000Y-118313845D01*
X140867110Y-118192524D01*
X140719901Y-118237175D01*
X140457080Y-118362359D01*
X140223731Y-118536412D01*
X140147966Y-118620466D01*
X140123502Y-118539820D01*
X140064537Y-118429506D01*
X139985185Y-118332815D01*
X139888494Y-118253463D01*
X139778180Y-118194498D01*
X139658482Y-118158188D01*
X139534000Y-118145928D01*
X139444000Y-118145928D01*
X139444000Y-117281801D01*
X139831803Y-116893999D01*
X144354679Y-116893999D01*
X144392001Y-116897675D01*
X144429323Y-116893999D01*
X144429334Y-116893999D01*
X144540987Y-116883002D01*
X144684248Y-116839545D01*
X144816277Y-116768973D01*
X144900279Y-116700034D01*
X144915088Y-116706168D01*
X145230967Y-116769000D01*
X145553033Y-116769000D01*
X145868912Y-116706168D01*
X146166463Y-116582918D01*
X146434252Y-116403987D01*
X146661987Y-116176252D01*
X146840918Y-115908463D01*
X146846909Y-115894000D01*
X150437091Y-115894000D01*
X150443082Y-115908463D01*
X150622013Y-116176252D01*
X150849748Y-116403987D01*
X151117537Y-116582918D01*
X151415088Y-116706168D01*
X151730967Y-116769000D01*
X152053033Y-116769000D01*
X152368912Y-116706168D01*
X152666463Y-116582918D01*
X152934252Y-116403987D01*
X153161987Y-116176252D01*
X153340918Y-115908463D01*
X153464168Y-115610912D01*
X153527000Y-115295033D01*
X153527000Y-114972967D01*
X153464168Y-114657088D01*
X153340918Y-114359537D01*
X153161987Y-114091748D01*
X152934252Y-113864013D01*
X152666463Y-113685082D01*
X152368912Y-113561832D01*
X152053033Y-113499000D01*
X151730967Y-113499000D01*
X151415088Y-113561832D01*
X151117537Y-113685082D01*
X150849748Y-113864013D01*
X150622013Y-114091748D01*
X150443082Y-114359537D01*
X150437091Y-114374000D01*
X146846909Y-114374000D01*
X146840918Y-114359537D01*
X146661987Y-114091748D01*
X146434252Y-113864013D01*
X146166463Y-113685082D01*
X145868912Y-113561832D01*
X145553033Y-113499000D01*
X145230967Y-113499000D01*
X145022395Y-113540487D01*
X145799003Y-112763880D01*
X145828001Y-112740082D01*
X145922974Y-112624357D01*
X145993546Y-112492328D01*
X146037003Y-112349067D01*
X146044031Y-112277716D01*
X146117014Y-112238706D01*
X146343134Y-112053134D01*
X146528706Y-111827014D01*
X146558000Y-111772209D01*
X146587294Y-111827014D01*
G36*
X143757000Y-114972967D02*
G01*
X143757000Y-115295033D01*
X143772707Y-115373999D01*
X139554323Y-115373999D01*
X139517000Y-115370323D01*
X139479677Y-115373999D01*
X139479668Y-115373999D01*
X139368015Y-115384996D01*
X139224754Y-115428453D01*
X139092725Y-115499025D01*
X138977000Y-115593998D01*
X138953202Y-115622997D01*
X138331842Y-116244357D01*
X138321812Y-116142518D01*
X138285502Y-116022820D01*
X138226537Y-115912506D01*
X138147185Y-115815815D01*
X138050494Y-115736463D01*
X137940180Y-115677498D01*
X137820482Y-115641188D01*
X137696000Y-115628928D01*
X137494250Y-115632000D01*
X137335500Y-115790750D01*
X137335500Y-116840000D01*
X137355500Y-116840000D01*
X137355500Y-117094000D01*
X137335500Y-117094000D01*
X137335500Y-118143250D01*
X137460945Y-118268695D01*
X137382815Y-118332815D01*
X137303463Y-118429506D01*
X137244498Y-118539820D01*
X137208188Y-118659518D01*
X137195928Y-118784000D01*
X137195928Y-120484000D01*
X137208188Y-120608482D01*
X137244498Y-120728180D01*
X137303463Y-120838494D01*
X137382815Y-120935185D01*
X137469104Y-121006000D01*
X136148876Y-121006000D01*
X136186447Y-120935709D01*
X136236628Y-120770285D01*
X136253572Y-120598250D01*
X136253572Y-120091230D01*
X136782004Y-119562798D01*
X136811001Y-119539001D01*
X136837332Y-119506917D01*
X136905974Y-119423277D01*
X136976546Y-119291247D01*
X136984324Y-119265605D01*
X137020003Y-119147986D01*
X137031000Y-119036333D01*
X137031000Y-119036324D01*
X137034676Y-118999001D01*
X137031000Y-118961678D01*
X137031000Y-118193750D01*
X137081500Y-118143250D01*
X137081500Y-117094000D01*
X137061500Y-117094000D01*
X137061500Y-116840000D01*
X137081500Y-116840000D01*
X137081500Y-115790750D01*
X136922750Y-115632000D01*
X136721000Y-115628928D01*
X136649747Y-115635946D01*
X136588584Y-115574782D01*
X136602255Y-115578929D01*
X136756000Y-115594072D01*
X137056000Y-115594072D01*
X137209745Y-115578929D01*
X137357582Y-115534084D01*
X137493829Y-115461258D01*
X137613251Y-115363251D01*
X137711258Y-115243829D01*
X137784084Y-115107582D01*
X137828929Y-114959745D01*
X137844072Y-114806000D01*
X137844072Y-114741000D01*
X143469759Y-114741000D01*
X143507081Y-114744676D01*
X143544403Y-114741000D01*
X143544414Y-114741000D01*
X143656067Y-114730003D01*
X143799328Y-114686546D01*
X143815715Y-114677787D01*
X143757000Y-114972967D01*
X143757000Y-114972967D01*
G37*
X143757000Y-114972967D02*
X143757000Y-115295033D01*
X143772707Y-115373999D01*
X139554323Y-115373999D01*
X139517000Y-115370323D01*
X139479677Y-115373999D01*
X139479668Y-115373999D01*
X139368015Y-115384996D01*
X139224754Y-115428453D01*
X139092725Y-115499025D01*
X138977000Y-115593998D01*
X138953202Y-115622997D01*
X138331842Y-116244357D01*
X138321812Y-116142518D01*
X138285502Y-116022820D01*
X138226537Y-115912506D01*
X138147185Y-115815815D01*
X138050494Y-115736463D01*
X137940180Y-115677498D01*
X137820482Y-115641188D01*
X137696000Y-115628928D01*
X137494250Y-115632000D01*
X137335500Y-115790750D01*
X137335500Y-116840000D01*
X137355500Y-116840000D01*
X137355500Y-117094000D01*
X137335500Y-117094000D01*
X137335500Y-118143250D01*
X137460945Y-118268695D01*
X137382815Y-118332815D01*
X137303463Y-118429506D01*
X137244498Y-118539820D01*
X137208188Y-118659518D01*
X137195928Y-118784000D01*
X137195928Y-120484000D01*
X137208188Y-120608482D01*
X137244498Y-120728180D01*
X137303463Y-120838494D01*
X137382815Y-120935185D01*
X137469104Y-121006000D01*
X136148876Y-121006000D01*
X136186447Y-120935709D01*
X136236628Y-120770285D01*
X136253572Y-120598250D01*
X136253572Y-120091230D01*
X136782004Y-119562798D01*
X136811001Y-119539001D01*
X136837332Y-119506917D01*
X136905974Y-119423277D01*
X136976546Y-119291247D01*
X136984324Y-119265605D01*
X137020003Y-119147986D01*
X137031000Y-119036333D01*
X137031000Y-119036324D01*
X137034676Y-118999001D01*
X137031000Y-118961678D01*
X137031000Y-118193750D01*
X137081500Y-118143250D01*
X137081500Y-117094000D01*
X137061500Y-117094000D01*
X137061500Y-116840000D01*
X137081500Y-116840000D01*
X137081500Y-115790750D01*
X136922750Y-115632000D01*
X136721000Y-115628928D01*
X136649747Y-115635946D01*
X136588584Y-115574782D01*
X136602255Y-115578929D01*
X136756000Y-115594072D01*
X137056000Y-115594072D01*
X137209745Y-115578929D01*
X137357582Y-115534084D01*
X137493829Y-115461258D01*
X137613251Y-115363251D01*
X137711258Y-115243829D01*
X137784084Y-115107582D01*
X137828929Y-114959745D01*
X137844072Y-114806000D01*
X137844072Y-114741000D01*
X143469759Y-114741000D01*
X143507081Y-114744676D01*
X143544403Y-114741000D01*
X143544414Y-114741000D01*
X143656067Y-114730003D01*
X143799328Y-114686546D01*
X143815715Y-114677787D01*
X143757000Y-114972967D01*
G36*
X180516000Y-109200803D02*
G01*
X180516001Y-117995084D01*
X180421012Y-118034429D01*
X180125379Y-118231965D01*
X179873965Y-118483379D01*
X179676429Y-118779012D01*
X179540365Y-119107501D01*
X179471000Y-119456223D01*
X179471000Y-119811777D01*
X179540365Y-120160499D01*
X179676429Y-120488988D01*
X179873965Y-120784621D01*
X180095344Y-121006000D01*
X177305381Y-121006000D01*
X177352997Y-120890602D01*
X176276000Y-119813605D01*
X175199003Y-120890602D01*
X175246619Y-121006000D01*
X170692656Y-121006000D01*
X170914035Y-120784621D01*
X171111571Y-120488988D01*
X171247635Y-120160499D01*
X171317000Y-119811777D01*
X171317000Y-119689869D01*
X174463127Y-119689869D01*
X174508861Y-120042470D01*
X174622505Y-120379373D01*
X174737611Y-120594725D01*
X175019398Y-120710997D01*
X176096395Y-119634000D01*
X176455605Y-119634000D01*
X177532602Y-120710997D01*
X177814389Y-120594725D01*
X177972257Y-120276140D01*
X178064938Y-119932878D01*
X178088873Y-119578131D01*
X178043139Y-119225530D01*
X177929495Y-118888627D01*
X177814389Y-118673275D01*
X177532602Y-118557003D01*
X176455605Y-119634000D01*
X176096395Y-119634000D01*
X175019398Y-118557003D01*
X174737611Y-118673275D01*
X174579743Y-118991860D01*
X174487062Y-119335122D01*
X174463127Y-119689869D01*
X171317000Y-119689869D01*
X171317000Y-119456223D01*
X171247635Y-119107501D01*
X171111571Y-118779012D01*
X170914035Y-118483379D01*
X170808054Y-118377398D01*
X175199003Y-118377398D01*
X176276000Y-119454395D01*
X177352997Y-118377398D01*
X177236725Y-118095611D01*
X176918140Y-117937743D01*
X176574878Y-117845062D01*
X176220131Y-117821127D01*
X175867530Y-117866861D01*
X175530627Y-117980505D01*
X175315275Y-118095611D01*
X175199003Y-118377398D01*
X170808054Y-118377398D01*
X170662621Y-118231965D01*
X170397000Y-118054482D01*
X170397000Y-112786469D01*
X170401281Y-112743000D01*
X170397000Y-112699531D01*
X170397000Y-112699523D01*
X170384195Y-112569510D01*
X170358181Y-112483754D01*
X170333589Y-112402686D01*
X170251411Y-112248941D01*
X170168532Y-112147953D01*
X170168530Y-112147951D01*
X170140817Y-112114183D01*
X170107050Y-112086471D01*
X168423532Y-110402954D01*
X168395817Y-110369183D01*
X168261059Y-110258589D01*
X168107313Y-110176411D01*
X167940490Y-110125805D01*
X167810477Y-110113000D01*
X167810469Y-110113000D01*
X167767000Y-110108719D01*
X167723531Y-110113000D01*
X149022759Y-110113000D01*
X148883134Y-109942866D01*
X148853313Y-109918393D01*
X148922180Y-109897502D01*
X149032494Y-109838537D01*
X149129185Y-109759185D01*
X149208537Y-109662494D01*
X149267502Y-109552180D01*
X149303812Y-109432482D01*
X149316072Y-109308000D01*
X149316072Y-107608000D01*
X149303812Y-107483518D01*
X149267502Y-107363820D01*
X149208537Y-107253506D01*
X149129185Y-107156815D01*
X149032494Y-107077463D01*
X148922180Y-107018498D01*
X148802482Y-106982188D01*
X148678000Y-106969928D01*
X146978000Y-106969928D01*
X146853518Y-106982188D01*
X146733820Y-107018498D01*
X146623506Y-107077463D01*
X146526815Y-107156815D01*
X146447463Y-107253506D01*
X146388498Y-107363820D01*
X146367607Y-107432687D01*
X146343134Y-107402866D01*
X146117014Y-107217294D01*
X145859034Y-107079401D01*
X145579111Y-106994487D01*
X145360950Y-106973000D01*
X145215050Y-106973000D01*
X144996889Y-106994487D01*
X144922005Y-107017203D01*
X143947801Y-106043000D01*
X177358199Y-106043000D01*
X180516000Y-109200803D01*
X180516000Y-109200803D01*
G37*
X180516000Y-109200803D02*
X180516001Y-117995084D01*
X180421012Y-118034429D01*
X180125379Y-118231965D01*
X179873965Y-118483379D01*
X179676429Y-118779012D01*
X179540365Y-119107501D01*
X179471000Y-119456223D01*
X179471000Y-119811777D01*
X179540365Y-120160499D01*
X179676429Y-120488988D01*
X179873965Y-120784621D01*
X180095344Y-121006000D01*
X177305381Y-121006000D01*
X177352997Y-120890602D01*
X176276000Y-119813605D01*
X175199003Y-120890602D01*
X175246619Y-121006000D01*
X170692656Y-121006000D01*
X170914035Y-120784621D01*
X171111571Y-120488988D01*
X171247635Y-120160499D01*
X171317000Y-119811777D01*
X171317000Y-119689869D01*
X174463127Y-119689869D01*
X174508861Y-120042470D01*
X174622505Y-120379373D01*
X174737611Y-120594725D01*
X175019398Y-120710997D01*
X176096395Y-119634000D01*
X176455605Y-119634000D01*
X177532602Y-120710997D01*
X177814389Y-120594725D01*
X177972257Y-120276140D01*
X178064938Y-119932878D01*
X178088873Y-119578131D01*
X178043139Y-119225530D01*
X177929495Y-118888627D01*
X177814389Y-118673275D01*
X177532602Y-118557003D01*
X176455605Y-119634000D01*
X176096395Y-119634000D01*
X175019398Y-118557003D01*
X174737611Y-118673275D01*
X174579743Y-118991860D01*
X174487062Y-119335122D01*
X174463127Y-119689869D01*
X171317000Y-119689869D01*
X171317000Y-119456223D01*
X171247635Y-119107501D01*
X171111571Y-118779012D01*
X170914035Y-118483379D01*
X170808054Y-118377398D01*
X175199003Y-118377398D01*
X176276000Y-119454395D01*
X177352997Y-118377398D01*
X177236725Y-118095611D01*
X176918140Y-117937743D01*
X176574878Y-117845062D01*
X176220131Y-117821127D01*
X175867530Y-117866861D01*
X175530627Y-117980505D01*
X175315275Y-118095611D01*
X175199003Y-118377398D01*
X170808054Y-118377398D01*
X170662621Y-118231965D01*
X170397000Y-118054482D01*
X170397000Y-112786469D01*
X170401281Y-112743000D01*
X170397000Y-112699531D01*
X170397000Y-112699523D01*
X170384195Y-112569510D01*
X170358181Y-112483754D01*
X170333589Y-112402686D01*
X170251411Y-112248941D01*
X170168532Y-112147953D01*
X170168530Y-112147951D01*
X170140817Y-112114183D01*
X170107050Y-112086471D01*
X168423532Y-110402954D01*
X168395817Y-110369183D01*
X168261059Y-110258589D01*
X168107313Y-110176411D01*
X167940490Y-110125805D01*
X167810477Y-110113000D01*
X167810469Y-110113000D01*
X167767000Y-110108719D01*
X167723531Y-110113000D01*
X149022759Y-110113000D01*
X148883134Y-109942866D01*
X148853313Y-109918393D01*
X148922180Y-109897502D01*
X149032494Y-109838537D01*
X149129185Y-109759185D01*
X149208537Y-109662494D01*
X149267502Y-109552180D01*
X149303812Y-109432482D01*
X149316072Y-109308000D01*
X149316072Y-107608000D01*
X149303812Y-107483518D01*
X149267502Y-107363820D01*
X149208537Y-107253506D01*
X149129185Y-107156815D01*
X149032494Y-107077463D01*
X148922180Y-107018498D01*
X148802482Y-106982188D01*
X148678000Y-106969928D01*
X146978000Y-106969928D01*
X146853518Y-106982188D01*
X146733820Y-107018498D01*
X146623506Y-107077463D01*
X146526815Y-107156815D01*
X146447463Y-107253506D01*
X146388498Y-107363820D01*
X146367607Y-107432687D01*
X146343134Y-107402866D01*
X146117014Y-107217294D01*
X145859034Y-107079401D01*
X145579111Y-106994487D01*
X145360950Y-106973000D01*
X145215050Y-106973000D01*
X144996889Y-106994487D01*
X144922005Y-107017203D01*
X143947801Y-106043000D01*
X177358199Y-106043000D01*
X180516000Y-109200803D01*
G36*
X117728998Y-120980200D02*
G01*
X117709000Y-120980200D01*
X117709000Y-120935950D01*
X117728998Y-120915952D01*
X117728998Y-120980200D01*
X117728998Y-120980200D01*
G37*
X117728998Y-120980200D02*
X117709000Y-120980200D01*
X117709000Y-120935950D01*
X117728998Y-120915952D01*
X117728998Y-120980200D01*
G36*
X118003000Y-120935950D02*
G01*
X118003000Y-120980200D01*
X117983002Y-120980200D01*
X117983002Y-120915952D01*
X118003000Y-120935950D01*
X118003000Y-120935950D01*
G37*
X118003000Y-120935950D02*
X118003000Y-120980200D01*
X117983002Y-120980200D01*
X117983002Y-120915952D01*
X118003000Y-120935950D01*
G36*
X122688928Y-111897000D02*
G01*
X122688928Y-113147000D01*
X122705992Y-113320254D01*
X122756528Y-113486850D01*
X122838595Y-113640386D01*
X122949038Y-113774962D01*
X123083614Y-113885405D01*
X123237150Y-113967472D01*
X123403746Y-114018008D01*
X123577000Y-114035072D01*
X124327000Y-114035072D01*
X124500254Y-114018008D01*
X124666850Y-113967472D01*
X124820386Y-113885405D01*
X124954962Y-113774962D01*
X125065405Y-113640386D01*
X125147472Y-113486850D01*
X125189213Y-113349247D01*
X125221053Y-113454209D01*
X125302542Y-113606664D01*
X125412208Y-113740292D01*
X125545836Y-113849958D01*
X125607000Y-113882651D01*
X125607000Y-114129530D01*
X125602719Y-114173000D01*
X125607000Y-114216469D01*
X125607000Y-114216476D01*
X125607001Y-114216486D01*
X125607000Y-115251458D01*
X125504180Y-115196498D01*
X125384482Y-115160188D01*
X125260000Y-115147928D01*
X123660000Y-115147928D01*
X123535518Y-115160188D01*
X123415820Y-115196498D01*
X123305506Y-115255463D01*
X123208815Y-115334815D01*
X123129463Y-115431506D01*
X123070498Y-115541820D01*
X123034188Y-115661518D01*
X123021928Y-115786000D01*
X123021928Y-115821200D01*
X120478621Y-115821200D01*
X120445502Y-115712020D01*
X120386537Y-115601706D01*
X120307185Y-115505015D01*
X120210494Y-115425663D01*
X120100180Y-115366698D01*
X119980482Y-115330388D01*
X119856000Y-115318128D01*
X118856000Y-115318128D01*
X118731518Y-115330388D01*
X118611820Y-115366698D01*
X118609274Y-115368059D01*
X118600180Y-115363198D01*
X118480482Y-115326888D01*
X118466529Y-115325514D01*
X118473572Y-115254000D01*
X118470500Y-114839750D01*
X118311750Y-114681000D01*
X117475000Y-114681000D01*
X117475000Y-114701000D01*
X117221000Y-114701000D01*
X117221000Y-114681000D01*
X117201000Y-114681000D01*
X117201000Y-114427000D01*
X117221000Y-114427000D01*
X117221000Y-114407000D01*
X117475000Y-114407000D01*
X117475000Y-114427000D01*
X118311750Y-114427000D01*
X118470500Y-114268250D01*
X118473572Y-113854000D01*
X118472661Y-113844748D01*
X118628250Y-113860072D01*
X119115750Y-113860072D01*
X119287785Y-113843128D01*
X119453209Y-113792947D01*
X119605664Y-113711458D01*
X119739292Y-113601792D01*
X119848958Y-113468164D01*
X119888947Y-113393350D01*
X119888928Y-113397000D01*
X119901188Y-113521482D01*
X119937498Y-113641180D01*
X119996463Y-113751494D01*
X120075815Y-113848185D01*
X120172506Y-113927537D01*
X120282820Y-113986502D01*
X120402518Y-114022812D01*
X120527000Y-114035072D01*
X120866250Y-114032000D01*
X121025000Y-113873250D01*
X121025000Y-112649000D01*
X121279000Y-112649000D01*
X121279000Y-113873250D01*
X121437750Y-114032000D01*
X121777000Y-114035072D01*
X121901482Y-114022812D01*
X122021180Y-113986502D01*
X122131494Y-113927537D01*
X122228185Y-113848185D01*
X122307537Y-113751494D01*
X122366502Y-113641180D01*
X122402812Y-113521482D01*
X122415072Y-113397000D01*
X122412000Y-112807750D01*
X122253250Y-112649000D01*
X121279000Y-112649000D01*
X121025000Y-112649000D01*
X121005000Y-112649000D01*
X121005000Y-112395000D01*
X121025000Y-112395000D01*
X121025000Y-112375000D01*
X121279000Y-112375000D01*
X121279000Y-112395000D01*
X122253250Y-112395000D01*
X122412000Y-112236250D01*
X122414504Y-111756000D01*
X122702815Y-111756000D01*
X122688928Y-111897000D01*
X122688928Y-111897000D01*
G37*
X122688928Y-111897000D02*
X122688928Y-113147000D01*
X122705992Y-113320254D01*
X122756528Y-113486850D01*
X122838595Y-113640386D01*
X122949038Y-113774962D01*
X123083614Y-113885405D01*
X123237150Y-113967472D01*
X123403746Y-114018008D01*
X123577000Y-114035072D01*
X124327000Y-114035072D01*
X124500254Y-114018008D01*
X124666850Y-113967472D01*
X124820386Y-113885405D01*
X124954962Y-113774962D01*
X125065405Y-113640386D01*
X125147472Y-113486850D01*
X125189213Y-113349247D01*
X125221053Y-113454209D01*
X125302542Y-113606664D01*
X125412208Y-113740292D01*
X125545836Y-113849958D01*
X125607000Y-113882651D01*
X125607000Y-114129530D01*
X125602719Y-114173000D01*
X125607000Y-114216469D01*
X125607000Y-114216476D01*
X125607001Y-114216486D01*
X125607000Y-115251458D01*
X125504180Y-115196498D01*
X125384482Y-115160188D01*
X125260000Y-115147928D01*
X123660000Y-115147928D01*
X123535518Y-115160188D01*
X123415820Y-115196498D01*
X123305506Y-115255463D01*
X123208815Y-115334815D01*
X123129463Y-115431506D01*
X123070498Y-115541820D01*
X123034188Y-115661518D01*
X123021928Y-115786000D01*
X123021928Y-115821200D01*
X120478621Y-115821200D01*
X120445502Y-115712020D01*
X120386537Y-115601706D01*
X120307185Y-115505015D01*
X120210494Y-115425663D01*
X120100180Y-115366698D01*
X119980482Y-115330388D01*
X119856000Y-115318128D01*
X118856000Y-115318128D01*
X118731518Y-115330388D01*
X118611820Y-115366698D01*
X118609274Y-115368059D01*
X118600180Y-115363198D01*
X118480482Y-115326888D01*
X118466529Y-115325514D01*
X118473572Y-115254000D01*
X118470500Y-114839750D01*
X118311750Y-114681000D01*
X117475000Y-114681000D01*
X117475000Y-114701000D01*
X117221000Y-114701000D01*
X117221000Y-114681000D01*
X117201000Y-114681000D01*
X117201000Y-114427000D01*
X117221000Y-114427000D01*
X117221000Y-114407000D01*
X117475000Y-114407000D01*
X117475000Y-114427000D01*
X118311750Y-114427000D01*
X118470500Y-114268250D01*
X118473572Y-113854000D01*
X118472661Y-113844748D01*
X118628250Y-113860072D01*
X119115750Y-113860072D01*
X119287785Y-113843128D01*
X119453209Y-113792947D01*
X119605664Y-113711458D01*
X119739292Y-113601792D01*
X119848958Y-113468164D01*
X119888947Y-113393350D01*
X119888928Y-113397000D01*
X119901188Y-113521482D01*
X119937498Y-113641180D01*
X119996463Y-113751494D01*
X120075815Y-113848185D01*
X120172506Y-113927537D01*
X120282820Y-113986502D01*
X120402518Y-114022812D01*
X120527000Y-114035072D01*
X120866250Y-114032000D01*
X121025000Y-113873250D01*
X121025000Y-112649000D01*
X121279000Y-112649000D01*
X121279000Y-113873250D01*
X121437750Y-114032000D01*
X121777000Y-114035072D01*
X121901482Y-114022812D01*
X122021180Y-113986502D01*
X122131494Y-113927537D01*
X122228185Y-113848185D01*
X122307537Y-113751494D01*
X122366502Y-113641180D01*
X122402812Y-113521482D01*
X122415072Y-113397000D01*
X122412000Y-112807750D01*
X122253250Y-112649000D01*
X121279000Y-112649000D01*
X121025000Y-112649000D01*
X121005000Y-112649000D01*
X121005000Y-112395000D01*
X121025000Y-112395000D01*
X121025000Y-112375000D01*
X121279000Y-112375000D01*
X121279000Y-112395000D01*
X122253250Y-112395000D01*
X122412000Y-112236250D01*
X122414504Y-111756000D01*
X122702815Y-111756000D01*
X122688928Y-111897000D01*
G36*
X116155006Y-111291463D02*
G01*
X116058315Y-111370815D01*
X115978963Y-111467506D01*
X115919998Y-111577820D01*
X115883688Y-111697518D01*
X115871428Y-111822000D01*
X115874500Y-112236250D01*
X116033250Y-112395000D01*
X116870000Y-112395000D01*
X116870000Y-112375000D01*
X117124000Y-112375000D01*
X117124000Y-112395000D01*
X117144000Y-112395000D01*
X117144000Y-112649000D01*
X117124000Y-112649000D01*
X117124000Y-112669000D01*
X116870000Y-112669000D01*
X116870000Y-112649000D01*
X116033250Y-112649000D01*
X115874500Y-112807750D01*
X115871428Y-113222000D01*
X115872339Y-113231252D01*
X115716750Y-113215928D01*
X115229250Y-113215928D01*
X115057215Y-113232872D01*
X114891791Y-113283053D01*
X114884407Y-113287000D01*
X114469477Y-113287000D01*
X114426000Y-113282718D01*
X114382524Y-113287000D01*
X111804477Y-113287000D01*
X111761000Y-113282718D01*
X111717524Y-113287000D01*
X107236468Y-113287000D01*
X107223185Y-113270815D01*
X107126494Y-113191463D01*
X107016180Y-113132498D01*
X106896482Y-113096188D01*
X106772000Y-113083928D01*
X105660000Y-113083928D01*
X105660000Y-111960072D01*
X106772000Y-111960072D01*
X106896482Y-111947812D01*
X107016180Y-111911502D01*
X107126494Y-111852537D01*
X107223185Y-111773185D01*
X107236468Y-111757000D01*
X109362422Y-111757000D01*
X109706470Y-112101049D01*
X109734183Y-112134817D01*
X109767951Y-112162530D01*
X109767953Y-112162532D01*
X109827677Y-112211546D01*
X109868941Y-112245411D01*
X110022687Y-112327589D01*
X110189510Y-112378195D01*
X110319523Y-112391000D01*
X110319533Y-112391000D01*
X110330405Y-112392071D01*
X110334188Y-112430482D01*
X110370498Y-112550180D01*
X110429463Y-112660494D01*
X110508815Y-112757185D01*
X110605506Y-112836537D01*
X110715820Y-112895502D01*
X110835518Y-112931812D01*
X110960000Y-112944072D01*
X112560000Y-112944072D01*
X112684482Y-112931812D01*
X112804180Y-112895502D01*
X112914494Y-112836537D01*
X113011185Y-112757185D01*
X113090537Y-112660494D01*
X113149502Y-112550180D01*
X113185812Y-112430482D01*
X113190545Y-112382425D01*
X113233490Y-112378195D01*
X113400313Y-112327589D01*
X113554059Y-112245411D01*
X113688817Y-112134817D01*
X113716534Y-112101044D01*
X114569579Y-111248000D01*
X116236318Y-111248000D01*
X116155006Y-111291463D01*
X116155006Y-111291463D01*
G37*
X116155006Y-111291463D02*
X116058315Y-111370815D01*
X115978963Y-111467506D01*
X115919998Y-111577820D01*
X115883688Y-111697518D01*
X115871428Y-111822000D01*
X115874500Y-112236250D01*
X116033250Y-112395000D01*
X116870000Y-112395000D01*
X116870000Y-112375000D01*
X117124000Y-112375000D01*
X117124000Y-112395000D01*
X117144000Y-112395000D01*
X117144000Y-112649000D01*
X117124000Y-112649000D01*
X117124000Y-112669000D01*
X116870000Y-112669000D01*
X116870000Y-112649000D01*
X116033250Y-112649000D01*
X115874500Y-112807750D01*
X115871428Y-113222000D01*
X115872339Y-113231252D01*
X115716750Y-113215928D01*
X115229250Y-113215928D01*
X115057215Y-113232872D01*
X114891791Y-113283053D01*
X114884407Y-113287000D01*
X114469477Y-113287000D01*
X114426000Y-113282718D01*
X114382524Y-113287000D01*
X111804477Y-113287000D01*
X111761000Y-113282718D01*
X111717524Y-113287000D01*
X107236468Y-113287000D01*
X107223185Y-113270815D01*
X107126494Y-113191463D01*
X107016180Y-113132498D01*
X106896482Y-113096188D01*
X106772000Y-113083928D01*
X105660000Y-113083928D01*
X105660000Y-111960072D01*
X106772000Y-111960072D01*
X106896482Y-111947812D01*
X107016180Y-111911502D01*
X107126494Y-111852537D01*
X107223185Y-111773185D01*
X107236468Y-111757000D01*
X109362422Y-111757000D01*
X109706470Y-112101049D01*
X109734183Y-112134817D01*
X109767951Y-112162530D01*
X109767953Y-112162532D01*
X109827677Y-112211546D01*
X109868941Y-112245411D01*
X110022687Y-112327589D01*
X110189510Y-112378195D01*
X110319523Y-112391000D01*
X110319533Y-112391000D01*
X110330405Y-112392071D01*
X110334188Y-112430482D01*
X110370498Y-112550180D01*
X110429463Y-112660494D01*
X110508815Y-112757185D01*
X110605506Y-112836537D01*
X110715820Y-112895502D01*
X110835518Y-112931812D01*
X110960000Y-112944072D01*
X112560000Y-112944072D01*
X112684482Y-112931812D01*
X112804180Y-112895502D01*
X112914494Y-112836537D01*
X113011185Y-112757185D01*
X113090537Y-112660494D01*
X113149502Y-112550180D01*
X113185812Y-112430482D01*
X113190545Y-112382425D01*
X113233490Y-112378195D01*
X113400313Y-112327589D01*
X113554059Y-112245411D01*
X113688817Y-112134817D01*
X113716534Y-112101044D01*
X114569579Y-111248000D01*
X116236318Y-111248000D01*
X116155006Y-111291463D01*
G36*
X138342200Y-110334001D02*
G01*
X138365998Y-110363000D01*
X138481723Y-110457973D01*
X138613752Y-110528545D01*
X138757013Y-110572002D01*
X138868666Y-110582999D01*
X138868674Y-110582999D01*
X138905999Y-110586675D01*
X138943324Y-110582999D01*
X141327132Y-110582999D01*
X141306519Y-110641109D01*
X141427186Y-110871000D01*
X142621000Y-110871000D01*
X142621000Y-110851000D01*
X142875000Y-110851000D01*
X142875000Y-110871000D01*
X142895000Y-110871000D01*
X142895000Y-111125000D01*
X142875000Y-111125000D01*
X142875000Y-112318155D01*
X143104890Y-112439476D01*
X143252099Y-112394825D01*
X143514920Y-112269641D01*
X143748269Y-112095588D01*
X143943178Y-111879355D01*
X144012799Y-111762477D01*
X144047294Y-111827014D01*
X144232866Y-112053134D01*
X144302774Y-112110506D01*
X143192280Y-113221000D01*
X137844072Y-113221000D01*
X137844072Y-113156000D01*
X137828929Y-113002255D01*
X137784084Y-112854418D01*
X137711258Y-112718171D01*
X137613251Y-112598749D01*
X137517295Y-112520000D01*
X138488289Y-112520000D01*
X138532226Y-112563937D01*
X138701744Y-112677205D01*
X138890102Y-112755226D01*
X139090061Y-112795000D01*
X139293939Y-112795000D01*
X139493898Y-112755226D01*
X139682256Y-112677205D01*
X139851774Y-112563937D01*
X139995937Y-112419774D01*
X140109205Y-112250256D01*
X140187226Y-112061898D01*
X140227000Y-111861939D01*
X140227000Y-111658061D01*
X140187226Y-111458102D01*
X140144475Y-111354891D01*
X141306519Y-111354891D01*
X141403843Y-111629252D01*
X141552822Y-111879355D01*
X141747731Y-112095588D01*
X141981080Y-112269641D01*
X142243901Y-112394825D01*
X142391110Y-112439476D01*
X142621000Y-112318155D01*
X142621000Y-111125000D01*
X141427186Y-111125000D01*
X141306519Y-111354891D01*
X140144475Y-111354891D01*
X140109205Y-111269744D01*
X139995937Y-111100226D01*
X139851774Y-110956063D01*
X139682256Y-110842795D01*
X139493898Y-110764774D01*
X139293939Y-110725000D01*
X139090061Y-110725000D01*
X138890102Y-110764774D01*
X138701744Y-110842795D01*
X138532226Y-110956063D01*
X138488289Y-111000000D01*
X137033034Y-111000000D01*
X136668486Y-110635452D01*
X136756000Y-110644072D01*
X137056000Y-110644072D01*
X137209745Y-110628929D01*
X137357582Y-110584084D01*
X137493829Y-110511258D01*
X137613251Y-110413251D01*
X137711258Y-110293829D01*
X137784084Y-110157582D01*
X137828929Y-110009745D01*
X137844072Y-109856000D01*
X137844072Y-109835873D01*
X138342200Y-110334001D01*
X138342200Y-110334001D01*
G37*
X138342200Y-110334001D02*
X138365998Y-110363000D01*
X138481723Y-110457973D01*
X138613752Y-110528545D01*
X138757013Y-110572002D01*
X138868666Y-110582999D01*
X138868674Y-110582999D01*
X138905999Y-110586675D01*
X138943324Y-110582999D01*
X141327132Y-110582999D01*
X141306519Y-110641109D01*
X141427186Y-110871000D01*
X142621000Y-110871000D01*
X142621000Y-110851000D01*
X142875000Y-110851000D01*
X142875000Y-110871000D01*
X142895000Y-110871000D01*
X142895000Y-111125000D01*
X142875000Y-111125000D01*
X142875000Y-112318155D01*
X143104890Y-112439476D01*
X143252099Y-112394825D01*
X143514920Y-112269641D01*
X143748269Y-112095588D01*
X143943178Y-111879355D01*
X144012799Y-111762477D01*
X144047294Y-111827014D01*
X144232866Y-112053134D01*
X144302774Y-112110506D01*
X143192280Y-113221000D01*
X137844072Y-113221000D01*
X137844072Y-113156000D01*
X137828929Y-113002255D01*
X137784084Y-112854418D01*
X137711258Y-112718171D01*
X137613251Y-112598749D01*
X137517295Y-112520000D01*
X138488289Y-112520000D01*
X138532226Y-112563937D01*
X138701744Y-112677205D01*
X138890102Y-112755226D01*
X139090061Y-112795000D01*
X139293939Y-112795000D01*
X139493898Y-112755226D01*
X139682256Y-112677205D01*
X139851774Y-112563937D01*
X139995937Y-112419774D01*
X140109205Y-112250256D01*
X140187226Y-112061898D01*
X140227000Y-111861939D01*
X140227000Y-111658061D01*
X140187226Y-111458102D01*
X140144475Y-111354891D01*
X141306519Y-111354891D01*
X141403843Y-111629252D01*
X141552822Y-111879355D01*
X141747731Y-112095588D01*
X141981080Y-112269641D01*
X142243901Y-112394825D01*
X142391110Y-112439476D01*
X142621000Y-112318155D01*
X142621000Y-111125000D01*
X141427186Y-111125000D01*
X141306519Y-111354891D01*
X140144475Y-111354891D01*
X140109205Y-111269744D01*
X139995937Y-111100226D01*
X139851774Y-110956063D01*
X139682256Y-110842795D01*
X139493898Y-110764774D01*
X139293939Y-110725000D01*
X139090061Y-110725000D01*
X138890102Y-110764774D01*
X138701744Y-110842795D01*
X138532226Y-110956063D01*
X138488289Y-111000000D01*
X137033034Y-111000000D01*
X136668486Y-110635452D01*
X136756000Y-110644072D01*
X137056000Y-110644072D01*
X137209745Y-110628929D01*
X137357582Y-110584084D01*
X137493829Y-110511258D01*
X137613251Y-110413251D01*
X137711258Y-110293829D01*
X137784084Y-110157582D01*
X137828929Y-110009745D01*
X137844072Y-109856000D01*
X137844072Y-109835873D01*
X138342200Y-110334001D01*
G36*
X126679224Y-109974026D02*
G01*
X126619000Y-110034250D01*
X126619000Y-110871000D01*
X126639000Y-110871000D01*
X126639000Y-111125000D01*
X126619000Y-111125000D01*
X126619000Y-111145000D01*
X126365000Y-111145000D01*
X126365000Y-111125000D01*
X126345000Y-111125000D01*
X126345000Y-110871000D01*
X126365000Y-110871000D01*
X126365000Y-110034250D01*
X126206250Y-109875500D01*
X125792000Y-109872428D01*
X125667518Y-109884688D01*
X125547820Y-109920998D01*
X125457616Y-109969214D01*
X125440084Y-109911418D01*
X125408859Y-109853000D01*
X126558199Y-109853000D01*
X126679224Y-109974026D01*
X126679224Y-109974026D01*
G37*
X126679224Y-109974026D02*
X126619000Y-110034250D01*
X126619000Y-110871000D01*
X126639000Y-110871000D01*
X126639000Y-111125000D01*
X126619000Y-111125000D01*
X126619000Y-111145000D01*
X126365000Y-111145000D01*
X126365000Y-111125000D01*
X126345000Y-111125000D01*
X126345000Y-110871000D01*
X126365000Y-110871000D01*
X126365000Y-110034250D01*
X126206250Y-109875500D01*
X125792000Y-109872428D01*
X125667518Y-109884688D01*
X125547820Y-109920998D01*
X125457616Y-109969214D01*
X125440084Y-109911418D01*
X125408859Y-109853000D01*
X126558199Y-109853000D01*
X126679224Y-109974026D01*
G36*
X131314998Y-105227201D02*
G01*
X131286000Y-105250999D01*
X131262202Y-105279997D01*
X131262201Y-105279998D01*
X131191026Y-105366724D01*
X131120454Y-105498754D01*
X131097251Y-105575247D01*
X131076998Y-105642014D01*
X131073552Y-105676998D01*
X131062324Y-105791000D01*
X131066001Y-105828332D01*
X131066000Y-107225332D01*
X131066001Y-107225342D01*
X131066001Y-107509142D01*
X131007582Y-107477916D01*
X130859745Y-107433071D01*
X130706000Y-107417928D01*
X130406000Y-107417928D01*
X130252255Y-107433071D01*
X130104418Y-107477916D01*
X129970064Y-107549730D01*
X129940494Y-107525463D01*
X129830180Y-107466498D01*
X129710482Y-107430188D01*
X129586000Y-107417928D01*
X129571750Y-107421000D01*
X129413000Y-107579750D01*
X129413000Y-108904000D01*
X129433000Y-108904000D01*
X129433000Y-109158000D01*
X129413000Y-109158000D01*
X129413000Y-109178000D01*
X129159000Y-109178000D01*
X129159000Y-109158000D01*
X128509750Y-109158000D01*
X128351000Y-109316750D01*
X128350204Y-109495402D01*
X127436804Y-108582003D01*
X127413001Y-108552999D01*
X127297276Y-108458026D01*
X127165247Y-108387454D01*
X127021986Y-108343997D01*
X126910333Y-108333000D01*
X126910322Y-108333000D01*
X126873000Y-108329324D01*
X126835678Y-108333000D01*
X125408859Y-108333000D01*
X125440084Y-108274582D01*
X125484929Y-108126745D01*
X125491896Y-108056000D01*
X128347928Y-108056000D01*
X128351000Y-108745250D01*
X128509750Y-108904000D01*
X129159000Y-108904000D01*
X129159000Y-107579750D01*
X129000250Y-107421000D01*
X128986000Y-107417928D01*
X128861518Y-107430188D01*
X128741820Y-107466498D01*
X128631506Y-107525463D01*
X128534815Y-107604815D01*
X128455463Y-107701506D01*
X128396498Y-107811820D01*
X128360188Y-107931518D01*
X128347928Y-108056000D01*
X125491896Y-108056000D01*
X125500072Y-107973000D01*
X125500072Y-107673000D01*
X125484929Y-107519255D01*
X125440084Y-107371418D01*
X125368270Y-107237064D01*
X125392537Y-107207494D01*
X125451502Y-107097180D01*
X125487812Y-106977482D01*
X125500072Y-106853000D01*
X125497000Y-106838750D01*
X125338250Y-106680000D01*
X124014000Y-106680000D01*
X124014000Y-106700000D01*
X123760000Y-106700000D01*
X123760000Y-106680000D01*
X123740000Y-106680000D01*
X123740000Y-106426000D01*
X123760000Y-106426000D01*
X123760000Y-105776750D01*
X124014000Y-105776750D01*
X124014000Y-106426000D01*
X125338250Y-106426000D01*
X125497000Y-106267250D01*
X125500072Y-106253000D01*
X125487812Y-106128518D01*
X125451502Y-106008820D01*
X125392537Y-105898506D01*
X125313185Y-105801815D01*
X125216494Y-105722463D01*
X125106180Y-105663498D01*
X124986482Y-105627188D01*
X124862000Y-105614928D01*
X124172750Y-105618000D01*
X124014000Y-105776750D01*
X123760000Y-105776750D01*
X123601250Y-105618000D01*
X122912000Y-105614928D01*
X122787518Y-105627188D01*
X122667820Y-105663498D01*
X122557506Y-105722463D01*
X122460815Y-105801815D01*
X122381463Y-105898506D01*
X122322498Y-106008820D01*
X122286188Y-106128518D01*
X122273928Y-106253000D01*
X122277000Y-106267250D01*
X122332155Y-106322405D01*
X122307001Y-106319928D01*
X120516999Y-106319928D01*
X120491845Y-106322405D01*
X120547000Y-106267250D01*
X120550072Y-106253000D01*
X120537812Y-106128518D01*
X120501502Y-106008820D01*
X120442537Y-105898506D01*
X120363185Y-105801815D01*
X120266494Y-105722463D01*
X120156180Y-105663498D01*
X120036482Y-105627188D01*
X119912000Y-105614928D01*
X119222750Y-105618000D01*
X119064000Y-105776750D01*
X119064000Y-106426000D01*
X119084000Y-106426000D01*
X119084000Y-106680000D01*
X119064000Y-106680000D01*
X119064000Y-106700000D01*
X118810000Y-106700000D01*
X118810000Y-106680000D01*
X117485750Y-106680000D01*
X117327000Y-106838750D01*
X117323928Y-106853000D01*
X117332299Y-106938000D01*
X117251454Y-106938000D01*
X117203256Y-106905795D01*
X117014898Y-106827774D01*
X116814939Y-106788000D01*
X116611061Y-106788000D01*
X116411102Y-106827774D01*
X116222744Y-106905795D01*
X116053226Y-107019063D01*
X115909063Y-107163226D01*
X115795795Y-107332744D01*
X115717774Y-107521102D01*
X115678000Y-107721061D01*
X115678000Y-107924939D01*
X115717774Y-108124898D01*
X115795795Y-108313256D01*
X115828000Y-108361454D01*
X115828000Y-108414531D01*
X115823719Y-108458000D01*
X115828000Y-108501469D01*
X115828000Y-108501477D01*
X115838392Y-108606986D01*
X115840805Y-108631490D01*
X115891412Y-108798313D01*
X115973590Y-108952059D01*
X116056468Y-109053046D01*
X116056471Y-109053049D01*
X116084184Y-109086817D01*
X116117951Y-109114529D01*
X116481421Y-109478000D01*
X114246465Y-109478000D01*
X114202999Y-109473719D01*
X114159533Y-109478000D01*
X114159523Y-109478000D01*
X114029510Y-109490805D01*
X113862687Y-109541411D01*
X113708941Y-109623589D01*
X113708939Y-109623590D01*
X113708940Y-109623590D01*
X113607953Y-109706468D01*
X113607951Y-109706470D01*
X113574183Y-109734183D01*
X113546470Y-109767951D01*
X113033011Y-110281410D01*
X113011185Y-110254815D01*
X112914494Y-110175463D01*
X112804180Y-110116498D01*
X112684482Y-110080188D01*
X112560000Y-110067928D01*
X110960000Y-110067928D01*
X110835518Y-110080188D01*
X110715820Y-110116498D01*
X110605506Y-110175463D01*
X110508815Y-110254815D01*
X110443266Y-110334687D01*
X110385534Y-110276956D01*
X110357817Y-110243183D01*
X110223059Y-110132589D01*
X110069313Y-110050411D01*
X109902490Y-109999805D01*
X109772477Y-109987000D01*
X109772469Y-109987000D01*
X109729000Y-109982719D01*
X109685531Y-109987000D01*
X107236468Y-109987000D01*
X107223185Y-109970815D01*
X107126494Y-109891463D01*
X107016180Y-109832498D01*
X106896482Y-109796188D01*
X106772000Y-109783928D01*
X105572000Y-109783928D01*
X105447518Y-109796188D01*
X105327820Y-109832498D01*
X105217506Y-109891463D01*
X105120815Y-109970815D01*
X105108126Y-109986277D01*
X105071999Y-109982719D01*
X105028533Y-109987000D01*
X105028523Y-109987000D01*
X104898510Y-109999805D01*
X104800000Y-110029688D01*
X104800000Y-108998702D01*
X110946903Y-108998702D01*
X111018486Y-109242671D01*
X111273996Y-109363571D01*
X111548184Y-109432300D01*
X111830512Y-109446217D01*
X112110130Y-109404787D01*
X112376292Y-109309603D01*
X112501514Y-109242671D01*
X112573097Y-108998702D01*
X111760000Y-108185605D01*
X110946903Y-108998702D01*
X104800000Y-108998702D01*
X104800000Y-108076512D01*
X110319783Y-108076512D01*
X110361213Y-108356130D01*
X110456397Y-108622292D01*
X110523329Y-108747514D01*
X110767298Y-108819097D01*
X111580395Y-108006000D01*
X111939605Y-108006000D01*
X112752702Y-108819097D01*
X112996671Y-108747514D01*
X113117571Y-108492004D01*
X113186300Y-108217816D01*
X113200217Y-107935488D01*
X113158787Y-107655870D01*
X113063603Y-107389708D01*
X112996671Y-107264486D01*
X112752702Y-107192903D01*
X111939605Y-108006000D01*
X111580395Y-108006000D01*
X110767298Y-107192903D01*
X110523329Y-107264486D01*
X110402429Y-107519996D01*
X110333700Y-107794184D01*
X110319783Y-108076512D01*
X104800000Y-108076512D01*
X104800000Y-107013298D01*
X110946903Y-107013298D01*
X111760000Y-107826395D01*
X112573097Y-107013298D01*
X112501514Y-106769329D01*
X112246004Y-106648429D01*
X111971816Y-106579700D01*
X111689488Y-106565783D01*
X111409870Y-106607213D01*
X111143708Y-106702397D01*
X111018486Y-106769329D01*
X110946903Y-107013298D01*
X104800000Y-107013298D01*
X104800000Y-106253000D01*
X117323928Y-106253000D01*
X117327000Y-106267250D01*
X117485750Y-106426000D01*
X118810000Y-106426000D01*
X118810000Y-105776750D01*
X118651250Y-105618000D01*
X117962000Y-105614928D01*
X117837518Y-105627188D01*
X117717820Y-105663498D01*
X117607506Y-105722463D01*
X117510815Y-105801815D01*
X117431463Y-105898506D01*
X117372498Y-106008820D01*
X117336188Y-106128518D01*
X117323928Y-106253000D01*
X104800000Y-106253000D01*
X104800000Y-104521000D01*
X132021198Y-104521000D01*
X131314998Y-105227201D01*
X131314998Y-105227201D01*
G37*
X131314998Y-105227201D02*
X131286000Y-105250999D01*
X131262202Y-105279997D01*
X131262201Y-105279998D01*
X131191026Y-105366724D01*
X131120454Y-105498754D01*
X131097251Y-105575247D01*
X131076998Y-105642014D01*
X131073552Y-105676998D01*
X131062324Y-105791000D01*
X131066001Y-105828332D01*
X131066000Y-107225332D01*
X131066001Y-107225342D01*
X131066001Y-107509142D01*
X131007582Y-107477916D01*
X130859745Y-107433071D01*
X130706000Y-107417928D01*
X130406000Y-107417928D01*
X130252255Y-107433071D01*
X130104418Y-107477916D01*
X129970064Y-107549730D01*
X129940494Y-107525463D01*
X129830180Y-107466498D01*
X129710482Y-107430188D01*
X129586000Y-107417928D01*
X129571750Y-107421000D01*
X129413000Y-107579750D01*
X129413000Y-108904000D01*
X129433000Y-108904000D01*
X129433000Y-109158000D01*
X129413000Y-109158000D01*
X129413000Y-109178000D01*
X129159000Y-109178000D01*
X129159000Y-109158000D01*
X128509750Y-109158000D01*
X128351000Y-109316750D01*
X128350204Y-109495402D01*
X127436804Y-108582003D01*
X127413001Y-108552999D01*
X127297276Y-108458026D01*
X127165247Y-108387454D01*
X127021986Y-108343997D01*
X126910333Y-108333000D01*
X126910322Y-108333000D01*
X126873000Y-108329324D01*
X126835678Y-108333000D01*
X125408859Y-108333000D01*
X125440084Y-108274582D01*
X125484929Y-108126745D01*
X125491896Y-108056000D01*
X128347928Y-108056000D01*
X128351000Y-108745250D01*
X128509750Y-108904000D01*
X129159000Y-108904000D01*
X129159000Y-107579750D01*
X129000250Y-107421000D01*
X128986000Y-107417928D01*
X128861518Y-107430188D01*
X128741820Y-107466498D01*
X128631506Y-107525463D01*
X128534815Y-107604815D01*
X128455463Y-107701506D01*
X128396498Y-107811820D01*
X128360188Y-107931518D01*
X128347928Y-108056000D01*
X125491896Y-108056000D01*
X125500072Y-107973000D01*
X125500072Y-107673000D01*
X125484929Y-107519255D01*
X125440084Y-107371418D01*
X125368270Y-107237064D01*
X125392537Y-107207494D01*
X125451502Y-107097180D01*
X125487812Y-106977482D01*
X125500072Y-106853000D01*
X125497000Y-106838750D01*
X125338250Y-106680000D01*
X124014000Y-106680000D01*
X124014000Y-106700000D01*
X123760000Y-106700000D01*
X123760000Y-106680000D01*
X123740000Y-106680000D01*
X123740000Y-106426000D01*
X123760000Y-106426000D01*
X123760000Y-105776750D01*
X124014000Y-105776750D01*
X124014000Y-106426000D01*
X125338250Y-106426000D01*
X125497000Y-106267250D01*
X125500072Y-106253000D01*
X125487812Y-106128518D01*
X125451502Y-106008820D01*
X125392537Y-105898506D01*
X125313185Y-105801815D01*
X125216494Y-105722463D01*
X125106180Y-105663498D01*
X124986482Y-105627188D01*
X124862000Y-105614928D01*
X124172750Y-105618000D01*
X124014000Y-105776750D01*
X123760000Y-105776750D01*
X123601250Y-105618000D01*
X122912000Y-105614928D01*
X122787518Y-105627188D01*
X122667820Y-105663498D01*
X122557506Y-105722463D01*
X122460815Y-105801815D01*
X122381463Y-105898506D01*
X122322498Y-106008820D01*
X122286188Y-106128518D01*
X122273928Y-106253000D01*
X122277000Y-106267250D01*
X122332155Y-106322405D01*
X122307001Y-106319928D01*
X120516999Y-106319928D01*
X120491845Y-106322405D01*
X120547000Y-106267250D01*
X120550072Y-106253000D01*
X120537812Y-106128518D01*
X120501502Y-106008820D01*
X120442537Y-105898506D01*
X120363185Y-105801815D01*
X120266494Y-105722463D01*
X120156180Y-105663498D01*
X120036482Y-105627188D01*
X119912000Y-105614928D01*
X119222750Y-105618000D01*
X119064000Y-105776750D01*
X119064000Y-106426000D01*
X119084000Y-106426000D01*
X119084000Y-106680000D01*
X119064000Y-106680000D01*
X119064000Y-106700000D01*
X118810000Y-106700000D01*
X118810000Y-106680000D01*
X117485750Y-106680000D01*
X117327000Y-106838750D01*
X117323928Y-106853000D01*
X117332299Y-106938000D01*
X117251454Y-106938000D01*
X117203256Y-106905795D01*
X117014898Y-106827774D01*
X116814939Y-106788000D01*
X116611061Y-106788000D01*
X116411102Y-106827774D01*
X116222744Y-106905795D01*
X116053226Y-107019063D01*
X115909063Y-107163226D01*
X115795795Y-107332744D01*
X115717774Y-107521102D01*
X115678000Y-107721061D01*
X115678000Y-107924939D01*
X115717774Y-108124898D01*
X115795795Y-108313256D01*
X115828000Y-108361454D01*
X115828000Y-108414531D01*
X115823719Y-108458000D01*
X115828000Y-108501469D01*
X115828000Y-108501477D01*
X115838392Y-108606986D01*
X115840805Y-108631490D01*
X115891412Y-108798313D01*
X115973590Y-108952059D01*
X116056468Y-109053046D01*
X116056471Y-109053049D01*
X116084184Y-109086817D01*
X116117951Y-109114529D01*
X116481421Y-109478000D01*
X114246465Y-109478000D01*
X114202999Y-109473719D01*
X114159533Y-109478000D01*
X114159523Y-109478000D01*
X114029510Y-109490805D01*
X113862687Y-109541411D01*
X113708941Y-109623589D01*
X113708939Y-109623590D01*
X113708940Y-109623590D01*
X113607953Y-109706468D01*
X113607951Y-109706470D01*
X113574183Y-109734183D01*
X113546470Y-109767951D01*
X113033011Y-110281410D01*
X113011185Y-110254815D01*
X112914494Y-110175463D01*
X112804180Y-110116498D01*
X112684482Y-110080188D01*
X112560000Y-110067928D01*
X110960000Y-110067928D01*
X110835518Y-110080188D01*
X110715820Y-110116498D01*
X110605506Y-110175463D01*
X110508815Y-110254815D01*
X110443266Y-110334687D01*
X110385534Y-110276956D01*
X110357817Y-110243183D01*
X110223059Y-110132589D01*
X110069313Y-110050411D01*
X109902490Y-109999805D01*
X109772477Y-109987000D01*
X109772469Y-109987000D01*
X109729000Y-109982719D01*
X109685531Y-109987000D01*
X107236468Y-109987000D01*
X107223185Y-109970815D01*
X107126494Y-109891463D01*
X107016180Y-109832498D01*
X106896482Y-109796188D01*
X106772000Y-109783928D01*
X105572000Y-109783928D01*
X105447518Y-109796188D01*
X105327820Y-109832498D01*
X105217506Y-109891463D01*
X105120815Y-109970815D01*
X105108126Y-109986277D01*
X105071999Y-109982719D01*
X105028533Y-109987000D01*
X105028523Y-109987000D01*
X104898510Y-109999805D01*
X104800000Y-110029688D01*
X104800000Y-108998702D01*
X110946903Y-108998702D01*
X111018486Y-109242671D01*
X111273996Y-109363571D01*
X111548184Y-109432300D01*
X111830512Y-109446217D01*
X112110130Y-109404787D01*
X112376292Y-109309603D01*
X112501514Y-109242671D01*
X112573097Y-108998702D01*
X111760000Y-108185605D01*
X110946903Y-108998702D01*
X104800000Y-108998702D01*
X104800000Y-108076512D01*
X110319783Y-108076512D01*
X110361213Y-108356130D01*
X110456397Y-108622292D01*
X110523329Y-108747514D01*
X110767298Y-108819097D01*
X111580395Y-108006000D01*
X111939605Y-108006000D01*
X112752702Y-108819097D01*
X112996671Y-108747514D01*
X113117571Y-108492004D01*
X113186300Y-108217816D01*
X113200217Y-107935488D01*
X113158787Y-107655870D01*
X113063603Y-107389708D01*
X112996671Y-107264486D01*
X112752702Y-107192903D01*
X111939605Y-108006000D01*
X111580395Y-108006000D01*
X110767298Y-107192903D01*
X110523329Y-107264486D01*
X110402429Y-107519996D01*
X110333700Y-107794184D01*
X110319783Y-108076512D01*
X104800000Y-108076512D01*
X104800000Y-107013298D01*
X110946903Y-107013298D01*
X111760000Y-107826395D01*
X112573097Y-107013298D01*
X112501514Y-106769329D01*
X112246004Y-106648429D01*
X111971816Y-106579700D01*
X111689488Y-106565783D01*
X111409870Y-106607213D01*
X111143708Y-106702397D01*
X111018486Y-106769329D01*
X110946903Y-107013298D01*
X104800000Y-107013298D01*
X104800000Y-106253000D01*
X117323928Y-106253000D01*
X117327000Y-106267250D01*
X117485750Y-106426000D01*
X118810000Y-106426000D01*
X118810000Y-105776750D01*
X118651250Y-105618000D01*
X117962000Y-105614928D01*
X117837518Y-105627188D01*
X117717820Y-105663498D01*
X117607506Y-105722463D01*
X117510815Y-105801815D01*
X117431463Y-105898506D01*
X117372498Y-106008820D01*
X117336188Y-106128518D01*
X117323928Y-106253000D01*
X104800000Y-106253000D01*
X104800000Y-104521000D01*
X132021198Y-104521000D01*
X131314998Y-105227201D01*
M02*
