G04 #@! TF.GenerationSoftware,KiCad,Pcbnew,5.1.4-e60b266~84~ubuntu18.04.1*
G04 #@! TF.CreationDate,2019-09-18T22:30:48+03:00*
G04 #@! TF.ProjectId,spotweld,73706f74-7765-46c6-942e-6b696361645f,rev?*
G04 #@! TF.SameCoordinates,Original*
G04 #@! TF.FileFunction,Soldermask,Top*
G04 #@! TF.FilePolarity,Negative*
%FSLAX46Y46*%
G04 Gerber Fmt 4.6, Leading zero omitted, Abs format (unit mm)*
G04 Created by KiCad (PCBNEW 5.1.4-e60b266~84~ubuntu18.04.1) date 2019-09-18 22:30:48*
%MOMM*%
%LPD*%
G04 APERTURE LIST*
%ADD10C,0.100000*%
G04 APERTURE END LIST*
D10*
G36*
X189738000Y-102870000D02*
G01*
X104394000Y-102870000D01*
X104394000Y-85090000D01*
X189738000Y-85090000D01*
X189738000Y-102870000D01*
G37*
X189738000Y-102870000D02*
X104394000Y-102870000D01*
X104394000Y-85090000D01*
X189738000Y-85090000D01*
X189738000Y-102870000D01*
G36*
X189738000Y-81280000D02*
G01*
X104394000Y-81280000D01*
X104394000Y-62992000D01*
X189738000Y-62992000D01*
X189738000Y-81280000D01*
G37*
X189738000Y-81280000D02*
X104394000Y-81280000D01*
X104394000Y-62992000D01*
X189738000Y-62992000D01*
X189738000Y-81280000D01*
G36*
X118407000Y-117697378D02*
G01*
X118409402Y-117721764D01*
X118416515Y-117745213D01*
X118429596Y-117769060D01*
X118938022Y-118495383D01*
X118953974Y-118513984D01*
X118973248Y-118529115D01*
X118995104Y-118540195D01*
X119007000Y-118543524D01*
X119007000Y-118554522D01*
X119009402Y-118578908D01*
X119016515Y-118602357D01*
X119029596Y-118626204D01*
X119053953Y-118661000D01*
X119067026Y-118679675D01*
X119062553Y-118682066D01*
X119043611Y-118697611D01*
X119028066Y-118716553D01*
X119016515Y-118738164D01*
X119009402Y-118761613D01*
X119007000Y-118785999D01*
X119007000Y-120252201D01*
X119009402Y-120276587D01*
X119016515Y-120300036D01*
X119028066Y-120321647D01*
X119043611Y-120340589D01*
X119062553Y-120356134D01*
X119067450Y-120358751D01*
X119029879Y-120411976D01*
X119017778Y-120433284D01*
X119010067Y-120456543D01*
X119007000Y-120484061D01*
X119007000Y-120495435D01*
X118991243Y-120500215D01*
X118969632Y-120511766D01*
X118950690Y-120527311D01*
X118936958Y-120543614D01*
X118382426Y-121329200D01*
X117329574Y-121329200D01*
X116775042Y-120543614D01*
X116759017Y-120525077D01*
X116739683Y-120510022D01*
X116717784Y-120499028D01*
X116705000Y-120495505D01*
X116705000Y-120484061D01*
X116702598Y-120459675D01*
X116695485Y-120436226D01*
X116682121Y-120411976D01*
X116644550Y-120358751D01*
X116649447Y-120356134D01*
X116668389Y-120340589D01*
X116683934Y-120321647D01*
X116695485Y-120300036D01*
X116702598Y-120276587D01*
X116705000Y-120252201D01*
X116705000Y-118785999D01*
X116702598Y-118761613D01*
X116695485Y-118738164D01*
X116683934Y-118716553D01*
X116668389Y-118697611D01*
X116649447Y-118682066D01*
X116644974Y-118679675D01*
X116682404Y-118626204D01*
X116694421Y-118604849D01*
X116702041Y-118581560D01*
X116705000Y-118554522D01*
X116705000Y-118543556D01*
X116719410Y-118539185D01*
X116741021Y-118527634D01*
X116759963Y-118512089D01*
X116773978Y-118495383D01*
X117282404Y-117769060D01*
X117294421Y-117747705D01*
X117302041Y-117724416D01*
X117305000Y-117697378D01*
X117305000Y-115901700D01*
X118407000Y-115901700D01*
X118407000Y-117697378D01*
X118407000Y-117697378D01*
G37*
G36*
X131435968Y-119395565D02*
G01*
X131474638Y-119407296D01*
X131510277Y-119426346D01*
X131541517Y-119451983D01*
X131567154Y-119483223D01*
X131586204Y-119518862D01*
X131597935Y-119557532D01*
X131602500Y-119603888D01*
X131602500Y-120680112D01*
X131597935Y-120726468D01*
X131586204Y-120765138D01*
X131567154Y-120800777D01*
X131541517Y-120832017D01*
X131510277Y-120857654D01*
X131474638Y-120876704D01*
X131435968Y-120888435D01*
X131389612Y-120893000D01*
X130738388Y-120893000D01*
X130692032Y-120888435D01*
X130653362Y-120876704D01*
X130617723Y-120857654D01*
X130586483Y-120832017D01*
X130560846Y-120800777D01*
X130541796Y-120765138D01*
X130530065Y-120726468D01*
X130525500Y-120680112D01*
X130525500Y-119603888D01*
X130530065Y-119557532D01*
X130541796Y-119518862D01*
X130560846Y-119483223D01*
X130586483Y-119451983D01*
X130617723Y-119426346D01*
X130653362Y-119407296D01*
X130692032Y-119395565D01*
X130738388Y-119391000D01*
X131389612Y-119391000D01*
X131435968Y-119395565D01*
X131435968Y-119395565D01*
G37*
G36*
X133624968Y-119395565D02*
G01*
X133663638Y-119407296D01*
X133699277Y-119426346D01*
X133730517Y-119451983D01*
X133756154Y-119483223D01*
X133775204Y-119518862D01*
X133786935Y-119557532D01*
X133791500Y-119603888D01*
X133791500Y-120680112D01*
X133786935Y-120726468D01*
X133775204Y-120765138D01*
X133756154Y-120800777D01*
X133730517Y-120832017D01*
X133699277Y-120857654D01*
X133663638Y-120876704D01*
X133624968Y-120888435D01*
X133578612Y-120893000D01*
X132927388Y-120893000D01*
X132881032Y-120888435D01*
X132842362Y-120876704D01*
X132806723Y-120857654D01*
X132775483Y-120832017D01*
X132749846Y-120800777D01*
X132730796Y-120765138D01*
X132719065Y-120726468D01*
X132714500Y-120680112D01*
X132714500Y-119603888D01*
X132719065Y-119557532D01*
X132730796Y-119518862D01*
X132749846Y-119483223D01*
X132775483Y-119451983D01*
X132806723Y-119426346D01*
X132842362Y-119407296D01*
X132881032Y-119395565D01*
X132927388Y-119391000D01*
X133578612Y-119391000D01*
X133624968Y-119395565D01*
X133624968Y-119395565D01*
G37*
G36*
X135499968Y-119395565D02*
G01*
X135538638Y-119407296D01*
X135574277Y-119426346D01*
X135605517Y-119451983D01*
X135631154Y-119483223D01*
X135650204Y-119518862D01*
X135661935Y-119557532D01*
X135666500Y-119603888D01*
X135666500Y-120680112D01*
X135661935Y-120726468D01*
X135650204Y-120765138D01*
X135631154Y-120800777D01*
X135605517Y-120832017D01*
X135574277Y-120857654D01*
X135538638Y-120876704D01*
X135499968Y-120888435D01*
X135453612Y-120893000D01*
X134802388Y-120893000D01*
X134756032Y-120888435D01*
X134717362Y-120876704D01*
X134681723Y-120857654D01*
X134650483Y-120832017D01*
X134624846Y-120800777D01*
X134605796Y-120765138D01*
X134594065Y-120726468D01*
X134589500Y-120680112D01*
X134589500Y-119603888D01*
X134594065Y-119557532D01*
X134605796Y-119518862D01*
X134624846Y-119483223D01*
X134650483Y-119451983D01*
X134681723Y-119426346D01*
X134717362Y-119407296D01*
X134756032Y-119395565D01*
X134802388Y-119391000D01*
X135453612Y-119391000D01*
X135499968Y-119395565D01*
X135499968Y-119395565D01*
G37*
G36*
X129560968Y-119395565D02*
G01*
X129599638Y-119407296D01*
X129635277Y-119426346D01*
X129666517Y-119451983D01*
X129692154Y-119483223D01*
X129711204Y-119518862D01*
X129722935Y-119557532D01*
X129727500Y-119603888D01*
X129727500Y-120680112D01*
X129722935Y-120726468D01*
X129711204Y-120765138D01*
X129692154Y-120800777D01*
X129666517Y-120832017D01*
X129635277Y-120857654D01*
X129599638Y-120876704D01*
X129560968Y-120888435D01*
X129514612Y-120893000D01*
X128863388Y-120893000D01*
X128817032Y-120888435D01*
X128778362Y-120876704D01*
X128742723Y-120857654D01*
X128711483Y-120832017D01*
X128685846Y-120800777D01*
X128666796Y-120765138D01*
X128655065Y-120726468D01*
X128650500Y-120680112D01*
X128650500Y-119603888D01*
X128655065Y-119557532D01*
X128666796Y-119518862D01*
X128685846Y-119483223D01*
X128711483Y-119451983D01*
X128742723Y-119426346D01*
X128778362Y-119407296D01*
X128817032Y-119395565D01*
X128863388Y-119391000D01*
X129514612Y-119391000D01*
X129560968Y-119395565D01*
X129560968Y-119395565D01*
G37*
G36*
X186514205Y-118436461D02*
G01*
X186632153Y-118459922D01*
X186717763Y-118495383D01*
X186854359Y-118551963D01*
X187054342Y-118685587D01*
X187224413Y-118855658D01*
X187358037Y-119055641D01*
X187389255Y-119131009D01*
X187450078Y-119277847D01*
X187459942Y-119327436D01*
X187492099Y-119489100D01*
X187497000Y-119513742D01*
X187497000Y-119754258D01*
X187459942Y-119940565D01*
X187450078Y-119990152D01*
X187358037Y-120212359D01*
X187224413Y-120412342D01*
X187054342Y-120582413D01*
X186854359Y-120716037D01*
X186724194Y-120769953D01*
X186632153Y-120808078D01*
X186514205Y-120831539D01*
X186396259Y-120855000D01*
X186155741Y-120855000D01*
X186037795Y-120831539D01*
X185919847Y-120808078D01*
X185827806Y-120769953D01*
X185697641Y-120716037D01*
X185497658Y-120582413D01*
X185327587Y-120412342D01*
X185193963Y-120212359D01*
X185101922Y-119990152D01*
X185092059Y-119940565D01*
X185055000Y-119754258D01*
X185055000Y-119513742D01*
X185059902Y-119489100D01*
X185092058Y-119327436D01*
X185101922Y-119277847D01*
X185162745Y-119131009D01*
X185193963Y-119055641D01*
X185327587Y-118855658D01*
X185497658Y-118685587D01*
X185697641Y-118551963D01*
X185834237Y-118495383D01*
X185919847Y-118459922D01*
X186037795Y-118436461D01*
X186155741Y-118413000D01*
X186396259Y-118413000D01*
X186514205Y-118436461D01*
X186514205Y-118436461D01*
G37*
G36*
X176514205Y-118436461D02*
G01*
X176632153Y-118459922D01*
X176717763Y-118495383D01*
X176854359Y-118551963D01*
X177054342Y-118685587D01*
X177224413Y-118855658D01*
X177358037Y-119055641D01*
X177389255Y-119131009D01*
X177450078Y-119277847D01*
X177459942Y-119327436D01*
X177492099Y-119489100D01*
X177497000Y-119513742D01*
X177497000Y-119754258D01*
X177459942Y-119940565D01*
X177450078Y-119990152D01*
X177358037Y-120212359D01*
X177224413Y-120412342D01*
X177054342Y-120582413D01*
X176854359Y-120716037D01*
X176724194Y-120769953D01*
X176632153Y-120808078D01*
X176514205Y-120831539D01*
X176396259Y-120855000D01*
X176155741Y-120855000D01*
X176037795Y-120831539D01*
X175919847Y-120808078D01*
X175827806Y-120769953D01*
X175697641Y-120716037D01*
X175497658Y-120582413D01*
X175327587Y-120412342D01*
X175193963Y-120212359D01*
X175101922Y-119990152D01*
X175092059Y-119940565D01*
X175055000Y-119754258D01*
X175055000Y-119513742D01*
X175059902Y-119489100D01*
X175092058Y-119327436D01*
X175101922Y-119277847D01*
X175162745Y-119131009D01*
X175193963Y-119055641D01*
X175327587Y-118855658D01*
X175497658Y-118685587D01*
X175697641Y-118551963D01*
X175834237Y-118495383D01*
X175919847Y-118459922D01*
X176037795Y-118436461D01*
X176155741Y-118413000D01*
X176396259Y-118413000D01*
X176514205Y-118436461D01*
X176514205Y-118436461D01*
G37*
G36*
X169750205Y-118436461D02*
G01*
X169868153Y-118459922D01*
X169953763Y-118495383D01*
X170090359Y-118551963D01*
X170290342Y-118685587D01*
X170460413Y-118855658D01*
X170594037Y-119055641D01*
X170625255Y-119131009D01*
X170686078Y-119277847D01*
X170695942Y-119327436D01*
X170728099Y-119489100D01*
X170733000Y-119513742D01*
X170733000Y-119754258D01*
X170695942Y-119940565D01*
X170686078Y-119990152D01*
X170594037Y-120212359D01*
X170460413Y-120412342D01*
X170290342Y-120582413D01*
X170090359Y-120716037D01*
X169960194Y-120769953D01*
X169868153Y-120808078D01*
X169750205Y-120831539D01*
X169632259Y-120855000D01*
X169391741Y-120855000D01*
X169273795Y-120831539D01*
X169155847Y-120808078D01*
X169063806Y-120769953D01*
X168933641Y-120716037D01*
X168733658Y-120582413D01*
X168563587Y-120412342D01*
X168429963Y-120212359D01*
X168337922Y-119990152D01*
X168328059Y-119940565D01*
X168291000Y-119754258D01*
X168291000Y-119513742D01*
X168295902Y-119489100D01*
X168328058Y-119327436D01*
X168337922Y-119277847D01*
X168398745Y-119131009D01*
X168429963Y-119055641D01*
X168563587Y-118855658D01*
X168733658Y-118685587D01*
X168933641Y-118551963D01*
X169070237Y-118495383D01*
X169155847Y-118459922D01*
X169273795Y-118436461D01*
X169391741Y-118413000D01*
X169632259Y-118413000D01*
X169750205Y-118436461D01*
X169750205Y-118436461D01*
G37*
G36*
X164750205Y-118436461D02*
G01*
X164868153Y-118459922D01*
X164953763Y-118495383D01*
X165090359Y-118551963D01*
X165290342Y-118685587D01*
X165460413Y-118855658D01*
X165594037Y-119055641D01*
X165625255Y-119131009D01*
X165686078Y-119277847D01*
X165695942Y-119327436D01*
X165728099Y-119489100D01*
X165733000Y-119513742D01*
X165733000Y-119754258D01*
X165695942Y-119940565D01*
X165686078Y-119990152D01*
X165594037Y-120212359D01*
X165460413Y-120412342D01*
X165290342Y-120582413D01*
X165090359Y-120716037D01*
X164960194Y-120769953D01*
X164868153Y-120808078D01*
X164750205Y-120831539D01*
X164632259Y-120855000D01*
X164391741Y-120855000D01*
X164273795Y-120831539D01*
X164155847Y-120808078D01*
X164063806Y-120769953D01*
X163933641Y-120716037D01*
X163733658Y-120582413D01*
X163563587Y-120412342D01*
X163429963Y-120212359D01*
X163337922Y-119990152D01*
X163328059Y-119940565D01*
X163291000Y-119754258D01*
X163291000Y-119513742D01*
X163295902Y-119489100D01*
X163328058Y-119327436D01*
X163337922Y-119277847D01*
X163398745Y-119131009D01*
X163429963Y-119055641D01*
X163563587Y-118855658D01*
X163733658Y-118685587D01*
X163933641Y-118551963D01*
X164070237Y-118495383D01*
X164155847Y-118459922D01*
X164273795Y-118436461D01*
X164391741Y-118413000D01*
X164632259Y-118413000D01*
X164750205Y-118436461D01*
X164750205Y-118436461D01*
G37*
G36*
X159750205Y-118436461D02*
G01*
X159868153Y-118459922D01*
X159953763Y-118495383D01*
X160090359Y-118551963D01*
X160290342Y-118685587D01*
X160460413Y-118855658D01*
X160594037Y-119055641D01*
X160625255Y-119131009D01*
X160686078Y-119277847D01*
X160695942Y-119327436D01*
X160728099Y-119489100D01*
X160733000Y-119513742D01*
X160733000Y-119754258D01*
X160695942Y-119940565D01*
X160686078Y-119990152D01*
X160594037Y-120212359D01*
X160460413Y-120412342D01*
X160290342Y-120582413D01*
X160090359Y-120716037D01*
X159960194Y-120769953D01*
X159868153Y-120808078D01*
X159750205Y-120831539D01*
X159632259Y-120855000D01*
X159391741Y-120855000D01*
X159273795Y-120831539D01*
X159155847Y-120808078D01*
X159063806Y-120769953D01*
X158933641Y-120716037D01*
X158733658Y-120582413D01*
X158563587Y-120412342D01*
X158429963Y-120212359D01*
X158337922Y-119990152D01*
X158328059Y-119940565D01*
X158291000Y-119754258D01*
X158291000Y-119513742D01*
X158295902Y-119489100D01*
X158328058Y-119327436D01*
X158337922Y-119277847D01*
X158398745Y-119131009D01*
X158429963Y-119055641D01*
X158563587Y-118855658D01*
X158733658Y-118685587D01*
X158933641Y-118551963D01*
X159070237Y-118495383D01*
X159155847Y-118459922D01*
X159273795Y-118436461D01*
X159391741Y-118413000D01*
X159632259Y-118413000D01*
X159750205Y-118436461D01*
X159750205Y-118436461D01*
G37*
G36*
X181514205Y-118436461D02*
G01*
X181632153Y-118459922D01*
X181717763Y-118495383D01*
X181854359Y-118551963D01*
X182054342Y-118685587D01*
X182224413Y-118855658D01*
X182358037Y-119055641D01*
X182389255Y-119131009D01*
X182450078Y-119277847D01*
X182459942Y-119327436D01*
X182492099Y-119489100D01*
X182497000Y-119513742D01*
X182497000Y-119754258D01*
X182459942Y-119940565D01*
X182450078Y-119990152D01*
X182358037Y-120212359D01*
X182224413Y-120412342D01*
X182054342Y-120582413D01*
X181854359Y-120716037D01*
X181724194Y-120769953D01*
X181632153Y-120808078D01*
X181514205Y-120831539D01*
X181396259Y-120855000D01*
X181155741Y-120855000D01*
X181037795Y-120831539D01*
X180919847Y-120808078D01*
X180827806Y-120769953D01*
X180697641Y-120716037D01*
X180497658Y-120582413D01*
X180327587Y-120412342D01*
X180193963Y-120212359D01*
X180101922Y-119990152D01*
X180092059Y-119940565D01*
X180055000Y-119754258D01*
X180055000Y-119513742D01*
X180059902Y-119489100D01*
X180092058Y-119327436D01*
X180101922Y-119277847D01*
X180162745Y-119131009D01*
X180193963Y-119055641D01*
X180327587Y-118855658D01*
X180497658Y-118685587D01*
X180697641Y-118551963D01*
X180834237Y-118495383D01*
X180919847Y-118459922D01*
X181037795Y-118436461D01*
X181155741Y-118413000D01*
X181396259Y-118413000D01*
X181514205Y-118436461D01*
X181514205Y-118436461D01*
G37*
G36*
X152198564Y-118623389D02*
G01*
X152377752Y-118697611D01*
X152389835Y-118702616D01*
X152561973Y-118817635D01*
X152708365Y-118964027D01*
X152769580Y-119055641D01*
X152823385Y-119136167D01*
X152902611Y-119327436D01*
X152943000Y-119530484D01*
X152943000Y-119737516D01*
X152902611Y-119940564D01*
X152823385Y-120131833D01*
X152823384Y-120131835D01*
X152708365Y-120303973D01*
X152561973Y-120450365D01*
X152389835Y-120565384D01*
X152389834Y-120565385D01*
X152389833Y-120565385D01*
X152198564Y-120644611D01*
X151995516Y-120685000D01*
X151788484Y-120685000D01*
X151585436Y-120644611D01*
X151394167Y-120565385D01*
X151394166Y-120565385D01*
X151394165Y-120565384D01*
X151222027Y-120450365D01*
X151075635Y-120303973D01*
X150960616Y-120131835D01*
X150960615Y-120131833D01*
X150881389Y-119940564D01*
X150841000Y-119737516D01*
X150841000Y-119530484D01*
X150881389Y-119327436D01*
X150960615Y-119136167D01*
X151014421Y-119055641D01*
X151075635Y-118964027D01*
X151222027Y-118817635D01*
X151394165Y-118702616D01*
X151406248Y-118697611D01*
X151585436Y-118623389D01*
X151788484Y-118583000D01*
X151995516Y-118583000D01*
X152198564Y-118623389D01*
X152198564Y-118623389D01*
G37*
G36*
X145698564Y-118623389D02*
G01*
X145877752Y-118697611D01*
X145889835Y-118702616D01*
X146061973Y-118817635D01*
X146208365Y-118964027D01*
X146269580Y-119055641D01*
X146323385Y-119136167D01*
X146402611Y-119327436D01*
X146443000Y-119530484D01*
X146443000Y-119737516D01*
X146402611Y-119940564D01*
X146323385Y-120131833D01*
X146323384Y-120131835D01*
X146208365Y-120303973D01*
X146061973Y-120450365D01*
X145889835Y-120565384D01*
X145889834Y-120565385D01*
X145889833Y-120565385D01*
X145698564Y-120644611D01*
X145495516Y-120685000D01*
X145288484Y-120685000D01*
X145085436Y-120644611D01*
X144894167Y-120565385D01*
X144894166Y-120565385D01*
X144894165Y-120565384D01*
X144722027Y-120450365D01*
X144575635Y-120303973D01*
X144460616Y-120131835D01*
X144460615Y-120131833D01*
X144381389Y-119940564D01*
X144341000Y-119737516D01*
X144341000Y-119530484D01*
X144381389Y-119327436D01*
X144460615Y-119136167D01*
X144514421Y-119055641D01*
X144575635Y-118964027D01*
X144722027Y-118817635D01*
X144894165Y-118702616D01*
X144906248Y-118697611D01*
X145085436Y-118623389D01*
X145288484Y-118583000D01*
X145495516Y-118583000D01*
X145698564Y-118623389D01*
X145698564Y-118623389D01*
G37*
G36*
X106268690Y-118738164D02*
G01*
X106348627Y-118746037D01*
X106518466Y-118797557D01*
X106674991Y-118881222D01*
X106710729Y-118910552D01*
X106812186Y-118993814D01*
X106862925Y-119055641D01*
X106924778Y-119131009D01*
X107008443Y-119287534D01*
X107059963Y-119457373D01*
X107077359Y-119634000D01*
X107059963Y-119810627D01*
X107008443Y-119980466D01*
X106924778Y-120136991D01*
X106895448Y-120172729D01*
X106812186Y-120274186D01*
X106712331Y-120356134D01*
X106674991Y-120386778D01*
X106518466Y-120470443D01*
X106348627Y-120521963D01*
X106294327Y-120527311D01*
X106216260Y-120535000D01*
X106127740Y-120535000D01*
X106049673Y-120527311D01*
X105995373Y-120521963D01*
X105825534Y-120470443D01*
X105669009Y-120386778D01*
X105631669Y-120356134D01*
X105531814Y-120274186D01*
X105448552Y-120172729D01*
X105419222Y-120136991D01*
X105335557Y-119980466D01*
X105284037Y-119810627D01*
X105266641Y-119634000D01*
X105284037Y-119457373D01*
X105335557Y-119287534D01*
X105419222Y-119131009D01*
X105481075Y-119055641D01*
X105531814Y-118993814D01*
X105633271Y-118910552D01*
X105669009Y-118881222D01*
X105825534Y-118797557D01*
X105995373Y-118746037D01*
X106075310Y-118738164D01*
X106127740Y-118733000D01*
X106216260Y-118733000D01*
X106268690Y-118738164D01*
X106268690Y-118738164D01*
G37*
G36*
X139585000Y-120535000D02*
G01*
X137783000Y-120535000D01*
X137783000Y-118733000D01*
X139585000Y-118733000D01*
X139585000Y-120535000D01*
X139585000Y-120535000D01*
G37*
G36*
X141320690Y-118738164D02*
G01*
X141400627Y-118746037D01*
X141570466Y-118797557D01*
X141726991Y-118881222D01*
X141762729Y-118910552D01*
X141864186Y-118993814D01*
X141914925Y-119055641D01*
X141976778Y-119131009D01*
X142060443Y-119287534D01*
X142111963Y-119457373D01*
X142129359Y-119634000D01*
X142111963Y-119810627D01*
X142060443Y-119980466D01*
X141976778Y-120136991D01*
X141947448Y-120172729D01*
X141864186Y-120274186D01*
X141764331Y-120356134D01*
X141726991Y-120386778D01*
X141570466Y-120470443D01*
X141400627Y-120521963D01*
X141346327Y-120527311D01*
X141268260Y-120535000D01*
X141179740Y-120535000D01*
X141101673Y-120527311D01*
X141047373Y-120521963D01*
X140877534Y-120470443D01*
X140721009Y-120386778D01*
X140683669Y-120356134D01*
X140583814Y-120274186D01*
X140500552Y-120172729D01*
X140471222Y-120136991D01*
X140387557Y-119980466D01*
X140336037Y-119810627D01*
X140318641Y-119634000D01*
X140336037Y-119457373D01*
X140387557Y-119287534D01*
X140471222Y-119131009D01*
X140533075Y-119055641D01*
X140583814Y-118993814D01*
X140685271Y-118910552D01*
X140721009Y-118881222D01*
X140877534Y-118797557D01*
X141047373Y-118746037D01*
X141127310Y-118738164D01*
X141179740Y-118733000D01*
X141268260Y-118733000D01*
X141320690Y-118738164D01*
X141320690Y-118738164D01*
G37*
G36*
X124708228Y-118267703D02*
G01*
X124863100Y-118331853D01*
X125002481Y-118424985D01*
X125121015Y-118543519D01*
X125214147Y-118682900D01*
X125278297Y-118837772D01*
X125311000Y-119002184D01*
X125311000Y-119169816D01*
X125278297Y-119334228D01*
X125214147Y-119489100D01*
X125121015Y-119628481D01*
X125002481Y-119747015D01*
X124863100Y-119840147D01*
X124708228Y-119904297D01*
X124543816Y-119937000D01*
X124376184Y-119937000D01*
X124211772Y-119904297D01*
X124056900Y-119840147D01*
X123917519Y-119747015D01*
X123798985Y-119628481D01*
X123705853Y-119489100D01*
X123641703Y-119334228D01*
X123609000Y-119169816D01*
X123609000Y-119002184D01*
X123641703Y-118837772D01*
X123705853Y-118682900D01*
X123798985Y-118543519D01*
X123917519Y-118424985D01*
X124056900Y-118331853D01*
X124211772Y-118267703D01*
X124376184Y-118235000D01*
X124543816Y-118235000D01*
X124708228Y-118267703D01*
X124708228Y-118267703D01*
G37*
G36*
X112008228Y-118267703D02*
G01*
X112163100Y-118331853D01*
X112302481Y-118424985D01*
X112421015Y-118543519D01*
X112514147Y-118682900D01*
X112578297Y-118837772D01*
X112611000Y-119002184D01*
X112611000Y-119169816D01*
X112578297Y-119334228D01*
X112514147Y-119489100D01*
X112421015Y-119628481D01*
X112302481Y-119747015D01*
X112163100Y-119840147D01*
X112008228Y-119904297D01*
X111843816Y-119937000D01*
X111676184Y-119937000D01*
X111511772Y-119904297D01*
X111356900Y-119840147D01*
X111217519Y-119747015D01*
X111098985Y-119628481D01*
X111005853Y-119489100D01*
X110941703Y-119334228D01*
X110909000Y-119169816D01*
X110909000Y-119002184D01*
X110941703Y-118837772D01*
X111005853Y-118682900D01*
X111098985Y-118543519D01*
X111217519Y-118424985D01*
X111356900Y-118331853D01*
X111511772Y-118267703D01*
X111676184Y-118235000D01*
X111843816Y-118235000D01*
X112008228Y-118267703D01*
X112008228Y-118267703D01*
G37*
G36*
X107073000Y-117995000D02*
G01*
X105271000Y-117995000D01*
X105271000Y-116193000D01*
X107073000Y-116193000D01*
X107073000Y-117995000D01*
X107073000Y-117995000D01*
G37*
G36*
X131786968Y-116347565D02*
G01*
X131825638Y-116359296D01*
X131861277Y-116378346D01*
X131892517Y-116403983D01*
X131918154Y-116435223D01*
X131937204Y-116470862D01*
X131948935Y-116509532D01*
X131953500Y-116555888D01*
X131953500Y-117632112D01*
X131948935Y-117678468D01*
X131937204Y-117717138D01*
X131918154Y-117752777D01*
X131892517Y-117784017D01*
X131861277Y-117809654D01*
X131825638Y-117828704D01*
X131786968Y-117840435D01*
X131740612Y-117845000D01*
X131089388Y-117845000D01*
X131043032Y-117840435D01*
X131004362Y-117828704D01*
X130968723Y-117809654D01*
X130937483Y-117784017D01*
X130911846Y-117752777D01*
X130892796Y-117717138D01*
X130881065Y-117678468D01*
X130876500Y-117632112D01*
X130876500Y-116555888D01*
X130881065Y-116509532D01*
X130892796Y-116470862D01*
X130911846Y-116435223D01*
X130937483Y-116403983D01*
X130968723Y-116378346D01*
X131004362Y-116359296D01*
X131043032Y-116347565D01*
X131089388Y-116343000D01*
X131740612Y-116343000D01*
X131786968Y-116347565D01*
X131786968Y-116347565D01*
G37*
G36*
X129911968Y-116347565D02*
G01*
X129950638Y-116359296D01*
X129986277Y-116378346D01*
X130017517Y-116403983D01*
X130043154Y-116435223D01*
X130062204Y-116470862D01*
X130073935Y-116509532D01*
X130078500Y-116555888D01*
X130078500Y-117632112D01*
X130073935Y-117678468D01*
X130062204Y-117717138D01*
X130043154Y-117752777D01*
X130017517Y-117784017D01*
X129986277Y-117809654D01*
X129950638Y-117828704D01*
X129911968Y-117840435D01*
X129865612Y-117845000D01*
X129214388Y-117845000D01*
X129168032Y-117840435D01*
X129129362Y-117828704D01*
X129093723Y-117809654D01*
X129062483Y-117784017D01*
X129036846Y-117752777D01*
X129017796Y-117717138D01*
X129006065Y-117678468D01*
X129001500Y-117632112D01*
X129001500Y-116555888D01*
X129006065Y-116509532D01*
X129017796Y-116470862D01*
X129036846Y-116435223D01*
X129062483Y-116403983D01*
X129093723Y-116378346D01*
X129129362Y-116359296D01*
X129168032Y-116347565D01*
X129214388Y-116343000D01*
X129865612Y-116343000D01*
X129911968Y-116347565D01*
X129911968Y-116347565D01*
G37*
G36*
X137580468Y-116220565D02*
G01*
X137619138Y-116232296D01*
X137654777Y-116251346D01*
X137686017Y-116276983D01*
X137711654Y-116308223D01*
X137730704Y-116343862D01*
X137742435Y-116382532D01*
X137747000Y-116428888D01*
X137747000Y-117505112D01*
X137742435Y-117551468D01*
X137730704Y-117590138D01*
X137711654Y-117625777D01*
X137686017Y-117657017D01*
X137654777Y-117682654D01*
X137619138Y-117701704D01*
X137580468Y-117713435D01*
X137534112Y-117718000D01*
X136882888Y-117718000D01*
X136836532Y-117713435D01*
X136797862Y-117701704D01*
X136762223Y-117682654D01*
X136730983Y-117657017D01*
X136705346Y-117625777D01*
X136686296Y-117590138D01*
X136674565Y-117551468D01*
X136670000Y-117505112D01*
X136670000Y-116428888D01*
X136674565Y-116382532D01*
X136686296Y-116343862D01*
X136705346Y-116308223D01*
X136730983Y-116276983D01*
X136762223Y-116251346D01*
X136797862Y-116232296D01*
X136836532Y-116220565D01*
X136882888Y-116216000D01*
X137534112Y-116216000D01*
X137580468Y-116220565D01*
X137580468Y-116220565D01*
G37*
G36*
X135705468Y-116220565D02*
G01*
X135744138Y-116232296D01*
X135779777Y-116251346D01*
X135811017Y-116276983D01*
X135836654Y-116308223D01*
X135855704Y-116343862D01*
X135867435Y-116382532D01*
X135872000Y-116428888D01*
X135872000Y-117505112D01*
X135867435Y-117551468D01*
X135855704Y-117590138D01*
X135836654Y-117625777D01*
X135811017Y-117657017D01*
X135779777Y-117682654D01*
X135744138Y-117701704D01*
X135705468Y-117713435D01*
X135659112Y-117718000D01*
X135007888Y-117718000D01*
X134961532Y-117713435D01*
X134922862Y-117701704D01*
X134887223Y-117682654D01*
X134855983Y-117657017D01*
X134830346Y-117625777D01*
X134811296Y-117590138D01*
X134799565Y-117551468D01*
X134795000Y-117505112D01*
X134795000Y-116428888D01*
X134799565Y-116382532D01*
X134811296Y-116343862D01*
X134830346Y-116308223D01*
X134855983Y-116276983D01*
X134887223Y-116251346D01*
X134922862Y-116232296D01*
X134961532Y-116220565D01*
X135007888Y-116216000D01*
X135659112Y-116216000D01*
X135705468Y-116220565D01*
X135705468Y-116220565D01*
G37*
G36*
X119907000Y-117507200D02*
G01*
X118805000Y-117507200D01*
X118805000Y-115905200D01*
X119907000Y-115905200D01*
X119907000Y-117507200D01*
X119907000Y-117507200D01*
G37*
G36*
X116907000Y-117507200D02*
G01*
X115805000Y-117507200D01*
X115805000Y-115905200D01*
X116907000Y-115905200D01*
X116907000Y-117507200D01*
X116907000Y-117507200D01*
G37*
G36*
X112611000Y-117437000D02*
G01*
X110909000Y-117437000D01*
X110909000Y-115735000D01*
X112611000Y-115735000D01*
X112611000Y-117437000D01*
X112611000Y-117437000D01*
G37*
G36*
X125311000Y-117437000D02*
G01*
X123609000Y-117437000D01*
X123609000Y-115735000D01*
X125311000Y-115735000D01*
X125311000Y-117437000D01*
X125311000Y-117437000D01*
G37*
G36*
X145698564Y-114123389D02*
G01*
X145889833Y-114202615D01*
X145889835Y-114202616D01*
X146061973Y-114317635D01*
X146208365Y-114464027D01*
X146323385Y-114636167D01*
X146402611Y-114827436D01*
X146443000Y-115030484D01*
X146443000Y-115237516D01*
X146402611Y-115440564D01*
X146323385Y-115631833D01*
X146323384Y-115631835D01*
X146208365Y-115803973D01*
X146061973Y-115950365D01*
X145889835Y-116065384D01*
X145889834Y-116065385D01*
X145889833Y-116065385D01*
X145698564Y-116144611D01*
X145495516Y-116185000D01*
X145288484Y-116185000D01*
X145085436Y-116144611D01*
X144894167Y-116065385D01*
X144894166Y-116065385D01*
X144894165Y-116065384D01*
X144722027Y-115950365D01*
X144575635Y-115803973D01*
X144460616Y-115631835D01*
X144460615Y-115631833D01*
X144381389Y-115440564D01*
X144341000Y-115237516D01*
X144341000Y-115030484D01*
X144381389Y-114827436D01*
X144460615Y-114636167D01*
X144575635Y-114464027D01*
X144722027Y-114317635D01*
X144894165Y-114202616D01*
X144894167Y-114202615D01*
X145085436Y-114123389D01*
X145288484Y-114083000D01*
X145495516Y-114083000D01*
X145698564Y-114123389D01*
X145698564Y-114123389D01*
G37*
G36*
X152198564Y-114123389D02*
G01*
X152389833Y-114202615D01*
X152389835Y-114202616D01*
X152561973Y-114317635D01*
X152708365Y-114464027D01*
X152823385Y-114636167D01*
X152902611Y-114827436D01*
X152943000Y-115030484D01*
X152943000Y-115237516D01*
X152902611Y-115440564D01*
X152823385Y-115631833D01*
X152823384Y-115631835D01*
X152708365Y-115803973D01*
X152561973Y-115950365D01*
X152389835Y-116065384D01*
X152389834Y-116065385D01*
X152389833Y-116065385D01*
X152198564Y-116144611D01*
X151995516Y-116185000D01*
X151788484Y-116185000D01*
X151585436Y-116144611D01*
X151394167Y-116065385D01*
X151394166Y-116065385D01*
X151394165Y-116065384D01*
X151222027Y-115950365D01*
X151075635Y-115803973D01*
X150960616Y-115631835D01*
X150960615Y-115631833D01*
X150881389Y-115440564D01*
X150841000Y-115237516D01*
X150841000Y-115030484D01*
X150881389Y-114827436D01*
X150960615Y-114636167D01*
X151075635Y-114464027D01*
X151222027Y-114317635D01*
X151394165Y-114202616D01*
X151394167Y-114202615D01*
X151585436Y-114123389D01*
X151788484Y-114083000D01*
X151995516Y-114083000D01*
X152198564Y-114123389D01*
X152198564Y-114123389D01*
G37*
G36*
X115844968Y-113807565D02*
G01*
X115883638Y-113819296D01*
X115919277Y-113838346D01*
X115950517Y-113863983D01*
X115976154Y-113895223D01*
X115995204Y-113930862D01*
X116006935Y-113969532D01*
X116011500Y-114015888D01*
X116011500Y-115092112D01*
X116006935Y-115138468D01*
X115995204Y-115177138D01*
X115976154Y-115212777D01*
X115950517Y-115244017D01*
X115919277Y-115269654D01*
X115883638Y-115288704D01*
X115844968Y-115300435D01*
X115798612Y-115305000D01*
X115147388Y-115305000D01*
X115101032Y-115300435D01*
X115062362Y-115288704D01*
X115026723Y-115269654D01*
X114995483Y-115244017D01*
X114969846Y-115212777D01*
X114950796Y-115177138D01*
X114939065Y-115138468D01*
X114934500Y-115092112D01*
X114934500Y-114015888D01*
X114939065Y-113969532D01*
X114950796Y-113930862D01*
X114969846Y-113895223D01*
X114995483Y-113863983D01*
X115026723Y-113838346D01*
X115062362Y-113819296D01*
X115101032Y-113807565D01*
X115147388Y-113803000D01*
X115798612Y-113803000D01*
X115844968Y-113807565D01*
X115844968Y-113807565D01*
G37*
G36*
X117719968Y-113807565D02*
G01*
X117758638Y-113819296D01*
X117794277Y-113838346D01*
X117825517Y-113863983D01*
X117851154Y-113895223D01*
X117870204Y-113930862D01*
X117881935Y-113969532D01*
X117886500Y-114015888D01*
X117886500Y-115092112D01*
X117881935Y-115138468D01*
X117870204Y-115177138D01*
X117851154Y-115212777D01*
X117825517Y-115244017D01*
X117794277Y-115269654D01*
X117758638Y-115288704D01*
X117719968Y-115300435D01*
X117673612Y-115305000D01*
X117022388Y-115305000D01*
X116976032Y-115300435D01*
X116937362Y-115288704D01*
X116901723Y-115269654D01*
X116870483Y-115244017D01*
X116844846Y-115212777D01*
X116825796Y-115177138D01*
X116814065Y-115138468D01*
X116809500Y-115092112D01*
X116809500Y-114015888D01*
X116814065Y-113969532D01*
X116825796Y-113930862D01*
X116844846Y-113895223D01*
X116870483Y-113863983D01*
X116901723Y-113838346D01*
X116937362Y-113819296D01*
X116976032Y-113807565D01*
X117022388Y-113803000D01*
X117673612Y-113803000D01*
X117719968Y-113807565D01*
X117719968Y-113807565D01*
G37*
G36*
X133355928Y-112957764D02*
G01*
X133377009Y-112964160D01*
X133396445Y-112974548D01*
X133413476Y-112988524D01*
X133427452Y-113005555D01*
X133437840Y-113024991D01*
X133444236Y-113046072D01*
X133447000Y-113074140D01*
X133447000Y-114887860D01*
X133444236Y-114915928D01*
X133437840Y-114937009D01*
X133427452Y-114956445D01*
X133413476Y-114973476D01*
X133396445Y-114987452D01*
X133377009Y-114997840D01*
X133355928Y-115004236D01*
X133327860Y-115007000D01*
X132864140Y-115007000D01*
X132836072Y-115004236D01*
X132814991Y-114997840D01*
X132795555Y-114987452D01*
X132778524Y-114973476D01*
X132764548Y-114956445D01*
X132754160Y-114937009D01*
X132747764Y-114915928D01*
X132745000Y-114887860D01*
X132745000Y-113074140D01*
X132747764Y-113046072D01*
X132754160Y-113024991D01*
X132764548Y-113005555D01*
X132778524Y-112988524D01*
X132795555Y-112974548D01*
X132814991Y-112964160D01*
X132836072Y-112957764D01*
X132864140Y-112955000D01*
X133327860Y-112955000D01*
X133355928Y-112957764D01*
X133355928Y-112957764D01*
G37*
G36*
X130815928Y-112957764D02*
G01*
X130837009Y-112964160D01*
X130856445Y-112974548D01*
X130873476Y-112988524D01*
X130887452Y-113005555D01*
X130897840Y-113024991D01*
X130904236Y-113046072D01*
X130907000Y-113074140D01*
X130907000Y-114887860D01*
X130904236Y-114915928D01*
X130897840Y-114937009D01*
X130887452Y-114956445D01*
X130873476Y-114973476D01*
X130856445Y-114987452D01*
X130837009Y-114997840D01*
X130815928Y-115004236D01*
X130787860Y-115007000D01*
X130324140Y-115007000D01*
X130296072Y-115004236D01*
X130274991Y-114997840D01*
X130255555Y-114987452D01*
X130238524Y-114973476D01*
X130224548Y-114956445D01*
X130214160Y-114937009D01*
X130207764Y-114915928D01*
X130205000Y-114887860D01*
X130205000Y-113074140D01*
X130207764Y-113046072D01*
X130214160Y-113024991D01*
X130224548Y-113005555D01*
X130238524Y-112988524D01*
X130255555Y-112974548D01*
X130274991Y-112964160D01*
X130296072Y-112957764D01*
X130324140Y-112955000D01*
X130787860Y-112955000D01*
X130815928Y-112957764D01*
X130815928Y-112957764D01*
G37*
G36*
X137165928Y-112957764D02*
G01*
X137187009Y-112964160D01*
X137206445Y-112974548D01*
X137223476Y-112988524D01*
X137237452Y-113005555D01*
X137247840Y-113024991D01*
X137254236Y-113046072D01*
X137257000Y-113074140D01*
X137257000Y-114887860D01*
X137254236Y-114915928D01*
X137247840Y-114937009D01*
X137237452Y-114956445D01*
X137223476Y-114973476D01*
X137206445Y-114987452D01*
X137187009Y-114997840D01*
X137165928Y-115004236D01*
X137137860Y-115007000D01*
X136674140Y-115007000D01*
X136646072Y-115004236D01*
X136624991Y-114997840D01*
X136605555Y-114987452D01*
X136588524Y-114973476D01*
X136574548Y-114956445D01*
X136564160Y-114937009D01*
X136557764Y-114915928D01*
X136555000Y-114887860D01*
X136555000Y-113074140D01*
X136557764Y-113046072D01*
X136564160Y-113024991D01*
X136574548Y-113005555D01*
X136588524Y-112988524D01*
X136605555Y-112974548D01*
X136624991Y-112964160D01*
X136646072Y-112957764D01*
X136674140Y-112955000D01*
X137137860Y-112955000D01*
X137165928Y-112957764D01*
X137165928Y-112957764D01*
G37*
G36*
X129545928Y-112957764D02*
G01*
X129567009Y-112964160D01*
X129586445Y-112974548D01*
X129603476Y-112988524D01*
X129617452Y-113005555D01*
X129627840Y-113024991D01*
X129634236Y-113046072D01*
X129637000Y-113074140D01*
X129637000Y-114887860D01*
X129634236Y-114915928D01*
X129627840Y-114937009D01*
X129617452Y-114956445D01*
X129603476Y-114973476D01*
X129586445Y-114987452D01*
X129567009Y-114997840D01*
X129545928Y-115004236D01*
X129517860Y-115007000D01*
X129054140Y-115007000D01*
X129026072Y-115004236D01*
X129004991Y-114997840D01*
X128985555Y-114987452D01*
X128968524Y-114973476D01*
X128954548Y-114956445D01*
X128944160Y-114937009D01*
X128937764Y-114915928D01*
X128935000Y-114887860D01*
X128935000Y-113074140D01*
X128937764Y-113046072D01*
X128944160Y-113024991D01*
X128954548Y-113005555D01*
X128968524Y-112988524D01*
X128985555Y-112974548D01*
X129004991Y-112964160D01*
X129026072Y-112957764D01*
X129054140Y-112955000D01*
X129517860Y-112955000D01*
X129545928Y-112957764D01*
X129545928Y-112957764D01*
G37*
G36*
X135895928Y-112957764D02*
G01*
X135917009Y-112964160D01*
X135936445Y-112974548D01*
X135953476Y-112988524D01*
X135967452Y-113005555D01*
X135977840Y-113024991D01*
X135984236Y-113046072D01*
X135987000Y-113074140D01*
X135987000Y-114887860D01*
X135984236Y-114915928D01*
X135977840Y-114937009D01*
X135967452Y-114956445D01*
X135953476Y-114973476D01*
X135936445Y-114987452D01*
X135917009Y-114997840D01*
X135895928Y-115004236D01*
X135867860Y-115007000D01*
X135404140Y-115007000D01*
X135376072Y-115004236D01*
X135354991Y-114997840D01*
X135335555Y-114987452D01*
X135318524Y-114973476D01*
X135304548Y-114956445D01*
X135294160Y-114937009D01*
X135287764Y-114915928D01*
X135285000Y-114887860D01*
X135285000Y-113074140D01*
X135287764Y-113046072D01*
X135294160Y-113024991D01*
X135304548Y-113005555D01*
X135318524Y-112988524D01*
X135335555Y-112974548D01*
X135354991Y-112964160D01*
X135376072Y-112957764D01*
X135404140Y-112955000D01*
X135867860Y-112955000D01*
X135895928Y-112957764D01*
X135895928Y-112957764D01*
G37*
G36*
X134625928Y-112957764D02*
G01*
X134647009Y-112964160D01*
X134666445Y-112974548D01*
X134683476Y-112988524D01*
X134697452Y-113005555D01*
X134707840Y-113024991D01*
X134714236Y-113046072D01*
X134717000Y-113074140D01*
X134717000Y-114887860D01*
X134714236Y-114915928D01*
X134707840Y-114937009D01*
X134697452Y-114956445D01*
X134683476Y-114973476D01*
X134666445Y-114987452D01*
X134647009Y-114997840D01*
X134625928Y-115004236D01*
X134597860Y-115007000D01*
X134134140Y-115007000D01*
X134106072Y-115004236D01*
X134084991Y-114997840D01*
X134065555Y-114987452D01*
X134048524Y-114973476D01*
X134034548Y-114956445D01*
X134024160Y-114937009D01*
X134017764Y-114915928D01*
X134015000Y-114887860D01*
X134015000Y-113074140D01*
X134017764Y-113046072D01*
X134024160Y-113024991D01*
X134034548Y-113005555D01*
X134048524Y-112988524D01*
X134065555Y-112974548D01*
X134084991Y-112964160D01*
X134106072Y-112957764D01*
X134134140Y-112955000D01*
X134597860Y-112955000D01*
X134625928Y-112957764D01*
X134625928Y-112957764D01*
G37*
G36*
X132085928Y-112957764D02*
G01*
X132107009Y-112964160D01*
X132126445Y-112974548D01*
X132143476Y-112988524D01*
X132157452Y-113005555D01*
X132167840Y-113024991D01*
X132174236Y-113046072D01*
X132177000Y-113074140D01*
X132177000Y-114887860D01*
X132174236Y-114915928D01*
X132167840Y-114937009D01*
X132157452Y-114956445D01*
X132143476Y-114973476D01*
X132126445Y-114987452D01*
X132107009Y-114997840D01*
X132085928Y-115004236D01*
X132057860Y-115007000D01*
X131594140Y-115007000D01*
X131566072Y-115004236D01*
X131544991Y-114997840D01*
X131525555Y-114987452D01*
X131508524Y-114973476D01*
X131494548Y-114956445D01*
X131484160Y-114937009D01*
X131477764Y-114915928D01*
X131475000Y-114887860D01*
X131475000Y-113074140D01*
X131477764Y-113046072D01*
X131484160Y-113024991D01*
X131494548Y-113005555D01*
X131508524Y-112988524D01*
X131525555Y-112974548D01*
X131544991Y-112964160D01*
X131566072Y-112957764D01*
X131594140Y-112955000D01*
X132057860Y-112955000D01*
X132085928Y-112957764D01*
X132085928Y-112957764D01*
G37*
G36*
X106823000Y-114673000D02*
G01*
X105521000Y-114673000D01*
X105521000Y-113671000D01*
X106823000Y-113671000D01*
X106823000Y-114673000D01*
X106823000Y-114673000D01*
G37*
G36*
X124470604Y-111600347D02*
G01*
X124507144Y-111611432D01*
X124540821Y-111629433D01*
X124570341Y-111653659D01*
X124594567Y-111683179D01*
X124612568Y-111716856D01*
X124623653Y-111753396D01*
X124628000Y-111797538D01*
X124628000Y-113246462D01*
X124623653Y-113290604D01*
X124612568Y-113327144D01*
X124594567Y-113360821D01*
X124570341Y-113390341D01*
X124540821Y-113414567D01*
X124507144Y-113432568D01*
X124470604Y-113443653D01*
X124426462Y-113448000D01*
X123477538Y-113448000D01*
X123433396Y-113443653D01*
X123396856Y-113432568D01*
X123363179Y-113414567D01*
X123333659Y-113390341D01*
X123309433Y-113360821D01*
X123291432Y-113327144D01*
X123280347Y-113290604D01*
X123276000Y-113246462D01*
X123276000Y-111797538D01*
X123280347Y-111753396D01*
X123291432Y-111716856D01*
X123309433Y-111683179D01*
X123333659Y-111653659D01*
X123363179Y-111629433D01*
X123396856Y-111611432D01*
X123433396Y-111600347D01*
X123477538Y-111596000D01*
X124426462Y-111596000D01*
X124470604Y-111600347D01*
X124470604Y-111600347D01*
G37*
G36*
X121670604Y-111600347D02*
G01*
X121707144Y-111611432D01*
X121740821Y-111629433D01*
X121770341Y-111653659D01*
X121794567Y-111683179D01*
X121812568Y-111716856D01*
X121823653Y-111753396D01*
X121828000Y-111797538D01*
X121828000Y-113246462D01*
X121823653Y-113290604D01*
X121812568Y-113327144D01*
X121794567Y-113360821D01*
X121770341Y-113390341D01*
X121740821Y-113414567D01*
X121707144Y-113432568D01*
X121670604Y-113443653D01*
X121626462Y-113448000D01*
X120677538Y-113448000D01*
X120633396Y-113443653D01*
X120596856Y-113432568D01*
X120563179Y-113414567D01*
X120533659Y-113390341D01*
X120509433Y-113360821D01*
X120491432Y-113327144D01*
X120480347Y-113290604D01*
X120476000Y-113246462D01*
X120476000Y-111797538D01*
X120480347Y-111753396D01*
X120491432Y-111716856D01*
X120509433Y-111683179D01*
X120533659Y-111653659D01*
X120563179Y-111629433D01*
X120596856Y-111611432D01*
X120633396Y-111600347D01*
X120677538Y-111596000D01*
X121626462Y-111596000D01*
X121670604Y-111600347D01*
X121670604Y-111600347D01*
G37*
G36*
X127076468Y-112339065D02*
G01*
X127115138Y-112350796D01*
X127150777Y-112369846D01*
X127182017Y-112395483D01*
X127207654Y-112426723D01*
X127226704Y-112462362D01*
X127238435Y-112501032D01*
X127243000Y-112547388D01*
X127243000Y-113198612D01*
X127238435Y-113244968D01*
X127226704Y-113283638D01*
X127207654Y-113319277D01*
X127182017Y-113350517D01*
X127150777Y-113376154D01*
X127115138Y-113395204D01*
X127076468Y-113406935D01*
X127030112Y-113411500D01*
X125953888Y-113411500D01*
X125907532Y-113406935D01*
X125868862Y-113395204D01*
X125833223Y-113376154D01*
X125801983Y-113350517D01*
X125776346Y-113319277D01*
X125757296Y-113283638D01*
X125745565Y-113244968D01*
X125741000Y-113198612D01*
X125741000Y-112547388D01*
X125745565Y-112501032D01*
X125757296Y-112462362D01*
X125776346Y-112426723D01*
X125801983Y-112395483D01*
X125833223Y-112369846D01*
X125868862Y-112350796D01*
X125907532Y-112339065D01*
X125953888Y-112334500D01*
X127030112Y-112334500D01*
X127076468Y-112339065D01*
X127076468Y-112339065D01*
G37*
G36*
X117368968Y-111775565D02*
G01*
X117407638Y-111787296D01*
X117443277Y-111806346D01*
X117474517Y-111831983D01*
X117500154Y-111863223D01*
X117519204Y-111898862D01*
X117530935Y-111937532D01*
X117535500Y-111983888D01*
X117535500Y-113060112D01*
X117530935Y-113106468D01*
X117519204Y-113145138D01*
X117500154Y-113180777D01*
X117474517Y-113212017D01*
X117443277Y-113237654D01*
X117407638Y-113256704D01*
X117368968Y-113268435D01*
X117322612Y-113273000D01*
X116671388Y-113273000D01*
X116625032Y-113268435D01*
X116586362Y-113256704D01*
X116550723Y-113237654D01*
X116519483Y-113212017D01*
X116493846Y-113180777D01*
X116474796Y-113145138D01*
X116463065Y-113106468D01*
X116458500Y-113060112D01*
X116458500Y-111983888D01*
X116463065Y-111937532D01*
X116474796Y-111898862D01*
X116493846Y-111863223D01*
X116519483Y-111831983D01*
X116550723Y-111806346D01*
X116586362Y-111787296D01*
X116625032Y-111775565D01*
X116671388Y-111771000D01*
X117322612Y-111771000D01*
X117368968Y-111775565D01*
X117368968Y-111775565D01*
G37*
G36*
X119243968Y-111775565D02*
G01*
X119282638Y-111787296D01*
X119318277Y-111806346D01*
X119349517Y-111831983D01*
X119375154Y-111863223D01*
X119394204Y-111898862D01*
X119405935Y-111937532D01*
X119410500Y-111983888D01*
X119410500Y-113060112D01*
X119405935Y-113106468D01*
X119394204Y-113145138D01*
X119375154Y-113180777D01*
X119349517Y-113212017D01*
X119318277Y-113237654D01*
X119282638Y-113256704D01*
X119243968Y-113268435D01*
X119197612Y-113273000D01*
X118546388Y-113273000D01*
X118500032Y-113268435D01*
X118461362Y-113256704D01*
X118425723Y-113237654D01*
X118394483Y-113212017D01*
X118368846Y-113180777D01*
X118349796Y-113145138D01*
X118338065Y-113106468D01*
X118333500Y-113060112D01*
X118333500Y-111983888D01*
X118338065Y-111937532D01*
X118349796Y-111898862D01*
X118368846Y-111863223D01*
X118394483Y-111831983D01*
X118425723Y-111806346D01*
X118461362Y-111787296D01*
X118500032Y-111775565D01*
X118546388Y-111771000D01*
X119197612Y-111771000D01*
X119243968Y-111775565D01*
X119243968Y-111775565D01*
G37*
G36*
X112611000Y-112357000D02*
G01*
X110909000Y-112357000D01*
X110909000Y-110655000D01*
X112611000Y-110655000D01*
X112611000Y-112357000D01*
X112611000Y-112357000D01*
G37*
G36*
X147933909Y-110103072D02*
G01*
X148004627Y-110110037D01*
X148174466Y-110161557D01*
X148330991Y-110245222D01*
X148366729Y-110274552D01*
X148468186Y-110357814D01*
X148551448Y-110459271D01*
X148580778Y-110495009D01*
X148664443Y-110651534D01*
X148715963Y-110821373D01*
X148733359Y-110998000D01*
X148715963Y-111174627D01*
X148664443Y-111344466D01*
X148580778Y-111500991D01*
X148555383Y-111531935D01*
X148468186Y-111638186D01*
X148373156Y-111716174D01*
X148330991Y-111750778D01*
X148174466Y-111834443D01*
X148004627Y-111885963D01*
X147956906Y-111890663D01*
X147872260Y-111899000D01*
X147783740Y-111899000D01*
X147699094Y-111890663D01*
X147651373Y-111885963D01*
X147481534Y-111834443D01*
X147325009Y-111750778D01*
X147282844Y-111716174D01*
X147187814Y-111638186D01*
X147100617Y-111531935D01*
X147075222Y-111500991D01*
X146991557Y-111344466D01*
X146940037Y-111174627D01*
X146922641Y-110998000D01*
X146940037Y-110821373D01*
X146991557Y-110651534D01*
X147075222Y-110495009D01*
X147104552Y-110459271D01*
X147187814Y-110357814D01*
X147289271Y-110274552D01*
X147325009Y-110245222D01*
X147481534Y-110161557D01*
X147651373Y-110110037D01*
X147722091Y-110103072D01*
X147783740Y-110097000D01*
X147872260Y-110097000D01*
X147933909Y-110103072D01*
X147933909Y-110103072D01*
G37*
G36*
X145393909Y-110103072D02*
G01*
X145464627Y-110110037D01*
X145634466Y-110161557D01*
X145790991Y-110245222D01*
X145826729Y-110274552D01*
X145928186Y-110357814D01*
X146011448Y-110459271D01*
X146040778Y-110495009D01*
X146124443Y-110651534D01*
X146175963Y-110821373D01*
X146193359Y-110998000D01*
X146175963Y-111174627D01*
X146124443Y-111344466D01*
X146040778Y-111500991D01*
X146015383Y-111531935D01*
X145928186Y-111638186D01*
X145833156Y-111716174D01*
X145790991Y-111750778D01*
X145634466Y-111834443D01*
X145464627Y-111885963D01*
X145416906Y-111890663D01*
X145332260Y-111899000D01*
X145243740Y-111899000D01*
X145159094Y-111890663D01*
X145111373Y-111885963D01*
X144941534Y-111834443D01*
X144785009Y-111750778D01*
X144742844Y-111716174D01*
X144647814Y-111638186D01*
X144560617Y-111531935D01*
X144535222Y-111500991D01*
X144451557Y-111344466D01*
X144400037Y-111174627D01*
X144382641Y-110998000D01*
X144400037Y-110821373D01*
X144451557Y-110651534D01*
X144535222Y-110495009D01*
X144564552Y-110459271D01*
X144647814Y-110357814D01*
X144749271Y-110274552D01*
X144785009Y-110245222D01*
X144941534Y-110161557D01*
X145111373Y-110110037D01*
X145182091Y-110103072D01*
X145243740Y-110097000D01*
X145332260Y-110097000D01*
X145393909Y-110103072D01*
X145393909Y-110103072D01*
G37*
G36*
X142853909Y-110103072D02*
G01*
X142924627Y-110110037D01*
X143094466Y-110161557D01*
X143250991Y-110245222D01*
X143286729Y-110274552D01*
X143388186Y-110357814D01*
X143471448Y-110459271D01*
X143500778Y-110495009D01*
X143584443Y-110651534D01*
X143635963Y-110821373D01*
X143653359Y-110998000D01*
X143635963Y-111174627D01*
X143584443Y-111344466D01*
X143500778Y-111500991D01*
X143475383Y-111531935D01*
X143388186Y-111638186D01*
X143293156Y-111716174D01*
X143250991Y-111750778D01*
X143094466Y-111834443D01*
X142924627Y-111885963D01*
X142876906Y-111890663D01*
X142792260Y-111899000D01*
X142703740Y-111899000D01*
X142619094Y-111890663D01*
X142571373Y-111885963D01*
X142401534Y-111834443D01*
X142245009Y-111750778D01*
X142202844Y-111716174D01*
X142107814Y-111638186D01*
X142020617Y-111531935D01*
X141995222Y-111500991D01*
X141911557Y-111344466D01*
X141860037Y-111174627D01*
X141842641Y-110998000D01*
X141860037Y-110821373D01*
X141911557Y-110651534D01*
X141995222Y-110495009D01*
X142024552Y-110459271D01*
X142107814Y-110357814D01*
X142209271Y-110274552D01*
X142245009Y-110245222D01*
X142401534Y-110161557D01*
X142571373Y-110110037D01*
X142642091Y-110103072D01*
X142703740Y-110097000D01*
X142792260Y-110097000D01*
X142853909Y-110103072D01*
X142853909Y-110103072D01*
G37*
G36*
X127076468Y-110464065D02*
G01*
X127115138Y-110475796D01*
X127150777Y-110494846D01*
X127182017Y-110520483D01*
X127207654Y-110551723D01*
X127226704Y-110587362D01*
X127238435Y-110626032D01*
X127243000Y-110672388D01*
X127243000Y-111323612D01*
X127238435Y-111369968D01*
X127226704Y-111408638D01*
X127207654Y-111444277D01*
X127182017Y-111475517D01*
X127150777Y-111501154D01*
X127115138Y-111520204D01*
X127076468Y-111531935D01*
X127030112Y-111536500D01*
X125953888Y-111536500D01*
X125907532Y-111531935D01*
X125868862Y-111520204D01*
X125833223Y-111501154D01*
X125801983Y-111475517D01*
X125776346Y-111444277D01*
X125757296Y-111408638D01*
X125745565Y-111369968D01*
X125741000Y-111323612D01*
X125741000Y-110672388D01*
X125745565Y-110626032D01*
X125757296Y-110587362D01*
X125776346Y-110551723D01*
X125801983Y-110520483D01*
X125833223Y-110494846D01*
X125868862Y-110475796D01*
X125907532Y-110464065D01*
X125953888Y-110459500D01*
X127030112Y-110459500D01*
X127076468Y-110464065D01*
X127076468Y-110464065D01*
G37*
G36*
X106823000Y-111373000D02*
G01*
X105521000Y-111373000D01*
X105521000Y-110371000D01*
X106823000Y-110371000D01*
X106823000Y-111373000D01*
X106823000Y-111373000D01*
G37*
G36*
X119871928Y-110014764D02*
G01*
X119893009Y-110021160D01*
X119912445Y-110031548D01*
X119929476Y-110045524D01*
X119943452Y-110062555D01*
X119953840Y-110081991D01*
X119960236Y-110103072D01*
X119963000Y-110131140D01*
X119963000Y-110594860D01*
X119960236Y-110622928D01*
X119953840Y-110644009D01*
X119943452Y-110663445D01*
X119929476Y-110680476D01*
X119912445Y-110694452D01*
X119893009Y-110704840D01*
X119871928Y-110711236D01*
X119843860Y-110714000D01*
X118030140Y-110714000D01*
X118002072Y-110711236D01*
X117980991Y-110704840D01*
X117961555Y-110694452D01*
X117944524Y-110680476D01*
X117930548Y-110663445D01*
X117920160Y-110644009D01*
X117913764Y-110622928D01*
X117911000Y-110594860D01*
X117911000Y-110131140D01*
X117913764Y-110103072D01*
X117920160Y-110081991D01*
X117930548Y-110062555D01*
X117944524Y-110045524D01*
X117961555Y-110031548D01*
X117980991Y-110021160D01*
X118002072Y-110014764D01*
X118030140Y-110012000D01*
X119843860Y-110012000D01*
X119871928Y-110014764D01*
X119871928Y-110014764D01*
G37*
G36*
X124821928Y-110014764D02*
G01*
X124843009Y-110021160D01*
X124862445Y-110031548D01*
X124879476Y-110045524D01*
X124893452Y-110062555D01*
X124903840Y-110081991D01*
X124910236Y-110103072D01*
X124913000Y-110131140D01*
X124913000Y-110594860D01*
X124910236Y-110622928D01*
X124903840Y-110644009D01*
X124893452Y-110663445D01*
X124879476Y-110680476D01*
X124862445Y-110694452D01*
X124843009Y-110704840D01*
X124821928Y-110711236D01*
X124793860Y-110714000D01*
X122980140Y-110714000D01*
X122952072Y-110711236D01*
X122930991Y-110704840D01*
X122911555Y-110694452D01*
X122894524Y-110680476D01*
X122880548Y-110663445D01*
X122870160Y-110644009D01*
X122863764Y-110622928D01*
X122861000Y-110594860D01*
X122861000Y-110131140D01*
X122863764Y-110103072D01*
X122870160Y-110081991D01*
X122880548Y-110062555D01*
X122894524Y-110045524D01*
X122911555Y-110031548D01*
X122930991Y-110021160D01*
X122952072Y-110014764D01*
X122980140Y-110012000D01*
X124793860Y-110012000D01*
X124821928Y-110014764D01*
X124821928Y-110014764D01*
G37*
G36*
X137165928Y-108007764D02*
G01*
X137187009Y-108014160D01*
X137206445Y-108024548D01*
X137223476Y-108038524D01*
X137237452Y-108055555D01*
X137247840Y-108074991D01*
X137254236Y-108096072D01*
X137257000Y-108124140D01*
X137257000Y-109937860D01*
X137254236Y-109965928D01*
X137247840Y-109987009D01*
X137237452Y-110006445D01*
X137223476Y-110023476D01*
X137206445Y-110037452D01*
X137187009Y-110047840D01*
X137165928Y-110054236D01*
X137137860Y-110057000D01*
X136674140Y-110057000D01*
X136646072Y-110054236D01*
X136624991Y-110047840D01*
X136605555Y-110037452D01*
X136588524Y-110023476D01*
X136574548Y-110006445D01*
X136564160Y-109987009D01*
X136557764Y-109965928D01*
X136555000Y-109937860D01*
X136555000Y-108124140D01*
X136557764Y-108096072D01*
X136564160Y-108074991D01*
X136574548Y-108055555D01*
X136588524Y-108038524D01*
X136605555Y-108024548D01*
X136624991Y-108014160D01*
X136646072Y-108007764D01*
X136674140Y-108005000D01*
X137137860Y-108005000D01*
X137165928Y-108007764D01*
X137165928Y-108007764D01*
G37*
G36*
X135895928Y-108007764D02*
G01*
X135917009Y-108014160D01*
X135936445Y-108024548D01*
X135953476Y-108038524D01*
X135967452Y-108055555D01*
X135977840Y-108074991D01*
X135984236Y-108096072D01*
X135987000Y-108124140D01*
X135987000Y-109937860D01*
X135984236Y-109965928D01*
X135977840Y-109987009D01*
X135967452Y-110006445D01*
X135953476Y-110023476D01*
X135936445Y-110037452D01*
X135917009Y-110047840D01*
X135895928Y-110054236D01*
X135867860Y-110057000D01*
X135404140Y-110057000D01*
X135376072Y-110054236D01*
X135354991Y-110047840D01*
X135335555Y-110037452D01*
X135318524Y-110023476D01*
X135304548Y-110006445D01*
X135294160Y-109987009D01*
X135287764Y-109965928D01*
X135285000Y-109937860D01*
X135285000Y-108124140D01*
X135287764Y-108096072D01*
X135294160Y-108074991D01*
X135304548Y-108055555D01*
X135318524Y-108038524D01*
X135335555Y-108024548D01*
X135354991Y-108014160D01*
X135376072Y-108007764D01*
X135404140Y-108005000D01*
X135867860Y-108005000D01*
X135895928Y-108007764D01*
X135895928Y-108007764D01*
G37*
G36*
X134625928Y-108007764D02*
G01*
X134647009Y-108014160D01*
X134666445Y-108024548D01*
X134683476Y-108038524D01*
X134697452Y-108055555D01*
X134707840Y-108074991D01*
X134714236Y-108096072D01*
X134717000Y-108124140D01*
X134717000Y-109937860D01*
X134714236Y-109965928D01*
X134707840Y-109987009D01*
X134697452Y-110006445D01*
X134683476Y-110023476D01*
X134666445Y-110037452D01*
X134647009Y-110047840D01*
X134625928Y-110054236D01*
X134597860Y-110057000D01*
X134134140Y-110057000D01*
X134106072Y-110054236D01*
X134084991Y-110047840D01*
X134065555Y-110037452D01*
X134048524Y-110023476D01*
X134034548Y-110006445D01*
X134024160Y-109987009D01*
X134017764Y-109965928D01*
X134015000Y-109937860D01*
X134015000Y-108124140D01*
X134017764Y-108096072D01*
X134024160Y-108074991D01*
X134034548Y-108055555D01*
X134048524Y-108038524D01*
X134065555Y-108024548D01*
X134084991Y-108014160D01*
X134106072Y-108007764D01*
X134134140Y-108005000D01*
X134597860Y-108005000D01*
X134625928Y-108007764D01*
X134625928Y-108007764D01*
G37*
G36*
X133355928Y-108007764D02*
G01*
X133377009Y-108014160D01*
X133396445Y-108024548D01*
X133413476Y-108038524D01*
X133427452Y-108055555D01*
X133437840Y-108074991D01*
X133444236Y-108096072D01*
X133447000Y-108124140D01*
X133447000Y-109937860D01*
X133444236Y-109965928D01*
X133437840Y-109987009D01*
X133427452Y-110006445D01*
X133413476Y-110023476D01*
X133396445Y-110037452D01*
X133377009Y-110047840D01*
X133355928Y-110054236D01*
X133327860Y-110057000D01*
X132864140Y-110057000D01*
X132836072Y-110054236D01*
X132814991Y-110047840D01*
X132795555Y-110037452D01*
X132778524Y-110023476D01*
X132764548Y-110006445D01*
X132754160Y-109987009D01*
X132747764Y-109965928D01*
X132745000Y-109937860D01*
X132745000Y-108124140D01*
X132747764Y-108096072D01*
X132754160Y-108074991D01*
X132764548Y-108055555D01*
X132778524Y-108038524D01*
X132795555Y-108024548D01*
X132814991Y-108014160D01*
X132836072Y-108007764D01*
X132864140Y-108005000D01*
X133327860Y-108005000D01*
X133355928Y-108007764D01*
X133355928Y-108007764D01*
G37*
G36*
X132085928Y-108007764D02*
G01*
X132107009Y-108014160D01*
X132126445Y-108024548D01*
X132143476Y-108038524D01*
X132157452Y-108055555D01*
X132167840Y-108074991D01*
X132174236Y-108096072D01*
X132177000Y-108124140D01*
X132177000Y-109937860D01*
X132174236Y-109965928D01*
X132167840Y-109987009D01*
X132157452Y-110006445D01*
X132143476Y-110023476D01*
X132126445Y-110037452D01*
X132107009Y-110047840D01*
X132085928Y-110054236D01*
X132057860Y-110057000D01*
X131594140Y-110057000D01*
X131566072Y-110054236D01*
X131544991Y-110047840D01*
X131525555Y-110037452D01*
X131508524Y-110023476D01*
X131494548Y-110006445D01*
X131484160Y-109987009D01*
X131477764Y-109965928D01*
X131475000Y-109937860D01*
X131475000Y-108124140D01*
X131477764Y-108096072D01*
X131484160Y-108074991D01*
X131494548Y-108055555D01*
X131508524Y-108038524D01*
X131525555Y-108024548D01*
X131544991Y-108014160D01*
X131566072Y-108007764D01*
X131594140Y-108005000D01*
X132057860Y-108005000D01*
X132085928Y-108007764D01*
X132085928Y-108007764D01*
G37*
G36*
X130815928Y-108007764D02*
G01*
X130837009Y-108014160D01*
X130856445Y-108024548D01*
X130873476Y-108038524D01*
X130887452Y-108055555D01*
X130897840Y-108074991D01*
X130904236Y-108096072D01*
X130907000Y-108124140D01*
X130907000Y-109937860D01*
X130904236Y-109965928D01*
X130897840Y-109987009D01*
X130887452Y-110006445D01*
X130873476Y-110023476D01*
X130856445Y-110037452D01*
X130837009Y-110047840D01*
X130815928Y-110054236D01*
X130787860Y-110057000D01*
X130324140Y-110057000D01*
X130296072Y-110054236D01*
X130274991Y-110047840D01*
X130255555Y-110037452D01*
X130238524Y-110023476D01*
X130224548Y-110006445D01*
X130214160Y-109987009D01*
X130207764Y-109965928D01*
X130205000Y-109937860D01*
X130205000Y-108124140D01*
X130207764Y-108096072D01*
X130214160Y-108074991D01*
X130224548Y-108055555D01*
X130238524Y-108038524D01*
X130255555Y-108024548D01*
X130274991Y-108014160D01*
X130296072Y-108007764D01*
X130324140Y-108005000D01*
X130787860Y-108005000D01*
X130815928Y-108007764D01*
X130815928Y-108007764D01*
G37*
G36*
X129545928Y-108007764D02*
G01*
X129567009Y-108014160D01*
X129586445Y-108024548D01*
X129603476Y-108038524D01*
X129617452Y-108055555D01*
X129627840Y-108074991D01*
X129634236Y-108096072D01*
X129637000Y-108124140D01*
X129637000Y-109937860D01*
X129634236Y-109965928D01*
X129627840Y-109987009D01*
X129617452Y-110006445D01*
X129603476Y-110023476D01*
X129586445Y-110037452D01*
X129567009Y-110047840D01*
X129545928Y-110054236D01*
X129517860Y-110057000D01*
X129054140Y-110057000D01*
X129026072Y-110054236D01*
X129004991Y-110047840D01*
X128985555Y-110037452D01*
X128968524Y-110023476D01*
X128954548Y-110006445D01*
X128944160Y-109987009D01*
X128937764Y-109965928D01*
X128935000Y-109937860D01*
X128935000Y-108124140D01*
X128937764Y-108096072D01*
X128944160Y-108074991D01*
X128954548Y-108055555D01*
X128968524Y-108038524D01*
X128985555Y-108024548D01*
X129004991Y-108014160D01*
X129026072Y-108007764D01*
X129054140Y-108005000D01*
X129517860Y-108005000D01*
X129545928Y-108007764D01*
X129545928Y-108007764D01*
G37*
G36*
X122476336Y-106910733D02*
G01*
X122506883Y-106919999D01*
X122535033Y-106935046D01*
X122559706Y-106955294D01*
X122579954Y-106979967D01*
X122595001Y-107008117D01*
X122604267Y-107038664D01*
X122608000Y-107076567D01*
X122608000Y-109839433D01*
X122604267Y-109877336D01*
X122595001Y-109907883D01*
X122579954Y-109936033D01*
X122559706Y-109960706D01*
X122535033Y-109980954D01*
X122506883Y-109996001D01*
X122476336Y-110005267D01*
X122438433Y-110009000D01*
X120385567Y-110009000D01*
X120347664Y-110005267D01*
X120317117Y-109996001D01*
X120288967Y-109980954D01*
X120264294Y-109960706D01*
X120244046Y-109936033D01*
X120228999Y-109907883D01*
X120219733Y-109877336D01*
X120216000Y-109839433D01*
X120216000Y-107076567D01*
X120219733Y-107038664D01*
X120228999Y-107008117D01*
X120244046Y-106979967D01*
X120264294Y-106955294D01*
X120288967Y-106935046D01*
X120317117Y-106919999D01*
X120347664Y-106910733D01*
X120385567Y-106907000D01*
X122438433Y-106907000D01*
X122476336Y-106910733D01*
X122476336Y-106910733D01*
G37*
G36*
X124821928Y-108744764D02*
G01*
X124843009Y-108751160D01*
X124862445Y-108761548D01*
X124879476Y-108775524D01*
X124893452Y-108792555D01*
X124903840Y-108811991D01*
X124910236Y-108833072D01*
X124913000Y-108861140D01*
X124913000Y-109324860D01*
X124910236Y-109352928D01*
X124903840Y-109374009D01*
X124893452Y-109393445D01*
X124879476Y-109410476D01*
X124862445Y-109424452D01*
X124843009Y-109434840D01*
X124821928Y-109441236D01*
X124793860Y-109444000D01*
X122980140Y-109444000D01*
X122952072Y-109441236D01*
X122930991Y-109434840D01*
X122911555Y-109424452D01*
X122894524Y-109410476D01*
X122880548Y-109393445D01*
X122870160Y-109374009D01*
X122863764Y-109352928D01*
X122861000Y-109324860D01*
X122861000Y-108861140D01*
X122863764Y-108833072D01*
X122870160Y-108811991D01*
X122880548Y-108792555D01*
X122894524Y-108775524D01*
X122911555Y-108761548D01*
X122930991Y-108751160D01*
X122952072Y-108744764D01*
X122980140Y-108742000D01*
X124793860Y-108742000D01*
X124821928Y-108744764D01*
X124821928Y-108744764D01*
G37*
G36*
X119871928Y-108744764D02*
G01*
X119893009Y-108751160D01*
X119912445Y-108761548D01*
X119929476Y-108775524D01*
X119943452Y-108792555D01*
X119953840Y-108811991D01*
X119960236Y-108833072D01*
X119963000Y-108861140D01*
X119963000Y-109324860D01*
X119960236Y-109352928D01*
X119953840Y-109374009D01*
X119943452Y-109393445D01*
X119929476Y-109410476D01*
X119912445Y-109424452D01*
X119893009Y-109434840D01*
X119871928Y-109441236D01*
X119843860Y-109444000D01*
X118030140Y-109444000D01*
X118002072Y-109441236D01*
X117980991Y-109434840D01*
X117961555Y-109424452D01*
X117944524Y-109410476D01*
X117930548Y-109393445D01*
X117920160Y-109374009D01*
X117913764Y-109352928D01*
X117911000Y-109324860D01*
X117911000Y-108861140D01*
X117913764Y-108833072D01*
X117920160Y-108811991D01*
X117930548Y-108792555D01*
X117944524Y-108775524D01*
X117961555Y-108761548D01*
X117980991Y-108751160D01*
X118002072Y-108744764D01*
X118030140Y-108742000D01*
X119843860Y-108742000D01*
X119871928Y-108744764D01*
X119871928Y-108744764D01*
G37*
G36*
X145393909Y-107563072D02*
G01*
X145464627Y-107570037D01*
X145634466Y-107621557D01*
X145790991Y-107705222D01*
X145826729Y-107734552D01*
X145928186Y-107817814D01*
X146011448Y-107919271D01*
X146040778Y-107955009D01*
X146124443Y-108111534D01*
X146175963Y-108281373D01*
X146193359Y-108458000D01*
X146175963Y-108634627D01*
X146124443Y-108804466D01*
X146040778Y-108960991D01*
X146011448Y-108996729D01*
X145928186Y-109098186D01*
X145826729Y-109181448D01*
X145790991Y-109210778D01*
X145634466Y-109294443D01*
X145464627Y-109345963D01*
X145398443Y-109352481D01*
X145332260Y-109359000D01*
X145243740Y-109359000D01*
X145177557Y-109352481D01*
X145111373Y-109345963D01*
X144941534Y-109294443D01*
X144785009Y-109210778D01*
X144749271Y-109181448D01*
X144647814Y-109098186D01*
X144564552Y-108996729D01*
X144535222Y-108960991D01*
X144451557Y-108804466D01*
X144400037Y-108634627D01*
X144382641Y-108458000D01*
X144400037Y-108281373D01*
X144451557Y-108111534D01*
X144535222Y-107955009D01*
X144564552Y-107919271D01*
X144647814Y-107817814D01*
X144749271Y-107734552D01*
X144785009Y-107705222D01*
X144941534Y-107621557D01*
X145111373Y-107570037D01*
X145182091Y-107563072D01*
X145243740Y-107557000D01*
X145332260Y-107557000D01*
X145393909Y-107563072D01*
X145393909Y-107563072D01*
G37*
G36*
X142853909Y-107563072D02*
G01*
X142924627Y-107570037D01*
X143094466Y-107621557D01*
X143250991Y-107705222D01*
X143286729Y-107734552D01*
X143388186Y-107817814D01*
X143471448Y-107919271D01*
X143500778Y-107955009D01*
X143584443Y-108111534D01*
X143635963Y-108281373D01*
X143653359Y-108458000D01*
X143635963Y-108634627D01*
X143584443Y-108804466D01*
X143500778Y-108960991D01*
X143471448Y-108996729D01*
X143388186Y-109098186D01*
X143286729Y-109181448D01*
X143250991Y-109210778D01*
X143094466Y-109294443D01*
X142924627Y-109345963D01*
X142858443Y-109352481D01*
X142792260Y-109359000D01*
X142703740Y-109359000D01*
X142637557Y-109352481D01*
X142571373Y-109345963D01*
X142401534Y-109294443D01*
X142245009Y-109210778D01*
X142209271Y-109181448D01*
X142107814Y-109098186D01*
X142024552Y-108996729D01*
X141995222Y-108960991D01*
X141911557Y-108804466D01*
X141860037Y-108634627D01*
X141842641Y-108458000D01*
X141860037Y-108281373D01*
X141911557Y-108111534D01*
X141995222Y-107955009D01*
X142024552Y-107919271D01*
X142107814Y-107817814D01*
X142209271Y-107734552D01*
X142245009Y-107705222D01*
X142401534Y-107621557D01*
X142571373Y-107570037D01*
X142642091Y-107563072D01*
X142703740Y-107557000D01*
X142792260Y-107557000D01*
X142853909Y-107563072D01*
X142853909Y-107563072D01*
G37*
G36*
X148729000Y-109359000D02*
G01*
X146927000Y-109359000D01*
X146927000Y-107557000D01*
X148729000Y-107557000D01*
X148729000Y-109359000D01*
X148729000Y-109359000D01*
G37*
G36*
X112008228Y-107187703D02*
G01*
X112163100Y-107251853D01*
X112302481Y-107344985D01*
X112421015Y-107463519D01*
X112514147Y-107602900D01*
X112578297Y-107757772D01*
X112611000Y-107922184D01*
X112611000Y-108089816D01*
X112578297Y-108254228D01*
X112514147Y-108409100D01*
X112421015Y-108548481D01*
X112302481Y-108667015D01*
X112163100Y-108760147D01*
X112008228Y-108824297D01*
X111843816Y-108857000D01*
X111676184Y-108857000D01*
X111511772Y-108824297D01*
X111356900Y-108760147D01*
X111217519Y-108667015D01*
X111098985Y-108548481D01*
X111005853Y-108409100D01*
X110941703Y-108254228D01*
X110909000Y-108089816D01*
X110909000Y-107922184D01*
X110941703Y-107757772D01*
X111005853Y-107602900D01*
X111098985Y-107463519D01*
X111217519Y-107344985D01*
X111356900Y-107251853D01*
X111511772Y-107187703D01*
X111676184Y-107155000D01*
X111843816Y-107155000D01*
X112008228Y-107187703D01*
X112008228Y-107187703D01*
G37*
G36*
X119871928Y-107474764D02*
G01*
X119893009Y-107481160D01*
X119912445Y-107491548D01*
X119929476Y-107505524D01*
X119943452Y-107522555D01*
X119953840Y-107541991D01*
X119960236Y-107563072D01*
X119963000Y-107591140D01*
X119963000Y-108054860D01*
X119960236Y-108082928D01*
X119953840Y-108104009D01*
X119943452Y-108123445D01*
X119929476Y-108140476D01*
X119912445Y-108154452D01*
X119893009Y-108164840D01*
X119871928Y-108171236D01*
X119843860Y-108174000D01*
X118030140Y-108174000D01*
X118002072Y-108171236D01*
X117980991Y-108164840D01*
X117961555Y-108154452D01*
X117944524Y-108140476D01*
X117930548Y-108123445D01*
X117920160Y-108104009D01*
X117913764Y-108082928D01*
X117911000Y-108054860D01*
X117911000Y-107591140D01*
X117913764Y-107563072D01*
X117920160Y-107541991D01*
X117930548Y-107522555D01*
X117944524Y-107505524D01*
X117961555Y-107491548D01*
X117980991Y-107481160D01*
X118002072Y-107474764D01*
X118030140Y-107472000D01*
X119843860Y-107472000D01*
X119871928Y-107474764D01*
X119871928Y-107474764D01*
G37*
G36*
X124821928Y-107474764D02*
G01*
X124843009Y-107481160D01*
X124862445Y-107491548D01*
X124879476Y-107505524D01*
X124893452Y-107522555D01*
X124903840Y-107541991D01*
X124910236Y-107563072D01*
X124913000Y-107591140D01*
X124913000Y-108054860D01*
X124910236Y-108082928D01*
X124903840Y-108104009D01*
X124893452Y-108123445D01*
X124879476Y-108140476D01*
X124862445Y-108154452D01*
X124843009Y-108164840D01*
X124821928Y-108171236D01*
X124793860Y-108174000D01*
X122980140Y-108174000D01*
X122952072Y-108171236D01*
X122930991Y-108164840D01*
X122911555Y-108154452D01*
X122894524Y-108140476D01*
X122880548Y-108123445D01*
X122870160Y-108104009D01*
X122863764Y-108082928D01*
X122861000Y-108054860D01*
X122861000Y-107591140D01*
X122863764Y-107563072D01*
X122870160Y-107541991D01*
X122880548Y-107522555D01*
X122894524Y-107505524D01*
X122911555Y-107491548D01*
X122930991Y-107481160D01*
X122952072Y-107474764D01*
X122980140Y-107472000D01*
X124793860Y-107472000D01*
X124821928Y-107474764D01*
X124821928Y-107474764D01*
G37*
G36*
X119871928Y-106204764D02*
G01*
X119893009Y-106211160D01*
X119912445Y-106221548D01*
X119929476Y-106235524D01*
X119943452Y-106252555D01*
X119953840Y-106271991D01*
X119960236Y-106293072D01*
X119963000Y-106321140D01*
X119963000Y-106784860D01*
X119960236Y-106812928D01*
X119953840Y-106834009D01*
X119943452Y-106853445D01*
X119929476Y-106870476D01*
X119912445Y-106884452D01*
X119893009Y-106894840D01*
X119871928Y-106901236D01*
X119843860Y-106904000D01*
X118030140Y-106904000D01*
X118002072Y-106901236D01*
X117980991Y-106894840D01*
X117961555Y-106884452D01*
X117944524Y-106870476D01*
X117930548Y-106853445D01*
X117920160Y-106834009D01*
X117913764Y-106812928D01*
X117911000Y-106784860D01*
X117911000Y-106321140D01*
X117913764Y-106293072D01*
X117920160Y-106271991D01*
X117930548Y-106252555D01*
X117944524Y-106235524D01*
X117961555Y-106221548D01*
X117980991Y-106211160D01*
X118002072Y-106204764D01*
X118030140Y-106202000D01*
X119843860Y-106202000D01*
X119871928Y-106204764D01*
X119871928Y-106204764D01*
G37*
G36*
X124821928Y-106204764D02*
G01*
X124843009Y-106211160D01*
X124862445Y-106221548D01*
X124879476Y-106235524D01*
X124893452Y-106252555D01*
X124903840Y-106271991D01*
X124910236Y-106293072D01*
X124913000Y-106321140D01*
X124913000Y-106784860D01*
X124910236Y-106812928D01*
X124903840Y-106834009D01*
X124893452Y-106853445D01*
X124879476Y-106870476D01*
X124862445Y-106884452D01*
X124843009Y-106894840D01*
X124821928Y-106901236D01*
X124793860Y-106904000D01*
X122980140Y-106904000D01*
X122952072Y-106901236D01*
X122930991Y-106894840D01*
X122911555Y-106884452D01*
X122894524Y-106870476D01*
X122880548Y-106853445D01*
X122870160Y-106834009D01*
X122863764Y-106812928D01*
X122861000Y-106784860D01*
X122861000Y-106321140D01*
X122863764Y-106293072D01*
X122870160Y-106271991D01*
X122880548Y-106252555D01*
X122894524Y-106235524D01*
X122911555Y-106221548D01*
X122930991Y-106211160D01*
X122952072Y-106204764D01*
X122980140Y-106202000D01*
X124793860Y-106202000D01*
X124821928Y-106204764D01*
X124821928Y-106204764D01*
G37*
G36*
X131260719Y-81767520D02*
G01*
X131449880Y-81824901D01*
X131449883Y-81824902D01*
X131542333Y-81874318D01*
X131624212Y-81918083D01*
X131777015Y-82043485D01*
X131902417Y-82196288D01*
X131995599Y-82370619D01*
X132052980Y-82559780D01*
X132067500Y-82707206D01*
X132067500Y-82900793D01*
X132052980Y-83048219D01*
X131995599Y-83237380D01*
X131995598Y-83237383D01*
X131946182Y-83329833D01*
X131902417Y-83411712D01*
X131777015Y-83564515D01*
X131624212Y-83689917D01*
X131449881Y-83783099D01*
X131260720Y-83840480D01*
X131064000Y-83859855D01*
X130867281Y-83840480D01*
X130678120Y-83783099D01*
X130503788Y-83689917D01*
X130350985Y-83564515D01*
X130225583Y-83411712D01*
X130132401Y-83237381D01*
X130075020Y-83048220D01*
X130060500Y-82900794D01*
X130060500Y-82707207D01*
X130075020Y-82559781D01*
X130132401Y-82370620D01*
X130132402Y-82370617D01*
X130181818Y-82278167D01*
X130225583Y-82196288D01*
X130350985Y-82043485D01*
X130503788Y-81918083D01*
X130678119Y-81824901D01*
X130867280Y-81767520D01*
X131064000Y-81748145D01*
X131260719Y-81767520D01*
X131260719Y-81767520D01*
G37*
G36*
X187140719Y-81767520D02*
G01*
X187329880Y-81824901D01*
X187329883Y-81824902D01*
X187422333Y-81874318D01*
X187504212Y-81918083D01*
X187657015Y-82043485D01*
X187782417Y-82196288D01*
X187875599Y-82370619D01*
X187932980Y-82559780D01*
X187947500Y-82707206D01*
X187947500Y-82900793D01*
X187932980Y-83048219D01*
X187875599Y-83237380D01*
X187875598Y-83237383D01*
X187826182Y-83329833D01*
X187782417Y-83411712D01*
X187657015Y-83564515D01*
X187504212Y-83689917D01*
X187329881Y-83783099D01*
X187140720Y-83840480D01*
X186944000Y-83859855D01*
X186747281Y-83840480D01*
X186558120Y-83783099D01*
X186383788Y-83689917D01*
X186230985Y-83564515D01*
X186105583Y-83411712D01*
X186012401Y-83237381D01*
X185955020Y-83048220D01*
X185940500Y-82900794D01*
X185940500Y-82707207D01*
X185955020Y-82559781D01*
X186012401Y-82370620D01*
X186012402Y-82370617D01*
X186061818Y-82278167D01*
X186105583Y-82196288D01*
X186230985Y-82043485D01*
X186383788Y-81918083D01*
X186558119Y-81824901D01*
X186747280Y-81767520D01*
X186944000Y-81748145D01*
X187140719Y-81767520D01*
X187140719Y-81767520D01*
G37*
G36*
X184600719Y-81767520D02*
G01*
X184789880Y-81824901D01*
X184789883Y-81824902D01*
X184882333Y-81874318D01*
X184964212Y-81918083D01*
X185117015Y-82043485D01*
X185242417Y-82196288D01*
X185335599Y-82370619D01*
X185392980Y-82559780D01*
X185407500Y-82707206D01*
X185407500Y-82900793D01*
X185392980Y-83048219D01*
X185335599Y-83237380D01*
X185335598Y-83237383D01*
X185286182Y-83329833D01*
X185242417Y-83411712D01*
X185117015Y-83564515D01*
X184964212Y-83689917D01*
X184789881Y-83783099D01*
X184600720Y-83840480D01*
X184404000Y-83859855D01*
X184207281Y-83840480D01*
X184018120Y-83783099D01*
X183843788Y-83689917D01*
X183690985Y-83564515D01*
X183565583Y-83411712D01*
X183472401Y-83237381D01*
X183415020Y-83048220D01*
X183400500Y-82900794D01*
X183400500Y-82707207D01*
X183415020Y-82559781D01*
X183472401Y-82370620D01*
X183472402Y-82370617D01*
X183521818Y-82278167D01*
X183565583Y-82196288D01*
X183690985Y-82043485D01*
X183843788Y-81918083D01*
X184018119Y-81824901D01*
X184207280Y-81767520D01*
X184404000Y-81748145D01*
X184600719Y-81767520D01*
X184600719Y-81767520D01*
G37*
G36*
X176472719Y-81767520D02*
G01*
X176661880Y-81824901D01*
X176661883Y-81824902D01*
X176754333Y-81874318D01*
X176836212Y-81918083D01*
X176989015Y-82043485D01*
X177114417Y-82196288D01*
X177207599Y-82370619D01*
X177264980Y-82559780D01*
X177279500Y-82707206D01*
X177279500Y-82900793D01*
X177264980Y-83048219D01*
X177207599Y-83237380D01*
X177207598Y-83237383D01*
X177158182Y-83329833D01*
X177114417Y-83411712D01*
X176989015Y-83564515D01*
X176836212Y-83689917D01*
X176661881Y-83783099D01*
X176472720Y-83840480D01*
X176276000Y-83859855D01*
X176079281Y-83840480D01*
X175890120Y-83783099D01*
X175715788Y-83689917D01*
X175562985Y-83564515D01*
X175437583Y-83411712D01*
X175344401Y-83237381D01*
X175287020Y-83048220D01*
X175272500Y-82900794D01*
X175272500Y-82707207D01*
X175287020Y-82559781D01*
X175344401Y-82370620D01*
X175344402Y-82370617D01*
X175393818Y-82278167D01*
X175437583Y-82196288D01*
X175562985Y-82043485D01*
X175715788Y-81918083D01*
X175890119Y-81824901D01*
X176079280Y-81767520D01*
X176276000Y-81748145D01*
X176472719Y-81767520D01*
X176472719Y-81767520D01*
G37*
G36*
X173932719Y-81767520D02*
G01*
X174121880Y-81824901D01*
X174121883Y-81824902D01*
X174214333Y-81874318D01*
X174296212Y-81918083D01*
X174449015Y-82043485D01*
X174574417Y-82196288D01*
X174667599Y-82370619D01*
X174724980Y-82559780D01*
X174739500Y-82707206D01*
X174739500Y-82900793D01*
X174724980Y-83048219D01*
X174667599Y-83237380D01*
X174667598Y-83237383D01*
X174618182Y-83329833D01*
X174574417Y-83411712D01*
X174449015Y-83564515D01*
X174296212Y-83689917D01*
X174121881Y-83783099D01*
X173932720Y-83840480D01*
X173736000Y-83859855D01*
X173539281Y-83840480D01*
X173350120Y-83783099D01*
X173175788Y-83689917D01*
X173022985Y-83564515D01*
X172897583Y-83411712D01*
X172804401Y-83237381D01*
X172747020Y-83048220D01*
X172732500Y-82900794D01*
X172732500Y-82707207D01*
X172747020Y-82559781D01*
X172804401Y-82370620D01*
X172804402Y-82370617D01*
X172853818Y-82278167D01*
X172897583Y-82196288D01*
X173022985Y-82043485D01*
X173175788Y-81918083D01*
X173350119Y-81824901D01*
X173539280Y-81767520D01*
X173736000Y-81748145D01*
X173932719Y-81767520D01*
X173932719Y-81767520D01*
G37*
G36*
X163264719Y-81767520D02*
G01*
X163453880Y-81824901D01*
X163453883Y-81824902D01*
X163546333Y-81874318D01*
X163628212Y-81918083D01*
X163781015Y-82043485D01*
X163906417Y-82196288D01*
X163999599Y-82370619D01*
X164056980Y-82559780D01*
X164071500Y-82707206D01*
X164071500Y-82900793D01*
X164056980Y-83048219D01*
X163999599Y-83237380D01*
X163999598Y-83237383D01*
X163950182Y-83329833D01*
X163906417Y-83411712D01*
X163781015Y-83564515D01*
X163628212Y-83689917D01*
X163453881Y-83783099D01*
X163264720Y-83840480D01*
X163068000Y-83859855D01*
X162871281Y-83840480D01*
X162682120Y-83783099D01*
X162507788Y-83689917D01*
X162354985Y-83564515D01*
X162229583Y-83411712D01*
X162136401Y-83237381D01*
X162079020Y-83048220D01*
X162064500Y-82900794D01*
X162064500Y-82707207D01*
X162079020Y-82559781D01*
X162136401Y-82370620D01*
X162136402Y-82370617D01*
X162185818Y-82278167D01*
X162229583Y-82196288D01*
X162354985Y-82043485D01*
X162507788Y-81918083D01*
X162682119Y-81824901D01*
X162871280Y-81767520D01*
X163068000Y-81748145D01*
X163264719Y-81767520D01*
X163264719Y-81767520D01*
G37*
G36*
X165804719Y-81767520D02*
G01*
X165993880Y-81824901D01*
X165993883Y-81824902D01*
X166086333Y-81874318D01*
X166168212Y-81918083D01*
X166321015Y-82043485D01*
X166446417Y-82196288D01*
X166539599Y-82370619D01*
X166596980Y-82559780D01*
X166611500Y-82707206D01*
X166611500Y-82900793D01*
X166596980Y-83048219D01*
X166539599Y-83237380D01*
X166539598Y-83237383D01*
X166490182Y-83329833D01*
X166446417Y-83411712D01*
X166321015Y-83564515D01*
X166168212Y-83689917D01*
X165993881Y-83783099D01*
X165804720Y-83840480D01*
X165608000Y-83859855D01*
X165411281Y-83840480D01*
X165222120Y-83783099D01*
X165047788Y-83689917D01*
X164894985Y-83564515D01*
X164769583Y-83411712D01*
X164676401Y-83237381D01*
X164619020Y-83048220D01*
X164604500Y-82900794D01*
X164604500Y-82707207D01*
X164619020Y-82559781D01*
X164676401Y-82370620D01*
X164676402Y-82370617D01*
X164725818Y-82278167D01*
X164769583Y-82196288D01*
X164894985Y-82043485D01*
X165047788Y-81918083D01*
X165222119Y-81824901D01*
X165411280Y-81767520D01*
X165608000Y-81748145D01*
X165804719Y-81767520D01*
X165804719Y-81767520D01*
G37*
G36*
X152596719Y-81767520D02*
G01*
X152785880Y-81824901D01*
X152785883Y-81824902D01*
X152878333Y-81874318D01*
X152960212Y-81918083D01*
X153113015Y-82043485D01*
X153238417Y-82196288D01*
X153331599Y-82370619D01*
X153388980Y-82559780D01*
X153403500Y-82707206D01*
X153403500Y-82900793D01*
X153388980Y-83048219D01*
X153331599Y-83237380D01*
X153331598Y-83237383D01*
X153282182Y-83329833D01*
X153238417Y-83411712D01*
X153113015Y-83564515D01*
X152960212Y-83689917D01*
X152785881Y-83783099D01*
X152596720Y-83840480D01*
X152400000Y-83859855D01*
X152203281Y-83840480D01*
X152014120Y-83783099D01*
X151839788Y-83689917D01*
X151686985Y-83564515D01*
X151561583Y-83411712D01*
X151468401Y-83237381D01*
X151411020Y-83048220D01*
X151396500Y-82900794D01*
X151396500Y-82707207D01*
X151411020Y-82559781D01*
X151468401Y-82370620D01*
X151468402Y-82370617D01*
X151517818Y-82278167D01*
X151561583Y-82196288D01*
X151686985Y-82043485D01*
X151839788Y-81918083D01*
X152014119Y-81824901D01*
X152203280Y-81767520D01*
X152400000Y-81748145D01*
X152596719Y-81767520D01*
X152596719Y-81767520D01*
G37*
G36*
X141928719Y-81767520D02*
G01*
X142117880Y-81824901D01*
X142117883Y-81824902D01*
X142210333Y-81874318D01*
X142292212Y-81918083D01*
X142445015Y-82043485D01*
X142570417Y-82196288D01*
X142663599Y-82370619D01*
X142720980Y-82559780D01*
X142735500Y-82707206D01*
X142735500Y-82900793D01*
X142720980Y-83048219D01*
X142663599Y-83237380D01*
X142663598Y-83237383D01*
X142614182Y-83329833D01*
X142570417Y-83411712D01*
X142445015Y-83564515D01*
X142292212Y-83689917D01*
X142117881Y-83783099D01*
X141928720Y-83840480D01*
X141732000Y-83859855D01*
X141535281Y-83840480D01*
X141346120Y-83783099D01*
X141171788Y-83689917D01*
X141018985Y-83564515D01*
X140893583Y-83411712D01*
X140800401Y-83237381D01*
X140743020Y-83048220D01*
X140728500Y-82900794D01*
X140728500Y-82707207D01*
X140743020Y-82559781D01*
X140800401Y-82370620D01*
X140800402Y-82370617D01*
X140849818Y-82278167D01*
X140893583Y-82196288D01*
X141018985Y-82043485D01*
X141171788Y-81918083D01*
X141346119Y-81824901D01*
X141535280Y-81767520D01*
X141732000Y-81748145D01*
X141928719Y-81767520D01*
X141928719Y-81767520D01*
G37*
G36*
X133800719Y-81767520D02*
G01*
X133989880Y-81824901D01*
X133989883Y-81824902D01*
X134082333Y-81874318D01*
X134164212Y-81918083D01*
X134317015Y-82043485D01*
X134442417Y-82196288D01*
X134535599Y-82370619D01*
X134592980Y-82559780D01*
X134607500Y-82707206D01*
X134607500Y-82900793D01*
X134592980Y-83048219D01*
X134535599Y-83237380D01*
X134535598Y-83237383D01*
X134486182Y-83329833D01*
X134442417Y-83411712D01*
X134317015Y-83564515D01*
X134164212Y-83689917D01*
X133989881Y-83783099D01*
X133800720Y-83840480D01*
X133604000Y-83859855D01*
X133407281Y-83840480D01*
X133218120Y-83783099D01*
X133043788Y-83689917D01*
X132890985Y-83564515D01*
X132765583Y-83411712D01*
X132672401Y-83237381D01*
X132615020Y-83048220D01*
X132600500Y-82900794D01*
X132600500Y-82707207D01*
X132615020Y-82559781D01*
X132672401Y-82370620D01*
X132672402Y-82370617D01*
X132721818Y-82278167D01*
X132765583Y-82196288D01*
X132890985Y-82043485D01*
X133043788Y-81918083D01*
X133218119Y-81824901D01*
X133407280Y-81767520D01*
X133604000Y-81748145D01*
X133800719Y-81767520D01*
X133800719Y-81767520D01*
G37*
G36*
X109924719Y-81767520D02*
G01*
X110113880Y-81824901D01*
X110113883Y-81824902D01*
X110206333Y-81874318D01*
X110288212Y-81918083D01*
X110441015Y-82043485D01*
X110566417Y-82196288D01*
X110659599Y-82370619D01*
X110716980Y-82559780D01*
X110731500Y-82707206D01*
X110731500Y-82900793D01*
X110716980Y-83048219D01*
X110659599Y-83237380D01*
X110659598Y-83237383D01*
X110610182Y-83329833D01*
X110566417Y-83411712D01*
X110441015Y-83564515D01*
X110288212Y-83689917D01*
X110113881Y-83783099D01*
X109924720Y-83840480D01*
X109728000Y-83859855D01*
X109531281Y-83840480D01*
X109342120Y-83783099D01*
X109167788Y-83689917D01*
X109014985Y-83564515D01*
X108889583Y-83411712D01*
X108796401Y-83237381D01*
X108739020Y-83048220D01*
X108724500Y-82900794D01*
X108724500Y-82707207D01*
X108739020Y-82559781D01*
X108796401Y-82370620D01*
X108796402Y-82370617D01*
X108845818Y-82278167D01*
X108889583Y-82196288D01*
X109014985Y-82043485D01*
X109167788Y-81918083D01*
X109342119Y-81824901D01*
X109531280Y-81767520D01*
X109728000Y-81748145D01*
X109924719Y-81767520D01*
X109924719Y-81767520D01*
G37*
G36*
X112464719Y-81767520D02*
G01*
X112653880Y-81824901D01*
X112653883Y-81824902D01*
X112746333Y-81874318D01*
X112828212Y-81918083D01*
X112981015Y-82043485D01*
X113106417Y-82196288D01*
X113199599Y-82370619D01*
X113256980Y-82559780D01*
X113271500Y-82707206D01*
X113271500Y-82900793D01*
X113256980Y-83048219D01*
X113199599Y-83237380D01*
X113199598Y-83237383D01*
X113150182Y-83329833D01*
X113106417Y-83411712D01*
X112981015Y-83564515D01*
X112828212Y-83689917D01*
X112653881Y-83783099D01*
X112464720Y-83840480D01*
X112268000Y-83859855D01*
X112071281Y-83840480D01*
X111882120Y-83783099D01*
X111707788Y-83689917D01*
X111554985Y-83564515D01*
X111429583Y-83411712D01*
X111336401Y-83237381D01*
X111279020Y-83048220D01*
X111264500Y-82900794D01*
X111264500Y-82707207D01*
X111279020Y-82559781D01*
X111336401Y-82370620D01*
X111336402Y-82370617D01*
X111385818Y-82278167D01*
X111429583Y-82196288D01*
X111554985Y-82043485D01*
X111707788Y-81918083D01*
X111882119Y-81824901D01*
X112071280Y-81767520D01*
X112268000Y-81748145D01*
X112464719Y-81767520D01*
X112464719Y-81767520D01*
G37*
G36*
X120592719Y-81767520D02*
G01*
X120781880Y-81824901D01*
X120781883Y-81824902D01*
X120874333Y-81874318D01*
X120956212Y-81918083D01*
X121109015Y-82043485D01*
X121234417Y-82196288D01*
X121327599Y-82370619D01*
X121384980Y-82559780D01*
X121399500Y-82707206D01*
X121399500Y-82900793D01*
X121384980Y-83048219D01*
X121327599Y-83237380D01*
X121327598Y-83237383D01*
X121278182Y-83329833D01*
X121234417Y-83411712D01*
X121109015Y-83564515D01*
X120956212Y-83689917D01*
X120781881Y-83783099D01*
X120592720Y-83840480D01*
X120396000Y-83859855D01*
X120199281Y-83840480D01*
X120010120Y-83783099D01*
X119835788Y-83689917D01*
X119682985Y-83564515D01*
X119557583Y-83411712D01*
X119464401Y-83237381D01*
X119407020Y-83048220D01*
X119392500Y-82900794D01*
X119392500Y-82707207D01*
X119407020Y-82559781D01*
X119464401Y-82370620D01*
X119464402Y-82370617D01*
X119513818Y-82278167D01*
X119557583Y-82196288D01*
X119682985Y-82043485D01*
X119835788Y-81918083D01*
X120010119Y-81824901D01*
X120199280Y-81767520D01*
X120396000Y-81748145D01*
X120592719Y-81767520D01*
X120592719Y-81767520D01*
G37*
G36*
X123132719Y-81767520D02*
G01*
X123321880Y-81824901D01*
X123321883Y-81824902D01*
X123414333Y-81874318D01*
X123496212Y-81918083D01*
X123649015Y-82043485D01*
X123774417Y-82196288D01*
X123867599Y-82370619D01*
X123924980Y-82559780D01*
X123939500Y-82707206D01*
X123939500Y-82900793D01*
X123924980Y-83048219D01*
X123867599Y-83237380D01*
X123867598Y-83237383D01*
X123818182Y-83329833D01*
X123774417Y-83411712D01*
X123649015Y-83564515D01*
X123496212Y-83689917D01*
X123321881Y-83783099D01*
X123132720Y-83840480D01*
X122936000Y-83859855D01*
X122739281Y-83840480D01*
X122550120Y-83783099D01*
X122375788Y-83689917D01*
X122222985Y-83564515D01*
X122097583Y-83411712D01*
X122004401Y-83237381D01*
X121947020Y-83048220D01*
X121932500Y-82900794D01*
X121932500Y-82707207D01*
X121947020Y-82559781D01*
X122004401Y-82370620D01*
X122004402Y-82370617D01*
X122053818Y-82278167D01*
X122097583Y-82196288D01*
X122222985Y-82043485D01*
X122375788Y-81918083D01*
X122550119Y-81824901D01*
X122739280Y-81767520D01*
X122936000Y-81748145D01*
X123132719Y-81767520D01*
X123132719Y-81767520D01*
G37*
G36*
X144468719Y-81767520D02*
G01*
X144657880Y-81824901D01*
X144657883Y-81824902D01*
X144750333Y-81874318D01*
X144832212Y-81918083D01*
X144985015Y-82043485D01*
X145110417Y-82196288D01*
X145203599Y-82370619D01*
X145260980Y-82559780D01*
X145275500Y-82707206D01*
X145275500Y-82900793D01*
X145260980Y-83048219D01*
X145203599Y-83237380D01*
X145203598Y-83237383D01*
X145154182Y-83329833D01*
X145110417Y-83411712D01*
X144985015Y-83564515D01*
X144832212Y-83689917D01*
X144657881Y-83783099D01*
X144468720Y-83840480D01*
X144272000Y-83859855D01*
X144075281Y-83840480D01*
X143886120Y-83783099D01*
X143711788Y-83689917D01*
X143558985Y-83564515D01*
X143433583Y-83411712D01*
X143340401Y-83237381D01*
X143283020Y-83048220D01*
X143268500Y-82900794D01*
X143268500Y-82707207D01*
X143283020Y-82559781D01*
X143340401Y-82370620D01*
X143340402Y-82370617D01*
X143389818Y-82278167D01*
X143433583Y-82196288D01*
X143558985Y-82043485D01*
X143711788Y-81918083D01*
X143886119Y-81824901D01*
X144075280Y-81767520D01*
X144272000Y-81748145D01*
X144468719Y-81767520D01*
X144468719Y-81767520D01*
G37*
G36*
X155136719Y-81767520D02*
G01*
X155325880Y-81824901D01*
X155325883Y-81824902D01*
X155418333Y-81874318D01*
X155500212Y-81918083D01*
X155653015Y-82043485D01*
X155778417Y-82196288D01*
X155871599Y-82370619D01*
X155928980Y-82559780D01*
X155943500Y-82707206D01*
X155943500Y-82900793D01*
X155928980Y-83048219D01*
X155871599Y-83237380D01*
X155871598Y-83237383D01*
X155822182Y-83329833D01*
X155778417Y-83411712D01*
X155653015Y-83564515D01*
X155500212Y-83689917D01*
X155325881Y-83783099D01*
X155136720Y-83840480D01*
X154940000Y-83859855D01*
X154743281Y-83840480D01*
X154554120Y-83783099D01*
X154379788Y-83689917D01*
X154226985Y-83564515D01*
X154101583Y-83411712D01*
X154008401Y-83237381D01*
X153951020Y-83048220D01*
X153936500Y-82900794D01*
X153936500Y-82707207D01*
X153951020Y-82559781D01*
X154008401Y-82370620D01*
X154008402Y-82370617D01*
X154057818Y-82278167D01*
X154101583Y-82196288D01*
X154226985Y-82043485D01*
X154379788Y-81918083D01*
X154554119Y-81824901D01*
X154743280Y-81767520D01*
X154940000Y-81748145D01*
X155136719Y-81767520D01*
X155136719Y-81767520D01*
G37*
G36*
X150863500Y-83855000D02*
G01*
X148856500Y-83855000D01*
X148856500Y-81753000D01*
X150863500Y-81753000D01*
X150863500Y-83855000D01*
X150863500Y-83855000D01*
G37*
G36*
X172199500Y-83855000D02*
G01*
X170192500Y-83855000D01*
X170192500Y-81753000D01*
X172199500Y-81753000D01*
X172199500Y-83855000D01*
X172199500Y-83855000D01*
G37*
G36*
X161531500Y-83855000D02*
G01*
X159524500Y-83855000D01*
X159524500Y-81753000D01*
X161531500Y-81753000D01*
X161531500Y-83855000D01*
X161531500Y-83855000D01*
G37*
G36*
X182867500Y-83855000D02*
G01*
X180860500Y-83855000D01*
X180860500Y-81753000D01*
X182867500Y-81753000D01*
X182867500Y-83855000D01*
X182867500Y-83855000D01*
G37*
G36*
X140195500Y-83855000D02*
G01*
X138188500Y-83855000D01*
X138188500Y-81753000D01*
X140195500Y-81753000D01*
X140195500Y-83855000D01*
X140195500Y-83855000D01*
G37*
G36*
X129527500Y-83855000D02*
G01*
X127520500Y-83855000D01*
X127520500Y-81753000D01*
X129527500Y-81753000D01*
X129527500Y-83855000D01*
X129527500Y-83855000D01*
G37*
G36*
X118859500Y-83855000D02*
G01*
X116852500Y-83855000D01*
X116852500Y-81753000D01*
X118859500Y-81753000D01*
X118859500Y-83855000D01*
X118859500Y-83855000D01*
G37*
G36*
X108191500Y-83855000D02*
G01*
X106184500Y-83855000D01*
X106184500Y-81753000D01*
X108191500Y-81753000D01*
X108191500Y-83855000D01*
X108191500Y-83855000D01*
G37*
G36*
X152576669Y-64351686D02*
G01*
X152753058Y-64369059D01*
X153092548Y-64472042D01*
X153092550Y-64472043D01*
X153405422Y-64639277D01*
X153405424Y-64639278D01*
X153405423Y-64639278D01*
X153679661Y-64864339D01*
X153904722Y-65138577D01*
X154071958Y-65451452D01*
X154174941Y-65790942D01*
X154209714Y-66144000D01*
X154174941Y-66497058D01*
X154071958Y-66836548D01*
X154071957Y-66836550D01*
X153904723Y-67149422D01*
X153679661Y-67423661D01*
X153405422Y-67648723D01*
X153092550Y-67815957D01*
X153092548Y-67815958D01*
X152753058Y-67918941D01*
X152576669Y-67936314D01*
X152488476Y-67945000D01*
X152311524Y-67945000D01*
X152223331Y-67936314D01*
X152046942Y-67918941D01*
X151707452Y-67815958D01*
X151707450Y-67815957D01*
X151394578Y-67648723D01*
X151120339Y-67423661D01*
X150895277Y-67149422D01*
X150728043Y-66836550D01*
X150728042Y-66836548D01*
X150625059Y-66497058D01*
X150590286Y-66144000D01*
X150625059Y-65790942D01*
X150728042Y-65451452D01*
X150895278Y-65138577D01*
X151120339Y-64864339D01*
X151394577Y-64639278D01*
X151394576Y-64639278D01*
X151394578Y-64639277D01*
X151707450Y-64472043D01*
X151707452Y-64472042D01*
X152046942Y-64369059D01*
X152223331Y-64351686D01*
X152311524Y-64343000D01*
X152488476Y-64343000D01*
X152576669Y-64351686D01*
X152576669Y-64351686D01*
G37*
G36*
X120572669Y-64351686D02*
G01*
X120749058Y-64369059D01*
X121088548Y-64472042D01*
X121088550Y-64472043D01*
X121401422Y-64639277D01*
X121401424Y-64639278D01*
X121401423Y-64639278D01*
X121675661Y-64864339D01*
X121900722Y-65138577D01*
X122067958Y-65451452D01*
X122170941Y-65790942D01*
X122205714Y-66144000D01*
X122170941Y-66497058D01*
X122067958Y-66836548D01*
X122067957Y-66836550D01*
X121900723Y-67149422D01*
X121675661Y-67423661D01*
X121401422Y-67648723D01*
X121088550Y-67815957D01*
X121088548Y-67815958D01*
X120749058Y-67918941D01*
X120572669Y-67936314D01*
X120484476Y-67945000D01*
X120307524Y-67945000D01*
X120219331Y-67936314D01*
X120042942Y-67918941D01*
X119703452Y-67815958D01*
X119703450Y-67815957D01*
X119390578Y-67648723D01*
X119116339Y-67423661D01*
X118891277Y-67149422D01*
X118724043Y-66836550D01*
X118724042Y-66836548D01*
X118621059Y-66497058D01*
X118586286Y-66144000D01*
X118621059Y-65790942D01*
X118724042Y-65451452D01*
X118891278Y-65138577D01*
X119116339Y-64864339D01*
X119390577Y-64639278D01*
X119390576Y-64639278D01*
X119390578Y-64639277D01*
X119703450Y-64472043D01*
X119703452Y-64472042D01*
X120042942Y-64369059D01*
X120219331Y-64351686D01*
X120307524Y-64343000D01*
X120484476Y-64343000D01*
X120572669Y-64351686D01*
X120572669Y-64351686D01*
G37*
G36*
X109904669Y-64351686D02*
G01*
X110081058Y-64369059D01*
X110420548Y-64472042D01*
X110420550Y-64472043D01*
X110733422Y-64639277D01*
X110733424Y-64639278D01*
X110733423Y-64639278D01*
X111007661Y-64864339D01*
X111232722Y-65138577D01*
X111399958Y-65451452D01*
X111502941Y-65790942D01*
X111537714Y-66144000D01*
X111502941Y-66497058D01*
X111399958Y-66836548D01*
X111399957Y-66836550D01*
X111232723Y-67149422D01*
X111007661Y-67423661D01*
X110733422Y-67648723D01*
X110420550Y-67815957D01*
X110420548Y-67815958D01*
X110081058Y-67918941D01*
X109904669Y-67936314D01*
X109816476Y-67945000D01*
X109639524Y-67945000D01*
X109551331Y-67936314D01*
X109374942Y-67918941D01*
X109035452Y-67815958D01*
X109035450Y-67815957D01*
X108722578Y-67648723D01*
X108448339Y-67423661D01*
X108223277Y-67149422D01*
X108056043Y-66836550D01*
X108056042Y-66836548D01*
X107953059Y-66497058D01*
X107918286Y-66144000D01*
X107953059Y-65790942D01*
X108056042Y-65451452D01*
X108223278Y-65138577D01*
X108448339Y-64864339D01*
X108722577Y-64639278D01*
X108722576Y-64639278D01*
X108722578Y-64639277D01*
X109035450Y-64472043D01*
X109035452Y-64472042D01*
X109374942Y-64369059D01*
X109551331Y-64351686D01*
X109639524Y-64343000D01*
X109816476Y-64343000D01*
X109904669Y-64351686D01*
X109904669Y-64351686D01*
G37*
G36*
X131240669Y-64351686D02*
G01*
X131417058Y-64369059D01*
X131756548Y-64472042D01*
X131756550Y-64472043D01*
X132069422Y-64639277D01*
X132069424Y-64639278D01*
X132069423Y-64639278D01*
X132343661Y-64864339D01*
X132568722Y-65138577D01*
X132735958Y-65451452D01*
X132838941Y-65790942D01*
X132873714Y-66144000D01*
X132838941Y-66497058D01*
X132735958Y-66836548D01*
X132735957Y-66836550D01*
X132568723Y-67149422D01*
X132343661Y-67423661D01*
X132069422Y-67648723D01*
X131756550Y-67815957D01*
X131756548Y-67815958D01*
X131417058Y-67918941D01*
X131240669Y-67936314D01*
X131152476Y-67945000D01*
X130975524Y-67945000D01*
X130887331Y-67936314D01*
X130710942Y-67918941D01*
X130371452Y-67815958D01*
X130371450Y-67815957D01*
X130058578Y-67648723D01*
X129784339Y-67423661D01*
X129559277Y-67149422D01*
X129392043Y-66836550D01*
X129392042Y-66836548D01*
X129289059Y-66497058D01*
X129254286Y-66144000D01*
X129289059Y-65790942D01*
X129392042Y-65451452D01*
X129559278Y-65138577D01*
X129784339Y-64864339D01*
X130058577Y-64639278D01*
X130058576Y-64639278D01*
X130058578Y-64639277D01*
X130371450Y-64472043D01*
X130371452Y-64472042D01*
X130710942Y-64369059D01*
X130887331Y-64351686D01*
X130975524Y-64343000D01*
X131152476Y-64343000D01*
X131240669Y-64351686D01*
X131240669Y-64351686D01*
G37*
G36*
X141908669Y-64351686D02*
G01*
X142085058Y-64369059D01*
X142424548Y-64472042D01*
X142424550Y-64472043D01*
X142737422Y-64639277D01*
X142737424Y-64639278D01*
X142737423Y-64639278D01*
X143011661Y-64864339D01*
X143236722Y-65138577D01*
X143403958Y-65451452D01*
X143506941Y-65790942D01*
X143541714Y-66144000D01*
X143506941Y-66497058D01*
X143403958Y-66836548D01*
X143403957Y-66836550D01*
X143236723Y-67149422D01*
X143011661Y-67423661D01*
X142737422Y-67648723D01*
X142424550Y-67815957D01*
X142424548Y-67815958D01*
X142085058Y-67918941D01*
X141908669Y-67936314D01*
X141820476Y-67945000D01*
X141643524Y-67945000D01*
X141555331Y-67936314D01*
X141378942Y-67918941D01*
X141039452Y-67815958D01*
X141039450Y-67815957D01*
X140726578Y-67648723D01*
X140452339Y-67423661D01*
X140227277Y-67149422D01*
X140060043Y-66836550D01*
X140060042Y-66836548D01*
X139957059Y-66497058D01*
X139922286Y-66144000D01*
X139957059Y-65790942D01*
X140060042Y-65451452D01*
X140227278Y-65138577D01*
X140452339Y-64864339D01*
X140726577Y-64639278D01*
X140726576Y-64639278D01*
X140726578Y-64639277D01*
X141039450Y-64472043D01*
X141039452Y-64472042D01*
X141378942Y-64369059D01*
X141555331Y-64351686D01*
X141643524Y-64343000D01*
X141820476Y-64343000D01*
X141908669Y-64351686D01*
X141908669Y-64351686D01*
G37*
G36*
X184580669Y-64351686D02*
G01*
X184757058Y-64369059D01*
X185096548Y-64472042D01*
X185096550Y-64472043D01*
X185409422Y-64639277D01*
X185409424Y-64639278D01*
X185409423Y-64639278D01*
X185683661Y-64864339D01*
X185908722Y-65138577D01*
X186075958Y-65451452D01*
X186178941Y-65790942D01*
X186213714Y-66144000D01*
X186178941Y-66497058D01*
X186075958Y-66836548D01*
X186075957Y-66836550D01*
X185908723Y-67149422D01*
X185683661Y-67423661D01*
X185409422Y-67648723D01*
X185096550Y-67815957D01*
X185096548Y-67815958D01*
X184757058Y-67918941D01*
X184580669Y-67936314D01*
X184492476Y-67945000D01*
X184315524Y-67945000D01*
X184227331Y-67936314D01*
X184050942Y-67918941D01*
X183711452Y-67815958D01*
X183711450Y-67815957D01*
X183398578Y-67648723D01*
X183124339Y-67423661D01*
X182899277Y-67149422D01*
X182732043Y-66836550D01*
X182732042Y-66836548D01*
X182629059Y-66497058D01*
X182594286Y-66144000D01*
X182629059Y-65790942D01*
X182732042Y-65451452D01*
X182899278Y-65138577D01*
X183124339Y-64864339D01*
X183398577Y-64639278D01*
X183398576Y-64639278D01*
X183398578Y-64639277D01*
X183711450Y-64472043D01*
X183711452Y-64472042D01*
X184050942Y-64369059D01*
X184227331Y-64351686D01*
X184315524Y-64343000D01*
X184492476Y-64343000D01*
X184580669Y-64351686D01*
X184580669Y-64351686D01*
G37*
G36*
X173912669Y-64351686D02*
G01*
X174089058Y-64369059D01*
X174428548Y-64472042D01*
X174428550Y-64472043D01*
X174741422Y-64639277D01*
X174741424Y-64639278D01*
X174741423Y-64639278D01*
X175015661Y-64864339D01*
X175240722Y-65138577D01*
X175407958Y-65451452D01*
X175510941Y-65790942D01*
X175545714Y-66144000D01*
X175510941Y-66497058D01*
X175407958Y-66836548D01*
X175407957Y-66836550D01*
X175240723Y-67149422D01*
X175015661Y-67423661D01*
X174741422Y-67648723D01*
X174428550Y-67815957D01*
X174428548Y-67815958D01*
X174089058Y-67918941D01*
X173912669Y-67936314D01*
X173824476Y-67945000D01*
X173647524Y-67945000D01*
X173559331Y-67936314D01*
X173382942Y-67918941D01*
X173043452Y-67815958D01*
X173043450Y-67815957D01*
X172730578Y-67648723D01*
X172456339Y-67423661D01*
X172231277Y-67149422D01*
X172064043Y-66836550D01*
X172064042Y-66836548D01*
X171961059Y-66497058D01*
X171926286Y-66144000D01*
X171961059Y-65790942D01*
X172064042Y-65451452D01*
X172231278Y-65138577D01*
X172456339Y-64864339D01*
X172730577Y-64639278D01*
X172730576Y-64639278D01*
X172730578Y-64639277D01*
X173043450Y-64472043D01*
X173043452Y-64472042D01*
X173382942Y-64369059D01*
X173559331Y-64351686D01*
X173647524Y-64343000D01*
X173824476Y-64343000D01*
X173912669Y-64351686D01*
X173912669Y-64351686D01*
G37*
G36*
X163244669Y-64351686D02*
G01*
X163421058Y-64369059D01*
X163760548Y-64472042D01*
X163760550Y-64472043D01*
X164073422Y-64639277D01*
X164073424Y-64639278D01*
X164073423Y-64639278D01*
X164347661Y-64864339D01*
X164572722Y-65138577D01*
X164739958Y-65451452D01*
X164842941Y-65790942D01*
X164877714Y-66144000D01*
X164842941Y-66497058D01*
X164739958Y-66836548D01*
X164739957Y-66836550D01*
X164572723Y-67149422D01*
X164347661Y-67423661D01*
X164073422Y-67648723D01*
X163760550Y-67815957D01*
X163760548Y-67815958D01*
X163421058Y-67918941D01*
X163244669Y-67936314D01*
X163156476Y-67945000D01*
X162979524Y-67945000D01*
X162891331Y-67936314D01*
X162714942Y-67918941D01*
X162375452Y-67815958D01*
X162375450Y-67815957D01*
X162062578Y-67648723D01*
X161788339Y-67423661D01*
X161563277Y-67149422D01*
X161396043Y-66836550D01*
X161396042Y-66836548D01*
X161293059Y-66497058D01*
X161258286Y-66144000D01*
X161293059Y-65790942D01*
X161396042Y-65451452D01*
X161563278Y-65138577D01*
X161788339Y-64864339D01*
X162062577Y-64639278D01*
X162062576Y-64639278D01*
X162062578Y-64639277D01*
X162375450Y-64472043D01*
X162375452Y-64472042D01*
X162714942Y-64369059D01*
X162891331Y-64351686D01*
X162979524Y-64343000D01*
X163156476Y-64343000D01*
X163244669Y-64351686D01*
X163244669Y-64351686D01*
G37*
M02*
