G04 #@! TF.GenerationSoftware,KiCad,Pcbnew,5.1.4-e60b266~84~ubuntu18.04.1*
G04 #@! TF.CreationDate,2019-09-18T22:39:51+03:00*
G04 #@! TF.ProjectId,spotweld,73706f74-7765-46c6-942e-6b696361645f,rev?*
G04 #@! TF.SameCoordinates,Original*
G04 #@! TF.FileFunction,Copper,L2,Bot*
G04 #@! TF.FilePolarity,Positive*
%FSLAX46Y46*%
G04 Gerber Fmt 4.6, Leading zero omitted, Abs format (unit mm)*
G04 Created by KiCad (PCBNEW 5.1.4-e60b266~84~ubuntu18.04.1) date 2019-09-18 22:39:51*
%MOMM*%
%LPD*%
G04 APERTURE LIST*
%ADD10C,2.000000*%
%ADD11O,1.905000X2.000000*%
%ADD12R,1.905000X2.000000*%
%ADD13C,2.340000*%
%ADD14C,0.100000*%
%ADD15C,0.975000*%
%ADD16O,1.700000X1.700000*%
%ADD17R,1.700000X1.700000*%
%ADD18R,1.300000X1.700000*%
%ADD19C,1.600000*%
%ADD20R,1.600000X1.600000*%
%ADD21C,8.000000*%
%ADD22C,0.800000*%
%ADD23C,1.000000*%
%ADD24C,0.250000*%
%ADD25C,0.500000*%
%ADD26C,0.254000*%
G04 APERTURE END LIST*
D10*
X145392000Y-119634000D03*
X145392000Y-115134000D03*
X151892000Y-119634000D03*
X151892000Y-115134000D03*
D11*
X186944000Y-82804000D03*
X184404000Y-82804000D03*
D12*
X181864000Y-82804000D03*
D11*
X176276000Y-82804000D03*
X173736000Y-82804000D03*
D12*
X171196000Y-82804000D03*
X160528000Y-82804000D03*
D11*
X163068000Y-82804000D03*
X165608000Y-82804000D03*
X154940000Y-82804000D03*
X152400000Y-82804000D03*
D12*
X149860000Y-82804000D03*
D11*
X144272000Y-82804000D03*
X141732000Y-82804000D03*
D12*
X139192000Y-82804000D03*
X128524000Y-82804000D03*
D11*
X131064000Y-82804000D03*
X133604000Y-82804000D03*
X122936000Y-82804000D03*
X120396000Y-82804000D03*
D12*
X117856000Y-82804000D03*
X107188000Y-82804000D03*
D11*
X109728000Y-82804000D03*
X112268000Y-82804000D03*
D13*
X176276000Y-119634000D03*
X181276000Y-119634000D03*
X186276000Y-119634000D03*
X159512000Y-119634000D03*
X164512000Y-119634000D03*
X169512000Y-119634000D03*
D14*
G36*
X182344142Y-85776674D02*
G01*
X182367803Y-85780184D01*
X182391007Y-85785996D01*
X182413529Y-85794054D01*
X182435153Y-85804282D01*
X182455670Y-85816579D01*
X182474883Y-85830829D01*
X182492607Y-85846893D01*
X182508671Y-85864617D01*
X182522921Y-85883830D01*
X182535218Y-85904347D01*
X182545446Y-85925971D01*
X182553504Y-85948493D01*
X182559316Y-85971697D01*
X182562826Y-85995358D01*
X182564000Y-86019250D01*
X182564000Y-86506750D01*
X182562826Y-86530642D01*
X182559316Y-86554303D01*
X182553504Y-86577507D01*
X182545446Y-86600029D01*
X182535218Y-86621653D01*
X182522921Y-86642170D01*
X182508671Y-86661383D01*
X182492607Y-86679107D01*
X182474883Y-86695171D01*
X182455670Y-86709421D01*
X182435153Y-86721718D01*
X182413529Y-86731946D01*
X182391007Y-86740004D01*
X182367803Y-86745816D01*
X182344142Y-86749326D01*
X182320250Y-86750500D01*
X181407750Y-86750500D01*
X181383858Y-86749326D01*
X181360197Y-86745816D01*
X181336993Y-86740004D01*
X181314471Y-86731946D01*
X181292847Y-86721718D01*
X181272330Y-86709421D01*
X181253117Y-86695171D01*
X181235393Y-86679107D01*
X181219329Y-86661383D01*
X181205079Y-86642170D01*
X181192782Y-86621653D01*
X181182554Y-86600029D01*
X181174496Y-86577507D01*
X181168684Y-86554303D01*
X181165174Y-86530642D01*
X181164000Y-86506750D01*
X181164000Y-86019250D01*
X181165174Y-85995358D01*
X181168684Y-85971697D01*
X181174496Y-85948493D01*
X181182554Y-85925971D01*
X181192782Y-85904347D01*
X181205079Y-85883830D01*
X181219329Y-85864617D01*
X181235393Y-85846893D01*
X181253117Y-85830829D01*
X181272330Y-85816579D01*
X181292847Y-85804282D01*
X181314471Y-85794054D01*
X181336993Y-85785996D01*
X181360197Y-85780184D01*
X181383858Y-85776674D01*
X181407750Y-85775500D01*
X182320250Y-85775500D01*
X182344142Y-85776674D01*
X182344142Y-85776674D01*
G37*
D15*
X181864000Y-86263000D03*
D14*
G36*
X182344142Y-87651674D02*
G01*
X182367803Y-87655184D01*
X182391007Y-87660996D01*
X182413529Y-87669054D01*
X182435153Y-87679282D01*
X182455670Y-87691579D01*
X182474883Y-87705829D01*
X182492607Y-87721893D01*
X182508671Y-87739617D01*
X182522921Y-87758830D01*
X182535218Y-87779347D01*
X182545446Y-87800971D01*
X182553504Y-87823493D01*
X182559316Y-87846697D01*
X182562826Y-87870358D01*
X182564000Y-87894250D01*
X182564000Y-88381750D01*
X182562826Y-88405642D01*
X182559316Y-88429303D01*
X182553504Y-88452507D01*
X182545446Y-88475029D01*
X182535218Y-88496653D01*
X182522921Y-88517170D01*
X182508671Y-88536383D01*
X182492607Y-88554107D01*
X182474883Y-88570171D01*
X182455670Y-88584421D01*
X182435153Y-88596718D01*
X182413529Y-88606946D01*
X182391007Y-88615004D01*
X182367803Y-88620816D01*
X182344142Y-88624326D01*
X182320250Y-88625500D01*
X181407750Y-88625500D01*
X181383858Y-88624326D01*
X181360197Y-88620816D01*
X181336993Y-88615004D01*
X181314471Y-88606946D01*
X181292847Y-88596718D01*
X181272330Y-88584421D01*
X181253117Y-88570171D01*
X181235393Y-88554107D01*
X181219329Y-88536383D01*
X181205079Y-88517170D01*
X181192782Y-88496653D01*
X181182554Y-88475029D01*
X181174496Y-88452507D01*
X181168684Y-88429303D01*
X181165174Y-88405642D01*
X181164000Y-88381750D01*
X181164000Y-87894250D01*
X181165174Y-87870358D01*
X181168684Y-87846697D01*
X181174496Y-87823493D01*
X181182554Y-87800971D01*
X181192782Y-87779347D01*
X181205079Y-87758830D01*
X181219329Y-87739617D01*
X181235393Y-87721893D01*
X181253117Y-87705829D01*
X181272330Y-87691579D01*
X181292847Y-87679282D01*
X181314471Y-87669054D01*
X181336993Y-87660996D01*
X181360197Y-87655184D01*
X181383858Y-87651674D01*
X181407750Y-87650500D01*
X182320250Y-87650500D01*
X182344142Y-87651674D01*
X182344142Y-87651674D01*
G37*
D15*
X181864000Y-88138000D03*
D14*
G36*
X171676142Y-85649674D02*
G01*
X171699803Y-85653184D01*
X171723007Y-85658996D01*
X171745529Y-85667054D01*
X171767153Y-85677282D01*
X171787670Y-85689579D01*
X171806883Y-85703829D01*
X171824607Y-85719893D01*
X171840671Y-85737617D01*
X171854921Y-85756830D01*
X171867218Y-85777347D01*
X171877446Y-85798971D01*
X171885504Y-85821493D01*
X171891316Y-85844697D01*
X171894826Y-85868358D01*
X171896000Y-85892250D01*
X171896000Y-86379750D01*
X171894826Y-86403642D01*
X171891316Y-86427303D01*
X171885504Y-86450507D01*
X171877446Y-86473029D01*
X171867218Y-86494653D01*
X171854921Y-86515170D01*
X171840671Y-86534383D01*
X171824607Y-86552107D01*
X171806883Y-86568171D01*
X171787670Y-86582421D01*
X171767153Y-86594718D01*
X171745529Y-86604946D01*
X171723007Y-86613004D01*
X171699803Y-86618816D01*
X171676142Y-86622326D01*
X171652250Y-86623500D01*
X170739750Y-86623500D01*
X170715858Y-86622326D01*
X170692197Y-86618816D01*
X170668993Y-86613004D01*
X170646471Y-86604946D01*
X170624847Y-86594718D01*
X170604330Y-86582421D01*
X170585117Y-86568171D01*
X170567393Y-86552107D01*
X170551329Y-86534383D01*
X170537079Y-86515170D01*
X170524782Y-86494653D01*
X170514554Y-86473029D01*
X170506496Y-86450507D01*
X170500684Y-86427303D01*
X170497174Y-86403642D01*
X170496000Y-86379750D01*
X170496000Y-85892250D01*
X170497174Y-85868358D01*
X170500684Y-85844697D01*
X170506496Y-85821493D01*
X170514554Y-85798971D01*
X170524782Y-85777347D01*
X170537079Y-85756830D01*
X170551329Y-85737617D01*
X170567393Y-85719893D01*
X170585117Y-85703829D01*
X170604330Y-85689579D01*
X170624847Y-85677282D01*
X170646471Y-85667054D01*
X170668993Y-85658996D01*
X170692197Y-85653184D01*
X170715858Y-85649674D01*
X170739750Y-85648500D01*
X171652250Y-85648500D01*
X171676142Y-85649674D01*
X171676142Y-85649674D01*
G37*
D15*
X171196000Y-86136000D03*
D14*
G36*
X171676142Y-87524674D02*
G01*
X171699803Y-87528184D01*
X171723007Y-87533996D01*
X171745529Y-87542054D01*
X171767153Y-87552282D01*
X171787670Y-87564579D01*
X171806883Y-87578829D01*
X171824607Y-87594893D01*
X171840671Y-87612617D01*
X171854921Y-87631830D01*
X171867218Y-87652347D01*
X171877446Y-87673971D01*
X171885504Y-87696493D01*
X171891316Y-87719697D01*
X171894826Y-87743358D01*
X171896000Y-87767250D01*
X171896000Y-88254750D01*
X171894826Y-88278642D01*
X171891316Y-88302303D01*
X171885504Y-88325507D01*
X171877446Y-88348029D01*
X171867218Y-88369653D01*
X171854921Y-88390170D01*
X171840671Y-88409383D01*
X171824607Y-88427107D01*
X171806883Y-88443171D01*
X171787670Y-88457421D01*
X171767153Y-88469718D01*
X171745529Y-88479946D01*
X171723007Y-88488004D01*
X171699803Y-88493816D01*
X171676142Y-88497326D01*
X171652250Y-88498500D01*
X170739750Y-88498500D01*
X170715858Y-88497326D01*
X170692197Y-88493816D01*
X170668993Y-88488004D01*
X170646471Y-88479946D01*
X170624847Y-88469718D01*
X170604330Y-88457421D01*
X170585117Y-88443171D01*
X170567393Y-88427107D01*
X170551329Y-88409383D01*
X170537079Y-88390170D01*
X170524782Y-88369653D01*
X170514554Y-88348029D01*
X170506496Y-88325507D01*
X170500684Y-88302303D01*
X170497174Y-88278642D01*
X170496000Y-88254750D01*
X170496000Y-87767250D01*
X170497174Y-87743358D01*
X170500684Y-87719697D01*
X170506496Y-87696493D01*
X170514554Y-87673971D01*
X170524782Y-87652347D01*
X170537079Y-87631830D01*
X170551329Y-87612617D01*
X170567393Y-87594893D01*
X170585117Y-87578829D01*
X170604330Y-87564579D01*
X170624847Y-87552282D01*
X170646471Y-87542054D01*
X170668993Y-87533996D01*
X170692197Y-87528184D01*
X170715858Y-87524674D01*
X170739750Y-87523500D01*
X171652250Y-87523500D01*
X171676142Y-87524674D01*
X171676142Y-87524674D01*
G37*
D15*
X171196000Y-88011000D03*
D14*
G36*
X161008142Y-85698174D02*
G01*
X161031803Y-85701684D01*
X161055007Y-85707496D01*
X161077529Y-85715554D01*
X161099153Y-85725782D01*
X161119670Y-85738079D01*
X161138883Y-85752329D01*
X161156607Y-85768393D01*
X161172671Y-85786117D01*
X161186921Y-85805330D01*
X161199218Y-85825847D01*
X161209446Y-85847471D01*
X161217504Y-85869993D01*
X161223316Y-85893197D01*
X161226826Y-85916858D01*
X161228000Y-85940750D01*
X161228000Y-86428250D01*
X161226826Y-86452142D01*
X161223316Y-86475803D01*
X161217504Y-86499007D01*
X161209446Y-86521529D01*
X161199218Y-86543153D01*
X161186921Y-86563670D01*
X161172671Y-86582883D01*
X161156607Y-86600607D01*
X161138883Y-86616671D01*
X161119670Y-86630921D01*
X161099153Y-86643218D01*
X161077529Y-86653446D01*
X161055007Y-86661504D01*
X161031803Y-86667316D01*
X161008142Y-86670826D01*
X160984250Y-86672000D01*
X160071750Y-86672000D01*
X160047858Y-86670826D01*
X160024197Y-86667316D01*
X160000993Y-86661504D01*
X159978471Y-86653446D01*
X159956847Y-86643218D01*
X159936330Y-86630921D01*
X159917117Y-86616671D01*
X159899393Y-86600607D01*
X159883329Y-86582883D01*
X159869079Y-86563670D01*
X159856782Y-86543153D01*
X159846554Y-86521529D01*
X159838496Y-86499007D01*
X159832684Y-86475803D01*
X159829174Y-86452142D01*
X159828000Y-86428250D01*
X159828000Y-85940750D01*
X159829174Y-85916858D01*
X159832684Y-85893197D01*
X159838496Y-85869993D01*
X159846554Y-85847471D01*
X159856782Y-85825847D01*
X159869079Y-85805330D01*
X159883329Y-85786117D01*
X159899393Y-85768393D01*
X159917117Y-85752329D01*
X159936330Y-85738079D01*
X159956847Y-85725782D01*
X159978471Y-85715554D01*
X160000993Y-85707496D01*
X160024197Y-85701684D01*
X160047858Y-85698174D01*
X160071750Y-85697000D01*
X160984250Y-85697000D01*
X161008142Y-85698174D01*
X161008142Y-85698174D01*
G37*
D15*
X160528000Y-86184500D03*
D14*
G36*
X161008142Y-87573174D02*
G01*
X161031803Y-87576684D01*
X161055007Y-87582496D01*
X161077529Y-87590554D01*
X161099153Y-87600782D01*
X161119670Y-87613079D01*
X161138883Y-87627329D01*
X161156607Y-87643393D01*
X161172671Y-87661117D01*
X161186921Y-87680330D01*
X161199218Y-87700847D01*
X161209446Y-87722471D01*
X161217504Y-87744993D01*
X161223316Y-87768197D01*
X161226826Y-87791858D01*
X161228000Y-87815750D01*
X161228000Y-88303250D01*
X161226826Y-88327142D01*
X161223316Y-88350803D01*
X161217504Y-88374007D01*
X161209446Y-88396529D01*
X161199218Y-88418153D01*
X161186921Y-88438670D01*
X161172671Y-88457883D01*
X161156607Y-88475607D01*
X161138883Y-88491671D01*
X161119670Y-88505921D01*
X161099153Y-88518218D01*
X161077529Y-88528446D01*
X161055007Y-88536504D01*
X161031803Y-88542316D01*
X161008142Y-88545826D01*
X160984250Y-88547000D01*
X160071750Y-88547000D01*
X160047858Y-88545826D01*
X160024197Y-88542316D01*
X160000993Y-88536504D01*
X159978471Y-88528446D01*
X159956847Y-88518218D01*
X159936330Y-88505921D01*
X159917117Y-88491671D01*
X159899393Y-88475607D01*
X159883329Y-88457883D01*
X159869079Y-88438670D01*
X159856782Y-88418153D01*
X159846554Y-88396529D01*
X159838496Y-88374007D01*
X159832684Y-88350803D01*
X159829174Y-88327142D01*
X159828000Y-88303250D01*
X159828000Y-87815750D01*
X159829174Y-87791858D01*
X159832684Y-87768197D01*
X159838496Y-87744993D01*
X159846554Y-87722471D01*
X159856782Y-87700847D01*
X159869079Y-87680330D01*
X159883329Y-87661117D01*
X159899393Y-87643393D01*
X159917117Y-87627329D01*
X159936330Y-87613079D01*
X159956847Y-87600782D01*
X159978471Y-87590554D01*
X160000993Y-87582496D01*
X160024197Y-87576684D01*
X160047858Y-87573174D01*
X160071750Y-87572000D01*
X160984250Y-87572000D01*
X161008142Y-87573174D01*
X161008142Y-87573174D01*
G37*
D15*
X160528000Y-88059500D03*
D14*
G36*
X150340142Y-85619674D02*
G01*
X150363803Y-85623184D01*
X150387007Y-85628996D01*
X150409529Y-85637054D01*
X150431153Y-85647282D01*
X150451670Y-85659579D01*
X150470883Y-85673829D01*
X150488607Y-85689893D01*
X150504671Y-85707617D01*
X150518921Y-85726830D01*
X150531218Y-85747347D01*
X150541446Y-85768971D01*
X150549504Y-85791493D01*
X150555316Y-85814697D01*
X150558826Y-85838358D01*
X150560000Y-85862250D01*
X150560000Y-86349750D01*
X150558826Y-86373642D01*
X150555316Y-86397303D01*
X150549504Y-86420507D01*
X150541446Y-86443029D01*
X150531218Y-86464653D01*
X150518921Y-86485170D01*
X150504671Y-86504383D01*
X150488607Y-86522107D01*
X150470883Y-86538171D01*
X150451670Y-86552421D01*
X150431153Y-86564718D01*
X150409529Y-86574946D01*
X150387007Y-86583004D01*
X150363803Y-86588816D01*
X150340142Y-86592326D01*
X150316250Y-86593500D01*
X149403750Y-86593500D01*
X149379858Y-86592326D01*
X149356197Y-86588816D01*
X149332993Y-86583004D01*
X149310471Y-86574946D01*
X149288847Y-86564718D01*
X149268330Y-86552421D01*
X149249117Y-86538171D01*
X149231393Y-86522107D01*
X149215329Y-86504383D01*
X149201079Y-86485170D01*
X149188782Y-86464653D01*
X149178554Y-86443029D01*
X149170496Y-86420507D01*
X149164684Y-86397303D01*
X149161174Y-86373642D01*
X149160000Y-86349750D01*
X149160000Y-85862250D01*
X149161174Y-85838358D01*
X149164684Y-85814697D01*
X149170496Y-85791493D01*
X149178554Y-85768971D01*
X149188782Y-85747347D01*
X149201079Y-85726830D01*
X149215329Y-85707617D01*
X149231393Y-85689893D01*
X149249117Y-85673829D01*
X149268330Y-85659579D01*
X149288847Y-85647282D01*
X149310471Y-85637054D01*
X149332993Y-85628996D01*
X149356197Y-85623184D01*
X149379858Y-85619674D01*
X149403750Y-85618500D01*
X150316250Y-85618500D01*
X150340142Y-85619674D01*
X150340142Y-85619674D01*
G37*
D15*
X149860000Y-86106000D03*
D14*
G36*
X150340142Y-87494674D02*
G01*
X150363803Y-87498184D01*
X150387007Y-87503996D01*
X150409529Y-87512054D01*
X150431153Y-87522282D01*
X150451670Y-87534579D01*
X150470883Y-87548829D01*
X150488607Y-87564893D01*
X150504671Y-87582617D01*
X150518921Y-87601830D01*
X150531218Y-87622347D01*
X150541446Y-87643971D01*
X150549504Y-87666493D01*
X150555316Y-87689697D01*
X150558826Y-87713358D01*
X150560000Y-87737250D01*
X150560000Y-88224750D01*
X150558826Y-88248642D01*
X150555316Y-88272303D01*
X150549504Y-88295507D01*
X150541446Y-88318029D01*
X150531218Y-88339653D01*
X150518921Y-88360170D01*
X150504671Y-88379383D01*
X150488607Y-88397107D01*
X150470883Y-88413171D01*
X150451670Y-88427421D01*
X150431153Y-88439718D01*
X150409529Y-88449946D01*
X150387007Y-88458004D01*
X150363803Y-88463816D01*
X150340142Y-88467326D01*
X150316250Y-88468500D01*
X149403750Y-88468500D01*
X149379858Y-88467326D01*
X149356197Y-88463816D01*
X149332993Y-88458004D01*
X149310471Y-88449946D01*
X149288847Y-88439718D01*
X149268330Y-88427421D01*
X149249117Y-88413171D01*
X149231393Y-88397107D01*
X149215329Y-88379383D01*
X149201079Y-88360170D01*
X149188782Y-88339653D01*
X149178554Y-88318029D01*
X149170496Y-88295507D01*
X149164684Y-88272303D01*
X149161174Y-88248642D01*
X149160000Y-88224750D01*
X149160000Y-87737250D01*
X149161174Y-87713358D01*
X149164684Y-87689697D01*
X149170496Y-87666493D01*
X149178554Y-87643971D01*
X149188782Y-87622347D01*
X149201079Y-87601830D01*
X149215329Y-87582617D01*
X149231393Y-87564893D01*
X149249117Y-87548829D01*
X149268330Y-87534579D01*
X149288847Y-87522282D01*
X149310471Y-87512054D01*
X149332993Y-87503996D01*
X149356197Y-87498184D01*
X149379858Y-87494674D01*
X149403750Y-87493500D01*
X150316250Y-87493500D01*
X150340142Y-87494674D01*
X150340142Y-87494674D01*
G37*
D15*
X149860000Y-87981000D03*
D14*
G36*
X139672142Y-85619674D02*
G01*
X139695803Y-85623184D01*
X139719007Y-85628996D01*
X139741529Y-85637054D01*
X139763153Y-85647282D01*
X139783670Y-85659579D01*
X139802883Y-85673829D01*
X139820607Y-85689893D01*
X139836671Y-85707617D01*
X139850921Y-85726830D01*
X139863218Y-85747347D01*
X139873446Y-85768971D01*
X139881504Y-85791493D01*
X139887316Y-85814697D01*
X139890826Y-85838358D01*
X139892000Y-85862250D01*
X139892000Y-86349750D01*
X139890826Y-86373642D01*
X139887316Y-86397303D01*
X139881504Y-86420507D01*
X139873446Y-86443029D01*
X139863218Y-86464653D01*
X139850921Y-86485170D01*
X139836671Y-86504383D01*
X139820607Y-86522107D01*
X139802883Y-86538171D01*
X139783670Y-86552421D01*
X139763153Y-86564718D01*
X139741529Y-86574946D01*
X139719007Y-86583004D01*
X139695803Y-86588816D01*
X139672142Y-86592326D01*
X139648250Y-86593500D01*
X138735750Y-86593500D01*
X138711858Y-86592326D01*
X138688197Y-86588816D01*
X138664993Y-86583004D01*
X138642471Y-86574946D01*
X138620847Y-86564718D01*
X138600330Y-86552421D01*
X138581117Y-86538171D01*
X138563393Y-86522107D01*
X138547329Y-86504383D01*
X138533079Y-86485170D01*
X138520782Y-86464653D01*
X138510554Y-86443029D01*
X138502496Y-86420507D01*
X138496684Y-86397303D01*
X138493174Y-86373642D01*
X138492000Y-86349750D01*
X138492000Y-85862250D01*
X138493174Y-85838358D01*
X138496684Y-85814697D01*
X138502496Y-85791493D01*
X138510554Y-85768971D01*
X138520782Y-85747347D01*
X138533079Y-85726830D01*
X138547329Y-85707617D01*
X138563393Y-85689893D01*
X138581117Y-85673829D01*
X138600330Y-85659579D01*
X138620847Y-85647282D01*
X138642471Y-85637054D01*
X138664993Y-85628996D01*
X138688197Y-85623184D01*
X138711858Y-85619674D01*
X138735750Y-85618500D01*
X139648250Y-85618500D01*
X139672142Y-85619674D01*
X139672142Y-85619674D01*
G37*
D15*
X139192000Y-86106000D03*
D14*
G36*
X139672142Y-87494674D02*
G01*
X139695803Y-87498184D01*
X139719007Y-87503996D01*
X139741529Y-87512054D01*
X139763153Y-87522282D01*
X139783670Y-87534579D01*
X139802883Y-87548829D01*
X139820607Y-87564893D01*
X139836671Y-87582617D01*
X139850921Y-87601830D01*
X139863218Y-87622347D01*
X139873446Y-87643971D01*
X139881504Y-87666493D01*
X139887316Y-87689697D01*
X139890826Y-87713358D01*
X139892000Y-87737250D01*
X139892000Y-88224750D01*
X139890826Y-88248642D01*
X139887316Y-88272303D01*
X139881504Y-88295507D01*
X139873446Y-88318029D01*
X139863218Y-88339653D01*
X139850921Y-88360170D01*
X139836671Y-88379383D01*
X139820607Y-88397107D01*
X139802883Y-88413171D01*
X139783670Y-88427421D01*
X139763153Y-88439718D01*
X139741529Y-88449946D01*
X139719007Y-88458004D01*
X139695803Y-88463816D01*
X139672142Y-88467326D01*
X139648250Y-88468500D01*
X138735750Y-88468500D01*
X138711858Y-88467326D01*
X138688197Y-88463816D01*
X138664993Y-88458004D01*
X138642471Y-88449946D01*
X138620847Y-88439718D01*
X138600330Y-88427421D01*
X138581117Y-88413171D01*
X138563393Y-88397107D01*
X138547329Y-88379383D01*
X138533079Y-88360170D01*
X138520782Y-88339653D01*
X138510554Y-88318029D01*
X138502496Y-88295507D01*
X138496684Y-88272303D01*
X138493174Y-88248642D01*
X138492000Y-88224750D01*
X138492000Y-87737250D01*
X138493174Y-87713358D01*
X138496684Y-87689697D01*
X138502496Y-87666493D01*
X138510554Y-87643971D01*
X138520782Y-87622347D01*
X138533079Y-87601830D01*
X138547329Y-87582617D01*
X138563393Y-87564893D01*
X138581117Y-87548829D01*
X138600330Y-87534579D01*
X138620847Y-87522282D01*
X138642471Y-87512054D01*
X138664993Y-87503996D01*
X138688197Y-87498184D01*
X138711858Y-87494674D01*
X138735750Y-87493500D01*
X139648250Y-87493500D01*
X139672142Y-87494674D01*
X139672142Y-87494674D01*
G37*
D15*
X139192000Y-87981000D03*
D14*
G36*
X129004142Y-85619674D02*
G01*
X129027803Y-85623184D01*
X129051007Y-85628996D01*
X129073529Y-85637054D01*
X129095153Y-85647282D01*
X129115670Y-85659579D01*
X129134883Y-85673829D01*
X129152607Y-85689893D01*
X129168671Y-85707617D01*
X129182921Y-85726830D01*
X129195218Y-85747347D01*
X129205446Y-85768971D01*
X129213504Y-85791493D01*
X129219316Y-85814697D01*
X129222826Y-85838358D01*
X129224000Y-85862250D01*
X129224000Y-86349750D01*
X129222826Y-86373642D01*
X129219316Y-86397303D01*
X129213504Y-86420507D01*
X129205446Y-86443029D01*
X129195218Y-86464653D01*
X129182921Y-86485170D01*
X129168671Y-86504383D01*
X129152607Y-86522107D01*
X129134883Y-86538171D01*
X129115670Y-86552421D01*
X129095153Y-86564718D01*
X129073529Y-86574946D01*
X129051007Y-86583004D01*
X129027803Y-86588816D01*
X129004142Y-86592326D01*
X128980250Y-86593500D01*
X128067750Y-86593500D01*
X128043858Y-86592326D01*
X128020197Y-86588816D01*
X127996993Y-86583004D01*
X127974471Y-86574946D01*
X127952847Y-86564718D01*
X127932330Y-86552421D01*
X127913117Y-86538171D01*
X127895393Y-86522107D01*
X127879329Y-86504383D01*
X127865079Y-86485170D01*
X127852782Y-86464653D01*
X127842554Y-86443029D01*
X127834496Y-86420507D01*
X127828684Y-86397303D01*
X127825174Y-86373642D01*
X127824000Y-86349750D01*
X127824000Y-85862250D01*
X127825174Y-85838358D01*
X127828684Y-85814697D01*
X127834496Y-85791493D01*
X127842554Y-85768971D01*
X127852782Y-85747347D01*
X127865079Y-85726830D01*
X127879329Y-85707617D01*
X127895393Y-85689893D01*
X127913117Y-85673829D01*
X127932330Y-85659579D01*
X127952847Y-85647282D01*
X127974471Y-85637054D01*
X127996993Y-85628996D01*
X128020197Y-85623184D01*
X128043858Y-85619674D01*
X128067750Y-85618500D01*
X128980250Y-85618500D01*
X129004142Y-85619674D01*
X129004142Y-85619674D01*
G37*
D15*
X128524000Y-86106000D03*
D14*
G36*
X129004142Y-87494674D02*
G01*
X129027803Y-87498184D01*
X129051007Y-87503996D01*
X129073529Y-87512054D01*
X129095153Y-87522282D01*
X129115670Y-87534579D01*
X129134883Y-87548829D01*
X129152607Y-87564893D01*
X129168671Y-87582617D01*
X129182921Y-87601830D01*
X129195218Y-87622347D01*
X129205446Y-87643971D01*
X129213504Y-87666493D01*
X129219316Y-87689697D01*
X129222826Y-87713358D01*
X129224000Y-87737250D01*
X129224000Y-88224750D01*
X129222826Y-88248642D01*
X129219316Y-88272303D01*
X129213504Y-88295507D01*
X129205446Y-88318029D01*
X129195218Y-88339653D01*
X129182921Y-88360170D01*
X129168671Y-88379383D01*
X129152607Y-88397107D01*
X129134883Y-88413171D01*
X129115670Y-88427421D01*
X129095153Y-88439718D01*
X129073529Y-88449946D01*
X129051007Y-88458004D01*
X129027803Y-88463816D01*
X129004142Y-88467326D01*
X128980250Y-88468500D01*
X128067750Y-88468500D01*
X128043858Y-88467326D01*
X128020197Y-88463816D01*
X127996993Y-88458004D01*
X127974471Y-88449946D01*
X127952847Y-88439718D01*
X127932330Y-88427421D01*
X127913117Y-88413171D01*
X127895393Y-88397107D01*
X127879329Y-88379383D01*
X127865079Y-88360170D01*
X127852782Y-88339653D01*
X127842554Y-88318029D01*
X127834496Y-88295507D01*
X127828684Y-88272303D01*
X127825174Y-88248642D01*
X127824000Y-88224750D01*
X127824000Y-87737250D01*
X127825174Y-87713358D01*
X127828684Y-87689697D01*
X127834496Y-87666493D01*
X127842554Y-87643971D01*
X127852782Y-87622347D01*
X127865079Y-87601830D01*
X127879329Y-87582617D01*
X127895393Y-87564893D01*
X127913117Y-87548829D01*
X127932330Y-87534579D01*
X127952847Y-87522282D01*
X127974471Y-87512054D01*
X127996993Y-87503996D01*
X128020197Y-87498184D01*
X128043858Y-87494674D01*
X128067750Y-87493500D01*
X128980250Y-87493500D01*
X129004142Y-87494674D01*
X129004142Y-87494674D01*
G37*
D15*
X128524000Y-87981000D03*
D14*
G36*
X118336142Y-85619674D02*
G01*
X118359803Y-85623184D01*
X118383007Y-85628996D01*
X118405529Y-85637054D01*
X118427153Y-85647282D01*
X118447670Y-85659579D01*
X118466883Y-85673829D01*
X118484607Y-85689893D01*
X118500671Y-85707617D01*
X118514921Y-85726830D01*
X118527218Y-85747347D01*
X118537446Y-85768971D01*
X118545504Y-85791493D01*
X118551316Y-85814697D01*
X118554826Y-85838358D01*
X118556000Y-85862250D01*
X118556000Y-86349750D01*
X118554826Y-86373642D01*
X118551316Y-86397303D01*
X118545504Y-86420507D01*
X118537446Y-86443029D01*
X118527218Y-86464653D01*
X118514921Y-86485170D01*
X118500671Y-86504383D01*
X118484607Y-86522107D01*
X118466883Y-86538171D01*
X118447670Y-86552421D01*
X118427153Y-86564718D01*
X118405529Y-86574946D01*
X118383007Y-86583004D01*
X118359803Y-86588816D01*
X118336142Y-86592326D01*
X118312250Y-86593500D01*
X117399750Y-86593500D01*
X117375858Y-86592326D01*
X117352197Y-86588816D01*
X117328993Y-86583004D01*
X117306471Y-86574946D01*
X117284847Y-86564718D01*
X117264330Y-86552421D01*
X117245117Y-86538171D01*
X117227393Y-86522107D01*
X117211329Y-86504383D01*
X117197079Y-86485170D01*
X117184782Y-86464653D01*
X117174554Y-86443029D01*
X117166496Y-86420507D01*
X117160684Y-86397303D01*
X117157174Y-86373642D01*
X117156000Y-86349750D01*
X117156000Y-85862250D01*
X117157174Y-85838358D01*
X117160684Y-85814697D01*
X117166496Y-85791493D01*
X117174554Y-85768971D01*
X117184782Y-85747347D01*
X117197079Y-85726830D01*
X117211329Y-85707617D01*
X117227393Y-85689893D01*
X117245117Y-85673829D01*
X117264330Y-85659579D01*
X117284847Y-85647282D01*
X117306471Y-85637054D01*
X117328993Y-85628996D01*
X117352197Y-85623184D01*
X117375858Y-85619674D01*
X117399750Y-85618500D01*
X118312250Y-85618500D01*
X118336142Y-85619674D01*
X118336142Y-85619674D01*
G37*
D15*
X117856000Y-86106000D03*
D14*
G36*
X118336142Y-87494674D02*
G01*
X118359803Y-87498184D01*
X118383007Y-87503996D01*
X118405529Y-87512054D01*
X118427153Y-87522282D01*
X118447670Y-87534579D01*
X118466883Y-87548829D01*
X118484607Y-87564893D01*
X118500671Y-87582617D01*
X118514921Y-87601830D01*
X118527218Y-87622347D01*
X118537446Y-87643971D01*
X118545504Y-87666493D01*
X118551316Y-87689697D01*
X118554826Y-87713358D01*
X118556000Y-87737250D01*
X118556000Y-88224750D01*
X118554826Y-88248642D01*
X118551316Y-88272303D01*
X118545504Y-88295507D01*
X118537446Y-88318029D01*
X118527218Y-88339653D01*
X118514921Y-88360170D01*
X118500671Y-88379383D01*
X118484607Y-88397107D01*
X118466883Y-88413171D01*
X118447670Y-88427421D01*
X118427153Y-88439718D01*
X118405529Y-88449946D01*
X118383007Y-88458004D01*
X118359803Y-88463816D01*
X118336142Y-88467326D01*
X118312250Y-88468500D01*
X117399750Y-88468500D01*
X117375858Y-88467326D01*
X117352197Y-88463816D01*
X117328993Y-88458004D01*
X117306471Y-88449946D01*
X117284847Y-88439718D01*
X117264330Y-88427421D01*
X117245117Y-88413171D01*
X117227393Y-88397107D01*
X117211329Y-88379383D01*
X117197079Y-88360170D01*
X117184782Y-88339653D01*
X117174554Y-88318029D01*
X117166496Y-88295507D01*
X117160684Y-88272303D01*
X117157174Y-88248642D01*
X117156000Y-88224750D01*
X117156000Y-87737250D01*
X117157174Y-87713358D01*
X117160684Y-87689697D01*
X117166496Y-87666493D01*
X117174554Y-87643971D01*
X117184782Y-87622347D01*
X117197079Y-87601830D01*
X117211329Y-87582617D01*
X117227393Y-87564893D01*
X117245117Y-87548829D01*
X117264330Y-87534579D01*
X117284847Y-87522282D01*
X117306471Y-87512054D01*
X117328993Y-87503996D01*
X117352197Y-87498184D01*
X117375858Y-87494674D01*
X117399750Y-87493500D01*
X118312250Y-87493500D01*
X118336142Y-87494674D01*
X118336142Y-87494674D01*
G37*
D15*
X117856000Y-87981000D03*
D14*
G36*
X107668142Y-85619674D02*
G01*
X107691803Y-85623184D01*
X107715007Y-85628996D01*
X107737529Y-85637054D01*
X107759153Y-85647282D01*
X107779670Y-85659579D01*
X107798883Y-85673829D01*
X107816607Y-85689893D01*
X107832671Y-85707617D01*
X107846921Y-85726830D01*
X107859218Y-85747347D01*
X107869446Y-85768971D01*
X107877504Y-85791493D01*
X107883316Y-85814697D01*
X107886826Y-85838358D01*
X107888000Y-85862250D01*
X107888000Y-86349750D01*
X107886826Y-86373642D01*
X107883316Y-86397303D01*
X107877504Y-86420507D01*
X107869446Y-86443029D01*
X107859218Y-86464653D01*
X107846921Y-86485170D01*
X107832671Y-86504383D01*
X107816607Y-86522107D01*
X107798883Y-86538171D01*
X107779670Y-86552421D01*
X107759153Y-86564718D01*
X107737529Y-86574946D01*
X107715007Y-86583004D01*
X107691803Y-86588816D01*
X107668142Y-86592326D01*
X107644250Y-86593500D01*
X106731750Y-86593500D01*
X106707858Y-86592326D01*
X106684197Y-86588816D01*
X106660993Y-86583004D01*
X106638471Y-86574946D01*
X106616847Y-86564718D01*
X106596330Y-86552421D01*
X106577117Y-86538171D01*
X106559393Y-86522107D01*
X106543329Y-86504383D01*
X106529079Y-86485170D01*
X106516782Y-86464653D01*
X106506554Y-86443029D01*
X106498496Y-86420507D01*
X106492684Y-86397303D01*
X106489174Y-86373642D01*
X106488000Y-86349750D01*
X106488000Y-85862250D01*
X106489174Y-85838358D01*
X106492684Y-85814697D01*
X106498496Y-85791493D01*
X106506554Y-85768971D01*
X106516782Y-85747347D01*
X106529079Y-85726830D01*
X106543329Y-85707617D01*
X106559393Y-85689893D01*
X106577117Y-85673829D01*
X106596330Y-85659579D01*
X106616847Y-85647282D01*
X106638471Y-85637054D01*
X106660993Y-85628996D01*
X106684197Y-85623184D01*
X106707858Y-85619674D01*
X106731750Y-85618500D01*
X107644250Y-85618500D01*
X107668142Y-85619674D01*
X107668142Y-85619674D01*
G37*
D15*
X107188000Y-86106000D03*
D14*
G36*
X107668142Y-87494674D02*
G01*
X107691803Y-87498184D01*
X107715007Y-87503996D01*
X107737529Y-87512054D01*
X107759153Y-87522282D01*
X107779670Y-87534579D01*
X107798883Y-87548829D01*
X107816607Y-87564893D01*
X107832671Y-87582617D01*
X107846921Y-87601830D01*
X107859218Y-87622347D01*
X107869446Y-87643971D01*
X107877504Y-87666493D01*
X107883316Y-87689697D01*
X107886826Y-87713358D01*
X107888000Y-87737250D01*
X107888000Y-88224750D01*
X107886826Y-88248642D01*
X107883316Y-88272303D01*
X107877504Y-88295507D01*
X107869446Y-88318029D01*
X107859218Y-88339653D01*
X107846921Y-88360170D01*
X107832671Y-88379383D01*
X107816607Y-88397107D01*
X107798883Y-88413171D01*
X107779670Y-88427421D01*
X107759153Y-88439718D01*
X107737529Y-88449946D01*
X107715007Y-88458004D01*
X107691803Y-88463816D01*
X107668142Y-88467326D01*
X107644250Y-88468500D01*
X106731750Y-88468500D01*
X106707858Y-88467326D01*
X106684197Y-88463816D01*
X106660993Y-88458004D01*
X106638471Y-88449946D01*
X106616847Y-88439718D01*
X106596330Y-88427421D01*
X106577117Y-88413171D01*
X106559393Y-88397107D01*
X106543329Y-88379383D01*
X106529079Y-88360170D01*
X106516782Y-88339653D01*
X106506554Y-88318029D01*
X106498496Y-88295507D01*
X106492684Y-88272303D01*
X106489174Y-88248642D01*
X106488000Y-88224750D01*
X106488000Y-87737250D01*
X106489174Y-87713358D01*
X106492684Y-87689697D01*
X106498496Y-87666493D01*
X106506554Y-87643971D01*
X106516782Y-87622347D01*
X106529079Y-87601830D01*
X106543329Y-87582617D01*
X106559393Y-87564893D01*
X106577117Y-87548829D01*
X106596330Y-87534579D01*
X106616847Y-87522282D01*
X106638471Y-87512054D01*
X106660993Y-87503996D01*
X106684197Y-87498184D01*
X106707858Y-87494674D01*
X106731750Y-87493500D01*
X107644250Y-87493500D01*
X107668142Y-87494674D01*
X107668142Y-87494674D01*
G37*
D15*
X107188000Y-87981000D03*
D14*
G36*
X120663642Y-102171174D02*
G01*
X120687303Y-102174684D01*
X120710507Y-102180496D01*
X120733029Y-102188554D01*
X120754653Y-102198782D01*
X120775170Y-102211079D01*
X120794383Y-102225329D01*
X120812107Y-102241393D01*
X120828171Y-102259117D01*
X120842421Y-102278330D01*
X120854718Y-102298847D01*
X120864946Y-102320471D01*
X120873004Y-102342993D01*
X120878816Y-102366197D01*
X120882326Y-102389858D01*
X120883500Y-102413750D01*
X120883500Y-103326250D01*
X120882326Y-103350142D01*
X120878816Y-103373803D01*
X120873004Y-103397007D01*
X120864946Y-103419529D01*
X120854718Y-103441153D01*
X120842421Y-103461670D01*
X120828171Y-103480883D01*
X120812107Y-103498607D01*
X120794383Y-103514671D01*
X120775170Y-103528921D01*
X120754653Y-103541218D01*
X120733029Y-103551446D01*
X120710507Y-103559504D01*
X120687303Y-103565316D01*
X120663642Y-103568826D01*
X120639750Y-103570000D01*
X120152250Y-103570000D01*
X120128358Y-103568826D01*
X120104697Y-103565316D01*
X120081493Y-103559504D01*
X120058971Y-103551446D01*
X120037347Y-103541218D01*
X120016830Y-103528921D01*
X119997617Y-103514671D01*
X119979893Y-103498607D01*
X119963829Y-103480883D01*
X119949579Y-103461670D01*
X119937282Y-103441153D01*
X119927054Y-103419529D01*
X119918996Y-103397007D01*
X119913184Y-103373803D01*
X119909674Y-103350142D01*
X119908500Y-103326250D01*
X119908500Y-102413750D01*
X119909674Y-102389858D01*
X119913184Y-102366197D01*
X119918996Y-102342993D01*
X119927054Y-102320471D01*
X119937282Y-102298847D01*
X119949579Y-102278330D01*
X119963829Y-102259117D01*
X119979893Y-102241393D01*
X119997617Y-102225329D01*
X120016830Y-102211079D01*
X120037347Y-102198782D01*
X120058971Y-102188554D01*
X120081493Y-102180496D01*
X120104697Y-102174684D01*
X120128358Y-102171174D01*
X120152250Y-102170000D01*
X120639750Y-102170000D01*
X120663642Y-102171174D01*
X120663642Y-102171174D01*
G37*
D15*
X120396000Y-102870000D03*
D14*
G36*
X118788642Y-102171174D02*
G01*
X118812303Y-102174684D01*
X118835507Y-102180496D01*
X118858029Y-102188554D01*
X118879653Y-102198782D01*
X118900170Y-102211079D01*
X118919383Y-102225329D01*
X118937107Y-102241393D01*
X118953171Y-102259117D01*
X118967421Y-102278330D01*
X118979718Y-102298847D01*
X118989946Y-102320471D01*
X118998004Y-102342993D01*
X119003816Y-102366197D01*
X119007326Y-102389858D01*
X119008500Y-102413750D01*
X119008500Y-103326250D01*
X119007326Y-103350142D01*
X119003816Y-103373803D01*
X118998004Y-103397007D01*
X118989946Y-103419529D01*
X118979718Y-103441153D01*
X118967421Y-103461670D01*
X118953171Y-103480883D01*
X118937107Y-103498607D01*
X118919383Y-103514671D01*
X118900170Y-103528921D01*
X118879653Y-103541218D01*
X118858029Y-103551446D01*
X118835507Y-103559504D01*
X118812303Y-103565316D01*
X118788642Y-103568826D01*
X118764750Y-103570000D01*
X118277250Y-103570000D01*
X118253358Y-103568826D01*
X118229697Y-103565316D01*
X118206493Y-103559504D01*
X118183971Y-103551446D01*
X118162347Y-103541218D01*
X118141830Y-103528921D01*
X118122617Y-103514671D01*
X118104893Y-103498607D01*
X118088829Y-103480883D01*
X118074579Y-103461670D01*
X118062282Y-103441153D01*
X118052054Y-103419529D01*
X118043996Y-103397007D01*
X118038184Y-103373803D01*
X118034674Y-103350142D01*
X118033500Y-103326250D01*
X118033500Y-102413750D01*
X118034674Y-102389858D01*
X118038184Y-102366197D01*
X118043996Y-102342993D01*
X118052054Y-102320471D01*
X118062282Y-102298847D01*
X118074579Y-102278330D01*
X118088829Y-102259117D01*
X118104893Y-102241393D01*
X118122617Y-102225329D01*
X118141830Y-102211079D01*
X118162347Y-102198782D01*
X118183971Y-102188554D01*
X118206493Y-102180496D01*
X118229697Y-102174684D01*
X118253358Y-102171174D01*
X118277250Y-102170000D01*
X118764750Y-102170000D01*
X118788642Y-102171174D01*
X118788642Y-102171174D01*
G37*
D15*
X118521000Y-102870000D03*
D14*
G36*
X116685142Y-104083174D02*
G01*
X116708803Y-104086684D01*
X116732007Y-104092496D01*
X116754529Y-104100554D01*
X116776153Y-104110782D01*
X116796670Y-104123079D01*
X116815883Y-104137329D01*
X116833607Y-104153393D01*
X116849671Y-104171117D01*
X116863921Y-104190330D01*
X116876218Y-104210847D01*
X116886446Y-104232471D01*
X116894504Y-104254993D01*
X116900316Y-104278197D01*
X116903826Y-104301858D01*
X116905000Y-104325750D01*
X116905000Y-104813250D01*
X116903826Y-104837142D01*
X116900316Y-104860803D01*
X116894504Y-104884007D01*
X116886446Y-104906529D01*
X116876218Y-104928153D01*
X116863921Y-104948670D01*
X116849671Y-104967883D01*
X116833607Y-104985607D01*
X116815883Y-105001671D01*
X116796670Y-105015921D01*
X116776153Y-105028218D01*
X116754529Y-105038446D01*
X116732007Y-105046504D01*
X116708803Y-105052316D01*
X116685142Y-105055826D01*
X116661250Y-105057000D01*
X115748750Y-105057000D01*
X115724858Y-105055826D01*
X115701197Y-105052316D01*
X115677993Y-105046504D01*
X115655471Y-105038446D01*
X115633847Y-105028218D01*
X115613330Y-105015921D01*
X115594117Y-105001671D01*
X115576393Y-104985607D01*
X115560329Y-104967883D01*
X115546079Y-104948670D01*
X115533782Y-104928153D01*
X115523554Y-104906529D01*
X115515496Y-104884007D01*
X115509684Y-104860803D01*
X115506174Y-104837142D01*
X115505000Y-104813250D01*
X115505000Y-104325750D01*
X115506174Y-104301858D01*
X115509684Y-104278197D01*
X115515496Y-104254993D01*
X115523554Y-104232471D01*
X115533782Y-104210847D01*
X115546079Y-104190330D01*
X115560329Y-104171117D01*
X115576393Y-104153393D01*
X115594117Y-104137329D01*
X115613330Y-104123079D01*
X115633847Y-104110782D01*
X115655471Y-104100554D01*
X115677993Y-104092496D01*
X115701197Y-104086684D01*
X115724858Y-104083174D01*
X115748750Y-104082000D01*
X116661250Y-104082000D01*
X116685142Y-104083174D01*
X116685142Y-104083174D01*
G37*
D15*
X116205000Y-104569500D03*
D14*
G36*
X116685142Y-102208174D02*
G01*
X116708803Y-102211684D01*
X116732007Y-102217496D01*
X116754529Y-102225554D01*
X116776153Y-102235782D01*
X116796670Y-102248079D01*
X116815883Y-102262329D01*
X116833607Y-102278393D01*
X116849671Y-102296117D01*
X116863921Y-102315330D01*
X116876218Y-102335847D01*
X116886446Y-102357471D01*
X116894504Y-102379993D01*
X116900316Y-102403197D01*
X116903826Y-102426858D01*
X116905000Y-102450750D01*
X116905000Y-102938250D01*
X116903826Y-102962142D01*
X116900316Y-102985803D01*
X116894504Y-103009007D01*
X116886446Y-103031529D01*
X116876218Y-103053153D01*
X116863921Y-103073670D01*
X116849671Y-103092883D01*
X116833607Y-103110607D01*
X116815883Y-103126671D01*
X116796670Y-103140921D01*
X116776153Y-103153218D01*
X116754529Y-103163446D01*
X116732007Y-103171504D01*
X116708803Y-103177316D01*
X116685142Y-103180826D01*
X116661250Y-103182000D01*
X115748750Y-103182000D01*
X115724858Y-103180826D01*
X115701197Y-103177316D01*
X115677993Y-103171504D01*
X115655471Y-103163446D01*
X115633847Y-103153218D01*
X115613330Y-103140921D01*
X115594117Y-103126671D01*
X115576393Y-103110607D01*
X115560329Y-103092883D01*
X115546079Y-103073670D01*
X115533782Y-103053153D01*
X115523554Y-103031529D01*
X115515496Y-103009007D01*
X115509684Y-102985803D01*
X115506174Y-102962142D01*
X115505000Y-102938250D01*
X115505000Y-102450750D01*
X115506174Y-102426858D01*
X115509684Y-102403197D01*
X115515496Y-102379993D01*
X115523554Y-102357471D01*
X115533782Y-102335847D01*
X115546079Y-102315330D01*
X115560329Y-102296117D01*
X115576393Y-102278393D01*
X115594117Y-102262329D01*
X115613330Y-102248079D01*
X115633847Y-102235782D01*
X115655471Y-102225554D01*
X115677993Y-102217496D01*
X115701197Y-102211684D01*
X115724858Y-102208174D01*
X115748750Y-102207000D01*
X116661250Y-102207000D01*
X116685142Y-102208174D01*
X116685142Y-102208174D01*
G37*
D15*
X116205000Y-102694500D03*
D16*
X106172000Y-119634000D03*
D17*
X106172000Y-117094000D03*
D16*
X141224000Y-119634000D03*
D17*
X138684000Y-119634000D03*
D16*
X142748000Y-110998000D03*
X142748000Y-108458000D03*
X145288000Y-110998000D03*
X145288000Y-108458000D03*
X147828000Y-110998000D03*
D17*
X147828000Y-108458000D03*
D18*
X186154000Y-78486000D03*
X182654000Y-78486000D03*
X175486000Y-78486000D03*
X171986000Y-78486000D03*
X164818000Y-78486000D03*
X161318000Y-78486000D03*
X154658000Y-78486000D03*
X151158000Y-78486000D03*
X143990000Y-78486000D03*
X140490000Y-78486000D03*
X132814000Y-78486000D03*
X129314000Y-78486000D03*
X122146000Y-78486000D03*
X118646000Y-78486000D03*
X111478000Y-78486000D03*
X107978000Y-78486000D03*
X187932000Y-86614000D03*
X184432000Y-86614000D03*
D19*
X111760000Y-119086000D03*
D20*
X111760000Y-116586000D03*
D19*
X111760000Y-108006000D03*
D20*
X111760000Y-111506000D03*
D19*
X124460000Y-119086000D03*
D20*
X124460000Y-116586000D03*
D21*
X117138000Y-96034000D03*
X137138000Y-96034000D03*
X157138000Y-96034000D03*
X177138000Y-96034000D03*
D22*
X138049000Y-113030000D03*
X137414000Y-110871000D03*
X138049000Y-115697000D03*
X129921000Y-105410000D03*
X127762000Y-105410000D03*
X125857000Y-105410000D03*
X153670000Y-108331000D03*
X157861000Y-108331000D03*
X161544000Y-108331000D03*
X170688000Y-108204000D03*
X175768000Y-108331000D03*
X176022000Y-111760000D03*
X107950000Y-112649000D03*
X114681000Y-112268000D03*
X126365000Y-110363000D03*
X126238000Y-107696000D03*
X128143000Y-108331000D03*
X136652000Y-120142000D03*
X121539000Y-119634000D03*
X114427000Y-119761000D03*
X146177000Y-113030000D03*
X149479000Y-113157000D03*
X148209000Y-117729000D03*
X162306000Y-113411000D03*
X162306000Y-116332000D03*
X166497000Y-113411000D03*
X166624000Y-116459000D03*
X167005000Y-108331000D03*
X157988000Y-113284000D03*
X153416000Y-112903000D03*
X120904000Y-114935000D03*
X123952000Y-114554000D03*
X114427000Y-118110000D03*
X121539000Y-118237000D03*
X108966000Y-116713000D03*
X108966000Y-119380000D03*
X140081000Y-115062000D03*
X130429000Y-110617000D03*
X128016000Y-112776000D03*
X139192000Y-111760000D03*
X116713000Y-107823000D03*
X164465000Y-104267000D03*
X109728000Y-80264000D03*
X138811000Y-108204000D03*
X135001000Y-116967000D03*
D23*
X112268000Y-79276000D02*
X111478000Y-78486000D01*
X112268000Y-82804000D02*
X112268000Y-79276000D01*
X122936000Y-79276000D02*
X122146000Y-78486000D01*
X122936000Y-82804000D02*
X122936000Y-79276000D01*
X133604000Y-79276000D02*
X132814000Y-78486000D01*
X133604000Y-82804000D02*
X133604000Y-79276000D01*
X144272000Y-78768000D02*
X143990000Y-78486000D01*
X144272000Y-82804000D02*
X144272000Y-78768000D01*
X154940000Y-78768000D02*
X154658000Y-78486000D01*
X154940000Y-82804000D02*
X154940000Y-78768000D01*
X165608000Y-79276000D02*
X164818000Y-78486000D01*
X165608000Y-82804000D02*
X165608000Y-79276000D01*
X176276000Y-79276000D02*
X175486000Y-78486000D01*
X176276000Y-82804000D02*
X176276000Y-79276000D01*
X186944000Y-79276000D02*
X186154000Y-78486000D01*
X186944000Y-82804000D02*
X186944000Y-79276000D01*
X187932000Y-83792000D02*
X186944000Y-82804000D01*
X187932000Y-86614000D02*
X187932000Y-83792000D01*
X120396000Y-102870000D02*
X120396000Y-104902000D01*
D24*
X130429000Y-110617000D02*
X128270000Y-112776000D01*
X128270000Y-112776000D02*
X128016000Y-112776000D01*
D25*
X183101000Y-116459000D02*
X186276000Y-119634000D01*
X169512000Y-119634000D02*
X172687000Y-116459000D01*
X172687000Y-116459000D02*
X183101000Y-116459000D01*
X127254000Y-116586000D02*
X124460000Y-116586000D01*
X147828000Y-110998000D02*
X147828000Y-115951000D01*
X136779000Y-117602000D02*
X136017000Y-118364000D01*
X146177000Y-117602000D02*
X136779000Y-117602000D01*
X136017000Y-118364000D02*
X129032000Y-118364000D01*
X147828000Y-115951000D02*
X146177000Y-117602000D01*
X129032000Y-118364000D02*
X127254000Y-116586000D01*
D23*
X107188000Y-79276000D02*
X107978000Y-78486000D01*
X107188000Y-82804000D02*
X107188000Y-79276000D01*
D25*
X107188000Y-82804000D02*
X107188000Y-86106000D01*
D23*
X117856000Y-79276000D02*
X118646000Y-78486000D01*
X117856000Y-82804000D02*
X117856000Y-79276000D01*
D25*
X117856000Y-82804000D02*
X117856000Y-86106000D01*
D23*
X128524000Y-79276000D02*
X129314000Y-78486000D01*
X128524000Y-82804000D02*
X128524000Y-79276000D01*
D25*
X128524000Y-82804000D02*
X128524000Y-86106000D01*
D23*
X139192000Y-79784000D02*
X140490000Y-78486000D01*
X139192000Y-82804000D02*
X139192000Y-79784000D01*
D25*
X139192000Y-82804000D02*
X139192000Y-86106000D01*
D23*
X149860000Y-79784000D02*
X151158000Y-78486000D01*
X149860000Y-82804000D02*
X149860000Y-79784000D01*
D25*
X149860000Y-82804000D02*
X149860000Y-86106000D01*
D23*
X160528000Y-79276000D02*
X161318000Y-78486000D01*
X160528000Y-82804000D02*
X160528000Y-79276000D01*
D25*
X160528000Y-82804000D02*
X160528000Y-86184500D01*
D23*
X171196000Y-79276000D02*
X171986000Y-78486000D01*
X171196000Y-82804000D02*
X171196000Y-79276000D01*
D25*
X171196000Y-82804000D02*
X171196000Y-86136000D01*
D23*
X181864000Y-79276000D02*
X182654000Y-78486000D01*
X181864000Y-82804000D02*
X181864000Y-79276000D01*
D25*
X181864000Y-82804000D02*
X181864000Y-86263000D01*
D24*
X142566000Y-115134000D02*
X145392000Y-115134000D01*
X139192000Y-111760000D02*
X142566000Y-115134000D01*
D23*
X116713000Y-107823000D02*
X116713000Y-107061000D01*
X116205000Y-106553000D02*
X116205000Y-104569500D01*
X116713000Y-107061000D02*
X116205000Y-106553000D01*
X181864000Y-88725500D02*
X181054500Y-89535000D01*
X181864000Y-88138000D02*
X181864000Y-88725500D01*
X107188000Y-89535000D02*
X107188000Y-87981000D01*
D25*
X117856000Y-87981000D02*
X117856000Y-89535000D01*
D23*
X117856000Y-89535000D02*
X107188000Y-89535000D01*
X128524000Y-87981000D02*
X128524000Y-89535000D01*
X128524000Y-89535000D02*
X117856000Y-89535000D01*
X139192000Y-87981000D02*
X139192000Y-89408000D01*
D25*
X139192000Y-89408000D02*
X139319000Y-89535000D01*
D23*
X139319000Y-89535000D02*
X128524000Y-89535000D01*
X149860000Y-87981000D02*
X149860000Y-89535000D01*
X149860000Y-89535000D02*
X139319000Y-89535000D01*
D25*
X160528000Y-88059500D02*
X160528000Y-89408000D01*
X160528000Y-89408000D02*
X160655000Y-89535000D01*
D23*
X160655000Y-89535000D02*
X149860000Y-89535000D01*
X171196000Y-88598500D02*
X171196000Y-89535000D01*
X171196000Y-88011000D02*
X171196000Y-88598500D01*
X181054500Y-89535000D02*
X171196000Y-89535000D01*
X171196000Y-89535000D02*
X160655000Y-89535000D01*
X116205000Y-102694500D02*
X108409500Y-102694500D01*
X107188000Y-101473000D02*
X107188000Y-89535000D01*
X108409500Y-102694500D02*
X107188000Y-101473000D01*
X118345500Y-102694500D02*
X118521000Y-102870000D01*
X116205000Y-102694500D02*
X118345500Y-102694500D01*
D24*
X164465000Y-119587000D02*
X164512000Y-119634000D01*
X164465000Y-104267000D02*
X164465000Y-119587000D01*
D23*
X184432000Y-82832000D02*
X184404000Y-82804000D01*
X184432000Y-86614000D02*
X184432000Y-82832000D01*
D24*
X138811000Y-108204000D02*
X135001000Y-112014000D01*
X135001000Y-112014000D02*
X135001000Y-116967000D01*
D26*
G36*
X114866928Y-104813250D02*
G01*
X114883872Y-104985285D01*
X114934053Y-105150709D01*
X115015542Y-105303164D01*
X115070001Y-105369522D01*
X115070000Y-106497248D01*
X115064509Y-106553000D01*
X115070000Y-106608751D01*
X115086423Y-106775498D01*
X115151324Y-106989446D01*
X115256716Y-107186623D01*
X115398551Y-107359449D01*
X115441865Y-107394996D01*
X115578000Y-107531131D01*
X115578000Y-107878751D01*
X115594423Y-108045498D01*
X115659324Y-108259446D01*
X115764716Y-108456623D01*
X115906551Y-108629449D01*
X116079377Y-108771284D01*
X116276553Y-108876676D01*
X116490501Y-108941577D01*
X116713000Y-108963491D01*
X116935498Y-108941577D01*
X117149446Y-108876676D01*
X117346623Y-108771284D01*
X117519449Y-108629449D01*
X117661284Y-108456623D01*
X117766676Y-108259447D01*
X117831577Y-108045499D01*
X117848000Y-107878752D01*
X117848000Y-107116741D01*
X117853490Y-107060999D01*
X117848000Y-107005257D01*
X117848000Y-107005249D01*
X117831577Y-106838502D01*
X117766676Y-106624553D01*
X117661284Y-106427377D01*
X117519449Y-106254551D01*
X117476135Y-106219004D01*
X117340000Y-106082869D01*
X117340000Y-105369521D01*
X117394458Y-105303164D01*
X117475947Y-105150709D01*
X117526128Y-104985285D01*
X117543072Y-104813250D01*
X117543072Y-104521000D01*
X163460247Y-104521000D01*
X163469774Y-104568898D01*
X163547795Y-104757256D01*
X163661063Y-104926774D01*
X163705000Y-104970711D01*
X163705001Y-118014551D01*
X163657012Y-118034429D01*
X163361379Y-118231965D01*
X163109965Y-118483379D01*
X162912429Y-118779012D01*
X162776365Y-119107501D01*
X162707000Y-119456223D01*
X162707000Y-119811777D01*
X162776365Y-120160499D01*
X162912429Y-120488988D01*
X163109965Y-120784621D01*
X163331344Y-121006000D01*
X160541381Y-121006000D01*
X160588997Y-120890602D01*
X159512000Y-119813605D01*
X158435003Y-120890602D01*
X158482619Y-121006000D01*
X152762118Y-121006000D01*
X152847808Y-120769413D01*
X151892000Y-119813605D01*
X150936192Y-120769413D01*
X151021882Y-121006000D01*
X146262118Y-121006000D01*
X146347808Y-120769413D01*
X145392000Y-119813605D01*
X144436192Y-120769413D01*
X144521882Y-121006000D01*
X141780219Y-121006000D01*
X141990920Y-120905641D01*
X142224269Y-120731588D01*
X142419178Y-120515355D01*
X142568157Y-120265252D01*
X142665481Y-119990891D01*
X142544814Y-119761000D01*
X141351000Y-119761000D01*
X141351000Y-119781000D01*
X141097000Y-119781000D01*
X141097000Y-119761000D01*
X141077000Y-119761000D01*
X141077000Y-119507000D01*
X141097000Y-119507000D01*
X141097000Y-119487000D01*
X141351000Y-119487000D01*
X141351000Y-119507000D01*
X142544814Y-119507000D01*
X142665481Y-119277109D01*
X142568157Y-119002748D01*
X142419178Y-118752645D01*
X142224269Y-118536412D01*
X142158023Y-118487000D01*
X144216442Y-118487000D01*
X144140917Y-118562525D01*
X144256585Y-118678193D01*
X143992186Y-118773956D01*
X143851296Y-119063571D01*
X143769616Y-119375108D01*
X143750282Y-119696595D01*
X143794039Y-120015675D01*
X143899205Y-120320088D01*
X143992186Y-120494044D01*
X144256587Y-120589808D01*
X145212395Y-119634000D01*
X145571605Y-119634000D01*
X146527413Y-120589808D01*
X146791814Y-120494044D01*
X146932704Y-120204429D01*
X147014384Y-119892892D01*
X147026189Y-119696595D01*
X150250282Y-119696595D01*
X150294039Y-120015675D01*
X150399205Y-120320088D01*
X150492186Y-120494044D01*
X150756587Y-120589808D01*
X151712395Y-119634000D01*
X152071605Y-119634000D01*
X153027413Y-120589808D01*
X153291814Y-120494044D01*
X153432704Y-120204429D01*
X153514384Y-119892892D01*
X153526593Y-119689869D01*
X157699127Y-119689869D01*
X157744861Y-120042470D01*
X157858505Y-120379373D01*
X157973611Y-120594725D01*
X158255398Y-120710997D01*
X159332395Y-119634000D01*
X159691605Y-119634000D01*
X160768602Y-120710997D01*
X161050389Y-120594725D01*
X161208257Y-120276140D01*
X161300938Y-119932878D01*
X161324873Y-119578131D01*
X161279139Y-119225530D01*
X161165495Y-118888627D01*
X161050389Y-118673275D01*
X160768602Y-118557003D01*
X159691605Y-119634000D01*
X159332395Y-119634000D01*
X158255398Y-118557003D01*
X157973611Y-118673275D01*
X157815743Y-118991860D01*
X157723062Y-119335122D01*
X157699127Y-119689869D01*
X153526593Y-119689869D01*
X153533718Y-119571405D01*
X153489961Y-119252325D01*
X153384795Y-118947912D01*
X153291814Y-118773956D01*
X153027413Y-118678192D01*
X152071605Y-119634000D01*
X151712395Y-119634000D01*
X150756587Y-118678192D01*
X150492186Y-118773956D01*
X150351296Y-119063571D01*
X150269616Y-119375108D01*
X150250282Y-119696595D01*
X147026189Y-119696595D01*
X147033718Y-119571405D01*
X146989961Y-119252325D01*
X146884795Y-118947912D01*
X146791814Y-118773956D01*
X146527413Y-118678192D01*
X145571605Y-119634000D01*
X145212395Y-119634000D01*
X145198253Y-119619858D01*
X145377858Y-119440253D01*
X145392000Y-119454395D01*
X146347808Y-118498587D01*
X150936192Y-118498587D01*
X151892000Y-119454395D01*
X152847808Y-118498587D01*
X152803915Y-118377398D01*
X158435003Y-118377398D01*
X159512000Y-119454395D01*
X160588997Y-118377398D01*
X160472725Y-118095611D01*
X160154140Y-117937743D01*
X159810878Y-117845062D01*
X159456131Y-117821127D01*
X159103530Y-117866861D01*
X158766627Y-117980505D01*
X158551275Y-118095611D01*
X158435003Y-118377398D01*
X152803915Y-118377398D01*
X152752044Y-118234186D01*
X152462429Y-118093296D01*
X152150892Y-118011616D01*
X151829405Y-117992282D01*
X151510325Y-118036039D01*
X151205912Y-118141205D01*
X151031956Y-118234186D01*
X150936192Y-118498587D01*
X146347808Y-118498587D01*
X146339370Y-118475290D01*
X146350490Y-118474195D01*
X146517313Y-118423589D01*
X146671059Y-118341411D01*
X146805817Y-118230817D01*
X146833534Y-118197044D01*
X148423049Y-116607530D01*
X148456817Y-116579817D01*
X148567411Y-116445059D01*
X148589364Y-116403987D01*
X148649589Y-116291314D01*
X148700195Y-116124490D01*
X148703401Y-116091941D01*
X148713000Y-115994477D01*
X148713000Y-115994469D01*
X148717281Y-115951000D01*
X148713000Y-115907531D01*
X148713000Y-114972967D01*
X150257000Y-114972967D01*
X150257000Y-115295033D01*
X150319832Y-115610912D01*
X150443082Y-115908463D01*
X150622013Y-116176252D01*
X150849748Y-116403987D01*
X151117537Y-116582918D01*
X151415088Y-116706168D01*
X151730967Y-116769000D01*
X152053033Y-116769000D01*
X152368912Y-116706168D01*
X152666463Y-116582918D01*
X152934252Y-116403987D01*
X153161987Y-116176252D01*
X153340918Y-115908463D01*
X153464168Y-115610912D01*
X153527000Y-115295033D01*
X153527000Y-114972967D01*
X153464168Y-114657088D01*
X153340918Y-114359537D01*
X153161987Y-114091748D01*
X152934252Y-113864013D01*
X152666463Y-113685082D01*
X152368912Y-113561832D01*
X152053033Y-113499000D01*
X151730967Y-113499000D01*
X151415088Y-113561832D01*
X151117537Y-113685082D01*
X150849748Y-113864013D01*
X150622013Y-114091748D01*
X150443082Y-114359537D01*
X150319832Y-114657088D01*
X150257000Y-114972967D01*
X148713000Y-114972967D01*
X148713000Y-112192759D01*
X148883134Y-112053134D01*
X149068706Y-111827014D01*
X149206599Y-111569034D01*
X149291513Y-111289111D01*
X149320185Y-110998000D01*
X149291513Y-110706889D01*
X149206599Y-110426966D01*
X149068706Y-110168986D01*
X148883134Y-109942866D01*
X148853313Y-109918393D01*
X148922180Y-109897502D01*
X149032494Y-109838537D01*
X149129185Y-109759185D01*
X149208537Y-109662494D01*
X149267502Y-109552180D01*
X149303812Y-109432482D01*
X149316072Y-109308000D01*
X149316072Y-107608000D01*
X149303812Y-107483518D01*
X149267502Y-107363820D01*
X149208537Y-107253506D01*
X149129185Y-107156815D01*
X149032494Y-107077463D01*
X148922180Y-107018498D01*
X148802482Y-106982188D01*
X148678000Y-106969928D01*
X146978000Y-106969928D01*
X146853518Y-106982188D01*
X146733820Y-107018498D01*
X146623506Y-107077463D01*
X146526815Y-107156815D01*
X146447463Y-107253506D01*
X146388498Y-107363820D01*
X146367607Y-107432687D01*
X146343134Y-107402866D01*
X146117014Y-107217294D01*
X145859034Y-107079401D01*
X145579111Y-106994487D01*
X145360950Y-106973000D01*
X145215050Y-106973000D01*
X144996889Y-106994487D01*
X144716966Y-107079401D01*
X144458986Y-107217294D01*
X144232866Y-107402866D01*
X144047294Y-107628986D01*
X144018000Y-107683791D01*
X143988706Y-107628986D01*
X143803134Y-107402866D01*
X143577014Y-107217294D01*
X143319034Y-107079401D01*
X143039111Y-106994487D01*
X142820950Y-106973000D01*
X142675050Y-106973000D01*
X142456889Y-106994487D01*
X142176966Y-107079401D01*
X141918986Y-107217294D01*
X141692866Y-107402866D01*
X141507294Y-107628986D01*
X141369401Y-107886966D01*
X141284487Y-108166889D01*
X141255815Y-108458000D01*
X141284487Y-108749111D01*
X141369401Y-109029034D01*
X141507294Y-109287014D01*
X141692866Y-109513134D01*
X141918986Y-109698706D01*
X141976756Y-109729584D01*
X141747731Y-109900412D01*
X141552822Y-110116645D01*
X141403843Y-110366748D01*
X141306519Y-110641109D01*
X141427186Y-110871000D01*
X142621000Y-110871000D01*
X142621000Y-110851000D01*
X142875000Y-110851000D01*
X142875000Y-110871000D01*
X142895000Y-110871000D01*
X142895000Y-111125000D01*
X142875000Y-111125000D01*
X142875000Y-112318155D01*
X143104890Y-112439476D01*
X143252099Y-112394825D01*
X143514920Y-112269641D01*
X143748269Y-112095588D01*
X143943178Y-111879355D01*
X144012799Y-111762477D01*
X144047294Y-111827014D01*
X144232866Y-112053134D01*
X144458986Y-112238706D01*
X144716966Y-112376599D01*
X144996889Y-112461513D01*
X145215050Y-112483000D01*
X145360950Y-112483000D01*
X145579111Y-112461513D01*
X145859034Y-112376599D01*
X146117014Y-112238706D01*
X146343134Y-112053134D01*
X146528706Y-111827014D01*
X146558000Y-111772209D01*
X146587294Y-111827014D01*
X146772866Y-112053134D01*
X146943000Y-112192760D01*
X146943001Y-114605986D01*
X146840918Y-114359537D01*
X146661987Y-114091748D01*
X146434252Y-113864013D01*
X146166463Y-113685082D01*
X145868912Y-113561832D01*
X145553033Y-113499000D01*
X145230967Y-113499000D01*
X144915088Y-113561832D01*
X144617537Y-113685082D01*
X144349748Y-113864013D01*
X144122013Y-114091748D01*
X143943082Y-114359537D01*
X143937091Y-114374000D01*
X142880802Y-114374000D01*
X140227000Y-111720199D01*
X140227000Y-111658061D01*
X140187226Y-111458102D01*
X140144475Y-111354891D01*
X141306519Y-111354891D01*
X141403843Y-111629252D01*
X141552822Y-111879355D01*
X141747731Y-112095588D01*
X141981080Y-112269641D01*
X142243901Y-112394825D01*
X142391110Y-112439476D01*
X142621000Y-112318155D01*
X142621000Y-111125000D01*
X141427186Y-111125000D01*
X141306519Y-111354891D01*
X140144475Y-111354891D01*
X140109205Y-111269744D01*
X139995937Y-111100226D01*
X139851774Y-110956063D01*
X139682256Y-110842795D01*
X139493898Y-110764774D01*
X139293939Y-110725000D01*
X139090061Y-110725000D01*
X138890102Y-110764774D01*
X138701744Y-110842795D01*
X138532226Y-110956063D01*
X138388063Y-111100226D01*
X138274795Y-111269744D01*
X138196774Y-111458102D01*
X138157000Y-111658061D01*
X138157000Y-111861939D01*
X138196774Y-112061898D01*
X138274795Y-112250256D01*
X138388063Y-112419774D01*
X138532226Y-112563937D01*
X138701744Y-112677205D01*
X138890102Y-112755226D01*
X139090061Y-112795000D01*
X139152199Y-112795000D01*
X142002201Y-115645003D01*
X142025999Y-115674001D01*
X142054997Y-115697799D01*
X142141724Y-115768974D01*
X142273753Y-115839546D01*
X142417014Y-115883003D01*
X142566000Y-115897677D01*
X142603333Y-115894000D01*
X143937091Y-115894000D01*
X143943082Y-115908463D01*
X144122013Y-116176252D01*
X144349748Y-116403987D01*
X144617537Y-116582918D01*
X144915088Y-116706168D01*
X144969544Y-116717000D01*
X136822469Y-116717000D01*
X136779000Y-116712719D01*
X136735531Y-116717000D01*
X136735523Y-116717000D01*
X136605510Y-116729805D01*
X136438687Y-116780411D01*
X136403322Y-116799314D01*
X136284941Y-116862589D01*
X136183953Y-116945468D01*
X136183951Y-116945470D01*
X136150183Y-116973183D01*
X136122470Y-117006951D01*
X136029921Y-117099500D01*
X136036000Y-117068939D01*
X136036000Y-116865061D01*
X135996226Y-116665102D01*
X135918205Y-116476744D01*
X135804937Y-116307226D01*
X135761000Y-116263289D01*
X135761000Y-112328801D01*
X138850802Y-109239000D01*
X138912939Y-109239000D01*
X139112898Y-109199226D01*
X139301256Y-109121205D01*
X139470774Y-109007937D01*
X139614937Y-108863774D01*
X139728205Y-108694256D01*
X139806226Y-108505898D01*
X139846000Y-108305939D01*
X139846000Y-108102061D01*
X139806226Y-107902102D01*
X139728205Y-107713744D01*
X139614937Y-107544226D01*
X139470774Y-107400063D01*
X139301256Y-107286795D01*
X139112898Y-107208774D01*
X138912939Y-107169000D01*
X138709061Y-107169000D01*
X138509102Y-107208774D01*
X138320744Y-107286795D01*
X138151226Y-107400063D01*
X138007063Y-107544226D01*
X137893795Y-107713744D01*
X137815774Y-107902102D01*
X137776000Y-108102061D01*
X137776000Y-108164198D01*
X134490003Y-111450196D01*
X134460999Y-111473999D01*
X134411590Y-111534205D01*
X134366026Y-111589724D01*
X134344898Y-111629252D01*
X134295454Y-111721754D01*
X134251997Y-111865015D01*
X134241000Y-111976668D01*
X134241000Y-111976678D01*
X134237324Y-112014000D01*
X134241000Y-112051323D01*
X134241001Y-116263288D01*
X134197063Y-116307226D01*
X134083795Y-116476744D01*
X134005774Y-116665102D01*
X133966000Y-116865061D01*
X133966000Y-117068939D01*
X134005774Y-117268898D01*
X134083795Y-117457256D01*
X134098324Y-117479000D01*
X129398579Y-117479000D01*
X127910534Y-115990956D01*
X127882817Y-115957183D01*
X127748059Y-115846589D01*
X127594313Y-115764411D01*
X127427490Y-115713805D01*
X127297477Y-115701000D01*
X127297469Y-115701000D01*
X127254000Y-115696719D01*
X127210531Y-115701000D01*
X125889701Y-115701000D01*
X125885812Y-115661518D01*
X125849502Y-115541820D01*
X125790537Y-115431506D01*
X125711185Y-115334815D01*
X125614494Y-115255463D01*
X125504180Y-115196498D01*
X125384482Y-115160188D01*
X125260000Y-115147928D01*
X123660000Y-115147928D01*
X123535518Y-115160188D01*
X123415820Y-115196498D01*
X123305506Y-115255463D01*
X123208815Y-115334815D01*
X123129463Y-115431506D01*
X123070498Y-115541820D01*
X123034188Y-115661518D01*
X123021928Y-115786000D01*
X123021928Y-117386000D01*
X123034188Y-117510482D01*
X123070498Y-117630180D01*
X123129463Y-117740494D01*
X123208815Y-117837185D01*
X123305506Y-117916537D01*
X123415820Y-117975502D01*
X123535518Y-118011812D01*
X123660000Y-118024072D01*
X123667215Y-118024072D01*
X123646903Y-118093298D01*
X124460000Y-118906395D01*
X125273097Y-118093298D01*
X125252785Y-118024072D01*
X125260000Y-118024072D01*
X125384482Y-118011812D01*
X125504180Y-117975502D01*
X125614494Y-117916537D01*
X125711185Y-117837185D01*
X125790537Y-117740494D01*
X125849502Y-117630180D01*
X125885812Y-117510482D01*
X125889701Y-117471000D01*
X126887422Y-117471000D01*
X128375470Y-118959049D01*
X128403183Y-118992817D01*
X128436951Y-119020530D01*
X128436953Y-119020532D01*
X128469203Y-119046999D01*
X128537941Y-119103411D01*
X128691687Y-119185589D01*
X128858510Y-119236195D01*
X128988523Y-119249000D01*
X128988531Y-119249000D01*
X129032000Y-119253281D01*
X129075469Y-119249000D01*
X135973531Y-119249000D01*
X136017000Y-119253281D01*
X136060469Y-119249000D01*
X136060477Y-119249000D01*
X136190490Y-119236195D01*
X136357313Y-119185589D01*
X136511059Y-119103411D01*
X136645817Y-118992817D01*
X136673534Y-118959044D01*
X137145579Y-118487000D01*
X137272731Y-118487000D01*
X137244498Y-118539820D01*
X137208188Y-118659518D01*
X137195928Y-118784000D01*
X137195928Y-120484000D01*
X137208188Y-120608482D01*
X137244498Y-120728180D01*
X137303463Y-120838494D01*
X137382815Y-120935185D01*
X137469104Y-121006000D01*
X106724761Y-121006000D01*
X106803252Y-120978157D01*
X107053355Y-120829178D01*
X107269588Y-120634269D01*
X107443641Y-120400920D01*
X107568825Y-120138099D01*
X107586841Y-120078702D01*
X110946903Y-120078702D01*
X111018486Y-120322671D01*
X111273996Y-120443571D01*
X111548184Y-120512300D01*
X111830512Y-120526217D01*
X112110130Y-120484787D01*
X112376292Y-120389603D01*
X112501514Y-120322671D01*
X112573097Y-120078702D01*
X123646903Y-120078702D01*
X123718486Y-120322671D01*
X123973996Y-120443571D01*
X124248184Y-120512300D01*
X124530512Y-120526217D01*
X124810130Y-120484787D01*
X125076292Y-120389603D01*
X125201514Y-120322671D01*
X125273097Y-120078702D01*
X124460000Y-119265605D01*
X123646903Y-120078702D01*
X112573097Y-120078702D01*
X111760000Y-119265605D01*
X110946903Y-120078702D01*
X107586841Y-120078702D01*
X107613476Y-119990890D01*
X107492155Y-119761000D01*
X106299000Y-119761000D01*
X106299000Y-119781000D01*
X106045000Y-119781000D01*
X106045000Y-119761000D01*
X106025000Y-119761000D01*
X106025000Y-119507000D01*
X106045000Y-119507000D01*
X106045000Y-119487000D01*
X106299000Y-119487000D01*
X106299000Y-119507000D01*
X107492155Y-119507000D01*
X107613476Y-119277110D01*
X107576897Y-119156512D01*
X110319783Y-119156512D01*
X110361213Y-119436130D01*
X110456397Y-119702292D01*
X110523329Y-119827514D01*
X110767298Y-119899097D01*
X111580395Y-119086000D01*
X111939605Y-119086000D01*
X112752702Y-119899097D01*
X112996671Y-119827514D01*
X113117571Y-119572004D01*
X113186300Y-119297816D01*
X113193265Y-119156512D01*
X123019783Y-119156512D01*
X123061213Y-119436130D01*
X123156397Y-119702292D01*
X123223329Y-119827514D01*
X123467298Y-119899097D01*
X124280395Y-119086000D01*
X124639605Y-119086000D01*
X125452702Y-119899097D01*
X125696671Y-119827514D01*
X125817571Y-119572004D01*
X125886300Y-119297816D01*
X125900217Y-119015488D01*
X125858787Y-118735870D01*
X125763603Y-118469708D01*
X125696671Y-118344486D01*
X125452702Y-118272903D01*
X124639605Y-119086000D01*
X124280395Y-119086000D01*
X123467298Y-118272903D01*
X123223329Y-118344486D01*
X123102429Y-118599996D01*
X123033700Y-118874184D01*
X123019783Y-119156512D01*
X113193265Y-119156512D01*
X113200217Y-119015488D01*
X113158787Y-118735870D01*
X113063603Y-118469708D01*
X112996671Y-118344486D01*
X112752702Y-118272903D01*
X111939605Y-119086000D01*
X111580395Y-119086000D01*
X110767298Y-118272903D01*
X110523329Y-118344486D01*
X110402429Y-118599996D01*
X110333700Y-118874184D01*
X110319783Y-119156512D01*
X107576897Y-119156512D01*
X107568825Y-119129901D01*
X107443641Y-118867080D01*
X107269588Y-118633731D01*
X107185534Y-118557966D01*
X107266180Y-118533502D01*
X107376494Y-118474537D01*
X107473185Y-118395185D01*
X107552537Y-118298494D01*
X107611502Y-118188180D01*
X107647812Y-118068482D01*
X107660072Y-117944000D01*
X107660072Y-116244000D01*
X107647812Y-116119518D01*
X107611502Y-115999820D01*
X107552537Y-115889506D01*
X107473185Y-115792815D01*
X107464881Y-115786000D01*
X110321928Y-115786000D01*
X110321928Y-117386000D01*
X110334188Y-117510482D01*
X110370498Y-117630180D01*
X110429463Y-117740494D01*
X110508815Y-117837185D01*
X110605506Y-117916537D01*
X110715820Y-117975502D01*
X110835518Y-118011812D01*
X110960000Y-118024072D01*
X110967215Y-118024072D01*
X110946903Y-118093298D01*
X111760000Y-118906395D01*
X112573097Y-118093298D01*
X112552785Y-118024072D01*
X112560000Y-118024072D01*
X112684482Y-118011812D01*
X112804180Y-117975502D01*
X112914494Y-117916537D01*
X113011185Y-117837185D01*
X113090537Y-117740494D01*
X113149502Y-117630180D01*
X113185812Y-117510482D01*
X113198072Y-117386000D01*
X113198072Y-115786000D01*
X113185812Y-115661518D01*
X113149502Y-115541820D01*
X113090537Y-115431506D01*
X113011185Y-115334815D01*
X112914494Y-115255463D01*
X112804180Y-115196498D01*
X112684482Y-115160188D01*
X112560000Y-115147928D01*
X110960000Y-115147928D01*
X110835518Y-115160188D01*
X110715820Y-115196498D01*
X110605506Y-115255463D01*
X110508815Y-115334815D01*
X110429463Y-115431506D01*
X110370498Y-115541820D01*
X110334188Y-115661518D01*
X110321928Y-115786000D01*
X107464881Y-115786000D01*
X107376494Y-115713463D01*
X107266180Y-115654498D01*
X107146482Y-115618188D01*
X107022000Y-115605928D01*
X105322000Y-115605928D01*
X105197518Y-115618188D01*
X105077820Y-115654498D01*
X104967506Y-115713463D01*
X104870815Y-115792815D01*
X104800000Y-115879104D01*
X104800000Y-110706000D01*
X110321928Y-110706000D01*
X110321928Y-112306000D01*
X110334188Y-112430482D01*
X110370498Y-112550180D01*
X110429463Y-112660494D01*
X110508815Y-112757185D01*
X110605506Y-112836537D01*
X110715820Y-112895502D01*
X110835518Y-112931812D01*
X110960000Y-112944072D01*
X112560000Y-112944072D01*
X112684482Y-112931812D01*
X112804180Y-112895502D01*
X112914494Y-112836537D01*
X113011185Y-112757185D01*
X113079402Y-112674061D01*
X126981000Y-112674061D01*
X126981000Y-112877939D01*
X127020774Y-113077898D01*
X127098795Y-113266256D01*
X127212063Y-113435774D01*
X127356226Y-113579937D01*
X127525744Y-113693205D01*
X127714102Y-113771226D01*
X127914061Y-113811000D01*
X128117939Y-113811000D01*
X128317898Y-113771226D01*
X128506256Y-113693205D01*
X128675774Y-113579937D01*
X128819937Y-113435774D01*
X128933205Y-113266256D01*
X128988827Y-113131974D01*
X130468802Y-111652000D01*
X130530939Y-111652000D01*
X130730898Y-111612226D01*
X130919256Y-111534205D01*
X131088774Y-111420937D01*
X131232937Y-111276774D01*
X131346205Y-111107256D01*
X131424226Y-110918898D01*
X131464000Y-110718939D01*
X131464000Y-110515061D01*
X131424226Y-110315102D01*
X131346205Y-110126744D01*
X131232937Y-109957226D01*
X131088774Y-109813063D01*
X130919256Y-109699795D01*
X130730898Y-109621774D01*
X130530939Y-109582000D01*
X130327061Y-109582000D01*
X130127102Y-109621774D01*
X129938744Y-109699795D01*
X129769226Y-109813063D01*
X129625063Y-109957226D01*
X129511795Y-110126744D01*
X129433774Y-110315102D01*
X129394000Y-110515061D01*
X129394000Y-110577198D01*
X128211574Y-111759625D01*
X128117939Y-111741000D01*
X127914061Y-111741000D01*
X127714102Y-111780774D01*
X127525744Y-111858795D01*
X127356226Y-111972063D01*
X127212063Y-112116226D01*
X127098795Y-112285744D01*
X127020774Y-112474102D01*
X126981000Y-112674061D01*
X113079402Y-112674061D01*
X113090537Y-112660494D01*
X113149502Y-112550180D01*
X113185812Y-112430482D01*
X113198072Y-112306000D01*
X113198072Y-110706000D01*
X113185812Y-110581518D01*
X113149502Y-110461820D01*
X113090537Y-110351506D01*
X113011185Y-110254815D01*
X112914494Y-110175463D01*
X112804180Y-110116498D01*
X112684482Y-110080188D01*
X112560000Y-110067928D01*
X110960000Y-110067928D01*
X110835518Y-110080188D01*
X110715820Y-110116498D01*
X110605506Y-110175463D01*
X110508815Y-110254815D01*
X110429463Y-110351506D01*
X110370498Y-110461820D01*
X110334188Y-110581518D01*
X110321928Y-110706000D01*
X104800000Y-110706000D01*
X104800000Y-108998702D01*
X110946903Y-108998702D01*
X111018486Y-109242671D01*
X111273996Y-109363571D01*
X111548184Y-109432300D01*
X111830512Y-109446217D01*
X112110130Y-109404787D01*
X112376292Y-109309603D01*
X112501514Y-109242671D01*
X112573097Y-108998702D01*
X111760000Y-108185605D01*
X110946903Y-108998702D01*
X104800000Y-108998702D01*
X104800000Y-108076512D01*
X110319783Y-108076512D01*
X110361213Y-108356130D01*
X110456397Y-108622292D01*
X110523329Y-108747514D01*
X110767298Y-108819097D01*
X111580395Y-108006000D01*
X111939605Y-108006000D01*
X112752702Y-108819097D01*
X112996671Y-108747514D01*
X113117571Y-108492004D01*
X113186300Y-108217816D01*
X113200217Y-107935488D01*
X113158787Y-107655870D01*
X113063603Y-107389708D01*
X112996671Y-107264486D01*
X112752702Y-107192903D01*
X111939605Y-108006000D01*
X111580395Y-108006000D01*
X110767298Y-107192903D01*
X110523329Y-107264486D01*
X110402429Y-107519996D01*
X110333700Y-107794184D01*
X110319783Y-108076512D01*
X104800000Y-108076512D01*
X104800000Y-107013298D01*
X110946903Y-107013298D01*
X111760000Y-107826395D01*
X112573097Y-107013298D01*
X112501514Y-106769329D01*
X112246004Y-106648429D01*
X111971816Y-106579700D01*
X111689488Y-106565783D01*
X111409870Y-106607213D01*
X111143708Y-106702397D01*
X111018486Y-106769329D01*
X110946903Y-107013298D01*
X104800000Y-107013298D01*
X104800000Y-104521000D01*
X114866928Y-104521000D01*
X114866928Y-104813250D01*
X114866928Y-104813250D01*
G37*
X114866928Y-104813250D02*
X114883872Y-104985285D01*
X114934053Y-105150709D01*
X115015542Y-105303164D01*
X115070001Y-105369522D01*
X115070000Y-106497248D01*
X115064509Y-106553000D01*
X115070000Y-106608751D01*
X115086423Y-106775498D01*
X115151324Y-106989446D01*
X115256716Y-107186623D01*
X115398551Y-107359449D01*
X115441865Y-107394996D01*
X115578000Y-107531131D01*
X115578000Y-107878751D01*
X115594423Y-108045498D01*
X115659324Y-108259446D01*
X115764716Y-108456623D01*
X115906551Y-108629449D01*
X116079377Y-108771284D01*
X116276553Y-108876676D01*
X116490501Y-108941577D01*
X116713000Y-108963491D01*
X116935498Y-108941577D01*
X117149446Y-108876676D01*
X117346623Y-108771284D01*
X117519449Y-108629449D01*
X117661284Y-108456623D01*
X117766676Y-108259447D01*
X117831577Y-108045499D01*
X117848000Y-107878752D01*
X117848000Y-107116741D01*
X117853490Y-107060999D01*
X117848000Y-107005257D01*
X117848000Y-107005249D01*
X117831577Y-106838502D01*
X117766676Y-106624553D01*
X117661284Y-106427377D01*
X117519449Y-106254551D01*
X117476135Y-106219004D01*
X117340000Y-106082869D01*
X117340000Y-105369521D01*
X117394458Y-105303164D01*
X117475947Y-105150709D01*
X117526128Y-104985285D01*
X117543072Y-104813250D01*
X117543072Y-104521000D01*
X163460247Y-104521000D01*
X163469774Y-104568898D01*
X163547795Y-104757256D01*
X163661063Y-104926774D01*
X163705000Y-104970711D01*
X163705001Y-118014551D01*
X163657012Y-118034429D01*
X163361379Y-118231965D01*
X163109965Y-118483379D01*
X162912429Y-118779012D01*
X162776365Y-119107501D01*
X162707000Y-119456223D01*
X162707000Y-119811777D01*
X162776365Y-120160499D01*
X162912429Y-120488988D01*
X163109965Y-120784621D01*
X163331344Y-121006000D01*
X160541381Y-121006000D01*
X160588997Y-120890602D01*
X159512000Y-119813605D01*
X158435003Y-120890602D01*
X158482619Y-121006000D01*
X152762118Y-121006000D01*
X152847808Y-120769413D01*
X151892000Y-119813605D01*
X150936192Y-120769413D01*
X151021882Y-121006000D01*
X146262118Y-121006000D01*
X146347808Y-120769413D01*
X145392000Y-119813605D01*
X144436192Y-120769413D01*
X144521882Y-121006000D01*
X141780219Y-121006000D01*
X141990920Y-120905641D01*
X142224269Y-120731588D01*
X142419178Y-120515355D01*
X142568157Y-120265252D01*
X142665481Y-119990891D01*
X142544814Y-119761000D01*
X141351000Y-119761000D01*
X141351000Y-119781000D01*
X141097000Y-119781000D01*
X141097000Y-119761000D01*
X141077000Y-119761000D01*
X141077000Y-119507000D01*
X141097000Y-119507000D01*
X141097000Y-119487000D01*
X141351000Y-119487000D01*
X141351000Y-119507000D01*
X142544814Y-119507000D01*
X142665481Y-119277109D01*
X142568157Y-119002748D01*
X142419178Y-118752645D01*
X142224269Y-118536412D01*
X142158023Y-118487000D01*
X144216442Y-118487000D01*
X144140917Y-118562525D01*
X144256585Y-118678193D01*
X143992186Y-118773956D01*
X143851296Y-119063571D01*
X143769616Y-119375108D01*
X143750282Y-119696595D01*
X143794039Y-120015675D01*
X143899205Y-120320088D01*
X143992186Y-120494044D01*
X144256587Y-120589808D01*
X145212395Y-119634000D01*
X145571605Y-119634000D01*
X146527413Y-120589808D01*
X146791814Y-120494044D01*
X146932704Y-120204429D01*
X147014384Y-119892892D01*
X147026189Y-119696595D01*
X150250282Y-119696595D01*
X150294039Y-120015675D01*
X150399205Y-120320088D01*
X150492186Y-120494044D01*
X150756587Y-120589808D01*
X151712395Y-119634000D01*
X152071605Y-119634000D01*
X153027413Y-120589808D01*
X153291814Y-120494044D01*
X153432704Y-120204429D01*
X153514384Y-119892892D01*
X153526593Y-119689869D01*
X157699127Y-119689869D01*
X157744861Y-120042470D01*
X157858505Y-120379373D01*
X157973611Y-120594725D01*
X158255398Y-120710997D01*
X159332395Y-119634000D01*
X159691605Y-119634000D01*
X160768602Y-120710997D01*
X161050389Y-120594725D01*
X161208257Y-120276140D01*
X161300938Y-119932878D01*
X161324873Y-119578131D01*
X161279139Y-119225530D01*
X161165495Y-118888627D01*
X161050389Y-118673275D01*
X160768602Y-118557003D01*
X159691605Y-119634000D01*
X159332395Y-119634000D01*
X158255398Y-118557003D01*
X157973611Y-118673275D01*
X157815743Y-118991860D01*
X157723062Y-119335122D01*
X157699127Y-119689869D01*
X153526593Y-119689869D01*
X153533718Y-119571405D01*
X153489961Y-119252325D01*
X153384795Y-118947912D01*
X153291814Y-118773956D01*
X153027413Y-118678192D01*
X152071605Y-119634000D01*
X151712395Y-119634000D01*
X150756587Y-118678192D01*
X150492186Y-118773956D01*
X150351296Y-119063571D01*
X150269616Y-119375108D01*
X150250282Y-119696595D01*
X147026189Y-119696595D01*
X147033718Y-119571405D01*
X146989961Y-119252325D01*
X146884795Y-118947912D01*
X146791814Y-118773956D01*
X146527413Y-118678192D01*
X145571605Y-119634000D01*
X145212395Y-119634000D01*
X145198253Y-119619858D01*
X145377858Y-119440253D01*
X145392000Y-119454395D01*
X146347808Y-118498587D01*
X150936192Y-118498587D01*
X151892000Y-119454395D01*
X152847808Y-118498587D01*
X152803915Y-118377398D01*
X158435003Y-118377398D01*
X159512000Y-119454395D01*
X160588997Y-118377398D01*
X160472725Y-118095611D01*
X160154140Y-117937743D01*
X159810878Y-117845062D01*
X159456131Y-117821127D01*
X159103530Y-117866861D01*
X158766627Y-117980505D01*
X158551275Y-118095611D01*
X158435003Y-118377398D01*
X152803915Y-118377398D01*
X152752044Y-118234186D01*
X152462429Y-118093296D01*
X152150892Y-118011616D01*
X151829405Y-117992282D01*
X151510325Y-118036039D01*
X151205912Y-118141205D01*
X151031956Y-118234186D01*
X150936192Y-118498587D01*
X146347808Y-118498587D01*
X146339370Y-118475290D01*
X146350490Y-118474195D01*
X146517313Y-118423589D01*
X146671059Y-118341411D01*
X146805817Y-118230817D01*
X146833534Y-118197044D01*
X148423049Y-116607530D01*
X148456817Y-116579817D01*
X148567411Y-116445059D01*
X148589364Y-116403987D01*
X148649589Y-116291314D01*
X148700195Y-116124490D01*
X148703401Y-116091941D01*
X148713000Y-115994477D01*
X148713000Y-115994469D01*
X148717281Y-115951000D01*
X148713000Y-115907531D01*
X148713000Y-114972967D01*
X150257000Y-114972967D01*
X150257000Y-115295033D01*
X150319832Y-115610912D01*
X150443082Y-115908463D01*
X150622013Y-116176252D01*
X150849748Y-116403987D01*
X151117537Y-116582918D01*
X151415088Y-116706168D01*
X151730967Y-116769000D01*
X152053033Y-116769000D01*
X152368912Y-116706168D01*
X152666463Y-116582918D01*
X152934252Y-116403987D01*
X153161987Y-116176252D01*
X153340918Y-115908463D01*
X153464168Y-115610912D01*
X153527000Y-115295033D01*
X153527000Y-114972967D01*
X153464168Y-114657088D01*
X153340918Y-114359537D01*
X153161987Y-114091748D01*
X152934252Y-113864013D01*
X152666463Y-113685082D01*
X152368912Y-113561832D01*
X152053033Y-113499000D01*
X151730967Y-113499000D01*
X151415088Y-113561832D01*
X151117537Y-113685082D01*
X150849748Y-113864013D01*
X150622013Y-114091748D01*
X150443082Y-114359537D01*
X150319832Y-114657088D01*
X150257000Y-114972967D01*
X148713000Y-114972967D01*
X148713000Y-112192759D01*
X148883134Y-112053134D01*
X149068706Y-111827014D01*
X149206599Y-111569034D01*
X149291513Y-111289111D01*
X149320185Y-110998000D01*
X149291513Y-110706889D01*
X149206599Y-110426966D01*
X149068706Y-110168986D01*
X148883134Y-109942866D01*
X148853313Y-109918393D01*
X148922180Y-109897502D01*
X149032494Y-109838537D01*
X149129185Y-109759185D01*
X149208537Y-109662494D01*
X149267502Y-109552180D01*
X149303812Y-109432482D01*
X149316072Y-109308000D01*
X149316072Y-107608000D01*
X149303812Y-107483518D01*
X149267502Y-107363820D01*
X149208537Y-107253506D01*
X149129185Y-107156815D01*
X149032494Y-107077463D01*
X148922180Y-107018498D01*
X148802482Y-106982188D01*
X148678000Y-106969928D01*
X146978000Y-106969928D01*
X146853518Y-106982188D01*
X146733820Y-107018498D01*
X146623506Y-107077463D01*
X146526815Y-107156815D01*
X146447463Y-107253506D01*
X146388498Y-107363820D01*
X146367607Y-107432687D01*
X146343134Y-107402866D01*
X146117014Y-107217294D01*
X145859034Y-107079401D01*
X145579111Y-106994487D01*
X145360950Y-106973000D01*
X145215050Y-106973000D01*
X144996889Y-106994487D01*
X144716966Y-107079401D01*
X144458986Y-107217294D01*
X144232866Y-107402866D01*
X144047294Y-107628986D01*
X144018000Y-107683791D01*
X143988706Y-107628986D01*
X143803134Y-107402866D01*
X143577014Y-107217294D01*
X143319034Y-107079401D01*
X143039111Y-106994487D01*
X142820950Y-106973000D01*
X142675050Y-106973000D01*
X142456889Y-106994487D01*
X142176966Y-107079401D01*
X141918986Y-107217294D01*
X141692866Y-107402866D01*
X141507294Y-107628986D01*
X141369401Y-107886966D01*
X141284487Y-108166889D01*
X141255815Y-108458000D01*
X141284487Y-108749111D01*
X141369401Y-109029034D01*
X141507294Y-109287014D01*
X141692866Y-109513134D01*
X141918986Y-109698706D01*
X141976756Y-109729584D01*
X141747731Y-109900412D01*
X141552822Y-110116645D01*
X141403843Y-110366748D01*
X141306519Y-110641109D01*
X141427186Y-110871000D01*
X142621000Y-110871000D01*
X142621000Y-110851000D01*
X142875000Y-110851000D01*
X142875000Y-110871000D01*
X142895000Y-110871000D01*
X142895000Y-111125000D01*
X142875000Y-111125000D01*
X142875000Y-112318155D01*
X143104890Y-112439476D01*
X143252099Y-112394825D01*
X143514920Y-112269641D01*
X143748269Y-112095588D01*
X143943178Y-111879355D01*
X144012799Y-111762477D01*
X144047294Y-111827014D01*
X144232866Y-112053134D01*
X144458986Y-112238706D01*
X144716966Y-112376599D01*
X144996889Y-112461513D01*
X145215050Y-112483000D01*
X145360950Y-112483000D01*
X145579111Y-112461513D01*
X145859034Y-112376599D01*
X146117014Y-112238706D01*
X146343134Y-112053134D01*
X146528706Y-111827014D01*
X146558000Y-111772209D01*
X146587294Y-111827014D01*
X146772866Y-112053134D01*
X146943000Y-112192760D01*
X146943001Y-114605986D01*
X146840918Y-114359537D01*
X146661987Y-114091748D01*
X146434252Y-113864013D01*
X146166463Y-113685082D01*
X145868912Y-113561832D01*
X145553033Y-113499000D01*
X145230967Y-113499000D01*
X144915088Y-113561832D01*
X144617537Y-113685082D01*
X144349748Y-113864013D01*
X144122013Y-114091748D01*
X143943082Y-114359537D01*
X143937091Y-114374000D01*
X142880802Y-114374000D01*
X140227000Y-111720199D01*
X140227000Y-111658061D01*
X140187226Y-111458102D01*
X140144475Y-111354891D01*
X141306519Y-111354891D01*
X141403843Y-111629252D01*
X141552822Y-111879355D01*
X141747731Y-112095588D01*
X141981080Y-112269641D01*
X142243901Y-112394825D01*
X142391110Y-112439476D01*
X142621000Y-112318155D01*
X142621000Y-111125000D01*
X141427186Y-111125000D01*
X141306519Y-111354891D01*
X140144475Y-111354891D01*
X140109205Y-111269744D01*
X139995937Y-111100226D01*
X139851774Y-110956063D01*
X139682256Y-110842795D01*
X139493898Y-110764774D01*
X139293939Y-110725000D01*
X139090061Y-110725000D01*
X138890102Y-110764774D01*
X138701744Y-110842795D01*
X138532226Y-110956063D01*
X138388063Y-111100226D01*
X138274795Y-111269744D01*
X138196774Y-111458102D01*
X138157000Y-111658061D01*
X138157000Y-111861939D01*
X138196774Y-112061898D01*
X138274795Y-112250256D01*
X138388063Y-112419774D01*
X138532226Y-112563937D01*
X138701744Y-112677205D01*
X138890102Y-112755226D01*
X139090061Y-112795000D01*
X139152199Y-112795000D01*
X142002201Y-115645003D01*
X142025999Y-115674001D01*
X142054997Y-115697799D01*
X142141724Y-115768974D01*
X142273753Y-115839546D01*
X142417014Y-115883003D01*
X142566000Y-115897677D01*
X142603333Y-115894000D01*
X143937091Y-115894000D01*
X143943082Y-115908463D01*
X144122013Y-116176252D01*
X144349748Y-116403987D01*
X144617537Y-116582918D01*
X144915088Y-116706168D01*
X144969544Y-116717000D01*
X136822469Y-116717000D01*
X136779000Y-116712719D01*
X136735531Y-116717000D01*
X136735523Y-116717000D01*
X136605510Y-116729805D01*
X136438687Y-116780411D01*
X136403322Y-116799314D01*
X136284941Y-116862589D01*
X136183953Y-116945468D01*
X136183951Y-116945470D01*
X136150183Y-116973183D01*
X136122470Y-117006951D01*
X136029921Y-117099500D01*
X136036000Y-117068939D01*
X136036000Y-116865061D01*
X135996226Y-116665102D01*
X135918205Y-116476744D01*
X135804937Y-116307226D01*
X135761000Y-116263289D01*
X135761000Y-112328801D01*
X138850802Y-109239000D01*
X138912939Y-109239000D01*
X139112898Y-109199226D01*
X139301256Y-109121205D01*
X139470774Y-109007937D01*
X139614937Y-108863774D01*
X139728205Y-108694256D01*
X139806226Y-108505898D01*
X139846000Y-108305939D01*
X139846000Y-108102061D01*
X139806226Y-107902102D01*
X139728205Y-107713744D01*
X139614937Y-107544226D01*
X139470774Y-107400063D01*
X139301256Y-107286795D01*
X139112898Y-107208774D01*
X138912939Y-107169000D01*
X138709061Y-107169000D01*
X138509102Y-107208774D01*
X138320744Y-107286795D01*
X138151226Y-107400063D01*
X138007063Y-107544226D01*
X137893795Y-107713744D01*
X137815774Y-107902102D01*
X137776000Y-108102061D01*
X137776000Y-108164198D01*
X134490003Y-111450196D01*
X134460999Y-111473999D01*
X134411590Y-111534205D01*
X134366026Y-111589724D01*
X134344898Y-111629252D01*
X134295454Y-111721754D01*
X134251997Y-111865015D01*
X134241000Y-111976668D01*
X134241000Y-111976678D01*
X134237324Y-112014000D01*
X134241000Y-112051323D01*
X134241001Y-116263288D01*
X134197063Y-116307226D01*
X134083795Y-116476744D01*
X134005774Y-116665102D01*
X133966000Y-116865061D01*
X133966000Y-117068939D01*
X134005774Y-117268898D01*
X134083795Y-117457256D01*
X134098324Y-117479000D01*
X129398579Y-117479000D01*
X127910534Y-115990956D01*
X127882817Y-115957183D01*
X127748059Y-115846589D01*
X127594313Y-115764411D01*
X127427490Y-115713805D01*
X127297477Y-115701000D01*
X127297469Y-115701000D01*
X127254000Y-115696719D01*
X127210531Y-115701000D01*
X125889701Y-115701000D01*
X125885812Y-115661518D01*
X125849502Y-115541820D01*
X125790537Y-115431506D01*
X125711185Y-115334815D01*
X125614494Y-115255463D01*
X125504180Y-115196498D01*
X125384482Y-115160188D01*
X125260000Y-115147928D01*
X123660000Y-115147928D01*
X123535518Y-115160188D01*
X123415820Y-115196498D01*
X123305506Y-115255463D01*
X123208815Y-115334815D01*
X123129463Y-115431506D01*
X123070498Y-115541820D01*
X123034188Y-115661518D01*
X123021928Y-115786000D01*
X123021928Y-117386000D01*
X123034188Y-117510482D01*
X123070498Y-117630180D01*
X123129463Y-117740494D01*
X123208815Y-117837185D01*
X123305506Y-117916537D01*
X123415820Y-117975502D01*
X123535518Y-118011812D01*
X123660000Y-118024072D01*
X123667215Y-118024072D01*
X123646903Y-118093298D01*
X124460000Y-118906395D01*
X125273097Y-118093298D01*
X125252785Y-118024072D01*
X125260000Y-118024072D01*
X125384482Y-118011812D01*
X125504180Y-117975502D01*
X125614494Y-117916537D01*
X125711185Y-117837185D01*
X125790537Y-117740494D01*
X125849502Y-117630180D01*
X125885812Y-117510482D01*
X125889701Y-117471000D01*
X126887422Y-117471000D01*
X128375470Y-118959049D01*
X128403183Y-118992817D01*
X128436951Y-119020530D01*
X128436953Y-119020532D01*
X128469203Y-119046999D01*
X128537941Y-119103411D01*
X128691687Y-119185589D01*
X128858510Y-119236195D01*
X128988523Y-119249000D01*
X128988531Y-119249000D01*
X129032000Y-119253281D01*
X129075469Y-119249000D01*
X135973531Y-119249000D01*
X136017000Y-119253281D01*
X136060469Y-119249000D01*
X136060477Y-119249000D01*
X136190490Y-119236195D01*
X136357313Y-119185589D01*
X136511059Y-119103411D01*
X136645817Y-118992817D01*
X136673534Y-118959044D01*
X137145579Y-118487000D01*
X137272731Y-118487000D01*
X137244498Y-118539820D01*
X137208188Y-118659518D01*
X137195928Y-118784000D01*
X137195928Y-120484000D01*
X137208188Y-120608482D01*
X137244498Y-120728180D01*
X137303463Y-120838494D01*
X137382815Y-120935185D01*
X137469104Y-121006000D01*
X106724761Y-121006000D01*
X106803252Y-120978157D01*
X107053355Y-120829178D01*
X107269588Y-120634269D01*
X107443641Y-120400920D01*
X107568825Y-120138099D01*
X107586841Y-120078702D01*
X110946903Y-120078702D01*
X111018486Y-120322671D01*
X111273996Y-120443571D01*
X111548184Y-120512300D01*
X111830512Y-120526217D01*
X112110130Y-120484787D01*
X112376292Y-120389603D01*
X112501514Y-120322671D01*
X112573097Y-120078702D01*
X123646903Y-120078702D01*
X123718486Y-120322671D01*
X123973996Y-120443571D01*
X124248184Y-120512300D01*
X124530512Y-120526217D01*
X124810130Y-120484787D01*
X125076292Y-120389603D01*
X125201514Y-120322671D01*
X125273097Y-120078702D01*
X124460000Y-119265605D01*
X123646903Y-120078702D01*
X112573097Y-120078702D01*
X111760000Y-119265605D01*
X110946903Y-120078702D01*
X107586841Y-120078702D01*
X107613476Y-119990890D01*
X107492155Y-119761000D01*
X106299000Y-119761000D01*
X106299000Y-119781000D01*
X106045000Y-119781000D01*
X106045000Y-119761000D01*
X106025000Y-119761000D01*
X106025000Y-119507000D01*
X106045000Y-119507000D01*
X106045000Y-119487000D01*
X106299000Y-119487000D01*
X106299000Y-119507000D01*
X107492155Y-119507000D01*
X107613476Y-119277110D01*
X107576897Y-119156512D01*
X110319783Y-119156512D01*
X110361213Y-119436130D01*
X110456397Y-119702292D01*
X110523329Y-119827514D01*
X110767298Y-119899097D01*
X111580395Y-119086000D01*
X111939605Y-119086000D01*
X112752702Y-119899097D01*
X112996671Y-119827514D01*
X113117571Y-119572004D01*
X113186300Y-119297816D01*
X113193265Y-119156512D01*
X123019783Y-119156512D01*
X123061213Y-119436130D01*
X123156397Y-119702292D01*
X123223329Y-119827514D01*
X123467298Y-119899097D01*
X124280395Y-119086000D01*
X124639605Y-119086000D01*
X125452702Y-119899097D01*
X125696671Y-119827514D01*
X125817571Y-119572004D01*
X125886300Y-119297816D01*
X125900217Y-119015488D01*
X125858787Y-118735870D01*
X125763603Y-118469708D01*
X125696671Y-118344486D01*
X125452702Y-118272903D01*
X124639605Y-119086000D01*
X124280395Y-119086000D01*
X123467298Y-118272903D01*
X123223329Y-118344486D01*
X123102429Y-118599996D01*
X123033700Y-118874184D01*
X123019783Y-119156512D01*
X113193265Y-119156512D01*
X113200217Y-119015488D01*
X113158787Y-118735870D01*
X113063603Y-118469708D01*
X112996671Y-118344486D01*
X112752702Y-118272903D01*
X111939605Y-119086000D01*
X111580395Y-119086000D01*
X110767298Y-118272903D01*
X110523329Y-118344486D01*
X110402429Y-118599996D01*
X110333700Y-118874184D01*
X110319783Y-119156512D01*
X107576897Y-119156512D01*
X107568825Y-119129901D01*
X107443641Y-118867080D01*
X107269588Y-118633731D01*
X107185534Y-118557966D01*
X107266180Y-118533502D01*
X107376494Y-118474537D01*
X107473185Y-118395185D01*
X107552537Y-118298494D01*
X107611502Y-118188180D01*
X107647812Y-118068482D01*
X107660072Y-117944000D01*
X107660072Y-116244000D01*
X107647812Y-116119518D01*
X107611502Y-115999820D01*
X107552537Y-115889506D01*
X107473185Y-115792815D01*
X107464881Y-115786000D01*
X110321928Y-115786000D01*
X110321928Y-117386000D01*
X110334188Y-117510482D01*
X110370498Y-117630180D01*
X110429463Y-117740494D01*
X110508815Y-117837185D01*
X110605506Y-117916537D01*
X110715820Y-117975502D01*
X110835518Y-118011812D01*
X110960000Y-118024072D01*
X110967215Y-118024072D01*
X110946903Y-118093298D01*
X111760000Y-118906395D01*
X112573097Y-118093298D01*
X112552785Y-118024072D01*
X112560000Y-118024072D01*
X112684482Y-118011812D01*
X112804180Y-117975502D01*
X112914494Y-117916537D01*
X113011185Y-117837185D01*
X113090537Y-117740494D01*
X113149502Y-117630180D01*
X113185812Y-117510482D01*
X113198072Y-117386000D01*
X113198072Y-115786000D01*
X113185812Y-115661518D01*
X113149502Y-115541820D01*
X113090537Y-115431506D01*
X113011185Y-115334815D01*
X112914494Y-115255463D01*
X112804180Y-115196498D01*
X112684482Y-115160188D01*
X112560000Y-115147928D01*
X110960000Y-115147928D01*
X110835518Y-115160188D01*
X110715820Y-115196498D01*
X110605506Y-115255463D01*
X110508815Y-115334815D01*
X110429463Y-115431506D01*
X110370498Y-115541820D01*
X110334188Y-115661518D01*
X110321928Y-115786000D01*
X107464881Y-115786000D01*
X107376494Y-115713463D01*
X107266180Y-115654498D01*
X107146482Y-115618188D01*
X107022000Y-115605928D01*
X105322000Y-115605928D01*
X105197518Y-115618188D01*
X105077820Y-115654498D01*
X104967506Y-115713463D01*
X104870815Y-115792815D01*
X104800000Y-115879104D01*
X104800000Y-110706000D01*
X110321928Y-110706000D01*
X110321928Y-112306000D01*
X110334188Y-112430482D01*
X110370498Y-112550180D01*
X110429463Y-112660494D01*
X110508815Y-112757185D01*
X110605506Y-112836537D01*
X110715820Y-112895502D01*
X110835518Y-112931812D01*
X110960000Y-112944072D01*
X112560000Y-112944072D01*
X112684482Y-112931812D01*
X112804180Y-112895502D01*
X112914494Y-112836537D01*
X113011185Y-112757185D01*
X113079402Y-112674061D01*
X126981000Y-112674061D01*
X126981000Y-112877939D01*
X127020774Y-113077898D01*
X127098795Y-113266256D01*
X127212063Y-113435774D01*
X127356226Y-113579937D01*
X127525744Y-113693205D01*
X127714102Y-113771226D01*
X127914061Y-113811000D01*
X128117939Y-113811000D01*
X128317898Y-113771226D01*
X128506256Y-113693205D01*
X128675774Y-113579937D01*
X128819937Y-113435774D01*
X128933205Y-113266256D01*
X128988827Y-113131974D01*
X130468802Y-111652000D01*
X130530939Y-111652000D01*
X130730898Y-111612226D01*
X130919256Y-111534205D01*
X131088774Y-111420937D01*
X131232937Y-111276774D01*
X131346205Y-111107256D01*
X131424226Y-110918898D01*
X131464000Y-110718939D01*
X131464000Y-110515061D01*
X131424226Y-110315102D01*
X131346205Y-110126744D01*
X131232937Y-109957226D01*
X131088774Y-109813063D01*
X130919256Y-109699795D01*
X130730898Y-109621774D01*
X130530939Y-109582000D01*
X130327061Y-109582000D01*
X130127102Y-109621774D01*
X129938744Y-109699795D01*
X129769226Y-109813063D01*
X129625063Y-109957226D01*
X129511795Y-110126744D01*
X129433774Y-110315102D01*
X129394000Y-110515061D01*
X129394000Y-110577198D01*
X128211574Y-111759625D01*
X128117939Y-111741000D01*
X127914061Y-111741000D01*
X127714102Y-111780774D01*
X127525744Y-111858795D01*
X127356226Y-111972063D01*
X127212063Y-112116226D01*
X127098795Y-112285744D01*
X127020774Y-112474102D01*
X126981000Y-112674061D01*
X113079402Y-112674061D01*
X113090537Y-112660494D01*
X113149502Y-112550180D01*
X113185812Y-112430482D01*
X113198072Y-112306000D01*
X113198072Y-110706000D01*
X113185812Y-110581518D01*
X113149502Y-110461820D01*
X113090537Y-110351506D01*
X113011185Y-110254815D01*
X112914494Y-110175463D01*
X112804180Y-110116498D01*
X112684482Y-110080188D01*
X112560000Y-110067928D01*
X110960000Y-110067928D01*
X110835518Y-110080188D01*
X110715820Y-110116498D01*
X110605506Y-110175463D01*
X110508815Y-110254815D01*
X110429463Y-110351506D01*
X110370498Y-110461820D01*
X110334188Y-110581518D01*
X110321928Y-110706000D01*
X104800000Y-110706000D01*
X104800000Y-108998702D01*
X110946903Y-108998702D01*
X111018486Y-109242671D01*
X111273996Y-109363571D01*
X111548184Y-109432300D01*
X111830512Y-109446217D01*
X112110130Y-109404787D01*
X112376292Y-109309603D01*
X112501514Y-109242671D01*
X112573097Y-108998702D01*
X111760000Y-108185605D01*
X110946903Y-108998702D01*
X104800000Y-108998702D01*
X104800000Y-108076512D01*
X110319783Y-108076512D01*
X110361213Y-108356130D01*
X110456397Y-108622292D01*
X110523329Y-108747514D01*
X110767298Y-108819097D01*
X111580395Y-108006000D01*
X111939605Y-108006000D01*
X112752702Y-108819097D01*
X112996671Y-108747514D01*
X113117571Y-108492004D01*
X113186300Y-108217816D01*
X113200217Y-107935488D01*
X113158787Y-107655870D01*
X113063603Y-107389708D01*
X112996671Y-107264486D01*
X112752702Y-107192903D01*
X111939605Y-108006000D01*
X111580395Y-108006000D01*
X110767298Y-107192903D01*
X110523329Y-107264486D01*
X110402429Y-107519996D01*
X110333700Y-107794184D01*
X110319783Y-108076512D01*
X104800000Y-108076512D01*
X104800000Y-107013298D01*
X110946903Y-107013298D01*
X111760000Y-107826395D01*
X112573097Y-107013298D01*
X112501514Y-106769329D01*
X112246004Y-106648429D01*
X111971816Y-106579700D01*
X111689488Y-106565783D01*
X111409870Y-106607213D01*
X111143708Y-106702397D01*
X111018486Y-106769329D01*
X110946903Y-107013298D01*
X104800000Y-107013298D01*
X104800000Y-104521000D01*
X114866928Y-104521000D01*
X114866928Y-104813250D01*
G36*
X184533323Y-119142902D02*
G01*
X184471000Y-119456223D01*
X184471000Y-119811777D01*
X184540365Y-120160499D01*
X184676429Y-120488988D01*
X184873965Y-120784621D01*
X185095344Y-121006000D01*
X182456656Y-121006000D01*
X182678035Y-120784621D01*
X182875571Y-120488988D01*
X183011635Y-120160499D01*
X183081000Y-119811777D01*
X183081000Y-119456223D01*
X183011635Y-119107501D01*
X182875571Y-118779012D01*
X182678035Y-118483379D01*
X182426621Y-118231965D01*
X182130988Y-118034429D01*
X181802499Y-117898365D01*
X181453777Y-117829000D01*
X181098223Y-117829000D01*
X180749501Y-117898365D01*
X180421012Y-118034429D01*
X180125379Y-118231965D01*
X179873965Y-118483379D01*
X179676429Y-118779012D01*
X179540365Y-119107501D01*
X179471000Y-119456223D01*
X179471000Y-119811777D01*
X179540365Y-120160499D01*
X179676429Y-120488988D01*
X179873965Y-120784621D01*
X180095344Y-121006000D01*
X177305381Y-121006000D01*
X177352997Y-120890602D01*
X176276000Y-119813605D01*
X175199003Y-120890602D01*
X175246619Y-121006000D01*
X170692656Y-121006000D01*
X170914035Y-120784621D01*
X171111571Y-120488988D01*
X171247635Y-120160499D01*
X171317000Y-119811777D01*
X171317000Y-119689869D01*
X174463127Y-119689869D01*
X174508861Y-120042470D01*
X174622505Y-120379373D01*
X174737611Y-120594725D01*
X175019398Y-120710997D01*
X176096395Y-119634000D01*
X176455605Y-119634000D01*
X177532602Y-120710997D01*
X177814389Y-120594725D01*
X177972257Y-120276140D01*
X178064938Y-119932878D01*
X178088873Y-119578131D01*
X178043139Y-119225530D01*
X177929495Y-118888627D01*
X177814389Y-118673275D01*
X177532602Y-118557003D01*
X176455605Y-119634000D01*
X176096395Y-119634000D01*
X175019398Y-118557003D01*
X174737611Y-118673275D01*
X174579743Y-118991860D01*
X174487062Y-119335122D01*
X174463127Y-119689869D01*
X171317000Y-119689869D01*
X171317000Y-119456223D01*
X171254677Y-119142902D01*
X172020181Y-118377398D01*
X175199003Y-118377398D01*
X176276000Y-119454395D01*
X177352997Y-118377398D01*
X177236725Y-118095611D01*
X176918140Y-117937743D01*
X176574878Y-117845062D01*
X176220131Y-117821127D01*
X175867530Y-117866861D01*
X175530627Y-117980505D01*
X175315275Y-118095611D01*
X175199003Y-118377398D01*
X172020181Y-118377398D01*
X173053579Y-117344000D01*
X182734422Y-117344000D01*
X184533323Y-119142902D01*
X184533323Y-119142902D01*
G37*
X184533323Y-119142902D02*
X184471000Y-119456223D01*
X184471000Y-119811777D01*
X184540365Y-120160499D01*
X184676429Y-120488988D01*
X184873965Y-120784621D01*
X185095344Y-121006000D01*
X182456656Y-121006000D01*
X182678035Y-120784621D01*
X182875571Y-120488988D01*
X183011635Y-120160499D01*
X183081000Y-119811777D01*
X183081000Y-119456223D01*
X183011635Y-119107501D01*
X182875571Y-118779012D01*
X182678035Y-118483379D01*
X182426621Y-118231965D01*
X182130988Y-118034429D01*
X181802499Y-117898365D01*
X181453777Y-117829000D01*
X181098223Y-117829000D01*
X180749501Y-117898365D01*
X180421012Y-118034429D01*
X180125379Y-118231965D01*
X179873965Y-118483379D01*
X179676429Y-118779012D01*
X179540365Y-119107501D01*
X179471000Y-119456223D01*
X179471000Y-119811777D01*
X179540365Y-120160499D01*
X179676429Y-120488988D01*
X179873965Y-120784621D01*
X180095344Y-121006000D01*
X177305381Y-121006000D01*
X177352997Y-120890602D01*
X176276000Y-119813605D01*
X175199003Y-120890602D01*
X175246619Y-121006000D01*
X170692656Y-121006000D01*
X170914035Y-120784621D01*
X171111571Y-120488988D01*
X171247635Y-120160499D01*
X171317000Y-119811777D01*
X171317000Y-119689869D01*
X174463127Y-119689869D01*
X174508861Y-120042470D01*
X174622505Y-120379373D01*
X174737611Y-120594725D01*
X175019398Y-120710997D01*
X176096395Y-119634000D01*
X176455605Y-119634000D01*
X177532602Y-120710997D01*
X177814389Y-120594725D01*
X177972257Y-120276140D01*
X178064938Y-119932878D01*
X178088873Y-119578131D01*
X178043139Y-119225530D01*
X177929495Y-118888627D01*
X177814389Y-118673275D01*
X177532602Y-118557003D01*
X176455605Y-119634000D01*
X176096395Y-119634000D01*
X175019398Y-118557003D01*
X174737611Y-118673275D01*
X174579743Y-118991860D01*
X174487062Y-119335122D01*
X174463127Y-119689869D01*
X171317000Y-119689869D01*
X171317000Y-119456223D01*
X171254677Y-119142902D01*
X172020181Y-118377398D01*
X175199003Y-118377398D01*
X176276000Y-119454395D01*
X177352997Y-118377398D01*
X177236725Y-118095611D01*
X176918140Y-117937743D01*
X176574878Y-117845062D01*
X176220131Y-117821127D01*
X175867530Y-117866861D01*
X175530627Y-117980505D01*
X175315275Y-118095611D01*
X175199003Y-118377398D01*
X172020181Y-118377398D01*
X173053579Y-117344000D01*
X182734422Y-117344000D01*
X184533323Y-119142902D01*
G36*
X189332001Y-121006000D02*
G01*
X187456656Y-121006000D01*
X187678035Y-120784621D01*
X187875571Y-120488988D01*
X188011635Y-120160499D01*
X188081000Y-119811777D01*
X188081000Y-119456223D01*
X188011635Y-119107501D01*
X187875571Y-118779012D01*
X187678035Y-118483379D01*
X187426621Y-118231965D01*
X187130988Y-118034429D01*
X186802499Y-117898365D01*
X186453777Y-117829000D01*
X186098223Y-117829000D01*
X185784902Y-117891323D01*
X183757534Y-115863956D01*
X183729817Y-115830183D01*
X183595059Y-115719589D01*
X183441313Y-115637411D01*
X183274490Y-115586805D01*
X183144477Y-115574000D01*
X183144469Y-115574000D01*
X183101000Y-115569719D01*
X183057531Y-115574000D01*
X172730466Y-115574000D01*
X172686999Y-115569719D01*
X172643533Y-115574000D01*
X172643523Y-115574000D01*
X172513510Y-115586805D01*
X172346687Y-115637411D01*
X172192941Y-115719589D01*
X172192939Y-115719590D01*
X172192940Y-115719590D01*
X172091953Y-115802468D01*
X172091951Y-115802470D01*
X172058183Y-115830183D01*
X172030470Y-115863951D01*
X170003098Y-117891323D01*
X169689777Y-117829000D01*
X169334223Y-117829000D01*
X168985501Y-117898365D01*
X168657012Y-118034429D01*
X168361379Y-118231965D01*
X168109965Y-118483379D01*
X167912429Y-118779012D01*
X167776365Y-119107501D01*
X167707000Y-119456223D01*
X167707000Y-119811777D01*
X167776365Y-120160499D01*
X167912429Y-120488988D01*
X168109965Y-120784621D01*
X168331344Y-121006000D01*
X165692656Y-121006000D01*
X165914035Y-120784621D01*
X166111571Y-120488988D01*
X166247635Y-120160499D01*
X166317000Y-119811777D01*
X166317000Y-119456223D01*
X166247635Y-119107501D01*
X166111571Y-118779012D01*
X165914035Y-118483379D01*
X165662621Y-118231965D01*
X165366988Y-118034429D01*
X165225000Y-117975616D01*
X165225000Y-104970711D01*
X165268937Y-104926774D01*
X165382205Y-104757256D01*
X165460226Y-104568898D01*
X165469753Y-104521000D01*
X189332001Y-104521000D01*
X189332001Y-121006000D01*
X189332001Y-121006000D01*
G37*
X189332001Y-121006000D02*
X187456656Y-121006000D01*
X187678035Y-120784621D01*
X187875571Y-120488988D01*
X188011635Y-120160499D01*
X188081000Y-119811777D01*
X188081000Y-119456223D01*
X188011635Y-119107501D01*
X187875571Y-118779012D01*
X187678035Y-118483379D01*
X187426621Y-118231965D01*
X187130988Y-118034429D01*
X186802499Y-117898365D01*
X186453777Y-117829000D01*
X186098223Y-117829000D01*
X185784902Y-117891323D01*
X183757534Y-115863956D01*
X183729817Y-115830183D01*
X183595059Y-115719589D01*
X183441313Y-115637411D01*
X183274490Y-115586805D01*
X183144477Y-115574000D01*
X183144469Y-115574000D01*
X183101000Y-115569719D01*
X183057531Y-115574000D01*
X172730466Y-115574000D01*
X172686999Y-115569719D01*
X172643533Y-115574000D01*
X172643523Y-115574000D01*
X172513510Y-115586805D01*
X172346687Y-115637411D01*
X172192941Y-115719589D01*
X172192939Y-115719590D01*
X172192940Y-115719590D01*
X172091953Y-115802468D01*
X172091951Y-115802470D01*
X172058183Y-115830183D01*
X172030470Y-115863951D01*
X170003098Y-117891323D01*
X169689777Y-117829000D01*
X169334223Y-117829000D01*
X168985501Y-117898365D01*
X168657012Y-118034429D01*
X168361379Y-118231965D01*
X168109965Y-118483379D01*
X167912429Y-118779012D01*
X167776365Y-119107501D01*
X167707000Y-119456223D01*
X167707000Y-119811777D01*
X167776365Y-120160499D01*
X167912429Y-120488988D01*
X168109965Y-120784621D01*
X168331344Y-121006000D01*
X165692656Y-121006000D01*
X165914035Y-120784621D01*
X166111571Y-120488988D01*
X166247635Y-120160499D01*
X166317000Y-119811777D01*
X166317000Y-119456223D01*
X166247635Y-119107501D01*
X166111571Y-118779012D01*
X165914035Y-118483379D01*
X165662621Y-118231965D01*
X165366988Y-118034429D01*
X165225000Y-117975616D01*
X165225000Y-104970711D01*
X165268937Y-104926774D01*
X165382205Y-104757256D01*
X165460226Y-104568898D01*
X165469753Y-104521000D01*
X189332001Y-104521000D01*
X189332001Y-121006000D01*
M02*
